<svg width="35" height="36" viewBox="0 0 35 36" fill="none" xmlns="http://www.w3.org/2000/svg">
<path d="M26.5653 8.84904C31.572 13.8558 31.572 21.9733 26.5653 26.9799C21.5586 31.9867 13.4411 31.9867 8.43436 26.9799C3.42764 21.9732 3.42764 13.8557 8.43436 8.84904C13.4411 3.84231 21.5586 3.84231 26.5653 8.84904" stroke="#78828A" stroke-width="2.13675" stroke-linecap="round" stroke-linejoin="round"/>
<path d="M20.3336 12.6779C21.8985 14.2428 21.8985 16.78 20.3336 18.3448C18.7687 19.9097 16.2316 19.9097 14.6667 18.3448C13.1018 16.78 13.1018 14.2428 14.6667 12.6779C16.2316 11.1131 18.7687 11.1131 20.3336 12.6779" stroke="#78828A" stroke-width="2.13675" stroke-linecap="round" stroke-linejoin="round"/>
<path d="M25.6296 27.8263C23.5854 25.6738 20.7022 24.3248 17.4999 24.3248C14.2977 24.3248 11.4145 25.6738 9.3703 27.8277" stroke="#78828A" stroke-width="2.13675" stroke-linecap="round" stroke-linejoin="round"/>
</svg>
