<svg width="34" height="35" viewBox="0 0 34 35" fill="none" xmlns="http://www.w3.org/2000/svg">
<path d="M19.1317 4.36341C20.2168 5.44855 20.2168 7.20789 19.1316 8.29303C18.0465 9.37816 16.2872 9.37816 15.202 8.29303C14.1169 7.20789 14.1169 5.44855 15.202 4.36341C15.7231 3.84231 16.4299 3.54956 17.1668 3.54956C17.9038 3.54956 18.6106 3.84231 19.1317 4.36341" stroke="#CD9403" stroke-width="2.17" stroke-linecap="round" stroke-linejoin="round"/>
<path d="M8.83105 14.6644L15.2081 8.28735" stroke="#CD9403" stroke-width="2.17" stroke-linecap="round" stroke-linejoin="round"/>
<path d="M19.126 8.28735L25.503 14.6644" stroke="#CD9403" stroke-width="2.17" stroke-linecap="round" stroke-linejoin="round"/>
<path d="M14.7344 24.7369L19.597 19.8743" stroke="#CD9403" stroke-width="2.17" stroke-linecap="round" stroke-linejoin="round"/>
<rect x="4.66309" y="14.6643" width="25.0079" height="15.2826" rx="2" stroke="#CD9403" stroke-width="2.17" stroke-linecap="round" stroke-linejoin="round"/>
<path d="M14.6666 19.666C14.6665 19.7427 14.6043 19.8048 14.5276 19.8048C14.4509 19.8048 14.3888 19.7426 14.3887 19.6659C14.3887 19.5892 14.4508 19.527 14.5275 19.5269C14.5644 19.5269 14.5998 19.5415 14.6259 19.5676C14.652 19.5937 14.6667 19.6291 14.6666 19.666" stroke="#CD9403" stroke-width="2.17" stroke-linecap="round" stroke-linejoin="round"/>
<path d="M19.9459 24.9456C19.9458 25.0223 19.8836 25.0844 19.8069 25.0843C19.7302 25.0843 19.6681 25.0221 19.668 24.9455C19.668 24.8688 19.7301 24.8066 19.8068 24.8065C19.8437 24.8064 19.8791 24.8211 19.9052 24.8472C19.9313 24.8733 19.946 24.9087 19.9459 24.9456" stroke="#CD9403" stroke-width="2.17" stroke-linecap="round" stroke-linejoin="round"/>
</svg>
