<svg width="32" height="32" viewBox="0 0 32 32" fill="none" xmlns="http://www.w3.org/2000/svg">
<circle cx="16" cy="16" r="16" fill="#FEFEFE"/>
<path d="M25.44 15.0499L16.25 24.2399C15.1242 25.3658 13.5972 25.9983 12.005 25.9983C10.4129 25.9983 8.88589 25.3658 7.76005 24.2399C6.6342 23.1141 6.00171 21.5871 6.00171 19.9949C6.00171 18.4027 6.6342 16.8758 7.76005 15.7499L16.95 6.55992C17.7006 5.80936 18.7186 5.3877 19.78 5.3877C20.8415 5.3877 21.8595 5.80936 22.61 6.55992C23.3606 7.31048 23.7823 8.32846 23.7823 9.38992C23.7823 10.4514 23.3606 11.4694 22.61 12.2199L13.41 21.4099C13.0348 21.7852 12.5258 21.996 11.995 21.996C11.4643 21.996 10.9553 21.7852 10.58 21.4099C10.2048 21.0346 9.99393 20.5256 9.99393 19.9949C9.99393 19.4642 10.2048 18.9552 10.58 18.5799L19.07 10.0999" stroke="#75818D" stroke-width="1.5" stroke-linecap="round" stroke-linejoin="round"/>
</svg>
