<svg width="24" height="25" viewBox="0 0 24 25" fill="none" xmlns="http://www.w3.org/2000/svg">
<path d="M20 12.4846C20 12.8643 19.7178 13.1781 19.3518 13.2277L19.25 13.2346L6.066 13.234L10.829 17.9775C11.1225 18.2698 11.1235 18.7446 10.8313 19.0381C10.5656 19.305 10.149 19.3301 9.85489 19.1129L9.77061 19.0404L3.72061 13.0164C3.68192 12.9779 3.64832 12.9362 3.61979 12.8922C3.61174 12.8789 3.60354 12.8654 3.59576 12.8515C3.58861 12.8397 3.58215 12.8274 3.57606 12.8149C3.56759 12.7968 3.55932 12.7781 3.55181 12.759C3.5457 12.7443 3.54061 12.73 3.53596 12.7156C3.53043 12.6977 3.52506 12.6786 3.52045 12.6592C3.51701 12.6457 3.51429 12.6327 3.51192 12.6196C3.50859 12.6002 3.50575 12.5801 3.50372 12.5598C3.50197 12.5442 3.50092 12.5289 3.50034 12.5135C3.50019 12.5041 3.5 12.4944 3.5 12.4846L3.50038 12.4555C3.50095 12.4408 3.50196 12.4261 3.50339 12.4114L3.5 12.4846C3.5 12.4372 3.50438 12.3909 3.51277 12.346C3.51471 12.3353 3.51703 12.3243 3.51959 12.3133C3.52492 12.2908 3.53108 12.269 3.53817 12.2477C3.54165 12.2371 3.5457 12.2258 3.55003 12.2146C3.5588 12.192 3.56833 12.1705 3.5788 12.1495C3.58367 12.1397 3.58912 12.1294 3.59484 12.1192C3.60421 12.1025 3.61386 12.0867 3.62407 12.0712C3.63128 12.0603 3.63925 12.0489 3.64758 12.0378L3.65407 12.0291C3.67428 12.0027 3.6962 11.9777 3.71967 11.9542L3.72057 11.9535L9.77057 5.92853C10.0641 5.63625 10.5389 5.63723 10.8312 5.93073C11.0969 6.19755 11.1203 6.61426 10.9018 6.90742L10.829 6.99139L6.068 11.734L19.25 11.7346C19.6642 11.7346 20 12.0703 20 12.4846Z" fill="#111111"/>
</svg>
