<svg width="25" height="25" viewBox="0 0 25 25" fill="none" xmlns="http://www.w3.org/2000/svg">
<path d="M20.8345 21.2515V5.25146C20.8345 4.1469 19.939 3.25146 18.8345 3.25146H6.83447C5.7299 3.25146 4.83447 4.1469 4.83447 5.25146V21.2515" stroke="#475467" stroke-width="1.5" stroke-linecap="round" stroke-linejoin="round"/>
<path d="M12.8345 3.25146V7.25146" stroke="#475467" stroke-width="1.5" stroke-linecap="round" stroke-linejoin="round"/>
<path fill-rule="evenodd" clip-rule="evenodd" d="M11.8896 7.25146H13.7798C14.6407 7.25146 15.405 7.80232 15.6772 8.619L15.7826 8.93523C15.8843 9.24018 15.8331 9.57541 15.6452 9.83618C15.4572 10.0969 15.1554 10.2515 14.8339 10.2515H10.8355C10.514 10.2515 10.2122 10.0969 10.0242 9.83618C9.83626 9.57541 9.78512 9.24018 9.88677 8.93523L9.99218 8.619C10.2644 7.80232 11.0287 7.25146 11.8896 7.25146Z" stroke="#475467" stroke-width="1.5" stroke-linecap="round" stroke-linejoin="round"/>
<path d="M9.83447 13.2515V13.7515" stroke="#475467" stroke-width="1.5" stroke-linecap="round" stroke-linejoin="round"/>
<path d="M12.8345 13.2515V14.2515" stroke="#475467" stroke-width="1.5" stroke-linecap="round" stroke-linejoin="round"/>
<path d="M15.8345 13.2515V13.7515" stroke="#475467" stroke-width="1.5" stroke-linecap="round" stroke-linejoin="round"/>
<path d="M15.8345 16.2515V17.2515" stroke="#475467" stroke-width="1.5" stroke-linecap="round" stroke-linejoin="round"/>
<path d="M12.8345 16.7515V17.2515" stroke="#475467" stroke-width="1.5" stroke-linecap="round" stroke-linejoin="round"/>
<path d="M9.83447 16.2515V17.2515" stroke="#475467" stroke-width="1.5" stroke-linecap="round" stroke-linejoin="round"/>
<path d="M21.8345 21.2515H3.83447" stroke="#475467" stroke-width="1.5" stroke-linecap="round" stroke-linejoin="round"/>
</svg>
