<svg width="25" height="25" viewBox="0 0 25 25" fill="none" xmlns="http://www.w3.org/2000/svg">
<path fill-rule="evenodd" clip-rule="evenodd" d="M14.9438 9.37158H11.8908C11.2078 9.37158 10.7258 8.70258 10.9418 8.05558V8.05558C11.2768 7.04958 12.2178 6.37158 13.2778 6.37158H13.5558C14.6158 6.37158 15.5568 7.04958 15.8918 8.05558V8.05558C16.1078 8.70258 15.6258 9.37158 14.9438 9.37158V9.37158Z" stroke="#475467" stroke-width="1.5" stroke-linecap="round" stroke-linejoin="round"/>
<path d="M7.40977 13.5144H4.41677C3.80277 13.5144 3.33377 14.0624 3.42877 14.6684L3.77277 16.8684C4.07677 18.8164 5.75377 20.2514 7.72477 20.2514H17.1088C19.0798 20.2514 20.7568 18.8164 21.0608 16.8694L21.4048 14.6694C21.4998 14.0634 21.0308 13.5154 20.4168 13.5154H12.6798" stroke="#475467" stroke-width="1.5" stroke-linecap="round" stroke-linejoin="round"/>
<path d="M13.417 6.37146V6.25146C13.417 4.59446 14.76 3.25146 16.417 3.25146V3.25146C18.074 3.25146 19.417 4.59446 19.417 6.25146V13.5145" stroke="#475467" stroke-width="1.5" stroke-linecap="round" stroke-linejoin="round"/>
<path fill-rule="evenodd" clip-rule="evenodd" d="M10.575 17.5145H9.52199C8.35999 17.5145 7.41699 16.5725 7.41699 15.4095V13.4045C7.41699 12.7675 7.93299 12.2515 8.56999 12.2515H11.527C12.164 12.2515 12.68 12.7675 12.68 13.4045V15.4095C12.68 16.5725 11.738 17.5145 10.575 17.5145Z" stroke="#475467" stroke-width="1.5" stroke-linecap="round" stroke-linejoin="round"/>
<path d="M6.45699 20.0515L5.41699 21.2515" stroke="#475467" stroke-width="1.5" stroke-linecap="round" stroke-linejoin="round"/>
<path d="M19.417 21.2515L18.377 20.0515" stroke="#475467" stroke-width="1.5" stroke-linecap="round" stroke-linejoin="round"/>
</svg>
