<svg width="28" height="29" viewBox="0 0 28 29" fill="none" xmlns="http://www.w3.org/2000/svg">
<path fill-rule="evenodd" clip-rule="evenodd" d="M22.1667 24.5156H5.83333C4.54467 24.5156 3.5 23.471 3.5 22.1823V12.849C3.5 11.5603 4.54467 10.5156 5.83333 10.5156H22.1667C23.4553 10.5156 24.5 11.5603 24.5 12.849V22.1823C24.5 23.471 23.4553 24.5156 22.1667 24.5156Z" stroke="#323232" stroke-width="1.5" stroke-linecap="round" stroke-linejoin="round"/>
<path d="M4.6665 10.8309V9.34896C4.66633 8.73007 4.91211 8.13648 5.34973 7.69885C5.78736 7.26123 6.38095 7.01545 6.99984 7.01563H20.9998C21.6187 7.01545 22.2123 7.26123 22.6499 7.69885C23.0876 8.13648 23.3333 8.73007 23.3332 9.34896V10.8309" stroke="#323232" stroke-width="1.5" stroke-linecap="round" stroke-linejoin="round"/>
<path d="M6.68945 7.01562V5.84896C6.68928 5.23007 6.93506 4.63648 7.37268 4.19885C7.8103 3.76123 8.4039 3.51545 9.02279 3.51563H18.9791C19.598 3.51545 20.1916 3.76123 20.6292 4.19885C21.0668 4.63648 21.3126 5.23007 21.3125 5.84896V7.01562" stroke="#323232" stroke-width="1.5" stroke-linecap="round" stroke-linejoin="round"/>
<path d="M3.5 16.349H24.5" stroke="#323232" stroke-width="1.5" stroke-linecap="round" stroke-linejoin="round"/>
<path d="M12.8392 13.4325L12.8334 13.4383L12.8392 13.4441L12.845 13.4383L12.8392 13.4325" stroke="#323232" stroke-width="1.5" stroke-linecap="round" stroke-linejoin="round"/>
<path d="M7.0057 13.4325L6.99986 13.4383L7.0057 13.4441L7.01153 13.4383L7.0057 13.4325" stroke="#323232" stroke-width="1.5" stroke-linecap="round" stroke-linejoin="round"/>
<path d="M9.92269 13.4325L9.91686 13.4383L9.92269 13.4441L9.92852 13.4383L9.92269 13.4325" stroke="#323232" stroke-width="1.5" stroke-linecap="round" stroke-linejoin="round"/>
</svg>
