<svg width="37" height="12" viewBox="0 0 37 12" fill="none" xmlns="http://www.w3.org/2000/svg">
<rect x="0.436035" y="0.922363" width="36.4929" height="11" rx="5.5" fill="#FBBC1B" fill-opacity="0.9"/>
<path d="M9.69128 7.92236V4.30232H11.217C11.4438 4.30232 11.6398 4.34281 11.805 4.42379C11.9702 4.50154 12.0965 4.61492 12.184 4.76393C12.2715 4.90971 12.3152 5.08301 12.3152 5.28386C12.3152 5.45879 12.2699 5.61914 12.1792 5.76491C12.0917 5.90745 11.954 6.02083 11.7661 6.10505V5.86209C11.9313 5.92688 12.0658 6.00949 12.1694 6.10991C12.2731 6.20709 12.3476 6.31723 12.393 6.44033C12.4415 6.56343 12.4658 6.693 12.4658 6.82906C12.4658 7.1692 12.3541 7.43645 12.1306 7.63082C11.9103 7.82518 11.6074 7.92236 11.2219 7.92236H9.69128ZM10.2647 7.41216H11.2656C11.4568 7.41216 11.609 7.36032 11.7224 7.25666C11.8358 7.14976 11.8925 7.00885 11.8925 6.83392C11.8925 6.65575 11.8358 6.51484 11.7224 6.41118C11.609 6.30427 11.4568 6.25082 11.2656 6.25082H10.2647V7.41216ZM10.2647 5.74548H11.2316C11.3871 5.74548 11.5118 5.70174 11.6058 5.61428C11.6997 5.52358 11.7467 5.40534 11.7467 5.25956C11.7467 5.11379 11.6997 5.00041 11.6058 4.91942C11.5118 4.83844 11.3871 4.79795 11.2316 4.79795H10.2647V5.74548ZM13.8914 7.98067C13.6938 7.98067 13.5205 7.93694 13.3715 7.84948C13.2225 7.75877 13.1059 7.63406 13.0216 7.47532C12.9407 7.31335 12.9002 7.12709 12.9002 6.91652V5.29358H13.4492V6.86793C13.4492 6.98779 13.4735 7.09307 13.5221 7.18378C13.5707 7.27448 13.6388 7.34575 13.7262 7.39758C13.8137 7.44617 13.9141 7.47046 14.0275 7.47046C14.1441 7.47046 14.2461 7.44455 14.3336 7.39272C14.4211 7.34089 14.4891 7.268 14.5377 7.17406C14.5895 7.08011 14.6154 6.96997 14.6154 6.84364V5.29358H15.1597V7.92236H14.6397V7.4073L14.698 7.47532C14.6365 7.63729 14.5344 7.76201 14.3919 7.84948C14.2494 7.93694 14.0826 7.98067 13.8914 7.98067ZM15.7522 7.92236V5.29358H16.3012V7.92236H15.7522ZM15.7522 4.934V4.30232H16.3012V4.934H15.7522ZM16.8946 7.92236V4.24401H17.4437V7.92236H16.8946ZM19.2519 7.98067C18.9992 7.98067 18.7724 7.92074 18.5716 7.80089C18.374 7.67779 18.2169 7.51258 18.1003 7.30525C17.9869 7.09793 17.9302 6.86469 17.9302 6.60554C17.9302 6.34639 17.9885 6.11315 18.1051 5.90583C18.2217 5.6985 18.3789 5.53491 18.5765 5.41505C18.7741 5.2952 18.9976 5.23527 19.247 5.23527C19.4576 5.23527 19.6438 5.27738 19.8058 5.3616C19.9678 5.44583 20.0957 5.56245 20.1897 5.71146L20.1071 5.8378V4.24401H20.6513V7.92236H20.1314V7.38786L20.1945 7.4899C20.1038 7.64863 19.9743 7.77011 19.8058 7.85434C19.6374 7.93856 19.4527 7.98067 19.2519 7.98067ZM19.3053 7.47046C19.4576 7.47046 19.5936 7.43321 19.7135 7.3587C19.8366 7.2842 19.9322 7.18216 20.0002 7.05258C20.0714 6.91976 20.1071 6.77075 20.1071 6.60554C20.1071 6.44033 20.0714 6.29294 20.0002 6.16336C19.9322 6.03378 19.8366 5.93174 19.7135 5.85724C19.5936 5.78273 19.4576 5.74548 19.3053 5.74548C19.1531 5.74548 19.0154 5.78273 18.8923 5.85724C18.7692 5.93174 18.6736 6.03378 18.6056 6.16336C18.5376 6.29294 18.5036 6.44033 18.5036 6.60554C18.5036 6.77075 18.5376 6.91976 18.6056 7.05258C18.6736 7.18216 18.7676 7.2842 18.8874 7.3587C19.0105 7.43321 19.1498 7.47046 19.3053 7.47046ZM21.2437 7.92236V5.29358H21.7928V7.92236H21.2437ZM21.2437 4.934V4.30232H21.7928V4.934H21.2437ZM22.3862 7.92236V5.29358H22.911V5.80864L22.8478 5.74062C22.9126 5.57541 23.0163 5.45069 23.1588 5.36646C23.3013 5.279 23.4665 5.23527 23.6544 5.23527C23.8488 5.23527 24.0205 5.27738 24.1695 5.3616C24.3185 5.44583 24.4351 5.56245 24.5194 5.71146C24.6036 5.86047 24.6457 6.03216 24.6457 6.22653V7.92236H24.1015V6.3723C24.1015 6.23949 24.0772 6.12773 24.0286 6.03702C23.98 5.94308 23.9103 5.87181 23.8196 5.82322C23.7322 5.77139 23.6318 5.74548 23.5184 5.74548C23.405 5.74548 23.303 5.77139 23.2123 5.82322C23.1248 5.87181 23.0568 5.94308 23.0082 6.03702C22.9596 6.13097 22.9353 6.24273 22.9353 6.3723V7.92236H22.3862ZM26.453 8.99137C26.2619 8.99137 26.0853 8.9606 25.9233 8.89905C25.7614 8.8375 25.6221 8.75165 25.5055 8.64151C25.3888 8.53461 25.3014 8.40828 25.2431 8.2625L25.7484 8.05356C25.7938 8.17666 25.8764 8.2787 25.9962 8.35968C26.1193 8.44067 26.27 8.48116 26.4481 8.48116C26.5874 8.48116 26.7121 8.45363 26.8223 8.39856C26.9324 8.34673 27.0199 8.26898 27.0847 8.16532C27.1495 8.0649 27.1819 7.94342 27.1819 7.80089V7.20807L27.279 7.31983C27.1883 7.48828 27.062 7.61624 26.9 7.7037C26.7413 7.79117 26.5615 7.8349 26.3607 7.8349C26.1177 7.8349 25.899 7.77821 25.7047 7.66483C25.5103 7.55145 25.3564 7.39596 25.2431 7.19835C25.1329 7.00075 25.0779 6.77885 25.0779 6.53265C25.0779 6.28322 25.1329 6.06132 25.2431 5.86695C25.3564 5.67259 25.5087 5.51872 25.6998 5.40534C25.8909 5.29196 26.1096 5.23527 26.3558 5.23527C26.5566 5.23527 26.7348 5.279 26.8903 5.36646C27.049 5.45069 27.1786 5.57379 27.279 5.73576L27.2061 5.87181V5.29358H27.7261V7.80089C27.7261 8.02764 27.671 8.23011 27.5609 8.40828C27.454 8.58968 27.305 8.73222 27.1138 8.83588C26.9227 8.93954 26.7024 8.99137 26.453 8.99137ZM26.4238 7.32469C26.5696 7.32469 26.6992 7.29068 26.8126 7.22265C26.9259 7.15138 27.015 7.05744 27.0798 6.94082C27.1478 6.82096 27.1819 6.68653 27.1819 6.53751C27.1819 6.3885 27.1478 6.25406 27.0798 6.13421C27.0118 6.01435 26.9211 5.9204 26.8077 5.85238C26.6943 5.78111 26.5664 5.74548 26.4238 5.74548C26.2748 5.74548 26.142 5.78111 26.0254 5.85238C25.9088 5.9204 25.8164 6.01435 25.7484 6.13421C25.6836 6.25082 25.6512 6.38526 25.6512 6.53751C25.6512 6.68329 25.6836 6.8161 25.7484 6.93596C25.8164 7.05582 25.9088 7.15138 26.0254 7.22265C26.142 7.29068 26.2748 7.32469 26.4238 7.32469Z" fill="#705102"/>
</svg>
