<svg width="25" height="24" viewBox="0 0 25 24" fill="none" xmlns="http://www.w3.org/2000/svg">
<path fill-rule="evenodd" clip-rule="evenodd" d="M16.648 1C17.062 1 17.398 1.336 17.398 1.75L17.3985 2.59781C18.8586 2.69792 20.0712 3.19805 20.9295 4.0581C21.8665 4.9991 22.3595 6.3521 22.3545 7.9751V17.0981C22.3545 20.4301 20.2385 22.5001 16.8335 22.5001H8.37549C4.97049 22.5001 2.85449 20.4011 2.85449 17.0221V7.9731C2.85449 4.83029 4.74155 2.81294 7.81918 2.59815L7.81979 1.75C7.81979 1.336 8.15579 1 8.56979 1C8.98379 1 9.31979 1.336 9.31979 1.75L9.31949 2.579H15.8975L15.898 1.75C15.898 1.336 16.234 1 16.648 1ZM20.8545 9.904H4.35449V17.0221C4.35449 19.5881 5.78249 21.0001 8.37549 21.0001H16.8335C19.4265 21.0001 20.8545 19.6141 20.8545 17.0981L20.8545 9.904ZM17.0557 16.1963C17.4697 16.1963 17.8057 16.5323 17.8057 16.9463C17.8057 17.3603 17.4697 17.6963 17.0557 17.6963C16.6417 17.6963 16.3017 17.3603 16.3017 16.9463C16.3017 16.5323 16.6327 16.1963 17.0467 16.1963H17.0557ZM12.6182 16.1963C13.0322 16.1963 13.3682 16.5323 13.3682 16.9463C13.3682 17.3603 13.0322 17.6963 12.6182 17.6963C12.2042 17.6963 11.8642 17.3603 11.8642 16.9463C11.8642 16.5323 12.1952 16.1963 12.6092 16.1963H12.6182ZM8.17139 16.1963C8.58539 16.1963 8.92139 16.5323 8.92139 16.9463C8.92139 17.3603 8.58539 17.6963 8.17139 17.6963C7.75739 17.6963 7.41639 17.3603 7.41639 16.9463C7.41639 16.5323 7.74839 16.1963 8.16239 16.1963H8.17139ZM17.0557 12.3096C17.4697 12.3096 17.8057 12.6456 17.8057 13.0596C17.8057 13.4736 17.4697 13.8096 17.0557 13.8096C16.6417 13.8096 16.3017 13.4736 16.3017 13.0596C16.3017 12.6456 16.6327 12.3096 17.0467 12.3096H17.0557ZM12.6182 12.3096C13.0322 12.3096 13.3682 12.6456 13.3682 13.0596C13.3682 13.4736 13.0322 13.8096 12.6182 13.8096C12.2042 13.8096 11.8642 13.4736 11.8642 13.0596C11.8642 12.6456 12.1952 12.3096 12.6092 12.3096H12.6182ZM8.17139 12.3096C8.58539 12.3096 8.92139 12.6456 8.92139 13.0596C8.92139 13.4736 8.58539 13.8096 8.17139 13.8096C7.75739 13.8096 7.41639 13.4736 7.41639 13.0596C7.41639 12.6456 7.74839 12.3096 8.16239 12.3096H8.17139ZM15.8975 4.079H9.31949L9.31979 5.041C9.31979 5.455 8.98379 5.791 8.56979 5.791C8.15579 5.791 7.81979 5.455 7.81979 5.041L7.81926 4.1017C5.57903 4.28989 4.35449 5.64786 4.35449 7.9731V8.404H20.8545L20.8545 7.9731C20.8585 6.7381 20.5265 5.7781 19.8675 5.1181C19.289 4.53791 18.4433 4.1914 17.3988 4.10218L17.398 5.041C17.398 5.455 17.062 5.791 16.648 5.791C16.234 5.791 15.898 5.455 15.898 5.041L15.8975 4.079Z" fill="#75818D"/>
</svg>
