<svg width="13" height="13" viewBox="0 0 13 13" fill="none" xmlns="http://www.w3.org/2000/svg">
<path fill-rule="evenodd" clip-rule="evenodd" d="M2.36138 2.74121C2.36246 2.74121 2.33538 2.76938 2.30125 2.80296C2.17017 2.93025 1.8988 3.19513 1.89606 3.74925C1.89175 4.52438 2.40146 5.96359 4.85575 8.41734C7.29867 10.8592 8.73571 11.3748 9.51246 11.3748H9.52384C10.078 11.3721 10.3423 11.1002 10.4701 10.9697C10.5091 10.9296 10.5405 10.9003 10.5628 10.8819C11.1023 10.3392 11.3785 9.93509 11.3758 9.67617C11.372 9.41184 11.0432 9.0993 10.5888 8.66705C10.4441 8.52946 10.287 8.37996 10.1213 8.21421C9.69175 7.78575 9.47888 7.85888 9.01088 8.02355C8.36359 8.2505 7.47525 8.55925 6.09509 7.17855C4.71275 5.7973 5.02204 4.91005 5.24846 4.26275C5.41205 3.79475 5.48679 3.58134 5.05671 3.15125C4.88825 2.98334 4.73713 2.82409 4.59792 2.67784C4.16838 2.22609 3.85855 1.89946 3.59584 1.89567H3.5915C3.33205 1.89567 2.92905 2.173 2.35867 2.74338C2.3603 2.74175 2.36084 2.74121 2.36138 2.74121ZM9.513 12.1873C8.16317 12.1873 6.4033 11.1127 4.28159 8.99205C2.15175 6.86275 1.07546 5.09746 1.08354 3.74492C1.08846 2.85117 1.557 2.39346 1.73305 2.22175C1.74225 2.21038 1.77367 2.1795 1.7845 2.16867C2.56125 1.39138 3.08504 1.07721 3.60613 1.08309C4.21117 1.0913 4.64179 1.54413 5.18671 2.11775C5.32159 2.25967 5.46784 2.41405 5.63088 2.57655C6.42171 3.36738 6.19638 4.0125 6.01546 4.53034C5.8183 5.0953 5.64767 5.5828 6.66925 6.60438C7.69192 7.62596 8.17942 7.45534 8.74221 7.25655C9.26059 7.07563 9.90409 6.84921 10.696 7.64005C10.8563 7.80038 11.0085 7.945 11.1488 8.0788C11.7252 8.62642 12.1802 9.05921 12.1879 9.66588C12.1943 10.1832 11.8801 10.7102 11.1044 11.4864L10.761 11.2535L11.0513 11.5373C10.8796 11.7134 10.4225 12.1825 9.52817 12.1873H9.513Z" fill="#F8F6F6"/>
</svg>
