<svg width="32" height="32" viewBox="0 0 32 32" fill="none" xmlns="http://www.w3.org/2000/svg">
<path fill-rule="evenodd" clip-rule="evenodd" d="M5.80361 6.73698C5.80627 6.73698 5.73971 6.80621 5.65584 6.88874C5.33367 7.20159 4.66672 7.85257 4.65999 9.21444C4.64941 11.1195 5.90212 14.6566 11.934 20.6871C17.9379 26.6884 21.4698 27.9558 23.3788 27.9558H23.4067C24.7686 27.9491 25.4182 27.2808 25.7324 26.96C25.8283 26.8615 25.9055 26.7896 25.9601 26.7443C27.286 25.4104 27.9649 24.4173 27.9583 23.781C27.9489 23.1313 27.1409 22.3632 26.024 21.3009C25.6685 20.9627 25.2825 20.5953 24.8751 20.1879C23.8194 19.1349 23.2962 19.3146 22.146 19.7193C20.5552 20.2771 18.3719 21.0359 14.9799 17.6426C11.5826 14.2479 12.3427 12.0673 12.8992 10.4765C13.3012 9.32626 13.4849 8.80175 12.4279 7.74474C12.0139 7.33205 11.6425 6.94066 11.3003 6.58122C10.2447 5.47096 9.48318 4.66822 8.83752 4.6589H8.82687C8.18921 4.6589 7.19876 5.3405 5.79695 6.74231C5.80094 6.73831 5.80227 6.73698 5.80361 6.73698ZM23.3801 29.9527C20.0626 29.9527 15.7374 27.3115 10.5229 22.0996C5.28841 16.8665 2.64322 12.5279 2.66307 9.20379C2.67517 7.00722 3.8267 5.88232 4.25936 5.46031C4.28199 5.43236 4.3592 5.35647 4.38582 5.32985C6.29484 3.41951 7.58216 2.64738 8.86282 2.66182C10.3498 2.68199 11.4082 3.79492 12.7474 5.20471C13.0789 5.5535 13.4383 5.93291 13.839 6.33228C15.7827 8.27591 15.2289 9.86142 14.7842 11.1341C14.2996 12.5226 13.8803 13.7207 16.391 16.2315C18.9044 18.7422 20.1026 18.3229 21.4857 17.8343C22.7597 17.3896 24.3413 16.8332 26.2875 18.7768C26.6816 19.1709 27.0557 19.5263 27.4005 19.8551C28.8169 21.201 29.9352 22.2647 29.9541 23.7557C29.9698 25.027 29.1977 26.3223 27.2913 28.23L26.4473 27.6576L27.1608 28.3552C26.7388 28.7878 25.6153 29.9407 23.4174 29.9527H23.3801Z" fill="#111111"/>
</svg>
