<svg width="33" height="32" viewBox="0 0 33 32" fill="none" xmlns="http://www.w3.org/2000/svg">
<path d="M20.7908 13.557C22.8668 15.633 22.8668 18.999 20.7908 21.075C18.7148 23.151 15.3489 23.151 13.2728 21.075C11.1968 18.999 11.1968 15.633 13.2728 13.557C15.3489 11.481 18.7148 11.481 20.7908 13.557" stroke="#323232" stroke-width="2" stroke-linecap="round" stroke-linejoin="round"/>
<path fill-rule="evenodd" clip-rule="evenodd" d="M28.9521 12.0002V24.0002C28.9521 25.4735 27.7588 26.6668 26.2855 26.6668H7.61882C6.14548 26.6668 4.95215 25.4735 4.95215 24.0002V12.0002C4.95215 10.5268 6.14548 9.3335 7.61882 9.3335H10.2855L12.2348 5.99483C12.4735 5.5855 12.9121 5.3335 13.3868 5.3335H20.4588C20.9268 5.3335 21.3601 5.57883 21.6015 5.97883L23.6188 9.3335H26.2855C27.7588 9.3335 28.9521 10.5268 28.9521 12.0002Z" stroke="#323232" stroke-width="2" stroke-linecap="round" stroke-linejoin="round"/>
</svg>
