<svg width="327" height="114" viewBox="0 0 327 114" fill="none" xmlns="http://www.w3.org/2000/svg">
<rect width="327" height="113.725" rx="12" fill="url(#paint0_linear_34_8019)"/>
<path d="M46.25 41.3044L51.4645 26.1885H55.0355L60.25 41.3044H57.2471L56.1717 38.0581H50.3282L49.2326 41.3044H46.25ZM51.1195 35.6233H55.3804L52.8645 28.0957H53.6355L51.1195 35.6233ZM61.7091 41.3044V30.2668H64.2047V32.4378L64.0018 32.0523C64.2588 31.3895 64.6782 30.889 65.2598 30.5508C65.855 30.1991 66.5448 30.0233 67.3294 30.0233C68.141 30.0233 68.8579 30.1991 69.4801 30.5508C70.1159 30.9025 70.6096 31.3962 70.9613 32.032C71.313 32.6542 71.4888 33.3779 71.4888 34.203V41.3044H68.8308V34.832C68.8308 34.345 68.7361 33.9257 68.5468 33.574C68.3574 33.2223 68.0936 32.9518 67.7555 32.7624C67.4308 32.5595 67.0453 32.4581 66.5989 32.4581C66.1661 32.4581 65.7806 32.5595 65.4424 32.7624C65.1043 32.9518 64.8405 33.2223 64.6511 33.574C64.4617 33.9257 64.3671 34.345 64.3671 34.832V41.3044H61.7091ZM77.6726 41.5479C76.8204 41.5479 76.0765 41.3585 75.4407 40.9798C74.8185 40.6011 74.3383 40.0735 74.0001 39.3972C73.6755 38.7209 73.5132 37.9296 73.5132 37.0233V30.2668H76.1712V36.8001C76.1712 37.26 76.2591 37.6658 76.4349 38.0175C76.6243 38.3557 76.8881 38.6262 77.2262 38.8291C77.5779 39.0185 77.9702 39.1131 78.403 39.1131C78.8359 39.1131 79.2214 39.0185 79.5596 38.8291C79.8977 38.6262 80.1615 38.3489 80.3509 37.9972C80.5402 37.6455 80.6349 37.2262 80.6349 36.7392V30.2668H83.2929V41.3044H80.777V39.1334L81.0001 39.5189C80.7431 40.1953 80.317 40.7025 79.7219 41.0407C79.1402 41.3788 78.4571 41.5479 77.6726 41.5479ZM85.7637 41.3044V30.2668H88.2593V32.4378L88.0564 32.0523C88.3134 31.3895 88.7327 30.889 89.3144 30.5508C89.9096 30.1991 90.5994 30.0233 91.3839 30.0233C92.1955 30.0233 92.9125 30.1991 93.5347 30.5508C94.1704 30.9025 94.6641 31.3962 95.0158 32.032C95.3675 32.6542 95.5434 33.3779 95.5434 34.203V41.3044H92.8854V34.832C92.8854 34.345 92.7907 33.9257 92.6013 33.574C92.412 33.2223 92.1482 32.9518 91.81 32.7624C91.4854 32.5595 91.0999 32.4581 90.6535 32.4581C90.2207 32.4581 89.8352 32.5595 89.497 32.7624C89.1588 32.9518 88.8951 33.2223 88.7057 33.574C88.5163 33.9257 88.4216 34.345 88.4216 34.832V41.3044H85.7637ZM103.107 41.5479C102.011 41.5479 101.024 41.2977 100.145 40.7972C99.2789 40.2832 98.5958 39.5933 98.0953 38.7276C97.5948 37.8484 97.3446 36.861 97.3446 35.7653C97.3446 34.6697 97.5948 33.689 98.0953 32.8233C98.5958 31.9576 99.2789 31.2745 100.145 30.774C101.024 30.2735 102.011 30.0233 103.107 30.0233C103.891 30.0233 104.622 30.1653 105.298 30.4494C105.975 30.7199 106.556 31.0986 107.043 31.5856C107.544 32.059 107.902 32.6271 108.118 33.29L105.785 34.3044C105.582 33.7499 105.237 33.3035 104.75 32.9653C104.277 32.6271 103.729 32.4581 103.107 32.4581C102.525 32.4581 102.004 32.6001 101.545 32.8842C101.098 33.1682 100.747 33.5605 100.49 34.061C100.232 34.5614 100.104 35.1363 100.104 35.7856C100.104 36.4349 100.232 37.0098 100.49 37.5102C100.747 38.0107 101.098 38.403 101.545 38.6871C102.004 38.9711 102.525 39.1131 103.107 39.1131C103.743 39.1131 104.297 38.9441 104.771 38.6059C105.244 38.2677 105.582 37.8146 105.785 37.2465L108.118 38.3015C107.902 38.9238 107.55 39.4851 107.063 39.9856C106.576 40.4726 105.995 40.8581 105.318 41.1421C104.642 41.4127 103.905 41.5479 103.107 41.5479ZM110.135 41.3044V30.2668H112.793V41.3044H110.135ZM110.135 29.0291V26.1885H112.793V29.0291H110.135ZM120.482 41.5479C119.346 41.5479 118.352 41.2909 117.5 40.7769C116.647 40.2629 115.985 39.5663 115.511 38.6871C115.038 37.8078 114.801 36.8339 114.801 35.7653C114.801 34.6561 115.038 33.6755 115.511 32.8233C115.998 31.9576 116.654 31.2745 117.479 30.774C118.318 30.2735 119.251 30.0233 120.279 30.0233C121.145 30.0233 121.902 30.1653 122.552 30.4494C123.215 30.7334 123.776 31.1257 124.236 31.6262C124.696 32.1267 125.047 32.7015 125.291 33.3508C125.534 33.9866 125.656 34.6764 125.656 35.4204C125.656 35.6098 125.643 35.8059 125.615 36.0088C125.602 36.2117 125.568 36.3875 125.514 36.5363H116.992V34.5073H124.013L122.755 35.461C122.876 34.8387 122.843 34.2842 122.653 33.7972C122.477 33.3102 122.18 32.9247 121.76 32.6407C121.355 32.3566 120.861 32.2146 120.279 32.2146C119.725 32.2146 119.231 32.3566 118.798 32.6407C118.365 32.9112 118.034 33.317 117.804 33.8581C117.587 34.3856 117.506 35.0281 117.56 35.7856C117.506 36.4619 117.594 37.0639 117.824 37.5914C118.068 38.1054 118.419 38.5044 118.879 38.7885C119.353 39.0726 119.894 39.2146 120.502 39.2146C121.111 39.2146 121.625 39.0861 122.044 38.8291C122.477 38.5721 122.815 38.2271 123.059 37.7943L125.21 38.8494C124.993 39.3769 124.655 39.8436 124.195 40.2494C123.735 40.6552 123.187 40.973 122.552 41.203C121.929 41.4329 121.24 41.5479 120.482 41.5479ZM136.674 41.5479C135.592 41.5479 134.605 41.2977 133.712 40.7972C132.833 40.2967 132.129 39.6136 131.602 38.7479C131.088 37.8822 130.831 36.8948 130.831 35.7856C130.831 34.6764 131.088 33.689 131.602 32.8233C132.129 31.9576 132.833 31.2745 133.712 30.774C134.591 30.2735 135.579 30.0233 136.674 30.0233C137.756 30.0233 138.737 30.2735 139.616 30.774C140.495 31.2745 141.192 31.9576 141.706 32.8233C142.234 33.6755 142.497 34.6629 142.497 35.7856C142.497 36.8948 142.234 37.8822 141.706 38.7479C141.179 39.6136 140.475 40.2967 139.596 40.7972C138.717 41.2977 137.743 41.5479 136.674 41.5479ZM136.674 39.1131C137.269 39.1131 137.79 38.9711 138.237 38.6871C138.696 38.403 139.055 38.0107 139.312 37.5102C139.582 36.9962 139.718 36.4214 139.718 35.7856C139.718 35.1363 139.582 34.5682 139.312 34.0813C139.055 33.5808 138.696 33.1885 138.237 32.9044C137.79 32.6069 137.269 32.4581 136.674 32.4581C136.066 32.4581 135.531 32.6069 135.071 32.9044C134.611 33.1885 134.246 33.5808 133.976 34.0813C133.719 34.5682 133.59 35.1363 133.59 35.7856C133.59 36.4214 133.719 36.9962 133.976 37.5102C134.246 38.0107 134.611 38.403 135.071 38.6871C135.531 38.9711 136.066 39.1131 136.674 39.1131ZM152.319 41.5479C151.142 41.5479 150.114 41.2706 149.235 40.716C148.37 40.1479 147.774 39.3837 147.45 38.4233L149.438 37.4697C149.722 38.0919 150.114 38.5788 150.615 38.9305C151.129 39.2822 151.697 39.4581 152.319 39.4581C152.806 39.4581 153.192 39.3499 153.476 39.1334C153.76 38.917 153.902 38.6329 153.902 38.2813C153.902 38.0648 153.841 37.889 153.719 37.7537C153.611 37.6049 153.456 37.4832 153.253 37.3885C153.063 37.2803 152.854 37.1924 152.624 37.1247L150.818 36.6175C149.885 36.347 149.174 35.9344 148.687 35.3798C148.214 34.8252 147.977 34.1692 147.977 33.4117C147.977 32.7354 148.146 32.147 148.485 31.6465C148.836 31.1325 149.316 30.7334 149.925 30.4494C150.547 30.1653 151.257 30.0233 152.056 30.0233C153.097 30.0233 154.017 30.2735 154.815 30.774C155.613 31.2745 156.181 31.9779 156.519 32.8842L154.49 33.8378C154.301 33.3373 153.983 32.9383 153.537 32.6407C153.09 32.3431 152.59 32.1943 152.035 32.1943C151.589 32.1943 151.237 32.2957 150.98 32.4986C150.723 32.7015 150.595 32.9653 150.595 33.29C150.595 33.4928 150.649 33.6687 150.757 33.8175C150.865 33.9663 151.014 34.088 151.203 34.1827C151.406 34.2774 151.636 34.3653 151.893 34.4465L153.658 34.974C154.565 35.2445 155.261 35.6503 155.748 36.1914C156.249 36.7325 156.499 37.3953 156.499 38.1798C156.499 38.8426 156.323 39.431 155.971 39.945C155.62 40.4455 155.133 40.8378 154.511 41.1218C153.888 41.4059 153.158 41.5479 152.319 41.5479ZM163.776 41.5479C162.64 41.5479 161.646 41.2909 160.794 40.7769C159.942 40.2629 159.279 39.5663 158.805 38.6871C158.332 37.8078 158.095 36.8339 158.095 35.7653C158.095 34.6561 158.332 33.6755 158.805 32.8233C159.292 31.9576 159.948 31.2745 160.774 30.774C161.612 30.2735 162.545 30.0233 163.574 30.0233C164.439 30.0233 165.197 30.1653 165.846 30.4494C166.509 30.7334 167.07 31.1257 167.53 31.6262C167.99 32.1267 168.342 32.7015 168.585 33.3508C168.829 33.9866 168.95 34.6764 168.95 35.4204C168.95 35.6098 168.937 35.8059 168.91 36.0088C168.896 36.2117 168.862 36.3875 168.808 36.5363H160.287V34.5073H167.307L166.049 35.461C166.171 34.8387 166.137 34.2842 165.947 33.7972C165.772 33.3102 165.474 32.9247 165.055 32.6407C164.649 32.3566 164.155 32.2146 163.574 32.2146C163.019 32.2146 162.525 32.3566 162.092 32.6407C161.66 32.9112 161.328 33.317 161.098 33.8581C160.882 34.3856 160.801 35.0281 160.855 35.7856C160.801 36.4619 160.888 37.0639 161.118 37.5914C161.362 38.1054 161.714 38.5044 162.174 38.7885C162.647 39.0726 163.188 39.2146 163.797 39.2146C164.405 39.2146 164.919 39.0861 165.339 38.8291C165.772 38.5721 166.11 38.2271 166.353 37.7943L168.504 38.8494C168.288 39.3769 167.949 39.8436 167.489 40.2494C167.03 40.6552 166.482 40.973 165.846 41.203C165.224 41.4329 164.534 41.5479 163.776 41.5479ZM174.901 41.5479C174.049 41.5479 173.305 41.3585 172.67 40.9798C172.047 40.6011 171.567 40.0735 171.229 39.3972C170.904 38.7209 170.742 37.9296 170.742 37.0233V30.2668H173.4V36.8001C173.4 37.26 173.488 37.6658 173.664 38.0175C173.853 38.3557 174.117 38.6262 174.455 38.8291C174.807 39.0185 175.199 39.1131 175.632 39.1131C176.065 39.1131 176.45 39.0185 176.788 38.8291C177.127 38.6262 177.39 38.3489 177.58 37.9972C177.769 37.6455 177.864 37.2262 177.864 36.7392V30.2668H180.522V41.3044H178.006V39.1334L178.229 39.5189C177.972 40.1953 177.546 40.7025 176.951 41.0407C176.369 41.3788 175.686 41.5479 174.901 41.5479ZM191.833 41.5479C190.697 41.5479 189.703 41.2909 188.851 40.7769C187.999 40.2629 187.336 39.5663 186.862 38.6871C186.389 37.8078 186.152 36.8339 186.152 35.7653C186.152 34.6561 186.389 33.6755 186.862 32.8233C187.349 31.9576 188.005 31.2745 188.831 30.774C189.669 30.2735 190.603 30.0233 191.631 30.0233C192.496 30.0233 193.254 30.1653 193.903 30.4494C194.566 30.7334 195.127 31.1257 195.587 31.6262C196.047 32.1267 196.399 32.7015 196.642 33.3508C196.886 33.9866 197.007 34.6764 197.007 35.4204C197.007 35.6098 196.994 35.8059 196.967 36.0088C196.953 36.2117 196.919 36.3875 196.865 36.5363H188.344V34.5073H195.364L194.106 35.461C194.228 34.8387 194.194 34.2842 194.005 33.7972C193.829 33.3102 193.531 32.9247 193.112 32.6407C192.706 32.3566 192.212 32.2146 191.631 32.2146C191.076 32.2146 190.582 32.3566 190.149 32.6407C189.717 32.9112 189.385 33.317 189.155 33.8581C188.939 34.3856 188.858 35.0281 188.912 35.7856C188.858 36.4619 188.946 37.0639 189.176 37.5914C189.419 38.1054 189.771 38.5044 190.231 38.7885C190.704 39.0726 191.245 39.2146 191.854 39.2146C192.462 39.2146 192.976 39.0861 193.396 38.8291C193.829 38.5721 194.167 38.2271 194.41 37.7943L196.561 38.8494C196.345 39.3769 196.006 39.8436 195.547 40.2494C195.087 40.6552 194.539 40.973 193.903 41.203C193.281 41.4329 192.591 41.5479 191.833 41.5479ZM202.152 41.3044L197.81 30.2668H200.711L203.856 38.9508H202.781L205.946 30.2668H208.847L204.505 41.3044H202.152ZM215.353 41.5479C214.217 41.5479 213.223 41.2909 212.37 40.7769C211.518 40.2629 210.855 39.5663 210.382 38.6871C209.909 37.8078 209.672 36.8339 209.672 35.7653C209.672 34.6561 209.909 33.6755 210.382 32.8233C210.869 31.9576 211.525 31.2745 212.35 30.774C213.189 30.2735 214.122 30.0233 215.15 30.0233C216.016 30.0233 216.773 30.1653 217.423 30.4494C218.085 30.7334 218.647 31.1257 219.107 31.6262C219.567 32.1267 219.918 32.7015 220.162 33.3508C220.405 33.9866 220.527 34.6764 220.527 35.4204C220.527 35.6098 220.513 35.8059 220.486 36.0088C220.473 36.2117 220.439 36.3875 220.385 36.5363H211.863V34.5073H218.884L217.626 35.461C217.747 34.8387 217.713 34.2842 217.524 33.7972C217.348 33.3102 217.051 32.9247 216.631 32.6407C216.226 32.3566 215.732 32.2146 215.15 32.2146C214.596 32.2146 214.102 32.3566 213.669 32.6407C213.236 32.9112 212.905 33.317 212.675 33.8581C212.458 34.3856 212.377 35.0281 212.431 35.7856C212.377 36.4619 212.465 37.0639 212.695 37.5914C212.939 38.1054 213.29 38.5044 213.75 38.7885C214.224 39.0726 214.765 39.2146 215.373 39.2146C215.982 39.2146 216.496 39.0861 216.915 38.8291C217.348 38.5721 217.686 38.2271 217.93 37.7943L220.081 38.8494C219.864 39.3769 219.526 39.8436 219.066 40.2494C218.606 40.6552 218.058 40.973 217.423 41.203C216.8 41.4329 216.111 41.5479 215.353 41.5479ZM222.542 41.3044V30.2668H225.038V32.4378L224.835 32.0523C225.092 31.3895 225.511 30.889 226.093 30.5508C226.688 30.1991 227.378 30.0233 228.162 30.0233C228.974 30.0233 229.691 30.1991 230.313 30.5508C230.949 30.9025 231.442 31.3962 231.794 32.032C232.146 32.6542 232.322 33.3779 232.322 34.203V41.3044H229.664V34.832C229.664 34.345 229.569 33.9257 229.38 33.574C229.19 33.2223 228.926 32.9518 228.588 32.7624C228.264 32.5595 227.878 32.4581 227.432 32.4581C226.999 32.4581 226.613 32.5595 226.275 32.7624C225.937 32.9518 225.673 33.2223 225.484 33.574C225.295 33.9257 225.2 34.345 225.2 34.832V41.3044H222.542ZM239.601 41.4262C238.357 41.4262 237.389 41.088 236.7 40.4117C236.023 39.7218 235.685 38.7547 235.685 37.5102V32.6407H233.778V30.2668H233.981C234.522 30.2668 234.941 30.1247 235.239 29.8407C235.536 29.5566 235.685 29.1441 235.685 28.603V27.7508H238.343V30.2668H240.879V32.6407H238.343V37.3682C238.343 37.7334 238.404 38.0445 238.526 38.3015C238.661 38.5585 238.864 38.7547 239.134 38.89C239.418 39.0252 239.777 39.0928 240.21 39.0928C240.304 39.0928 240.413 39.0861 240.534 39.0726C240.67 39.059 240.798 39.0455 240.92 39.032V41.3044C240.73 41.3315 240.514 41.3585 240.271 41.3856C240.027 41.4127 239.804 41.4262 239.601 41.4262ZM248.249 41.5479C247.167 41.5479 246.179 41.2977 245.286 40.7972C244.407 40.2967 243.704 39.6136 243.176 38.7479C242.662 37.8822 242.405 36.8948 242.405 35.7856C242.405 34.6764 242.662 33.689 243.176 32.8233C243.704 31.9576 244.407 31.2745 245.286 30.774C246.166 30.2735 247.153 30.0233 248.249 30.0233C249.331 30.0233 250.311 30.2735 251.191 30.774C252.07 31.2745 252.767 31.9576 253.281 32.8233C253.808 33.6755 254.072 34.6629 254.072 35.7856C254.072 36.8948 253.808 37.8822 253.281 38.7479C252.753 39.6136 252.05 40.2967 251.17 40.7972C250.291 41.2977 249.317 41.5479 248.249 41.5479ZM248.249 39.1131C248.844 39.1131 249.365 38.9711 249.811 38.6871C250.271 38.403 250.629 38.0107 250.886 37.5102C251.157 36.9962 251.292 36.4214 251.292 35.7856C251.292 35.1363 251.157 34.5682 250.886 34.0813C250.629 33.5808 250.271 33.1885 249.811 32.9044C249.365 32.6069 248.844 32.4581 248.249 32.4581C247.64 32.4581 247.106 32.6069 246.646 32.9044C246.186 33.1885 245.821 33.5808 245.55 34.0813C245.293 34.5682 245.165 35.1363 245.165 35.7856C245.165 36.4214 245.293 36.9962 245.55 37.5102C245.821 38.0107 246.186 38.403 246.646 38.6871C247.106 38.9711 247.64 39.1131 248.249 39.1131ZM257.447 36.7189L257.264 26.1885H259.963L259.78 36.7189H257.447ZM257.264 41.3044V38.4639H259.963V41.3044H257.264Z" fill="#FAFAFA"/>
<path d="M34.1605 64.4203V56.8623H39.0301V57.6232H34.9721V60.2507H38.8272V61.0116H34.9721V63.6594H39.0301V64.4203H34.1605ZM42.3506 64.542C41.8298 64.542 41.3733 64.4101 40.981 64.1464C40.5887 63.8826 40.3047 63.5242 40.1288 63.071L40.768 62.7667C40.9235 63.0981 41.1399 63.3618 41.4172 63.558C41.7013 63.7541 42.0124 63.8522 42.3506 63.8522C42.6752 63.8522 42.9491 63.7744 43.1723 63.6188C43.3955 63.4565 43.5071 63.2469 43.5071 62.9899C43.5071 62.8005 43.453 62.6517 43.3448 62.5435C43.2366 62.4285 43.1114 62.3406 42.9694 62.2797C42.8274 62.2188 42.7023 62.1749 42.5941 62.1478L41.8129 61.9246C41.3124 61.7826 40.9506 61.5831 40.7274 61.3261C40.5042 61.0691 40.3926 60.7715 40.3926 60.4333C40.3926 60.1155 40.4738 59.8382 40.6361 59.6014C40.7984 59.3647 41.0182 59.1821 41.2955 59.0536C41.5728 58.9251 41.8805 58.8609 42.2187 58.8609C42.6786 58.8609 43.0945 58.9826 43.4665 59.2261C43.8453 59.4628 44.1124 59.7942 44.268 60.2203L43.6187 60.5246C43.4834 60.2203 43.2873 59.9836 43.0303 59.8145C42.78 59.6386 42.4994 59.5507 42.1883 59.5507C41.8839 59.5507 41.6404 59.6285 41.4578 59.7841C41.2752 59.9396 41.1839 60.1357 41.1839 60.3725C41.1839 60.5551 41.2313 60.7005 41.3259 60.8087C41.4206 60.9169 41.5288 60.9981 41.6506 61.0522C41.7791 61.1063 41.8907 61.1469 41.9854 61.1739L42.8883 61.4377C43.3279 61.5662 43.6694 61.7657 43.9129 62.0362C44.1631 62.3068 44.2883 62.6246 44.2883 62.9899C44.2883 63.2874 44.2037 63.5546 44.0346 63.7913C43.8723 64.028 43.6457 64.214 43.3549 64.3493C43.0641 64.4778 42.7293 64.542 42.3506 64.542ZM48.3137 64.542C47.7794 64.542 47.3093 64.4169 46.9035 64.1667C46.4977 63.9164 46.1798 63.5783 45.9499 63.1522C45.7199 62.7193 45.605 62.2324 45.605 61.6913C45.605 61.1502 45.7199 60.6667 45.9499 60.2406C46.1798 59.8145 46.4977 59.4797 46.9035 59.2362C47.3093 58.986 47.7794 58.8609 48.3137 58.8609C48.6518 58.8609 48.9697 58.9217 49.2673 59.0435C49.5649 59.1652 49.8286 59.3309 50.0586 59.5406C50.2885 59.7435 50.461 59.9802 50.576 60.2507L49.8861 60.6058C49.7509 60.315 49.5446 60.0783 49.2673 59.8957C48.99 59.713 48.6721 59.6217 48.3137 59.6217C47.9552 59.6217 47.6306 59.713 47.3397 59.8957C47.0557 60.0715 46.8291 60.3184 46.66 60.6362C46.4977 60.9473 46.4166 61.3024 46.4166 61.7014C46.4166 62.0937 46.4977 62.4488 46.66 62.7667C46.8291 63.0778 47.0557 63.3246 47.3397 63.5072C47.6306 63.6899 47.9552 63.7812 48.3137 63.7812C48.6721 63.7812 48.9866 63.6899 49.2571 63.5072C49.5344 63.3246 49.7441 63.0812 49.8861 62.7768L50.576 63.1522C50.461 63.4159 50.2885 63.6527 50.0586 63.8623C49.8286 64.072 49.5649 64.2377 49.2673 64.3594C48.9697 64.4812 48.6518 64.542 48.3137 64.542ZM54.6604 64.542C54.1464 64.542 53.6797 64.4203 53.2604 64.1768C52.8411 63.9266 52.5063 63.5884 52.2561 63.1623C52.0126 62.7295 51.8909 62.2391 51.8909 61.6913C51.8909 61.1502 52.0126 60.6667 52.2561 60.2406C52.4995 59.8145 52.8276 59.4797 53.2401 59.2362C53.6595 58.986 54.1329 58.8609 54.6604 58.8609C55.188 58.8609 55.658 58.9826 56.0706 59.2261C56.4899 59.4696 56.8179 59.8043 57.0546 60.2304C57.2981 60.6565 57.4198 61.1435 57.4198 61.6913C57.4198 62.2459 57.2947 62.7396 57.0445 63.1725C56.7942 63.5985 56.4595 63.9333 56.0401 64.1768C55.6276 64.4203 55.1677 64.542 54.6604 64.542ZM54.6604 63.7812C55.0256 63.7812 55.3537 63.6899 55.6445 63.5072C55.9421 63.3246 56.1754 63.0744 56.3445 62.7565C56.5203 62.4386 56.6082 62.0836 56.6082 61.6913C56.6082 61.299 56.5203 60.9473 56.3445 60.6362C56.1754 60.3251 55.9421 60.0783 55.6445 59.8957C55.3537 59.713 55.0256 59.6217 54.6604 59.6217C54.2952 59.6217 53.9638 59.713 53.6662 59.8957C53.3754 60.0783 53.1421 60.3251 52.9662 60.6362C52.7904 60.9473 52.7024 61.299 52.7024 61.6913C52.7024 62.0836 52.7904 62.4386 52.9662 62.7565C53.1421 63.0744 53.3754 63.3246 53.6662 63.5072C53.9638 63.6899 54.2952 63.7812 54.6604 63.7812ZM58.9646 64.4203V56.7406H59.7255V64.4203H58.9646ZM61.4858 64.4203V56.7406H62.2467V60.0377L62.0742 59.9971C62.2095 59.6454 62.4293 59.3681 62.7336 59.1652C63.0448 58.9623 63.4032 58.8609 63.809 58.8609C64.1945 58.8609 64.5394 58.9488 64.8438 59.1246C65.1549 59.3005 65.3984 59.544 65.5742 59.8551C65.7568 60.1594 65.8481 60.5043 65.8481 60.8899V64.4203H65.0873V61.1841C65.0873 60.8527 65.0264 60.572 64.9047 60.342C64.7829 60.1121 64.6138 59.9362 64.3974 59.8145C64.1877 59.686 63.9477 59.6217 63.6771 59.6217C63.4066 59.6217 63.1631 59.686 62.9467 59.8145C62.7303 59.9362 62.5578 60.1155 62.4293 60.3522C62.3076 60.5821 62.2467 60.8594 62.2467 61.1841V64.4203H61.4858ZM69.0767 64.542C68.7317 64.542 68.424 64.4778 68.1535 64.3493C67.883 64.214 67.6699 64.0314 67.5144 63.8014C67.3588 63.5715 67.281 63.3077 67.281 63.0101C67.281 62.7261 67.3419 62.4691 67.4636 62.2391C67.5854 62.0024 67.7747 61.8029 68.0317 61.6406C68.2888 61.4783 68.6168 61.3633 69.0158 61.2956L71.1462 60.9406V61.6304L69.1984 61.9551C68.8061 62.0227 68.5221 62.1478 68.3462 62.3304C68.1772 62.513 68.0926 62.7295 68.0926 62.9797C68.0926 63.2232 68.1873 63.4295 68.3767 63.5985C68.5728 63.7676 68.8231 63.8522 69.1274 63.8522C69.4994 63.8522 69.824 63.7744 70.1013 63.6188C70.3786 63.4565 70.595 63.2401 70.7506 62.9696C70.9061 62.699 70.9839 62.3981 70.9839 62.0667V60.687C70.9839 60.3623 70.8656 60.0985 70.6289 59.8957C70.3921 59.6928 70.0844 59.5913 69.7057 59.5913C69.3743 59.5913 69.0834 59.6758 68.8332 59.8449C68.583 60.0072 68.397 60.2203 68.2752 60.4841L67.5854 60.1087C67.6868 59.8787 67.8458 59.6691 68.0622 59.4797C68.2854 59.2903 68.539 59.1415 68.8231 59.0333C69.1071 58.9184 69.4013 58.8609 69.7057 58.8609C70.1047 58.8609 70.4564 58.9386 70.7607 59.0942C71.0718 59.2498 71.3119 59.4662 71.481 59.7435C71.6569 60.014 71.7448 60.3285 71.7448 60.687V64.4203H70.9839V63.3348L71.0955 63.4464C71.0008 63.6493 70.852 63.8353 70.6491 64.0043C70.453 64.1667 70.2197 64.2985 69.9491 64.4C69.6854 64.4947 69.3946 64.542 69.0767 64.542ZM77.9858 64.542C77.4718 64.542 77.0052 64.4203 76.5858 64.1768C76.1665 63.9266 75.8317 63.5884 75.5815 63.1623C75.338 62.7295 75.2163 62.2391 75.2163 61.6913C75.2163 61.1502 75.338 60.6667 75.5815 60.2406C75.825 59.8145 76.153 59.4797 76.5655 59.2362C76.9849 58.986 77.4583 58.8609 77.9858 58.8609C78.5134 58.8609 78.9834 58.9826 79.396 59.2261C79.8153 59.4696 80.1433 59.8043 80.38 60.2304C80.6235 60.6565 80.7452 61.1435 80.7452 61.6913C80.7452 62.2459 80.6201 62.7396 80.3699 63.1725C80.1196 63.5985 79.7849 63.9333 79.3655 64.1768C78.953 64.4203 78.4931 64.542 77.9858 64.542ZM77.9858 63.7812C78.351 63.7812 78.6791 63.6899 78.9699 63.5072C79.2675 63.3246 79.5008 63.0744 79.6699 62.7565C79.8457 62.4386 79.9337 62.0836 79.9337 61.6913C79.9337 61.299 79.8457 60.9473 79.6699 60.6362C79.5008 60.3251 79.2675 60.0783 78.9699 59.8957C78.6791 59.713 78.351 59.6217 77.9858 59.6217C77.6206 59.6217 77.2892 59.713 76.9916 59.8957C76.7008 60.0783 76.4675 60.3251 76.2916 60.6362C76.1158 60.9473 76.0279 61.299 76.0279 61.6913C76.0279 62.0836 76.1158 62.4386 76.2916 62.7565C76.4675 63.0744 76.7008 63.3246 76.9916 63.5072C77.2892 63.6899 77.6206 63.7812 77.9858 63.7812ZM84.2168 66.4493V58.9826H84.9777V60.2L84.8559 59.987C85.0723 59.642 85.3598 59.3681 85.7182 59.1652C86.0835 58.9623 86.4994 58.8609 86.9661 58.8609C87.4801 58.8609 87.9366 58.986 88.3356 59.2362C88.7414 59.4797 89.0593 59.8145 89.2893 60.2406C89.526 60.6667 89.6443 61.1536 89.6443 61.7014C89.6443 62.2425 89.526 62.7295 89.2893 63.1623C89.0593 63.5884 88.7414 63.9266 88.3356 64.1768C87.9366 64.4203 87.4801 64.542 86.9661 64.542C86.4994 64.542 86.0767 64.4372 85.698 64.2275C85.326 64.0111 85.0453 63.7068 84.8559 63.3145L84.9777 63.2029V66.4493H84.2168ZM86.9255 63.7812C87.2907 63.7812 87.6153 63.6899 87.8994 63.5072C88.1902 63.3246 88.4168 63.0778 88.5791 62.7667C88.7482 62.4488 88.8327 62.0937 88.8327 61.7014C88.8327 61.3024 88.7482 60.9473 88.5791 60.6362C88.4168 60.3251 88.1902 60.0783 87.8994 59.8957C87.6153 59.713 87.2907 59.6217 86.9255 59.6217C86.5603 59.6217 86.2289 59.713 85.9313 59.8957C85.6405 60.0783 85.4071 60.3285 85.2313 60.6464C85.0622 60.9575 84.9777 61.3092 84.9777 61.7014C84.9777 62.0937 85.0622 62.4488 85.2313 62.7667C85.4071 63.0778 85.6405 63.3246 85.9313 63.5072C86.2289 63.6899 86.5603 63.7812 86.9255 63.7812ZM91.1863 64.4203V56.7406H91.9472V64.4203H91.1863ZM95.2799 64.542C94.935 64.542 94.6273 64.4778 94.3567 64.3493C94.0862 64.214 93.8732 64.0314 93.7176 63.8014C93.562 63.5715 93.4843 63.3077 93.4843 63.0101C93.4843 62.7261 93.5451 62.4691 93.6669 62.2391C93.7886 62.0024 93.978 61.8029 94.235 61.6406C94.492 61.4783 94.82 61.3633 95.219 61.2956L97.3495 60.9406V61.6304L95.4017 61.9551C95.0094 62.0227 94.7253 62.1478 94.5495 62.3304C94.3804 62.513 94.2959 62.7295 94.2959 62.9797C94.2959 63.2232 94.3905 63.4295 94.5799 63.5985C94.7761 63.7676 95.0263 63.8522 95.3306 63.8522C95.7026 63.8522 96.0273 63.7744 96.3046 63.6188C96.5818 63.4565 96.7983 63.2401 96.9538 62.9696C97.1094 62.699 97.1872 62.3981 97.1872 62.0667V60.687C97.1872 60.3623 97.0688 60.0985 96.8321 59.8957C96.5954 59.6928 96.2876 59.5913 95.9089 59.5913C95.5775 59.5913 95.2867 59.6758 95.0364 59.8449C94.7862 60.0072 94.6002 60.2203 94.4785 60.4841L93.7886 60.1087C93.8901 59.8787 94.049 59.6691 94.2654 59.4797C94.4886 59.2903 94.7422 59.1415 95.0263 59.0333C95.3104 58.9184 95.6046 58.8609 95.9089 58.8609C96.3079 58.8609 96.6596 58.9386 96.964 59.0942C97.2751 59.2498 97.5152 59.4662 97.6843 59.7435C97.8601 60.014 97.948 60.3285 97.948 60.687V64.4203H97.1872V63.3348L97.2988 63.4464C97.2041 63.6493 97.0553 63.8353 96.8524 64.0043C96.6562 64.1667 96.4229 64.2985 96.1524 64.4C95.8886 64.4947 95.5978 64.542 95.2799 64.542ZM99.7159 64.4203V58.9826H100.477V60.0377L100.304 59.9971C100.44 59.6454 100.659 59.3681 100.964 59.1652C101.275 58.9623 101.633 58.8609 102.039 58.8609C102.425 58.8609 102.77 58.9488 103.074 59.1246C103.385 59.3005 103.629 59.544 103.804 59.8551C103.987 60.1594 104.078 60.5043 104.078 60.8899V64.4203H103.317V61.1841C103.317 60.8527 103.257 60.572 103.135 60.342C103.02 60.1121 102.854 59.9362 102.638 59.8145C102.428 59.686 102.185 59.6217 101.907 59.6217C101.63 59.6217 101.383 59.686 101.167 59.8145C100.95 59.9362 100.781 60.1155 100.659 60.3522C100.538 60.5821 100.477 60.8594 100.477 61.1841V64.4203H99.7159ZM108.281 64.542C107.767 64.542 107.3 64.4203 106.881 64.1768C106.461 63.9266 106.127 63.5884 105.876 63.1623C105.633 62.7295 105.511 62.2391 105.511 61.6913C105.511 61.1502 105.633 60.6667 105.876 60.2406C106.12 59.8145 106.448 59.4797 106.86 59.2362C107.28 58.986 107.753 58.8609 108.281 58.8609C108.808 58.8609 109.278 58.9826 109.691 59.2261C110.11 59.4696 110.438 59.8043 110.675 60.2304C110.918 60.6565 111.04 61.1435 111.04 61.6913C111.04 62.2459 110.915 62.7396 110.665 63.1725C110.415 63.5985 110.08 63.9333 109.66 64.1768C109.248 64.4203 108.788 64.542 108.281 64.542ZM108.281 63.7812C108.646 63.7812 108.974 63.6899 109.265 63.5072C109.562 63.3246 109.796 63.0744 109.965 62.7565C110.141 62.4386 110.229 62.0836 110.229 61.6913C110.229 61.299 110.141 60.9473 109.965 60.6362C109.796 60.3251 109.562 60.0783 109.265 59.8957C108.974 59.713 108.646 59.6217 108.281 59.6217C107.916 59.6217 107.584 59.713 107.287 59.8957C106.996 60.0783 106.762 60.3251 106.587 60.6362C106.411 60.9473 106.323 61.299 106.323 61.6913C106.323 62.0836 106.411 62.4386 106.587 62.7565C106.762 63.0744 106.996 63.3246 107.287 63.5072C107.584 63.6899 107.916 63.7812 108.281 63.7812ZM116.967 64.542C116.46 64.542 116.003 64.4203 115.597 64.1768C115.191 63.9266 114.87 63.5884 114.633 63.1623C114.403 62.7295 114.289 62.2425 114.289 61.7014C114.289 61.1536 114.403 60.6667 114.633 60.2406C114.87 59.8145 115.188 59.4797 115.587 59.2362C115.993 58.986 116.453 58.8609 116.967 58.8609C117.433 58.8609 117.849 58.9623 118.215 59.1652C118.58 59.3681 118.867 59.642 119.077 59.987L118.955 60.2V56.7406H119.716V64.4203H118.955V63.2029L119.077 63.3145C118.888 63.7068 118.603 64.0111 118.225 64.2275C117.853 64.4372 117.433 64.542 116.967 64.542ZM117.007 63.7812C117.373 63.7812 117.701 63.6899 117.991 63.5072C118.289 63.3246 118.522 63.0778 118.691 62.7667C118.867 62.4488 118.955 62.0937 118.955 61.7014C118.955 61.3092 118.867 60.9575 118.691 60.6464C118.522 60.3285 118.289 60.0783 117.991 59.8957C117.701 59.713 117.373 59.6217 117.007 59.6217C116.649 59.6217 116.324 59.713 116.033 59.8957C115.743 60.0783 115.513 60.3251 115.344 60.6362C115.181 60.9473 115.1 61.3024 115.1 61.7014C115.1 62.0937 115.181 62.4488 115.344 62.7667C115.513 63.0778 115.739 63.3246 116.023 63.5072C116.314 63.6899 116.642 63.7812 117.007 63.7812ZM123.957 64.542C123.449 64.542 122.989 64.4203 122.577 64.1768C122.171 63.9266 121.85 63.585 121.613 63.1522C121.376 62.7193 121.258 62.229 121.258 61.6812C121.258 61.1333 121.373 60.6498 121.603 60.2304C121.833 59.8043 122.144 59.4696 122.536 59.2261C122.935 58.9826 123.382 58.8609 123.875 58.8609C124.268 58.8609 124.616 58.9353 124.92 59.0841C125.231 59.2261 125.495 59.4222 125.712 59.6725C125.928 59.9159 126.094 60.1932 126.209 60.5043C126.324 60.8087 126.381 61.1232 126.381 61.4478C126.381 61.5155 126.378 61.5932 126.371 61.6812C126.364 61.7623 126.354 61.8469 126.341 61.9348H121.745V61.2246H125.904L125.539 61.529C125.6 61.157 125.556 60.8256 125.407 60.5348C125.265 60.2372 125.059 60.0039 124.788 59.8348C124.518 59.6589 124.214 59.571 123.875 59.571C123.537 59.571 123.223 59.6589 122.932 59.8348C122.648 60.0106 122.425 60.2575 122.262 60.5754C122.1 60.8865 122.036 61.2585 122.07 61.6913C122.036 62.1242 122.103 62.5029 122.272 62.8275C122.448 63.1454 122.685 63.3923 122.983 63.5681C123.287 63.744 123.612 63.8319 123.957 63.8319C124.356 63.8319 124.69 63.7372 124.961 63.5478C125.231 63.3585 125.451 63.1217 125.62 62.8377L126.27 63.1826C126.161 63.4261 125.996 63.6527 125.772 63.8623C125.549 64.0652 125.282 64.2309 124.971 64.3594C124.667 64.4812 124.329 64.542 123.957 64.542ZM131.425 64.542C131.08 64.542 130.772 64.4778 130.502 64.3493C130.231 64.214 130.018 64.0314 129.862 63.8014C129.707 63.5715 129.629 63.3077 129.629 63.0101C129.629 62.7261 129.69 62.4691 129.812 62.2391C129.933 62.0024 130.123 61.8029 130.38 61.6406C130.637 61.4783 130.965 61.3633 131.364 61.2956L133.494 60.9406V61.6304L131.547 61.9551C131.154 62.0227 130.87 62.1478 130.694 62.3304C130.525 62.513 130.441 62.7295 130.441 62.9797C130.441 63.2232 130.535 63.4295 130.725 63.5985C130.921 63.7676 131.171 63.8522 131.476 63.8522C131.847 63.8522 132.172 63.7744 132.449 63.6188C132.727 63.4565 132.943 63.2401 133.099 62.9696C133.254 62.699 133.332 62.3981 133.332 62.0667V60.687C133.332 60.3623 133.214 60.0985 132.977 59.8957C132.74 59.6928 132.433 59.5913 132.054 59.5913C131.722 59.5913 131.432 59.6758 131.181 59.8449C130.931 60.0072 130.745 60.2203 130.623 60.4841L129.933 60.1087C130.035 59.8787 130.194 59.6691 130.41 59.4797C130.633 59.2903 130.887 59.1415 131.171 59.0333C131.455 58.9184 131.749 58.8609 132.054 58.8609C132.453 58.8609 132.805 58.9386 133.109 59.0942C133.42 59.2498 133.66 59.4662 133.829 59.7435C134.005 60.014 134.093 60.3285 134.093 60.687V64.4203H133.332V63.3348L133.444 63.4464C133.349 63.6493 133.2 63.8353 132.997 64.0043C132.801 64.1667 132.568 64.2985 132.297 64.4C132.033 64.4947 131.743 64.542 131.425 64.542ZM138.346 64.542C137.812 64.542 137.342 64.4169 136.936 64.1667C136.53 63.9164 136.213 63.5783 135.983 63.1522C135.753 62.7193 135.638 62.2324 135.638 61.6913C135.638 61.1502 135.753 60.6667 135.983 60.2406C136.213 59.8145 136.53 59.4797 136.936 59.2362C137.342 58.986 137.812 58.8609 138.346 58.8609C138.684 58.8609 139.002 58.9217 139.3 59.0435C139.598 59.1652 139.861 59.3309 140.091 59.5406C140.321 59.7435 140.494 59.9802 140.609 60.2507L139.919 60.6058C139.784 60.315 139.577 60.0783 139.3 59.8957C139.023 59.713 138.705 59.6217 138.346 59.6217C137.988 59.6217 137.663 59.713 137.372 59.8957C137.088 60.0715 136.862 60.3184 136.693 60.6362C136.53 60.9473 136.449 61.3024 136.449 61.7014C136.449 62.0937 136.53 62.4488 136.693 62.7667C136.862 63.0778 137.088 63.3246 137.372 63.5072C137.663 63.6899 137.988 63.7812 138.346 63.7812C138.705 63.7812 139.019 63.6899 139.29 63.5072C139.567 63.3246 139.777 63.0812 139.919 62.7768L140.609 63.1522C140.494 63.4159 140.321 63.6527 140.091 63.8623C139.861 64.072 139.598 64.2377 139.3 64.3594C139.002 64.4812 138.684 64.542 138.346 64.542ZM144.693 64.542C144.179 64.542 143.712 64.4203 143.293 64.1768C142.874 63.9266 142.539 63.5884 142.289 63.1623C142.045 62.7295 141.924 62.2391 141.924 61.6913C141.924 61.1502 142.045 60.6667 142.289 60.2406C142.532 59.8145 142.86 59.4797 143.273 59.2362C143.692 58.986 144.166 58.8609 144.693 58.8609C145.221 58.8609 145.691 58.9826 146.103 59.2261C146.523 59.4696 146.851 59.8043 147.087 60.2304C147.331 60.6565 147.453 61.1435 147.453 61.6913C147.453 62.2459 147.327 62.7396 147.077 63.1725C146.827 63.5985 146.492 63.9333 146.073 64.1768C145.66 64.4203 145.2 64.542 144.693 64.542ZM144.693 63.7812C145.058 63.7812 145.386 63.6899 145.677 63.5072C145.975 63.3246 146.208 63.0744 146.377 62.7565C146.553 62.4386 146.641 62.0836 146.641 61.6913C146.641 61.299 146.553 60.9473 146.377 60.6362C146.208 60.3251 145.975 60.0783 145.677 59.8957C145.386 59.713 145.058 59.6217 144.693 59.6217C144.328 59.6217 143.996 59.713 143.699 59.8957C143.408 60.0783 143.175 60.3251 142.999 60.6362C142.823 60.9473 142.735 61.299 142.735 61.6913C142.735 62.0836 142.823 62.4386 142.999 62.7565C143.175 63.0744 143.408 63.3246 143.699 63.5072C143.996 63.6899 144.328 63.7812 144.693 63.7812ZM148.997 64.4203V58.9826H149.758V59.8754L149.657 59.7435C149.785 59.4865 149.978 59.2836 150.235 59.1348C150.499 58.986 150.817 58.9116 151.189 58.9116H151.534V59.6725H151.057C150.664 59.6725 150.35 59.7942 150.113 60.0377C149.877 60.2812 149.758 60.6261 149.758 61.0725V64.4203H148.997ZM155.083 64.542C154.576 64.542 154.119 64.4203 153.714 64.1768C153.308 63.9266 152.987 63.5884 152.75 63.1623C152.52 62.7295 152.405 62.2425 152.405 61.7014C152.405 61.1536 152.52 60.6667 152.75 60.2406C152.987 59.8145 153.304 59.4797 153.703 59.2362C154.109 58.986 154.569 58.8609 155.083 58.8609C155.55 58.8609 155.966 58.9623 156.331 59.1652C156.696 59.3681 156.984 59.642 157.193 59.987L157.072 60.2V56.7406H157.832V64.4203H157.072V63.2029L157.193 63.3145C157.004 63.7068 156.72 64.0111 156.341 64.2275C155.969 64.4372 155.55 64.542 155.083 64.542ZM155.124 63.7812C155.489 63.7812 155.817 63.6899 156.108 63.5072C156.405 63.3246 156.639 63.0778 156.808 62.7667C156.984 62.4488 157.072 62.0937 157.072 61.7014C157.072 61.3092 156.984 60.9575 156.808 60.6464C156.639 60.3285 156.405 60.0783 156.108 59.8957C155.817 59.713 155.489 59.6217 155.124 59.6217C154.765 59.6217 154.441 59.713 154.15 59.8957C153.859 60.0783 153.629 60.3251 153.46 60.6362C153.298 60.9473 153.216 61.3024 153.216 61.7014C153.216 62.0937 153.298 62.4488 153.46 62.7667C153.629 63.0778 153.856 63.3246 154.14 63.5072C154.43 63.6899 154.759 63.7812 155.124 63.7812ZM162.144 64.542C161.63 64.542 161.163 64.4203 160.744 64.1768C160.325 63.9266 159.99 63.5884 159.74 63.1623C159.496 62.7295 159.374 62.2391 159.374 61.6913C159.374 61.1502 159.496 60.6667 159.74 60.2406C159.983 59.8145 160.311 59.4797 160.724 59.2362C161.143 58.986 161.616 58.8609 162.144 58.8609C162.671 58.8609 163.142 58.9826 163.554 59.2261C163.973 59.4696 164.301 59.8043 164.538 60.2304C164.782 60.6565 164.903 61.1435 164.903 61.6913C164.903 62.2459 164.778 62.7396 164.528 63.1725C164.278 63.5985 163.943 63.9333 163.524 64.1768C163.111 64.4203 162.651 64.542 162.144 64.542ZM162.144 63.7812C162.509 63.7812 162.837 63.6899 163.128 63.5072C163.426 63.3246 163.659 63.0744 163.828 62.7565C164.004 62.4386 164.092 62.0836 164.092 61.6913C164.092 61.299 164.004 60.9473 163.828 60.6362C163.659 60.3251 163.426 60.0783 163.128 59.8957C162.837 59.713 162.509 59.6217 162.144 59.6217C161.779 59.6217 161.447 59.713 161.15 59.8957C160.859 60.0783 160.626 60.3251 160.45 60.6362C160.274 60.9473 160.186 61.299 160.186 61.6913C160.186 62.0836 160.274 62.4386 160.45 62.7565C160.626 63.0744 160.859 63.3246 161.15 63.5072C161.447 63.6899 161.779 63.7812 162.144 63.7812ZM170.86 64.542C170.326 64.542 169.856 64.4169 169.45 64.1667C169.044 63.9164 168.727 63.5783 168.497 63.1522C168.267 62.7193 168.152 62.2324 168.152 61.6913C168.152 61.1502 168.267 60.6667 168.497 60.2406C168.727 59.8145 169.044 59.4797 169.45 59.2362C169.856 58.986 170.326 58.8609 170.86 58.8609C171.199 58.8609 171.516 58.9217 171.814 59.0435C172.112 59.1652 172.375 59.3309 172.605 59.5406C172.835 59.7435 173.008 59.9802 173.123 60.2507L172.433 60.6058C172.298 60.315 172.091 60.0783 171.814 59.8957C171.537 59.713 171.219 59.6217 170.86 59.6217C170.502 59.6217 170.177 59.713 169.887 59.8957C169.602 60.0715 169.376 60.3184 169.207 60.6362C169.044 60.9473 168.963 61.3024 168.963 61.7014C168.963 62.0937 169.044 62.4488 169.207 62.7667C169.376 63.0778 169.602 63.3246 169.887 63.5072C170.177 63.6899 170.502 63.7812 170.86 63.7812C171.219 63.7812 171.533 63.6899 171.804 63.5072C172.081 63.3246 172.291 63.0812 172.433 62.7768L173.123 63.1522C173.008 63.4159 172.835 63.6527 172.605 63.8623C172.375 64.072 172.112 64.2377 171.814 64.3594C171.516 64.4812 171.199 64.542 170.86 64.542ZM177.207 64.542C176.693 64.542 176.227 64.4203 175.807 64.1768C175.388 63.9266 175.053 63.5884 174.803 63.1623C174.559 62.7295 174.438 62.2391 174.438 61.6913C174.438 61.1502 174.559 60.6667 174.803 60.2406C175.046 59.8145 175.374 59.4797 175.787 59.2362C176.206 58.986 176.68 58.8609 177.207 58.8609C177.735 58.8609 178.205 58.9826 178.617 59.2261C179.037 59.4696 179.365 59.8043 179.601 60.2304C179.845 60.6565 179.967 61.1435 179.967 61.6913C179.967 62.2459 179.841 62.7396 179.591 63.1725C179.341 63.5985 179.006 63.9333 178.587 64.1768C178.174 64.4203 177.714 64.542 177.207 64.542ZM177.207 63.7812C177.572 63.7812 177.9 63.6899 178.191 63.5072C178.489 63.3246 178.722 63.0744 178.891 62.7565C179.067 62.4386 179.155 62.0836 179.155 61.6913C179.155 61.299 179.067 60.9473 178.891 60.6362C178.722 60.3251 178.489 60.0783 178.191 59.8957C177.9 59.713 177.572 59.6217 177.207 59.6217C176.842 59.6217 176.511 59.713 176.213 59.8957C175.922 60.0783 175.689 60.3251 175.513 60.6362C175.337 60.9473 175.249 61.299 175.249 61.6913C175.249 62.0836 175.337 62.4386 175.513 62.7565C175.689 63.0744 175.922 63.3246 176.213 63.5072C176.511 63.6899 176.842 63.7812 177.207 63.7812ZM181.511 64.4203V58.9826H182.272V60.0174L182.151 59.8652C182.299 59.5473 182.519 59.3005 182.81 59.1246C183.108 58.9488 183.432 58.8609 183.784 58.8609C184.203 58.8609 184.582 58.9792 184.92 59.2159C185.258 59.4527 185.498 59.7604 185.64 60.1391L185.427 60.1493C185.563 59.7299 185.796 59.4121 186.127 59.1956C186.466 58.9725 186.838 58.8609 187.243 58.8609C187.609 58.8609 187.943 58.9488 188.248 59.1246C188.559 59.3005 188.806 59.544 188.988 59.8551C189.178 60.1594 189.272 60.5043 189.272 60.8899V64.4203H188.511V61.1841C188.511 60.8527 188.451 60.572 188.329 60.342C188.214 60.1121 188.055 59.9362 187.852 59.8145C187.649 59.686 187.416 59.6217 187.152 59.6217C186.895 59.6217 186.662 59.686 186.452 59.8145C186.242 59.9362 186.077 60.1155 185.955 60.3522C185.833 60.5821 185.772 60.8594 185.772 61.1841V64.4203H185.011V61.1841C185.011 60.8527 184.951 60.572 184.829 60.342C184.714 60.1121 184.555 59.9362 184.352 59.8145C184.149 59.686 183.916 59.6217 183.652 59.6217C183.388 59.6217 183.152 59.686 182.942 59.8145C182.739 59.9362 182.577 60.1155 182.455 60.3522C182.333 60.5821 182.272 60.8594 182.272 61.1841V64.4203H181.511ZM194.427 64.542C194.082 64.542 193.775 64.4778 193.504 64.3493C193.233 64.214 193.02 64.0314 192.865 63.8014C192.709 63.5715 192.632 63.3077 192.632 63.0101C192.632 62.7261 192.692 62.4691 192.814 62.2391C192.936 62.0024 193.125 61.8029 193.382 61.6406C193.639 61.4783 193.967 61.3633 194.366 61.2956L196.497 60.9406V61.6304L194.549 61.9551C194.157 62.0227 193.873 62.1478 193.697 62.3304C193.528 62.513 193.443 62.7295 193.443 62.9797C193.443 63.2232 193.538 63.4295 193.727 63.5985C193.923 63.7676 194.174 63.8522 194.478 63.8522C194.85 63.8522 195.175 63.7744 195.452 63.6188C195.729 63.4565 195.946 63.2401 196.101 62.9696C196.257 62.699 196.334 62.3981 196.334 62.0667V60.687C196.334 60.3623 196.216 60.0985 195.979 59.8957C195.743 59.6928 195.435 59.5913 195.056 59.5913C194.725 59.5913 194.434 59.6758 194.184 59.8449C193.933 60.0072 193.747 60.2203 193.626 60.4841L192.936 60.1087C193.037 59.8787 193.196 59.6691 193.413 59.4797C193.636 59.2903 193.889 59.1415 194.174 59.0333C194.458 58.9184 194.752 58.8609 195.056 58.8609C195.455 58.8609 195.807 58.9386 196.111 59.0942C196.422 59.2498 196.662 59.4662 196.832 59.7435C197.007 60.014 197.095 60.3285 197.095 60.687V64.4203H196.334V63.3348L196.446 63.4464C196.351 63.6493 196.203 63.8353 196 64.0043C195.803 64.1667 195.57 64.2985 195.3 64.4C195.036 64.4947 194.745 64.542 194.427 64.542ZM200.75 64.542C200.229 64.542 199.773 64.4101 199.381 64.1464C198.988 63.8826 198.704 63.5242 198.528 63.071L199.168 62.7667C199.323 63.0981 199.54 63.3618 199.817 63.558C200.101 63.7541 200.412 63.8522 200.75 63.8522C201.075 63.8522 201.349 63.7744 201.572 63.6188C201.795 63.4565 201.907 63.2469 201.907 62.9899C201.907 62.8005 201.853 62.6517 201.744 62.5435C201.636 62.4285 201.511 62.3406 201.369 62.2797C201.227 62.2188 201.102 62.1749 200.994 62.1478L200.212 61.9246C199.712 61.7826 199.35 61.5831 199.127 61.3261C198.904 61.0691 198.792 60.7715 198.792 60.4333C198.792 60.1155 198.873 59.8382 199.036 59.6014C199.198 59.3647 199.418 59.1821 199.695 59.0536C199.972 58.9251 200.28 58.8609 200.618 58.8609C201.078 58.8609 201.494 58.9826 201.866 59.2261C202.245 59.4628 202.512 59.7942 202.668 60.2203L202.018 60.5246C201.883 60.2203 201.687 59.9836 201.43 59.8145C201.18 59.6386 200.899 59.5507 200.588 59.5507C200.283 59.5507 200.04 59.6285 199.857 59.7841C199.675 59.9396 199.583 60.1357 199.583 60.3725C199.583 60.5551 199.631 60.7005 199.726 60.8087C199.82 60.9169 199.928 60.9981 200.05 61.0522C200.179 61.1063 200.29 61.1469 200.385 61.1739L201.288 61.4377C201.727 61.5662 202.069 61.7657 202.312 62.0362C202.563 62.3068 202.688 62.6246 202.688 62.9899C202.688 63.2874 202.603 63.5546 202.434 63.7913C202.272 64.028 202.045 64.214 201.754 64.3493C201.464 64.4778 201.129 64.542 200.75 64.542ZM206.154 64.4203V58.9826H206.915V60.0377L206.743 59.9971C206.878 59.6454 207.098 59.3681 207.402 59.1652C207.713 58.9623 208.072 58.8609 208.478 58.8609C208.863 58.8609 209.208 58.9488 209.512 59.1246C209.824 59.3005 210.067 59.544 210.243 59.8551C210.425 60.1594 210.517 60.5043 210.517 60.8899V64.4203H209.756V61.1841C209.756 60.8527 209.695 60.572 209.573 60.342C209.458 60.1121 209.293 59.9362 209.076 59.8145C208.867 59.686 208.623 59.6217 208.346 59.6217C208.068 59.6217 207.822 59.686 207.605 59.8145C207.389 59.9362 207.22 60.1155 207.098 60.3522C206.976 60.5821 206.915 60.8594 206.915 61.1841V64.4203H206.154ZM214.648 64.542C214.141 64.542 213.681 64.4203 213.269 64.1768C212.863 63.9266 212.541 63.585 212.305 63.1522C212.068 62.7193 211.95 62.229 211.95 61.6812C211.95 61.1333 212.065 60.6498 212.295 60.2304C212.525 59.8043 212.836 59.4696 213.228 59.2261C213.627 58.9826 214.073 58.8609 214.567 58.8609C214.959 58.8609 215.308 58.9353 215.612 59.0841C215.923 59.2261 216.187 59.4222 216.403 59.6725C216.62 59.9159 216.785 60.1932 216.9 60.5043C217.015 60.8087 217.073 61.1232 217.073 61.4478C217.073 61.5155 217.069 61.5932 217.063 61.6812C217.056 61.7623 217.046 61.8469 217.032 61.9348H212.437V61.2246H216.596L216.231 61.529C216.292 61.157 216.248 60.8256 216.099 60.5348C215.957 60.2372 215.751 60.0039 215.48 59.8348C215.21 59.6589 214.905 59.571 214.567 59.571C214.229 59.571 213.914 59.6589 213.624 59.8348C213.34 60.0106 213.116 60.2575 212.954 60.5754C212.792 60.8865 212.727 61.2585 212.761 61.6913C212.727 62.1242 212.795 62.5029 212.964 62.8275C213.14 63.1454 213.377 63.3923 213.674 63.5681C213.979 63.744 214.303 63.8319 214.648 63.8319C215.047 63.8319 215.382 63.7372 215.653 63.5478C215.923 63.3585 216.143 63.1217 216.312 62.8377L216.961 63.1826C216.853 63.4261 216.687 63.6527 216.464 63.8623C216.241 64.0652 215.974 64.2309 215.663 64.3594C215.358 64.4812 215.02 64.542 214.648 64.542ZM221.103 64.542C220.568 64.542 220.098 64.4169 219.693 64.1667C219.287 63.9164 218.969 63.5783 218.739 63.1522C218.509 62.7193 218.394 62.2324 218.394 61.6913C218.394 61.1502 218.509 60.6667 218.739 60.2406C218.969 59.8145 219.287 59.4797 219.693 59.2362C220.098 58.986 220.568 58.8609 221.103 58.8609C221.441 58.8609 221.759 58.9217 222.056 59.0435C222.354 59.1652 222.618 59.3309 222.848 59.5406C223.078 59.7435 223.25 59.9802 223.365 60.2507L222.675 60.6058C222.54 60.315 222.334 60.0783 222.056 59.8957C221.779 59.713 221.461 59.6217 221.103 59.6217C220.744 59.6217 220.42 59.713 220.129 59.8957C219.845 60.0715 219.618 60.3184 219.449 60.6362C219.287 60.9473 219.206 61.3024 219.206 61.7014C219.206 62.0937 219.287 62.4488 219.449 62.7667C219.618 63.0778 219.845 63.3246 220.129 63.5072C220.42 63.6899 220.744 63.7812 221.103 63.7812C221.461 63.7812 221.776 63.6899 222.046 63.5072C222.324 63.3246 222.533 63.0812 222.675 62.7768L223.365 63.1522C223.25 63.4159 223.078 63.6527 222.848 63.8623C222.618 64.072 222.354 64.2377 222.056 64.3594C221.759 64.4812 221.441 64.542 221.103 64.542ZM227.379 64.542C226.871 64.542 226.411 64.4203 225.999 64.1768C225.593 63.9266 225.272 63.585 225.035 63.1522C224.798 62.7193 224.68 62.229 224.68 61.6812C224.68 61.1333 224.795 60.6498 225.025 60.2304C225.255 59.8043 225.566 59.4696 225.958 59.2261C226.357 58.9826 226.804 58.8609 227.297 58.8609C227.69 58.8609 228.038 58.9353 228.342 59.0841C228.653 59.2261 228.917 59.4222 229.134 59.6725C229.35 59.9159 229.516 60.1932 229.631 60.5043C229.746 60.8087 229.803 61.1232 229.803 61.4478C229.803 61.5155 229.8 61.5932 229.793 61.6812C229.786 61.7623 229.776 61.8469 229.763 61.9348H225.167V61.2246H229.326L228.961 61.529C229.022 61.157 228.978 60.8256 228.829 60.5348C228.687 60.2372 228.481 60.0039 228.21 59.8348C227.94 59.6589 227.636 59.571 227.297 59.571C226.959 59.571 226.645 59.6589 226.354 59.8348C226.07 60.0106 225.847 60.2575 225.684 60.5754C225.522 60.8865 225.458 61.2585 225.492 61.6913C225.458 62.1242 225.525 62.5029 225.694 62.8275C225.87 63.1454 226.107 63.3923 226.405 63.5681C226.709 63.744 227.034 63.8319 227.379 63.8319C227.778 63.8319 228.112 63.7372 228.383 63.5478C228.653 63.3585 228.873 63.1217 229.042 62.8377L229.692 63.1826C229.583 63.4261 229.418 63.6527 229.194 63.8623C228.971 64.0652 228.704 64.2309 228.393 64.3594C228.089 64.4812 227.751 64.542 227.379 64.542ZM233.235 64.542C232.714 64.542 232.257 64.4101 231.865 64.1464C231.473 63.8826 231.189 63.5242 231.013 63.071L231.652 62.7667C231.807 63.0981 232.024 63.3618 232.301 63.558C232.585 63.7541 232.896 63.8522 233.235 63.8522C233.559 63.8522 233.833 63.7744 234.056 63.6188C234.279 63.4565 234.391 63.2469 234.391 62.9899C234.391 62.8005 234.337 62.6517 234.229 62.5435C234.121 62.4285 233.995 62.3406 233.853 62.2797C233.711 62.2188 233.586 62.1749 233.478 62.1478L232.697 61.9246C232.196 61.7826 231.835 61.5831 231.611 61.3261C231.388 61.0691 231.277 60.7715 231.277 60.4333C231.277 60.1155 231.358 59.8382 231.52 59.6014C231.682 59.3647 231.902 59.1821 232.179 59.0536C232.457 58.9251 232.764 58.8609 233.103 58.8609C233.563 58.8609 233.978 58.9826 234.35 59.2261C234.729 59.4628 234.996 59.7942 235.152 60.2203L234.503 60.5246C234.367 60.2203 234.171 59.9836 233.914 59.8145C233.664 59.6386 233.383 59.5507 233.072 59.5507C232.768 59.5507 232.524 59.6285 232.342 59.7841C232.159 59.9396 232.068 60.1357 232.068 60.3725C232.068 60.5551 232.115 60.7005 232.21 60.8087C232.305 60.9169 232.413 60.9981 232.535 61.0522C232.663 61.1063 232.775 61.1469 232.869 61.1739L233.772 61.4377C234.212 61.5662 234.553 61.7657 234.797 62.0362C235.047 62.3068 235.172 62.6246 235.172 62.9899C235.172 63.2874 235.088 63.5546 234.919 63.7913C234.756 64.028 234.53 64.214 234.239 64.3493C233.948 64.4778 233.613 64.542 233.235 64.542ZM238.599 64.542C238.078 64.542 237.622 64.4101 237.229 64.1464C236.837 63.8826 236.553 63.5242 236.377 63.071L237.016 62.7667C237.172 63.0981 237.388 63.3618 237.666 63.558C237.95 63.7541 238.261 63.8522 238.599 63.8522C238.924 63.8522 239.198 63.7744 239.421 63.6188C239.644 63.4565 239.756 63.2469 239.756 62.9899C239.756 62.8005 239.701 62.6517 239.593 62.5435C239.485 62.4285 239.36 62.3406 239.218 62.2797C239.076 62.2188 238.951 62.1749 238.843 62.1478L238.061 61.9246C237.561 61.7826 237.199 61.5831 236.976 61.3261C236.753 61.0691 236.641 60.7715 236.641 60.4333C236.641 60.1155 236.722 59.8382 236.885 59.6014C237.047 59.3647 237.267 59.1821 237.544 59.0536C237.821 58.9251 238.129 58.8609 238.467 58.8609C238.927 58.8609 239.343 58.9826 239.715 59.2261C240.094 59.4628 240.361 59.7942 240.516 60.2203L239.867 60.5246C239.732 60.2203 239.536 59.9836 239.279 59.8145C239.029 59.6386 238.748 59.5507 238.437 59.5507C238.132 59.5507 237.889 59.6285 237.706 59.7841C237.524 59.9396 237.432 60.1357 237.432 60.3725C237.432 60.5551 237.48 60.7005 237.574 60.8087C237.669 60.9169 237.777 60.9981 237.899 61.0522C238.028 61.1063 238.139 61.1469 238.234 61.1739L239.137 61.4377C239.576 61.5662 239.918 61.7657 240.161 62.0362C240.412 62.3068 240.537 62.6246 240.537 62.9899C240.537 63.2874 240.452 63.5546 240.283 63.7913C240.121 64.028 239.894 64.214 239.603 64.3493C239.313 64.4778 238.978 64.542 238.599 64.542ZM242.077 64.4203V58.9826H242.838V64.4203H242.077ZM242.077 57.9783V56.8623H242.838V57.9783H242.077ZM247.053 64.542C246.546 64.542 246.089 64.4203 245.683 64.1768C245.278 63.9266 244.956 63.5884 244.72 63.1623C244.49 62.7295 244.375 62.2425 244.375 61.7014C244.375 61.1536 244.49 60.6667 244.72 60.2406C244.956 59.8145 245.274 59.4797 245.673 59.2362C246.079 58.986 246.539 58.8609 247.053 58.8609C247.52 58.8609 247.935 58.9623 248.301 59.1652C248.666 59.3681 248.953 59.642 249.163 59.987L249.041 60.2V56.7406H249.802V64.4203H249.041V63.2029L249.163 63.3145C248.974 63.7068 248.69 64.0111 248.311 64.2275C247.939 64.4372 247.52 64.542 247.053 64.542ZM247.093 63.7812C247.459 63.7812 247.787 63.6899 248.078 63.5072C248.375 63.3246 248.608 63.0778 248.778 62.7667C248.953 62.4488 249.041 62.0937 249.041 61.7014C249.041 61.3092 248.953 60.9575 248.778 60.6464C248.608 60.3285 248.375 60.0783 248.078 59.8957C247.787 59.713 247.459 59.6217 247.093 59.6217C246.735 59.6217 246.41 59.713 246.12 59.8957C245.829 60.0783 245.599 60.3251 245.43 60.6362C245.267 60.9473 245.186 61.3024 245.186 61.7014C245.186 62.0937 245.267 62.4488 245.43 62.7667C245.599 63.0778 245.825 63.3246 246.109 63.5072C246.4 63.6899 246.728 63.7812 247.093 63.7812ZM253.14 64.542C252.795 64.542 252.487 64.4778 252.217 64.3493C251.946 64.214 251.733 64.0314 251.577 63.8014C251.422 63.5715 251.344 63.3077 251.344 63.0101C251.344 62.7261 251.405 62.4691 251.527 62.2391C251.648 62.0024 251.838 61.8029 252.095 61.6406C252.352 61.4783 252.68 61.3633 253.079 61.2956L255.209 60.9406V61.6304L253.261 61.9551C252.869 62.0227 252.585 62.1478 252.409 62.3304C252.24 62.513 252.156 62.7295 252.156 62.9797C252.156 63.2232 252.25 63.4295 252.44 63.5985C252.636 63.7676 252.886 63.8522 253.19 63.8522C253.562 63.8522 253.887 63.7744 254.164 63.6188C254.442 63.4565 254.658 63.2401 254.814 62.9696C254.969 62.699 255.047 62.3981 255.047 62.0667V60.687C255.047 60.3623 254.929 60.0985 254.692 59.8957C254.455 59.6928 254.147 59.5913 253.769 59.5913C253.437 59.5913 253.147 59.6758 252.896 59.8449C252.646 60.0072 252.46 60.2203 252.338 60.4841L251.648 60.1087C251.75 59.8787 251.909 59.6691 252.125 59.4797C252.348 59.2903 252.602 59.1415 252.886 59.0333C253.17 58.9184 253.464 58.8609 253.769 58.8609C254.168 58.8609 254.519 58.9386 254.824 59.0942C255.135 59.2498 255.375 59.4662 255.544 59.7435C255.72 60.014 255.808 60.3285 255.808 60.687V64.4203H255.047V63.3348L255.159 63.4464C255.064 63.6493 254.915 63.8353 254.712 64.0043C254.516 64.1667 254.283 64.2985 254.012 64.4C253.748 64.4947 253.458 64.542 253.14 64.542ZM260.031 64.542C259.524 64.542 259.067 64.4203 258.661 64.1768C258.255 63.9266 257.934 63.5884 257.698 63.1623C257.468 62.7295 257.353 62.2425 257.353 61.7014C257.353 61.1536 257.468 60.6667 257.698 60.2406C257.934 59.8145 258.252 59.4797 258.651 59.2362C259.057 58.986 259.517 58.8609 260.031 58.8609C260.498 58.8609 260.913 58.9623 261.279 59.1652C261.644 59.3681 261.931 59.642 262.141 59.987L262.019 60.2V56.7406H262.78V64.4203H262.019V63.2029L262.141 63.3145C261.952 63.7068 261.668 64.0111 261.289 64.2275C260.917 64.4372 260.498 64.542 260.031 64.542ZM260.071 63.7812C260.437 63.7812 260.765 63.6899 261.055 63.5072C261.353 63.3246 261.586 63.0778 261.755 62.7667C261.931 62.4488 262.019 62.0937 262.019 61.7014C262.019 61.3092 261.931 60.9575 261.755 60.6464C261.586 60.3285 261.353 60.0783 261.055 59.8957C260.765 59.713 260.437 59.6217 260.071 59.6217C259.713 59.6217 259.388 59.713 259.098 59.8957C258.807 60.0783 258.577 60.3251 258.408 60.6362C258.245 60.9473 258.164 61.3024 258.164 61.7014C258.164 62.0937 258.245 62.4488 258.408 62.7667C258.577 63.0778 258.803 63.3246 259.087 63.5072C259.378 63.6899 259.706 63.7812 260.071 63.7812ZM267.021 64.542C266.513 64.542 266.053 64.4203 265.641 64.1768C265.235 63.9266 264.914 63.585 264.677 63.1522C264.44 62.7193 264.322 62.229 264.322 61.6812C264.322 61.1333 264.437 60.6498 264.667 60.2304C264.897 59.8043 265.208 59.4696 265.6 59.2261C265.999 58.9826 266.446 58.8609 266.939 58.8609C267.332 58.8609 267.68 58.9353 267.984 59.0841C268.296 59.2261 268.559 59.4222 268.776 59.6725C268.992 59.9159 269.158 60.1932 269.273 60.5043C269.388 60.8087 269.445 61.1232 269.445 61.4478C269.445 61.5155 269.442 61.5932 269.435 61.6812C269.428 61.7623 269.418 61.8469 269.405 61.9348H264.809V61.2246H268.968L268.603 61.529C268.664 61.157 268.62 60.8256 268.471 60.5348C268.329 60.2372 268.123 60.0039 267.853 59.8348C267.582 59.6589 267.278 59.571 266.939 59.571C266.601 59.571 266.287 59.6589 265.996 59.8348C265.712 60.0106 265.489 60.2575 265.326 60.5754C265.164 60.8865 265.1 61.2585 265.134 61.6913C265.1 62.1242 265.167 62.5029 265.337 62.8275C265.512 63.1454 265.749 63.3923 266.047 63.5681C266.351 63.744 266.676 63.8319 267.021 63.8319C267.42 63.8319 267.754 63.7372 268.025 63.5478C268.296 63.3585 268.515 63.1217 268.684 62.8377L269.334 63.1826C269.225 63.4261 269.06 63.6527 268.837 63.8623C268.613 64.0652 268.346 64.2309 268.035 64.3594C267.731 64.4812 267.393 64.542 267.021 64.542ZM272.877 64.542C272.356 64.542 271.899 64.4101 271.507 64.1464C271.115 63.8826 270.831 63.5242 270.655 63.071L271.294 62.7667C271.45 63.0981 271.666 63.3618 271.943 63.558C272.227 63.7541 272.538 63.8522 272.877 63.8522C273.201 63.8522 273.475 63.7744 273.698 63.6188C273.922 63.4565 274.033 63.2469 274.033 62.9899C274.033 62.8005 273.979 62.6517 273.871 62.5435C273.763 62.4285 273.637 62.3406 273.495 62.2797C273.353 62.2188 273.228 62.1749 273.12 62.1478L272.339 61.9246C271.838 61.7826 271.477 61.5831 271.253 61.3261C271.03 61.0691 270.919 60.7715 270.919 60.4333C270.919 60.1155 271 59.8382 271.162 59.6014C271.324 59.3647 271.544 59.1821 271.822 59.0536C272.099 58.9251 272.407 58.8609 272.745 58.8609C273.205 58.8609 273.621 58.9826 273.993 59.2261C274.371 59.4628 274.638 59.7942 274.794 60.2203L274.145 60.5246C274.009 60.2203 273.813 59.9836 273.556 59.8145C273.306 59.6386 273.025 59.5507 272.714 59.5507C272.41 59.5507 272.166 59.6285 271.984 59.7841C271.801 59.9396 271.71 60.1357 271.71 60.3725C271.71 60.5551 271.757 60.7005 271.852 60.8087C271.947 60.9169 272.055 60.9981 272.177 61.0522C272.305 61.1063 272.417 61.1469 272.511 61.1739L273.414 61.4377C273.854 61.5662 274.195 61.7657 274.439 62.0362C274.689 62.3068 274.814 62.6246 274.814 62.9899C274.814 63.2874 274.73 63.5546 274.561 63.7913C274.398 64.028 274.172 64.214 273.881 64.3493C273.59 64.4778 273.255 64.542 272.877 64.542ZM48.9397 77.542C48.4324 77.542 47.9759 77.4203 47.5701 77.1768C47.1643 76.9266 46.8431 76.5884 46.6063 76.1623C46.3764 75.7295 46.2614 75.2425 46.2614 74.7014C46.2614 74.1536 46.3764 73.6667 46.6063 73.2406C46.8431 72.8145 47.1609 72.4797 47.56 72.2362C47.9658 71.986 48.4257 71.8609 48.9397 71.8609C49.4063 71.8609 49.8223 71.9623 50.1875 72.1652C50.5527 72.3681 50.8402 72.642 51.0498 72.987L50.9281 73.2V69.7406H51.6889V77.4203H50.9281V76.2029L51.0498 76.3145C50.8604 76.7068 50.5764 77.0111 50.1976 77.2275C49.8257 77.4372 49.4063 77.542 48.9397 77.542ZM48.9802 76.7812C49.3455 76.7812 49.6735 76.6899 49.9643 76.5072C50.2619 76.3246 50.4952 76.0778 50.6643 75.7667C50.8402 75.4488 50.9281 75.0937 50.9281 74.7014C50.9281 74.3092 50.8402 73.9575 50.6643 73.6464C50.4952 73.3285 50.2619 73.0783 49.9643 72.8957C49.6735 72.713 49.3455 72.6217 48.9802 72.6217C48.6218 72.6217 48.2972 72.713 48.0063 72.8957C47.7155 73.0783 47.4856 73.3251 47.3165 73.6362C47.1542 73.9473 47.073 74.3024 47.073 74.7014C47.073 75.0937 47.1542 75.4488 47.3165 75.7667C47.4856 76.0778 47.7121 76.3246 47.9962 76.5072C48.287 76.6899 48.615 76.7812 48.9802 76.7812ZM56.0005 77.542C55.4865 77.542 55.0198 77.4203 54.6005 77.1768C54.1811 76.9266 53.8464 76.5884 53.5961 76.1623C53.3526 75.7295 53.2309 75.2391 53.2309 74.6913C53.2309 74.1502 53.3526 73.6667 53.5961 73.2406C53.8396 72.8145 54.1676 72.4797 54.5802 72.2362C54.9995 71.986 55.4729 71.8609 56.0005 71.8609C56.528 71.8609 56.998 71.9826 57.4106 72.2261C57.8299 72.4696 58.1579 72.8043 58.3947 73.2304C58.6381 73.6565 58.7599 74.1435 58.7599 74.6913C58.7599 75.2459 58.6348 75.7396 58.3845 76.1725C58.1343 76.5985 57.7995 76.9333 57.3802 77.1768C56.9676 77.4203 56.5077 77.542 56.0005 77.542ZM56.0005 76.7812C56.3657 76.7812 56.6937 76.6899 56.9845 76.5072C57.2821 76.3246 57.5154 76.0744 57.6845 75.7565C57.8604 75.4386 57.9483 75.0836 57.9483 74.6913C57.9483 74.299 57.8604 73.9473 57.6845 73.6362C57.5154 73.3251 57.2821 73.0783 56.9845 72.8957C56.6937 72.713 56.3657 72.6217 56.0005 72.6217C55.6352 72.6217 55.3038 72.713 55.0063 72.8957C54.7154 73.0783 54.4821 73.3251 54.3063 73.6362C54.1304 73.9473 54.0425 74.299 54.0425 74.6913C54.0425 75.0836 54.1304 75.4386 54.3063 75.7565C54.4821 76.0744 54.7154 76.3246 55.0063 76.5072C55.3038 76.6899 55.6352 76.7812 56.0005 76.7812ZM64.1184 77.542C63.5976 77.542 63.1411 77.4101 62.7488 77.1464C62.3565 76.8826 62.0725 76.5242 61.8966 76.071L62.5358 75.7667C62.6913 76.0981 62.9078 76.3618 63.1851 76.558C63.4691 76.7541 63.7802 76.8522 64.1184 76.8522C64.443 76.8522 64.7169 76.7744 64.9401 76.6188C65.1633 76.4565 65.2749 76.2469 65.2749 75.9899C65.2749 75.8005 65.2208 75.6517 65.1126 75.5435C65.0044 75.4285 64.8793 75.3406 64.7372 75.2797C64.5952 75.2188 64.4701 75.1749 64.3619 75.1478L63.5807 74.9246C63.0802 74.7826 62.7184 74.5831 62.4952 74.3261C62.272 74.0691 62.1604 73.7715 62.1604 73.4333C62.1604 73.1155 62.2416 72.8382 62.4039 72.6014C62.5662 72.3647 62.786 72.1821 63.0633 72.0536C63.3406 71.9251 63.6483 71.8609 63.9865 71.8609C64.4464 71.8609 64.8623 71.9826 65.2343 72.2261C65.6131 72.4628 65.8802 72.7942 66.0358 73.2203L65.3865 73.5246C65.2512 73.2203 65.0551 72.9836 64.7981 72.8145C64.5479 72.6386 64.2672 72.5507 63.9561 72.5507C63.6517 72.5507 63.4082 72.6285 63.2256 72.7841C63.043 72.9396 62.9517 73.1357 62.9517 73.3725C62.9517 73.5551 62.9991 73.7005 63.0937 73.8087C63.1884 73.9169 63.2966 73.9981 63.4184 74.0522C63.5469 74.1063 63.6585 74.1469 63.7532 74.1739L64.6561 74.4377C65.0957 74.5662 65.4372 74.7657 65.6807 75.0362C65.9309 75.3068 66.0561 75.6246 66.0561 75.9899C66.0561 76.2874 65.9715 76.5546 65.8024 76.7913C65.6401 77.028 65.4136 77.214 65.1227 77.3493C64.8319 77.4778 64.4971 77.542 64.1184 77.542ZM70.0713 77.542C69.5641 77.542 69.1042 77.4203 68.6916 77.1768C68.2858 76.9266 67.9646 76.585 67.7278 76.1522C67.4911 75.7193 67.3728 75.229 67.3728 74.6812C67.3728 74.1333 67.4877 73.6498 67.7177 73.2304C67.9476 72.8043 68.2588 72.4696 68.651 72.2261C69.0501 71.9826 69.4964 71.8609 69.9902 71.8609C70.3824 71.8609 70.7307 71.9353 71.0351 72.0841C71.3462 72.2261 71.61 72.4222 71.8264 72.6725C72.0428 72.9159 72.2085 73.1932 72.3235 73.5043C72.4385 73.8087 72.496 74.1232 72.496 74.4478C72.496 74.5155 72.4926 74.5932 72.4858 74.6812C72.479 74.7623 72.4689 74.8469 72.4554 74.9348H67.8597V74.2246H72.0191L71.6539 74.529C71.7148 74.157 71.6708 73.8256 71.522 73.5348C71.38 73.2372 71.1737 73.0039 70.9032 72.8348C70.6327 72.6589 70.3283 72.571 69.9902 72.571C69.652 72.571 69.3375 72.6589 69.0467 72.8348C68.7626 73.0106 68.5394 73.2575 68.3771 73.5754C68.2148 73.8865 68.1505 74.2585 68.1844 74.6913C68.1505 75.1242 68.2182 75.5029 68.3873 75.8275C68.5631 76.1454 68.7998 76.3923 69.0974 76.5681C69.4018 76.744 69.7264 76.8319 70.0713 76.8319C70.4704 76.8319 70.8051 76.7372 71.0757 76.5478C71.3462 76.3585 71.566 76.1217 71.7351 75.8377L72.3844 76.1826C72.2761 76.4261 72.1104 76.6527 71.8873 76.8623C71.6641 77.0652 71.3969 77.2309 71.0858 77.3594C70.7815 77.4812 70.4433 77.542 70.0713 77.542ZM75.9679 77.542C75.5892 77.542 75.2442 77.4541 74.9331 77.2783C74.622 77.0957 74.3751 76.8454 74.1925 76.5275C74.0167 76.2029 73.9288 75.8309 73.9288 75.4116V71.9826H74.6896V75.3203C74.6896 75.6111 74.7471 75.8681 74.8621 76.0913C74.9838 76.3077 75.1495 76.4768 75.3592 76.5985C75.5756 76.7203 75.8225 76.7812 76.0998 76.7812C76.3771 76.7812 76.6239 76.7203 76.8404 76.5985C77.0568 76.47 77.2259 76.2908 77.3476 76.0609C77.4693 75.8242 77.5302 75.5435 77.5302 75.2188V71.9826H78.2911V77.4203H77.5302V76.3652L77.7027 76.4058C77.5742 76.7575 77.3544 77.0348 77.0433 77.2377C76.7321 77.4406 76.3737 77.542 75.9679 77.542ZM81.9855 77.4203V71.9826H82.7464V73.0377L82.5739 72.9971C82.7092 72.6454 82.929 72.3681 83.2333 72.1652C83.5444 71.9623 83.9029 71.8609 84.3087 71.8609C84.6942 71.8609 85.0391 71.9488 85.3435 72.1246C85.6546 72.3005 85.8981 72.544 86.0739 72.8551C86.2565 73.1594 86.3478 73.5043 86.3478 73.8899V77.4203H85.587V74.1841C85.587 73.8527 85.5261 73.572 85.4043 73.342C85.2894 73.1121 85.1237 72.9362 84.9072 72.8145C84.6976 72.686 84.4541 72.6217 84.1768 72.6217C83.8995 72.6217 83.6527 72.686 83.4362 72.8145C83.2198 72.9362 83.0507 73.1155 82.929 73.3522C82.8072 73.5821 82.7464 73.8594 82.7464 74.1841V77.4203H81.9855ZM90.4793 77.542C89.972 77.542 89.5121 77.4203 89.0996 77.1768C88.6938 76.9266 88.3725 76.585 88.1358 76.1522C87.8991 75.7193 87.7807 75.229 87.7807 74.6812C87.7807 74.1333 87.8957 73.6498 88.1256 73.2304C88.3556 72.8043 88.6667 72.4696 89.059 72.2261C89.458 71.9826 89.9044 71.8609 90.3981 71.8609C90.7904 71.8609 91.1387 71.9353 91.443 72.0841C91.7541 72.2261 92.0179 72.4222 92.2343 72.6725C92.4508 72.9159 92.6165 73.1932 92.7314 73.5043C92.8464 73.8087 92.9039 74.1232 92.9039 74.4478C92.9039 74.5155 92.9005 74.5932 92.8938 74.6812C92.887 74.7623 92.8769 74.8469 92.8633 74.9348H88.2677V74.2246H92.4271L92.0619 74.529C92.1227 74.157 92.0788 73.8256 91.93 73.5348C91.788 73.2372 91.5817 73.0039 91.3112 72.8348C91.0406 72.6589 90.7363 72.571 90.3981 72.571C90.0599 72.571 89.7454 72.6589 89.4546 72.8348C89.1706 73.0106 88.9474 73.2575 88.7851 73.5754C88.6227 73.8865 88.5585 74.2585 88.5923 74.6913C88.5585 75.1242 88.6261 75.5029 88.7952 75.8275C88.9711 76.1454 89.2078 76.3923 89.5054 76.5681C89.8097 76.744 90.1343 76.8319 90.4793 76.8319C90.8783 76.8319 91.2131 76.7372 91.4836 76.5478C91.7541 76.3585 91.974 76.1217 92.143 75.8377L92.7923 76.1826C92.6841 76.4261 92.5184 76.6527 92.2952 76.8623C92.072 77.0652 91.8049 77.2309 91.4938 77.3594C91.1894 77.4812 90.8512 77.542 90.4793 77.542ZM97.0251 79.6522C96.6531 79.6522 96.3082 79.5947 95.9903 79.4797C95.6792 79.3647 95.4087 79.2058 95.1787 79.0029C94.9556 78.8068 94.7831 78.5768 94.6614 78.313L95.3614 77.9377C95.4696 78.1947 95.6623 78.4179 95.9396 78.6072C96.2169 78.7966 96.572 78.8913 97.0048 78.8913C97.3362 78.8913 97.6406 78.8271 97.9179 78.6985C98.1952 78.57 98.4184 78.3807 98.5874 78.1304C98.7565 77.8802 98.8411 77.5725 98.8411 77.2072V76L98.9628 76.1116C98.7734 76.5039 98.4928 76.8082 98.1208 77.0246C97.7488 77.2343 97.343 77.3391 96.9034 77.3391C96.3961 77.3391 95.9396 77.2174 95.5338 76.9739C95.128 76.7304 94.8068 76.4024 94.5701 75.9899C94.3401 75.5705 94.2251 75.1072 94.2251 74.6C94.2251 74.086 94.3401 73.6227 94.5701 73.2101C94.8068 72.7976 95.1246 72.4696 95.5237 72.2261C95.9295 71.9826 96.3894 71.8609 96.9034 71.8609C97.343 71.8609 97.742 71.9623 98.1005 72.1652C98.4657 72.3681 98.7531 72.642 98.9628 72.987L98.8411 73.2V71.9826H99.6019V77.2072C99.6019 77.6739 99.4903 78.0899 99.2672 78.4551C99.0507 78.8271 98.7464 79.1179 98.3541 79.3275C97.9686 79.544 97.5256 79.6522 97.0251 79.6522ZM96.944 76.5783C97.2957 76.5783 97.6135 76.4903 97.8976 76.3145C98.1816 76.1319 98.4082 75.8918 98.5773 75.5942C98.7531 75.2899 98.8411 74.9585 98.8411 74.6C98.8411 74.2415 98.7531 73.9135 98.5773 73.6159C98.4082 73.3116 98.1816 73.0715 97.8976 72.8957C97.6135 72.713 97.2957 72.6217 96.944 72.6217C96.5855 72.6217 96.2609 72.713 95.9701 72.8957C95.6792 73.0715 95.4493 73.3082 95.2802 73.6058C95.1179 73.9034 95.0367 74.2348 95.0367 74.6C95.0367 74.9585 95.1179 75.2899 95.2802 75.5942C95.4493 75.8918 95.6758 76.1319 95.9599 76.3145C96.2507 76.4903 96.5787 76.5783 96.944 76.5783ZM103.915 77.542C103.401 77.542 102.934 77.4203 102.515 77.1768C102.095 76.9266 101.761 76.5884 101.51 76.1623C101.267 75.7295 101.145 75.2391 101.145 74.6913C101.145 74.1502 101.267 73.6667 101.51 73.2406C101.754 72.8145 102.082 72.4797 102.494 72.2362C102.914 71.986 103.387 71.8609 103.915 71.8609C104.442 71.8609 104.912 71.9826 105.325 72.2261C105.744 72.4696 106.072 72.8043 106.309 73.2304C106.552 73.6565 106.674 74.1435 106.674 74.6913C106.674 75.2459 106.549 75.7396 106.299 76.1725C106.048 76.5985 105.714 76.9333 105.294 77.1768C104.882 77.4203 104.422 77.542 103.915 77.542ZM103.915 76.7812C104.28 76.7812 104.608 76.6899 104.899 76.5072C105.196 76.3246 105.43 76.0744 105.599 75.7565C105.775 75.4386 105.862 75.0836 105.862 74.6913C105.862 74.299 105.775 73.9473 105.599 73.6362C105.43 73.3251 105.196 73.0783 104.899 72.8957C104.608 72.713 104.28 72.6217 103.915 72.6217C103.549 72.6217 103.218 72.713 102.92 72.8957C102.63 73.0783 102.396 73.3251 102.22 73.6362C102.045 73.9473 101.957 74.299 101.957 74.6913C101.957 75.0836 102.045 75.4386 102.22 75.7565C102.396 76.0744 102.63 76.3246 102.92 76.5072C103.218 76.6899 103.549 76.7812 103.915 76.7812ZM103.529 70.9275L104.412 69.4058H105.457L104.3 70.9275H103.529ZM110.704 77.542C110.17 77.542 109.7 77.4169 109.294 77.1667C108.888 76.9164 108.571 76.5783 108.341 76.1522C108.111 75.7193 107.996 75.2324 107.996 74.6913C107.996 74.1502 108.111 73.6667 108.341 73.2406C108.571 72.8145 108.888 72.4797 109.294 72.2362C109.7 71.986 110.17 71.8609 110.704 71.8609C111.043 71.8609 111.36 71.9217 111.658 72.0435C111.956 72.1652 112.219 72.3309 112.449 72.5406C112.679 72.7435 112.852 72.9802 112.967 73.2507L112.277 73.6058C112.142 73.315 111.935 73.0783 111.658 72.8957C111.381 72.713 111.063 72.6217 110.704 72.6217C110.346 72.6217 110.021 72.713 109.73 72.8957C109.446 73.0715 109.22 73.3184 109.051 73.6362C108.888 73.9473 108.807 74.3024 108.807 74.7014C108.807 75.0937 108.888 75.4488 109.051 75.7667C109.22 76.0778 109.446 76.3246 109.73 76.5072C110.021 76.6899 110.346 76.7812 110.704 76.7812C111.063 76.7812 111.377 76.6899 111.648 76.5072C111.925 76.3246 112.135 76.0812 112.277 75.7768L112.967 76.1522C112.852 76.4159 112.679 76.6527 112.449 76.8623C112.219 77.072 111.956 77.2377 111.658 77.3594C111.36 77.4812 111.043 77.542 110.704 77.542ZM114.505 77.4203V71.9826H115.266V77.4203H114.505ZM114.505 70.9783V69.8623H115.266V70.9783H114.505ZM119.572 77.542C119.058 77.542 118.592 77.4203 118.172 77.1768C117.753 76.9266 117.418 76.5884 117.168 76.1623C116.924 75.7295 116.803 75.2391 116.803 74.6913C116.803 74.1502 116.924 73.6667 117.168 73.2406C117.411 72.8145 117.739 72.4797 118.152 72.2362C118.571 71.986 119.045 71.8609 119.572 71.8609C120.1 71.8609 120.57 71.9826 120.982 72.2261C121.402 72.4696 121.73 72.8043 121.967 73.2304C122.21 73.6565 122.332 74.1435 122.332 74.6913C122.332 75.2459 122.207 75.7396 121.956 76.1725C121.706 76.5985 121.371 76.9333 120.952 77.1768C120.539 77.4203 120.08 77.542 119.572 77.542ZM119.572 76.7812C119.938 76.7812 120.266 76.6899 120.556 76.5072C120.854 76.3246 121.087 76.0744 121.256 75.7565C121.432 75.4386 121.52 75.0836 121.52 74.6913C121.52 74.299 121.432 73.9473 121.256 73.6362C121.087 73.3251 120.854 73.0783 120.556 72.8957C120.266 72.713 119.938 72.6217 119.572 72.6217C119.207 72.6217 118.876 72.713 118.578 72.8957C118.287 73.0783 118.054 73.3251 117.878 73.6362C117.702 73.9473 117.614 74.299 117.614 74.6913C117.614 75.0836 117.702 75.4386 117.878 75.7565C118.054 76.0744 118.287 76.3246 118.578 76.5072C118.876 76.6899 119.207 76.7812 119.572 76.7812ZM128.279 77.542C127.771 77.542 127.311 77.4203 126.899 77.1768C126.493 76.9266 126.172 76.585 125.935 76.1522C125.698 75.7193 125.58 75.229 125.58 74.6812C125.58 74.1333 125.695 73.6498 125.925 73.2304C126.155 72.8043 126.466 72.4696 126.858 72.2261C127.257 71.9826 127.704 71.8609 128.197 71.8609C128.59 71.8609 128.938 71.9353 129.242 72.0841C129.554 72.2261 129.817 72.4222 130.034 72.6725C130.25 72.9159 130.416 73.1932 130.531 73.5043C130.646 73.8087 130.703 74.1232 130.703 74.4478C130.703 74.5155 130.7 74.5932 130.693 74.6812C130.686 74.7623 130.676 74.8469 130.663 74.9348H126.067V74.2246H130.226L129.861 74.529C129.922 74.157 129.878 73.8256 129.729 73.5348C129.587 73.2372 129.381 73.0039 129.111 72.8348C128.84 72.6589 128.536 72.571 128.197 72.571C127.859 72.571 127.545 72.6589 127.254 72.8348C126.97 73.0106 126.747 73.2575 126.584 73.5754C126.422 73.8865 126.358 74.2585 126.392 74.6913C126.358 75.1242 126.425 75.5029 126.595 75.8275C126.77 76.1454 127.007 76.3923 127.305 76.5681C127.609 76.744 127.934 76.8319 128.279 76.8319C128.678 76.8319 129.012 76.7372 129.283 76.5478C129.554 76.3585 129.773 76.1217 129.942 75.8377L130.592 76.1826C130.483 76.4261 130.318 76.6527 130.095 76.8623C129.871 77.0652 129.604 77.2309 129.293 77.3594C128.989 77.4812 128.651 77.542 128.279 77.542ZM136.254 77.4812C135.767 77.4812 135.392 77.3391 135.128 77.0551C134.864 76.771 134.732 76.3652 134.732 75.8377V72.7435H133.728V71.9826H133.982C134.212 71.9826 134.394 71.9082 134.529 71.7594C134.665 71.6039 134.732 71.4111 134.732 71.1812V70.7246H135.493V71.9826H136.69V72.7435H135.493V75.8377C135.493 76.0203 135.52 76.1826 135.574 76.3246C135.629 76.4599 135.72 76.5681 135.848 76.6493C135.984 76.7304 136.163 76.771 136.386 76.771C136.44 76.771 136.504 76.7676 136.579 76.7609C136.653 76.7541 136.717 76.7473 136.772 76.7406V77.4203C136.69 77.4406 136.599 77.4541 136.498 77.4609C136.396 77.4744 136.315 77.4812 136.254 77.4812ZM140.588 77.542C140.08 77.542 139.621 77.4203 139.208 77.1768C138.802 76.9266 138.481 76.585 138.244 76.1522C138.007 75.7193 137.889 75.229 137.889 74.6812C137.889 74.1333 138.004 73.6498 138.234 73.2304C138.464 72.8043 138.775 72.4696 139.167 72.2261C139.566 71.9826 140.013 71.8609 140.507 71.8609C140.899 71.8609 141.247 71.9353 141.551 72.0841C141.863 72.2261 142.126 72.4222 142.343 72.6725C142.559 72.9159 142.725 73.1932 142.84 73.5043C142.955 73.8087 143.012 74.1232 143.012 74.4478C143.012 74.5155 143.009 74.5932 143.002 74.6812C142.995 74.7623 142.985 74.8469 142.972 74.9348H138.376V74.2246H142.536L142.17 74.529C142.231 74.157 142.187 73.8256 142.038 73.5348C141.896 73.2372 141.69 73.0039 141.42 72.8348C141.149 72.6589 140.845 72.571 140.507 72.571C140.168 72.571 139.854 72.6589 139.563 72.8348C139.279 73.0106 139.056 73.2575 138.893 73.5754C138.731 73.8865 138.667 74.2585 138.701 74.6913C138.667 75.1242 138.735 75.5029 138.904 75.8275C139.079 76.1454 139.316 76.3923 139.614 76.5681C139.918 76.744 140.243 76.8319 140.588 76.8319C140.987 76.8319 141.322 76.7372 141.592 76.5478C141.863 76.3585 142.082 76.1217 142.251 75.8377L142.901 76.1826C142.793 76.4261 142.627 76.6527 142.404 76.8623C142.18 77.0652 141.913 77.2309 141.602 77.3594C141.298 77.4812 140.96 77.542 140.588 77.542ZM144.557 77.4203V71.9826H145.318V73.0377L145.145 72.9971C145.28 72.6454 145.5 72.3681 145.805 72.1652C146.116 71.9623 146.474 71.8609 146.88 71.8609C147.265 71.8609 147.61 71.9488 147.915 72.1246C148.226 72.3005 148.469 72.544 148.645 72.8551C148.828 73.1594 148.919 73.5043 148.919 73.8899V77.4203H148.158V74.1841C148.158 73.8527 148.097 73.572 147.976 73.342C147.861 73.1121 147.695 72.9362 147.478 72.8145C147.269 72.686 147.025 72.6217 146.748 72.6217C146.471 72.6217 146.224 72.686 146.007 72.8145C145.791 72.9362 145.622 73.1155 145.5 73.3522C145.378 73.5821 145.318 73.8594 145.318 74.1841V77.4203H144.557ZM150.575 77.4203V69.7406H151.336V73.0377L151.164 72.9971C151.299 72.6454 151.519 72.3681 151.823 72.1652C152.134 71.9623 152.493 71.8609 152.898 71.8609C153.284 71.8609 153.629 71.9488 153.933 72.1246C154.244 72.3005 154.488 72.544 154.664 72.8551C154.846 73.1594 154.937 73.5043 154.937 73.8899V77.4203H154.177V74.1841C154.177 73.8527 154.116 73.572 153.994 73.342C153.872 73.1121 153.703 72.9362 153.487 72.8145C153.277 72.686 153.037 72.6217 152.766 72.6217C152.496 72.6217 152.252 72.686 152.036 72.8145C151.82 72.9362 151.647 73.1155 151.519 73.3522C151.397 73.5821 151.336 73.8594 151.336 74.1841V77.4203H150.575ZM158.166 77.542C157.821 77.542 157.513 77.4778 157.243 77.3493C156.972 77.214 156.759 77.0314 156.604 76.8014C156.448 76.5715 156.37 76.3077 156.37 76.0101C156.37 75.7261 156.431 75.4691 156.553 75.2391C156.675 75.0024 156.864 74.8029 157.121 74.6406C157.378 74.4783 157.706 74.3633 158.105 74.2956L160.236 73.9406V74.6304L158.288 74.9551C157.895 75.0227 157.611 75.1478 157.436 75.3304C157.266 75.513 157.182 75.7295 157.182 75.9797C157.182 76.2232 157.277 76.4295 157.466 76.5985C157.662 76.7676 157.912 76.8522 158.217 76.8522C158.589 76.8522 158.913 76.7744 159.191 76.6188C159.468 76.4565 159.684 76.2401 159.84 75.9696C159.995 75.699 160.073 75.3981 160.073 75.0667V73.687C160.073 73.3623 159.955 73.0985 159.718 72.8957C159.481 72.6928 159.174 72.5913 158.795 72.5913C158.464 72.5913 158.173 72.6758 157.923 72.8449C157.672 73.0072 157.486 73.2203 157.365 73.4841L156.675 73.1087C156.776 72.8787 156.935 72.6691 157.151 72.4797C157.375 72.2903 157.628 72.1415 157.912 72.0333C158.196 71.9184 158.491 71.8609 158.795 71.8609C159.194 71.8609 159.546 71.9386 159.85 72.0942C160.161 72.2498 160.401 72.4662 160.57 72.7435C160.746 73.014 160.834 73.3285 160.834 73.687V77.4203H160.073V76.3348L160.185 76.4464C160.09 76.6493 159.941 76.8353 159.738 77.0043C159.542 77.1667 159.309 77.2985 159.038 77.4C158.775 77.4947 158.484 77.542 158.166 77.542ZM166.101 77.542C165.756 77.542 165.449 77.4778 165.178 77.3493C164.908 77.214 164.694 77.0314 164.539 76.8014C164.383 76.5715 164.306 76.3077 164.306 76.0101C164.306 75.7261 164.366 75.4691 164.488 75.2391C164.61 75.0024 164.799 74.8029 165.056 74.6406C165.313 74.4783 165.641 74.3633 166.04 74.2956L168.171 73.9406V74.6304L166.223 74.9551C165.831 75.0227 165.547 75.1478 165.371 75.3304C165.202 75.513 165.117 75.7295 165.117 75.9797C165.117 76.2232 165.212 76.4295 165.401 76.5985C165.597 76.7676 165.848 76.8522 166.152 76.8522C166.524 76.8522 166.849 76.7744 167.126 76.6188C167.403 76.4565 167.62 76.2401 167.775 75.9696C167.931 75.699 168.008 75.3981 168.008 75.0667V73.687C168.008 73.3623 167.89 73.0985 167.653 72.8957C167.417 72.6928 167.109 72.5913 166.73 72.5913C166.399 72.5913 166.108 72.6758 165.858 72.8449C165.608 73.0072 165.422 73.2203 165.3 73.4841L164.61 73.1087C164.711 72.8787 164.87 72.6691 165.087 72.4797C165.31 72.2903 165.564 72.1415 165.848 72.0333C166.132 71.9184 166.426 71.8609 166.73 71.8609C167.129 71.8609 167.481 71.9386 167.785 72.0942C168.096 72.2498 168.336 72.4662 168.506 72.7435C168.681 73.014 168.769 73.3285 168.769 73.687V77.4203H168.008V76.3348L168.12 76.4464C168.025 76.6493 167.877 76.8353 167.674 77.0043C167.478 77.1667 167.244 77.2985 166.974 77.4C166.71 77.4947 166.419 77.542 166.101 77.542ZM173.023 77.542C172.488 77.542 172.018 77.4169 171.613 77.1667C171.207 76.9164 170.889 76.5783 170.659 76.1522C170.429 75.7193 170.314 75.2324 170.314 74.6913C170.314 74.1502 170.429 73.6667 170.659 73.2406C170.889 72.8145 171.207 72.4797 171.613 72.2362C172.018 71.986 172.488 71.8609 173.023 71.8609C173.361 71.8609 173.679 71.9217 173.976 72.0435C174.274 72.1652 174.538 72.3309 174.768 72.5406C174.998 72.7435 175.17 72.9802 175.285 73.2507L174.595 73.6058C174.46 73.315 174.254 73.0783 173.976 72.8957C173.699 72.713 173.381 72.6217 173.023 72.6217C172.664 72.6217 172.34 72.713 172.049 72.8957C171.765 73.0715 171.538 73.3184 171.369 73.6362C171.207 73.9473 171.126 74.3024 171.126 74.7014C171.126 75.0937 171.207 75.4488 171.369 75.7667C171.538 76.0778 171.765 76.3246 172.049 76.5072C172.34 76.6899 172.664 76.7812 173.023 76.7812C173.381 76.7812 173.696 76.6899 173.966 76.5072C174.244 76.3246 174.453 76.0812 174.595 75.7768L175.285 76.1522C175.17 76.4159 174.998 76.6527 174.768 76.8623C174.538 77.072 174.274 77.2377 173.976 77.3594C173.679 77.4812 173.361 77.542 173.023 77.542ZM179.299 77.542C178.791 77.542 178.331 77.4203 177.919 77.1768C177.513 76.9266 177.192 76.585 176.955 76.1522C176.718 75.7193 176.6 75.229 176.6 74.6812C176.6 74.1333 176.715 73.6498 176.945 73.2304C177.175 72.8043 177.486 72.4696 177.878 72.2261C178.277 71.9826 178.724 71.8609 179.217 71.8609C179.61 71.8609 179.958 71.9353 180.262 72.0841C180.573 72.2261 180.837 72.4222 181.054 72.6725C181.27 72.9159 181.436 73.1932 181.551 73.5043C181.666 73.8087 181.723 74.1232 181.723 74.4478C181.723 74.5155 181.72 74.5932 181.713 74.6812C181.706 74.7623 181.696 74.8469 181.683 74.9348H177.087V74.2246H181.246L180.881 74.529C180.942 74.157 180.898 73.8256 180.749 73.5348C180.607 73.2372 180.401 73.0039 180.13 72.8348C179.86 72.6589 179.556 72.571 179.217 72.571C178.879 72.571 178.565 72.6589 178.274 72.8348C177.99 73.0106 177.767 73.2575 177.604 73.5754C177.442 73.8865 177.378 74.2585 177.412 74.6913C177.378 75.1242 177.445 75.5029 177.614 75.8275C177.79 76.1454 178.027 76.3923 178.325 76.5681C178.629 76.744 178.954 76.8319 179.299 76.8319C179.698 76.8319 180.032 76.7372 180.303 76.5478C180.573 76.3585 180.793 76.1217 180.962 75.8377L181.612 76.1826C181.503 76.4261 181.338 76.6527 181.114 76.8623C180.891 77.0652 180.624 77.2309 180.313 77.3594C180.009 77.4812 179.67 77.542 179.299 77.542ZM185.155 77.542C184.634 77.542 184.177 77.4101 183.785 77.1464C183.393 76.8826 183.109 76.5242 182.933 76.071L183.572 75.7667C183.727 76.0981 183.944 76.3618 184.221 76.558C184.505 76.7541 184.816 76.8522 185.155 76.8522C185.479 76.8522 185.753 76.7744 185.976 76.6188C186.199 76.4565 186.311 76.2469 186.311 75.9899C186.311 75.8005 186.257 75.6517 186.149 75.5435C186.04 75.4285 185.915 75.3406 185.773 75.2797C185.631 75.2188 185.506 75.1749 185.398 75.1478L184.617 74.9246C184.116 74.7826 183.755 74.5831 183.531 74.3261C183.308 74.0691 183.197 73.7715 183.197 73.4333C183.197 73.1155 183.278 72.8382 183.44 72.6014C183.602 72.3647 183.822 72.1821 184.099 72.0536C184.377 71.9251 184.684 71.8609 185.023 71.8609C185.483 71.8609 185.898 71.9826 186.27 72.2261C186.649 72.4628 186.916 72.7942 187.072 73.2203L186.423 73.5246C186.287 73.2203 186.091 72.9836 185.834 72.8145C185.584 72.6386 185.303 72.5507 184.992 72.5507C184.688 72.5507 184.444 72.6285 184.262 72.7841C184.079 72.9396 183.988 73.1357 183.988 73.3725C183.988 73.5551 184.035 73.7005 184.13 73.8087C184.225 73.9169 184.333 73.9981 184.455 74.0522C184.583 74.1063 184.695 74.1469 184.789 74.1739L185.692 74.4377C186.132 74.5662 186.473 74.7657 186.717 75.0362C186.967 75.3068 187.092 75.6246 187.092 75.9899C187.092 76.2874 187.008 76.5546 186.839 76.7913C186.676 77.028 186.45 77.214 186.159 77.3493C185.868 77.4778 185.533 77.542 185.155 77.542ZM190.519 77.542C189.998 77.542 189.542 77.4101 189.149 77.1464C188.757 76.8826 188.473 76.5242 188.297 76.071L188.936 75.7667C189.092 76.0981 189.308 76.3618 189.586 76.558C189.87 76.7541 190.181 76.8522 190.519 76.8522C190.844 76.8522 191.118 76.7744 191.341 76.6188C191.564 76.4565 191.676 76.2469 191.676 75.9899C191.676 75.8005 191.621 75.6517 191.513 75.5435C191.405 75.4285 191.28 75.3406 191.138 75.2797C190.996 75.2188 190.871 75.1749 190.763 75.1478L189.981 74.9246C189.481 74.7826 189.119 74.5831 188.896 74.3261C188.673 74.0691 188.561 73.7715 188.561 73.4333C188.561 73.1155 188.642 72.8382 188.805 72.6014C188.967 72.3647 189.187 72.1821 189.464 72.0536C189.741 71.9251 190.049 71.8609 190.387 71.8609C190.847 71.8609 191.263 71.9826 191.635 72.2261C192.014 72.4628 192.281 72.7942 192.436 73.2203L191.787 73.5246C191.652 73.2203 191.456 72.9836 191.199 72.8145C190.949 72.6386 190.668 72.5507 190.357 72.5507C190.052 72.5507 189.809 72.6285 189.626 72.7841C189.444 72.9396 189.352 73.1357 189.352 73.3725C189.352 73.5551 189.4 73.7005 189.494 73.8087C189.589 73.9169 189.697 73.9981 189.819 74.0522C189.948 74.1063 190.059 74.1469 190.154 74.1739L191.057 74.4377C191.496 74.5662 191.838 74.7657 192.081 75.0362C192.332 75.3068 192.457 75.6246 192.457 75.9899C192.457 76.2874 192.372 76.5546 192.203 76.7913C192.041 77.028 191.814 77.214 191.523 77.3493C191.233 77.4778 190.898 77.542 190.519 77.542ZM196.543 77.542C196.029 77.542 195.562 77.4203 195.143 77.1768C194.724 76.9266 194.389 76.5884 194.139 76.1623C193.895 75.7295 193.773 75.2391 193.773 74.6913C193.773 74.1502 193.895 73.6667 194.139 73.2406C194.382 72.8145 194.71 72.4797 195.123 72.2362C195.542 71.986 196.015 71.8609 196.543 71.8609C197.071 71.8609 197.541 71.9826 197.953 72.2261C198.372 72.4696 198.7 72.8043 198.937 73.2304C199.181 73.6565 199.302 74.1435 199.302 74.6913C199.302 75.2459 199.177 75.7396 198.927 76.1725C198.677 76.5985 198.342 76.9333 197.923 77.1768C197.51 77.4203 197.05 77.542 196.543 77.542ZM196.543 76.7812C196.908 76.7812 197.236 76.6899 197.527 76.5072C197.825 76.3246 198.058 76.0744 198.227 75.7565C198.403 75.4386 198.491 75.0836 198.491 74.6913C198.491 74.299 198.403 73.9473 198.227 73.6362C198.058 73.3251 197.825 73.0783 197.527 72.8957C197.236 72.713 196.908 72.6217 196.543 72.6217C196.178 72.6217 195.846 72.713 195.549 72.8957C195.258 73.0783 195.025 73.3251 194.849 73.6362C194.673 73.9473 194.585 74.299 194.585 74.6913C194.585 75.0836 194.673 75.4386 194.849 75.7565C195.025 76.0744 195.258 76.3246 195.549 76.5072C195.846 76.6899 196.178 76.7812 196.543 76.7812ZM204.346 77.542C204.001 77.542 203.694 77.4778 203.423 77.3493C203.153 77.214 202.94 77.0314 202.784 76.8014C202.629 76.5715 202.551 76.3077 202.551 76.0101C202.551 75.7261 202.612 75.4691 202.733 75.2391C202.855 75.0024 203.044 74.8029 203.301 74.6406C203.558 74.4783 203.887 74.3633 204.286 74.2956L206.416 73.9406V74.6304L204.468 74.9551C204.076 75.0227 203.792 75.1478 203.616 75.3304C203.447 75.513 203.362 75.7295 203.362 75.9797C203.362 76.2232 203.457 76.4295 203.646 76.5985C203.843 76.7676 204.093 76.8522 204.397 76.8522C204.769 76.8522 205.094 76.7744 205.371 76.6188C205.648 76.4565 205.865 76.2401 206.02 75.9696C206.176 75.699 206.254 75.3981 206.254 75.0667V73.687C206.254 73.3623 206.135 73.0985 205.899 72.8957C205.662 72.6928 205.354 72.5913 204.975 72.5913C204.644 72.5913 204.353 72.6758 204.103 72.8449C203.853 73.0072 203.667 73.2203 203.545 73.4841L202.855 73.1087C202.957 72.8787 203.116 72.6691 203.332 72.4797C203.555 72.2903 203.809 72.1415 204.093 72.0333C204.377 71.9184 204.671 71.8609 204.975 71.8609C205.374 71.8609 205.726 71.9386 206.03 72.0942C206.342 72.2498 206.582 72.4662 206.751 72.7435C206.927 73.014 207.015 73.3285 207.015 73.687V77.4203H206.254V76.3348L206.365 76.4464C206.271 76.6493 206.122 76.8353 205.919 77.0043C205.723 77.1667 205.489 77.2985 205.219 77.4C204.955 77.4947 204.664 77.542 204.346 77.542ZM213.458 77.542C212.992 77.542 212.569 77.4372 212.19 77.2275C211.818 77.0111 211.538 76.7068 211.348 76.3145L211.47 76.2029V77.4203H210.709V69.7406H211.47V73.2L211.348 72.987C211.565 72.642 211.852 72.3681 212.211 72.1652C212.576 71.9623 212.992 71.8609 213.458 71.8609C213.972 71.8609 214.429 71.986 214.828 72.2362C215.234 72.4797 215.552 72.8145 215.782 73.2406C216.018 73.6667 216.137 74.1536 216.137 74.7014C216.137 75.2425 216.018 75.7295 215.782 76.1623C215.552 76.5884 215.234 76.9266 214.828 77.1768C214.429 77.4203 213.972 77.542 213.458 77.542ZM213.418 76.7812C213.783 76.7812 214.108 76.6899 214.392 76.5072C214.683 76.3246 214.909 76.0778 215.072 75.7667C215.241 75.4488 215.325 75.0937 215.325 74.7014C215.325 74.3024 215.241 73.9473 215.072 73.6362C214.909 73.3251 214.683 73.0783 214.392 72.8957C214.108 72.713 213.783 72.6217 213.418 72.6217C213.053 72.6217 212.721 72.713 212.424 72.8957C212.133 73.0783 211.9 73.3285 211.724 73.6464C211.555 73.9575 211.47 74.3092 211.47 74.7014C211.47 75.0937 211.555 75.4488 211.724 75.7667C211.9 76.0778 212.133 76.3246 212.424 76.5072C212.721 76.6899 213.053 76.7812 213.418 76.7812ZM220.154 77.542C219.647 77.542 219.187 77.4203 218.774 77.1768C218.369 76.9266 218.047 76.585 217.811 76.1522C217.574 75.7193 217.455 75.229 217.455 74.6812C217.455 74.1333 217.57 73.6498 217.8 73.2304C218.03 72.8043 218.341 72.4696 218.734 72.2261C219.133 71.9826 219.579 71.8609 220.073 71.8609C220.465 71.8609 220.813 71.9353 221.118 72.0841C221.429 72.2261 221.693 72.4222 221.909 72.6725C222.126 72.9159 222.291 73.1932 222.406 73.5043C222.521 73.8087 222.579 74.1232 222.579 74.4478C222.579 74.5155 222.575 74.5932 222.569 74.6812C222.562 74.7623 222.552 74.8469 222.538 74.9348H217.942V74.2246H222.102L221.737 74.529C221.798 74.157 221.754 73.8256 221.605 73.5348C221.463 73.2372 221.256 73.0039 220.986 72.8348C220.715 72.6589 220.411 72.571 220.073 72.571C219.735 72.571 219.42 72.6589 219.129 72.8348C218.845 73.0106 218.622 73.2575 218.46 73.5754C218.298 73.8865 218.233 74.2585 218.267 74.6913C218.233 75.1242 218.301 75.5029 218.47 75.8275C218.646 76.1454 218.883 76.3923 219.18 76.5681C219.484 76.744 219.809 76.8319 220.154 76.8319C220.553 76.8319 220.888 76.7372 221.158 76.5478C221.429 76.3585 221.649 76.1217 221.818 75.8377L222.467 76.1826C222.359 76.4261 222.193 76.6527 221.97 76.8623C221.747 77.0652 221.48 77.2309 221.169 77.3594C220.864 77.4812 220.526 77.542 220.154 77.542ZM224.123 77.4203V71.9826H224.884V73.0377L224.711 72.9971C224.847 72.6454 225.067 72.3681 225.371 72.1652C225.682 71.9623 226.04 71.8609 226.446 71.8609C226.832 71.8609 227.177 71.9488 227.481 72.1246C227.792 72.3005 228.036 72.544 228.211 72.8551C228.394 73.1594 228.485 73.5043 228.485 73.8899V77.4203H227.725V74.1841C227.725 73.8527 227.664 73.572 227.542 73.342C227.427 73.1121 227.261 72.9362 227.045 72.8145C226.835 72.686 226.592 72.6217 226.314 72.6217C226.037 72.6217 225.79 72.686 225.574 72.8145C225.357 72.9362 225.188 73.1155 225.067 73.3522C224.945 73.5821 224.884 73.8594 224.884 74.1841V77.4203H224.123ZM232.617 77.542C232.11 77.542 231.65 77.4203 231.237 77.1768C230.831 76.9266 230.51 76.585 230.273 76.1522C230.037 75.7193 229.918 75.229 229.918 74.6812C229.918 74.1333 230.033 73.6498 230.263 73.2304C230.493 72.8043 230.804 72.4696 231.197 72.2261C231.596 71.9826 232.042 71.8609 232.536 71.8609C232.928 71.8609 233.276 71.9353 233.581 72.0841C233.892 72.2261 234.155 72.4222 234.372 72.6725C234.588 72.9159 234.754 73.1932 234.869 73.5043C234.984 73.8087 235.041 74.1232 235.041 74.4478C235.041 74.5155 235.038 74.5932 235.031 74.6812C235.025 74.7623 235.014 74.8469 235.001 74.9348H230.405V74.2246H234.565L234.199 74.529C234.26 74.157 234.216 73.8256 234.068 73.5348C233.926 73.2372 233.719 73.0039 233.449 72.8348C233.178 72.6589 232.874 72.571 232.536 72.571C232.198 72.571 231.883 72.6589 231.592 72.8348C231.308 73.0106 231.085 73.2575 230.923 73.5754C230.76 73.8865 230.696 74.2585 230.73 74.6913C230.696 75.1242 230.764 75.5029 230.933 75.8275C231.109 76.1454 231.345 76.3923 231.643 76.5681C231.947 76.744 232.272 76.8319 232.617 76.8319C233.016 76.8319 233.351 76.7372 233.621 76.5478C233.892 76.3585 234.112 76.1217 234.281 75.8377L234.93 76.1826C234.822 76.4261 234.656 76.6527 234.433 76.8623C234.21 77.0652 233.942 77.2309 233.631 77.3594C233.327 77.4812 232.989 77.542 232.617 77.542ZM237.144 77.4203V72.7435H236.058V71.9826H237.144V71.4956C237.144 71.1169 237.228 70.799 237.397 70.542C237.567 70.2783 237.79 70.0787 238.067 69.9435C238.344 69.8082 238.642 69.7406 238.96 69.7406C239.027 69.7406 239.105 69.7473 239.193 69.7609C239.281 69.7676 239.352 69.7778 239.406 69.7913V70.4812C239.359 70.4676 239.295 70.4609 239.213 70.4609C239.132 70.4541 239.075 70.4507 239.041 70.4507C238.716 70.4507 238.446 70.5285 238.229 70.6841C238.013 70.8396 237.905 71.1101 237.905 71.4956V71.9826H239.234V72.7435H237.905V77.4203H237.144ZM240.52 77.4203V71.9826H241.281V77.4203H240.52ZM240.51 70.9275L241.393 69.4058H242.438L241.281 70.9275H240.51ZM245.382 77.542C244.848 77.542 244.377 77.4169 243.972 77.1667C243.566 76.9164 243.248 76.5783 243.018 76.1522C242.788 75.7193 242.673 75.2324 242.673 74.6913C242.673 74.1502 242.788 73.6667 243.018 73.2406C243.248 72.8145 243.566 72.4797 243.972 72.2362C244.377 71.986 244.848 71.8609 245.382 71.8609C245.72 71.8609 246.038 71.9217 246.335 72.0435C246.633 72.1652 246.897 72.3309 247.127 72.5406C247.357 72.7435 247.529 72.9802 247.644 73.2507L246.954 73.6058C246.819 73.315 246.613 73.0783 246.335 72.8957C246.058 72.713 245.74 72.6217 245.382 72.6217C245.023 72.6217 244.699 72.713 244.408 72.8957C244.124 73.0715 243.897 73.3184 243.728 73.6362C243.566 73.9473 243.485 74.3024 243.485 74.7014C243.485 75.0937 243.566 75.4488 243.728 75.7667C243.897 76.0778 244.124 76.3246 244.408 76.5072C244.699 76.6899 245.023 76.7812 245.382 76.7812C245.74 76.7812 246.055 76.6899 246.325 76.5072C246.603 76.3246 246.812 76.0812 246.954 75.7768L247.644 76.1522C247.529 76.4159 247.357 76.6527 247.127 76.8623C246.897 77.072 246.633 77.2377 246.335 77.3594C246.038 77.4812 245.72 77.542 245.382 77.542ZM249.182 77.4203V71.9826H249.943V77.4203H249.182ZM249.182 70.9783V69.8623H249.943V70.9783H249.182ZM254.25 77.542C253.736 77.542 253.269 77.4203 252.85 77.1768C252.43 76.9266 252.096 76.5884 251.845 76.1623C251.602 75.7295 251.48 75.2391 251.48 74.6913C251.48 74.1502 251.602 73.6667 251.845 73.2406C252.089 72.8145 252.417 72.4797 252.829 72.2362C253.249 71.986 253.722 71.8609 254.25 71.8609C254.777 71.8609 255.247 71.9826 255.66 72.2261C256.079 72.4696 256.407 72.8043 256.644 73.2304C256.887 73.6565 257.009 74.1435 257.009 74.6913C257.009 75.2459 256.884 75.7396 256.634 76.1725C256.384 76.5985 256.049 76.9333 255.629 77.1768C255.217 77.4203 254.757 77.542 254.25 77.542ZM254.25 76.7812C254.615 76.7812 254.943 76.6899 255.234 76.5072C255.531 76.3246 255.765 76.0744 255.934 75.7565C256.11 75.4386 256.198 75.0836 256.198 74.6913C256.198 74.299 256.11 73.9473 255.934 73.6362C255.765 73.3251 255.531 73.0783 255.234 72.8957C254.943 72.713 254.615 72.6217 254.25 72.6217C253.885 72.6217 253.553 72.713 253.256 72.8957C252.965 73.0783 252.731 73.3251 252.556 73.6362C252.38 73.9473 252.292 74.299 252.292 74.6913C252.292 75.0836 252.38 75.4386 252.556 75.7565C252.731 76.0744 252.965 76.3246 253.256 76.5072C253.553 76.6899 253.885 76.7812 254.25 76.7812ZM260.441 77.542C259.92 77.542 259.464 77.4101 259.071 77.1464C258.679 76.8826 258.395 76.5242 258.219 76.071L258.858 75.7667C259.014 76.0981 259.23 76.3618 259.508 76.558C259.792 76.7541 260.103 76.8522 260.441 76.8522C260.766 76.8522 261.04 76.7744 261.263 76.6188C261.486 76.4565 261.597 76.2469 261.597 75.9899C261.597 75.8005 261.543 75.6517 261.435 75.5435C261.327 75.4285 261.202 75.3406 261.06 75.2797C260.918 75.2188 260.793 75.1749 260.684 75.1478L259.903 74.9246C259.403 74.7826 259.041 74.5831 258.818 74.3261C258.595 74.0691 258.483 73.7715 258.483 73.4333C258.483 73.1155 258.564 72.8382 258.726 72.6014C258.889 72.3647 259.109 72.1821 259.386 72.0536C259.663 71.9251 259.971 71.8609 260.309 71.8609C260.769 71.8609 261.185 71.9826 261.557 72.2261C261.936 72.4628 262.203 72.7942 262.358 73.2203L261.709 73.5246C261.574 73.2203 261.378 72.9836 261.121 72.8145C260.87 72.6386 260.59 72.5507 260.279 72.5507C259.974 72.5507 259.731 72.6285 259.548 72.7841C259.366 72.9396 259.274 73.1357 259.274 73.3725C259.274 73.5551 259.322 73.7005 259.416 73.8087C259.511 73.9169 259.619 73.9981 259.741 74.0522C259.869 74.1063 259.981 74.1469 260.076 74.1739L260.979 74.4377C261.418 74.5662 261.76 74.7657 262.003 75.0362C262.254 75.3068 262.379 75.6246 262.379 75.9899C262.379 76.2874 262.294 76.5546 262.125 76.7913C261.963 77.028 261.736 77.214 261.445 77.3493C261.155 77.4778 260.82 77.542 260.441 77.542ZM130.463 90.542C129.956 90.542 129.496 90.4203 129.083 90.1768C128.677 89.9266 128.356 89.585 128.119 89.1522C127.883 88.7193 127.764 88.229 127.764 87.6812C127.764 87.1333 127.879 86.6498 128.109 86.2304C128.339 85.8043 128.65 85.4696 129.043 85.2261C129.442 84.9826 129.888 84.8609 130.382 84.8609C130.774 84.8609 131.122 84.9353 131.427 85.0841C131.738 85.2261 132.002 85.4222 132.218 85.6725C132.434 85.9159 132.6 86.1932 132.715 86.5043C132.83 86.8087 132.888 87.1232 132.888 87.4478C132.888 87.5155 132.884 87.5932 132.877 87.6812C132.871 87.7623 132.861 87.8469 132.847 87.9348H128.251V87.2246H132.411L132.046 87.529C132.106 87.157 132.062 86.8256 131.914 86.5348C131.772 86.2372 131.565 86.0039 131.295 85.8348C131.024 85.6589 130.72 85.571 130.382 85.571C130.044 85.571 129.729 85.6589 129.438 85.8348C129.154 86.0106 128.931 86.2575 128.769 86.5754C128.606 86.8865 128.542 87.2585 128.576 87.6913C128.542 88.1242 128.61 88.5029 128.779 88.8275C128.955 89.1454 129.191 89.3923 129.489 89.5681C129.793 89.744 130.118 89.8319 130.463 89.8319C130.862 89.8319 131.197 89.7372 131.467 89.5478C131.738 89.3585 131.958 89.1217 132.127 88.8377L132.776 89.1826C132.668 89.4261 132.502 89.6527 132.279 89.8623C132.056 90.0652 131.789 90.2309 131.477 90.3594C131.173 90.4812 130.835 90.542 130.463 90.542ZM133.663 90.4203L135.571 87.7014L133.674 84.9826H134.607L136.291 87.4275H135.774L137.447 84.9826H138.381L136.484 87.7014L138.381 90.4203H137.447L135.774 87.9754H136.291L134.607 90.4203H133.663ZM141.767 90.542C141.233 90.542 140.763 90.4169 140.357 90.1667C139.951 89.9164 139.633 89.5783 139.403 89.1522C139.173 88.7193 139.058 88.2324 139.058 87.6913C139.058 87.1502 139.173 86.6667 139.403 86.2406C139.633 85.8145 139.951 85.4797 140.357 85.2362C140.763 84.986 141.233 84.8609 141.767 84.8609C142.105 84.8609 142.423 84.9217 142.72 85.0435C143.018 85.1652 143.282 85.3309 143.512 85.5406C143.742 85.7435 143.914 85.9802 144.029 86.2507L143.339 86.6058C143.204 86.315 142.998 86.0783 142.72 85.8957C142.443 85.713 142.125 85.6217 141.767 85.6217C141.408 85.6217 141.084 85.713 140.793 85.8957C140.509 86.0715 140.282 86.3184 140.113 86.6362C139.951 86.9473 139.87 87.3024 139.87 87.7014C139.87 88.0937 139.951 88.4488 140.113 88.7667C140.282 89.0778 140.509 89.3246 140.793 89.5072C141.084 89.6899 141.408 89.7812 141.767 89.7812C142.125 89.7812 142.44 89.6899 142.71 89.5072C142.988 89.3246 143.197 89.0812 143.339 88.7768L144.029 89.1522C143.914 89.4159 143.742 89.6527 143.512 89.8623C143.282 90.072 143.018 90.2377 142.72 90.3594C142.423 90.4812 142.105 90.542 141.767 90.542ZM145.567 90.4203V82.7406H146.328V90.4203H145.567ZM150.016 90.542C149.637 90.542 149.292 90.4541 148.981 90.2783C148.67 90.0957 148.423 89.8454 148.241 89.5275C148.065 89.2029 147.977 88.8309 147.977 88.4116V84.9826H148.738V88.3203C148.738 88.6111 148.795 88.8681 148.91 89.0913C149.032 89.3077 149.198 89.4768 149.407 89.5985C149.624 89.7203 149.871 89.7812 150.148 89.7812C150.425 89.7812 150.672 89.7203 150.888 89.5985C151.105 89.47 151.274 89.2908 151.396 89.0609C151.517 88.8242 151.578 88.5435 151.578 88.2188V84.9826H152.339V90.4203H151.578V89.3652L151.751 89.4058C151.622 89.7575 151.402 90.0348 151.091 90.2377C150.78 90.4406 150.422 90.542 150.016 90.542ZM155.994 90.542C155.473 90.542 155.016 90.4101 154.624 90.1464C154.232 89.8826 153.948 89.5242 153.772 89.071L154.411 88.7667C154.567 89.0981 154.783 89.3618 155.06 89.558C155.345 89.7541 155.656 89.8522 155.994 89.8522C156.318 89.8522 156.592 89.7744 156.816 89.6188C157.039 89.4565 157.15 89.2469 157.15 88.9899C157.15 88.8005 157.096 88.6517 156.988 88.5435C156.88 88.4285 156.755 88.3406 156.613 88.2797C156.471 88.2188 156.345 88.1749 156.237 88.1478L155.456 87.9246C154.956 87.7826 154.594 87.5831 154.371 87.3261C154.147 87.0691 154.036 86.7715 154.036 86.4333C154.036 86.1155 154.117 85.8382 154.279 85.6014C154.442 85.3647 154.661 85.1821 154.939 85.0536C155.216 84.9251 155.524 84.8609 155.862 84.8609C156.322 84.8609 156.738 84.9826 157.11 85.2261C157.488 85.4628 157.756 85.7942 157.911 86.2203L157.262 86.5246C157.127 86.2203 156.93 85.9836 156.673 85.8145C156.423 85.6386 156.143 85.5507 155.831 85.5507C155.527 85.5507 155.284 85.6285 155.101 85.7841C154.918 85.9396 154.827 86.1357 154.827 86.3725C154.827 86.5551 154.874 86.7005 154.969 86.8087C155.064 86.9169 155.172 86.9981 155.294 87.0522C155.422 87.1063 155.534 87.1469 155.629 87.1739L156.531 87.4377C156.971 87.5662 157.313 87.7657 157.556 88.0362C157.806 88.3068 157.931 88.6246 157.931 88.9899C157.931 89.2874 157.847 89.5546 157.678 89.7913C157.516 90.028 157.289 90.214 156.998 90.3493C156.707 90.4778 156.373 90.542 155.994 90.542ZM159.471 90.4203V84.9826H160.232V90.4203H159.471ZM159.471 83.9783V82.8623H160.232V83.9783H159.471ZM163.443 90.4203L161.323 84.9826H162.175L163.961 89.7507H163.687L165.482 84.9826H166.345L164.204 90.4203H163.443ZM169.884 90.542C169.37 90.542 168.903 90.4203 168.484 90.1768C168.064 89.9266 167.73 89.5884 167.479 89.1623C167.236 88.7295 167.114 88.2391 167.114 87.6913C167.114 87.1502 167.236 86.6667 167.479 86.2406C167.723 85.8145 168.051 85.4797 168.463 85.2362C168.883 84.986 169.356 84.8609 169.884 84.8609C170.411 84.8609 170.881 84.9826 171.294 85.2261C171.713 85.4696 172.041 85.8043 172.278 86.2304C172.521 86.6565 172.643 87.1435 172.643 87.6913C172.643 88.2459 172.518 88.7396 172.268 89.1725C172.017 89.5985 171.683 89.9333 171.263 90.1768C170.851 90.4203 170.391 90.542 169.884 90.542ZM169.884 89.7812C170.249 89.7812 170.577 89.6899 170.868 89.5072C171.165 89.3246 171.399 89.0744 171.568 88.7565C171.744 88.4386 171.831 88.0836 171.831 87.6913C171.831 87.299 171.744 86.9473 171.568 86.6362C171.399 86.3251 171.165 86.0783 170.868 85.8957C170.577 85.713 170.249 85.6217 169.884 85.6217C169.518 85.6217 169.187 85.713 168.889 85.8957C168.599 86.0783 168.365 86.3251 168.189 86.6362C168.014 86.9473 167.926 87.299 167.926 87.6913C167.926 88.0836 168.014 88.4386 168.189 88.7565C168.365 89.0744 168.599 89.3246 168.889 89.5072C169.187 89.6899 169.518 89.7812 169.884 89.7812ZM176.075 90.542C175.554 90.542 175.097 90.4101 174.705 90.1464C174.313 89.8826 174.029 89.5242 173.853 89.071L174.492 88.7667C174.648 89.0981 174.864 89.3618 175.141 89.558C175.426 89.7541 175.737 89.8522 176.075 89.8522C176.399 89.8522 176.673 89.7744 176.897 89.6188C177.12 89.4565 177.231 89.2469 177.231 88.9899C177.231 88.8005 177.177 88.6517 177.069 88.5435C176.961 88.4285 176.836 88.3406 176.694 88.2797C176.552 88.2188 176.426 88.1749 176.318 88.1478L175.537 87.9246C175.037 87.7826 174.675 87.5831 174.452 87.3261C174.228 87.0691 174.117 86.7715 174.117 86.4333C174.117 86.1155 174.198 85.8382 174.36 85.6014C174.523 85.3647 174.742 85.1821 175.02 85.0536C175.297 84.9251 175.605 84.8609 175.943 84.8609C176.403 84.8609 176.819 84.9826 177.191 85.2261C177.569 85.4628 177.837 85.7942 177.992 86.2203L177.343 86.5246C177.208 86.2203 177.012 85.9836 176.755 85.8145C176.504 85.6386 176.224 85.5507 175.912 85.5507C175.608 85.5507 175.365 85.6285 175.182 85.7841C174.999 85.9396 174.908 86.1357 174.908 86.3725C174.908 86.5551 174.955 86.7005 175.05 86.8087C175.145 86.9169 175.253 86.9981 175.375 87.0522C175.503 87.1063 175.615 87.1469 175.71 87.1739L176.612 87.4377C177.052 87.5662 177.394 87.7657 177.637 88.0362C177.887 88.3068 178.012 88.6246 178.012 88.9899C178.012 89.2874 177.928 89.5546 177.759 89.7913C177.597 90.028 177.37 90.214 177.079 90.3493C176.788 90.4778 176.454 90.542 176.075 90.542ZM179.847 88.2493L179.796 82.8623H180.607L180.557 88.2493H179.847ZM179.796 90.4203V89.3043H180.607V90.4203H179.796Z" fill="#FAFAFA"/>
<defs>
<linearGradient id="paint0_linear_34_8019" x1="102.389" y1="-1.00927e-06" x2="297.056" y2="149.069" gradientUnits="userSpaceOnUse">
<stop/>
<stop offset="1" stop-color="#CD9403"/>
</linearGradient>
</defs>
</svg>
