<svg width="25" height="25" viewBox="0 0 25 25" fill="none" xmlns="http://www.w3.org/2000/svg">
<path d="M22.4999 9.25146L19.8799 10.2515" stroke="#475467" stroke-width="1.5" stroke-linecap="round" stroke-linejoin="round"/>
<path d="M5.13 10.2515L2.5 9.25146" stroke="#475467" stroke-width="1.5" stroke-linecap="round" stroke-linejoin="round"/>
<path d="M18.75 14.2515H16.25" stroke="#475467" stroke-width="1.5" stroke-linecap="round" stroke-linejoin="round"/>
<path d="M8.75 14.2515H6.25" stroke="#475467" stroke-width="1.5" stroke-linecap="round" stroke-linejoin="round"/>
<path d="M19.879 10.2515L19.04 6.23946C18.797 5.08146 17.776 4.25146 16.592 4.25146H8.51195C7.35095 4.25146 6.34195 5.05146 6.07795 6.18246L5.12695 10.2515" stroke="#475467" stroke-width="1.5" stroke-linecap="round" stroke-linejoin="round"/>
<path fill-rule="evenodd" clip-rule="evenodd" d="M3.75 20.2515H6C6.828 20.2515 7.5 19.5795 7.5 18.7515V17.7515H17.5V18.7515C17.5 19.5795 18.172 20.2515 19 20.2515H21.25C21.94 20.2515 22.5 19.6915 22.5 19.0015V13.2515C22.5 11.5945 21.157 10.2515 19.5 10.2515H5.5C3.843 10.2515 2.5 11.5945 2.5 13.2515V19.0015C2.5 19.6915 3.06 20.2515 3.75 20.2515Z" stroke="#475467" stroke-width="1.5" stroke-linecap="round" stroke-linejoin="round"/>
</svg>
