<svg width="39" height="11" viewBox="0 0 39 11" fill="none" xmlns="http://www.w3.org/2000/svg">
<rect width="38.5463" height="11" rx="5.5" fill="#FBBC1B" fill-opacity="0.9"/>
<path d="M11.0772 7.05849C10.8205 7.05849 10.5817 7.01137 10.3607 6.91714C10.143 6.82291 9.95296 6.69294 9.79049 6.52722C9.63128 6.35826 9.50618 6.16005 9.4152 5.9326C9.32421 5.70514 9.27872 5.45495 9.27872 5.182C9.27872 4.91231 9.32259 4.66374 9.41032 4.43628C9.5013 4.20558 9.62803 4.00737 9.79049 3.84166C9.95296 3.67269 10.143 3.54272 10.3607 3.45174C10.5785 3.35751 10.8173 3.31039 11.0772 3.31039C11.3339 3.31039 11.563 3.35426 11.7645 3.44199C11.9692 3.52972 12.1414 3.64507 12.2811 3.78804C12.4208 3.92776 12.5215 4.08048 12.5833 4.2462L12.0666 4.4899C11.9887 4.29494 11.8636 4.13735 11.6913 4.01712C11.5224 3.89365 11.3177 3.83191 11.0772 3.83191C10.8368 3.83191 10.6239 3.88877 10.4387 4.0025C10.2535 4.11623 10.1089 4.27382 10.0049 4.47528C9.90422 4.67673 9.85385 4.91231 9.85385 5.182C9.85385 5.4517 9.90422 5.6889 10.0049 5.89361C10.1089 6.09506 10.2535 6.25266 10.4387 6.36638C10.6239 6.47686 10.8368 6.5321 11.0772 6.5321C11.3177 6.5321 11.5224 6.47199 11.6913 6.35176C11.8636 6.23154 11.9887 6.07394 12.0666 5.87898L12.5833 6.12268C12.5215 6.28515 12.4208 6.43787 12.2811 6.58084C12.1414 6.72381 11.9692 6.83916 11.7645 6.92689C11.563 7.01462 11.3339 7.05849 11.0772 7.05849ZM13.0724 7V3.31039H13.6231V7H13.0724ZM15.4563 7.05849C15.1931 7.05849 14.9592 6.99838 14.7545 6.87815C14.553 6.75468 14.3954 6.58896 14.2817 6.381C14.168 6.1698 14.1111 5.93422 14.1111 5.67428C14.1111 5.40783 14.168 5.17226 14.2817 4.96755C14.3987 4.76284 14.5546 4.602 14.7496 4.48502C14.9445 4.3648 15.1655 4.30469 15.4124 4.30469C15.6107 4.30469 15.7877 4.3388 15.9437 4.40704C16.0997 4.47528 16.2313 4.56951 16.3385 4.68973C16.4457 4.80671 16.527 4.94155 16.5822 5.09427C16.6407 5.24699 16.6699 5.40946 16.6699 5.58167C16.6699 5.62391 16.6683 5.66778 16.6651 5.71327C16.6618 5.75876 16.6553 5.801 16.6456 5.83999H14.5449V5.40133H16.3336L16.0704 5.60117C16.1029 5.44195 16.0916 5.3006 16.0363 5.17713C15.9843 5.05041 15.9031 4.9513 15.7926 4.87982C15.6854 4.80508 15.5587 4.76772 15.4124 4.76772C15.2662 4.76772 15.1363 4.80508 15.0225 4.87982C14.9088 4.9513 14.8211 5.05528 14.7593 5.19175C14.6976 5.32497 14.6732 5.48744 14.6862 5.67915C14.67 5.85786 14.6943 6.01383 14.7593 6.14705C14.8276 6.28027 14.9218 6.38425 15.042 6.45899C15.1655 6.53372 15.3052 6.57109 15.4612 6.57109C15.6204 6.57109 15.7552 6.53535 15.8657 6.46386C15.9794 6.39238 16.0688 6.29977 16.1338 6.18604L16.5822 6.40537C16.5302 6.52885 16.449 6.64095 16.3385 6.74168C16.2313 6.83916 16.1013 6.91714 15.9486 6.97563C15.7991 7.03087 15.635 7.05849 15.4563 7.05849ZM17.9245 7.05849C17.7458 7.05849 17.5882 7.02762 17.4517 6.96588C17.3185 6.9009 17.2145 6.81316 17.1398 6.70269C17.065 6.58896 17.0277 6.45574 17.0277 6.30302C17.0277 6.16005 17.0585 6.0317 17.1203 5.91798C17.1853 5.80425 17.2844 5.70839 17.4176 5.63041C17.5508 5.55243 17.7182 5.49719 17.9196 5.46469L18.8359 5.3136V5.74739L18.0268 5.88873C17.8806 5.91473 17.7734 5.96184 17.7052 6.03008C17.6369 6.09506 17.6028 6.17955 17.6028 6.28352C17.6028 6.38425 17.6402 6.46711 17.7149 6.5321C17.7929 6.59383 17.892 6.6247 18.0122 6.6247C18.1617 6.6247 18.2917 6.59221 18.4021 6.52722C18.5159 6.46224 18.6036 6.37613 18.6653 6.2689C18.7271 6.15843 18.7579 6.03658 18.7579 5.90335V5.22587C18.7579 5.0959 18.7092 4.99029 18.6117 4.90906C18.5175 4.82458 18.3908 4.78234 18.2315 4.78234C18.0853 4.78234 17.957 4.82133 17.8465 4.89931C17.7393 4.97405 17.6597 5.07153 17.6077 5.19175L17.1495 4.96267C17.1983 4.8327 17.2779 4.71898 17.3883 4.6215C17.4988 4.52077 17.6272 4.44278 17.7734 4.38754C17.9229 4.33231 18.0805 4.30469 18.2462 4.30469C18.4541 4.30469 18.6377 4.34368 18.7969 4.42166C18.9594 4.49965 19.0845 4.6085 19.1722 4.74822C19.2632 4.88469 19.3087 5.04391 19.3087 5.22587V7H18.7823V6.52235L18.8944 6.53697C18.8327 6.6442 18.7531 6.7368 18.6556 6.81479C18.5614 6.89277 18.4525 6.95288 18.329 6.99513C18.2088 7.03737 18.074 7.05849 17.9245 7.05849ZM19.9039 7V4.36317H20.4303V4.87982L20.367 4.81158C20.4319 4.64587 20.5359 4.52077 20.6789 4.43628C20.8219 4.34855 20.9876 4.30469 21.176 4.30469C21.371 4.30469 21.5432 4.34693 21.6927 4.43141C21.8422 4.51589 21.9591 4.63287 22.0436 4.78234C22.1281 4.93181 22.1703 5.10402 22.1703 5.29898V7H21.6245V5.4452C21.6245 5.31198 21.6001 5.19988 21.5513 5.10889C21.5026 5.01466 21.4327 4.94318 21.3418 4.89444C21.254 4.84245 21.1533 4.81645 21.0396 4.81645C20.9258 4.81645 20.8235 4.84245 20.7325 4.89444C20.6448 4.94318 20.5765 5.01466 20.5278 5.10889C20.4791 5.20312 20.4547 5.31523 20.4547 5.4452V7H19.9039ZM22.711 7V4.36317H23.2618V7H22.711ZM22.711 4.0025V3.36888H23.2618V4.0025H22.711ZM23.857 7V4.36317H24.3834V4.87982L24.32 4.81158C24.385 4.64587 24.489 4.52077 24.632 4.43628C24.7749 4.34855 24.9407 4.30469 25.1291 4.30469C25.3241 4.30469 25.4963 4.34693 25.6458 4.43141C25.7952 4.51589 25.9122 4.63287 25.9967 4.78234C26.0812 4.93181 26.1234 5.10402 26.1234 5.29898V7H25.5775V5.4452C25.5775 5.31198 25.5531 5.19988 25.5044 5.10889C25.4557 5.01466 25.3858 4.94318 25.2948 4.89444C25.2071 4.84245 25.1064 4.81645 24.9926 4.81645C24.8789 4.81645 24.7766 4.84245 24.6856 4.89444C24.5978 4.94318 24.5296 5.01466 24.4809 5.10889C24.4321 5.20312 24.4078 5.31523 24.4078 5.4452V7H23.857ZM27.9362 8.07228C27.7445 8.07228 27.5674 8.04141 27.405 7.97967C27.2425 7.91793 27.1028 7.83183 26.9858 7.72135C26.8688 7.61412 26.7811 7.4874 26.7226 7.34118L27.2295 7.1316C27.275 7.25507 27.3578 7.35743 27.4781 7.43866C27.6015 7.51989 27.7526 7.56051 27.9313 7.56051C28.0711 7.56051 28.1962 7.53289 28.3066 7.47765C28.4171 7.42566 28.5049 7.34768 28.5698 7.2437C28.6348 7.14297 28.6673 7.02112 28.6673 6.87815V6.28352L28.7648 6.39563C28.6738 6.56459 28.5471 6.69294 28.3846 6.78067C28.2254 6.8684 28.0451 6.91227 27.8436 6.91227C27.5999 6.91227 27.3806 6.85541 27.1856 6.74168C26.9907 6.62795 26.8363 6.47199 26.7226 6.27378C26.6121 6.07557 26.5569 5.85299 26.5569 5.60604C26.5569 5.35584 26.6121 5.13326 26.7226 4.9383C26.8363 4.74335 26.989 4.589 27.1808 4.47528C27.3725 4.36155 27.5918 4.30469 27.8387 4.30469C28.0402 4.30469 28.2189 4.34855 28.3749 4.43628C28.5341 4.52077 28.6641 4.64424 28.7648 4.80671L28.6917 4.94318V4.36317H29.2132V6.87815C29.2132 7.1056 29.158 7.30869 29.0475 7.4874C28.9403 7.66936 28.7908 7.81233 28.5991 7.91631C28.4074 8.02029 28.1864 8.07228 27.9362 8.07228ZM27.907 6.4005C28.0532 6.4005 28.1832 6.36638 28.2969 6.29815C28.4106 6.22666 28.5 6.13243 28.565 6.01546C28.6332 5.89523 28.6673 5.76038 28.6673 5.61091C28.6673 5.46145 28.6332 5.3266 28.565 5.20637C28.4967 5.08615 28.4057 4.99192 28.292 4.92368C28.1783 4.8522 28.0499 4.81645 27.907 4.81645C27.7575 4.81645 27.6243 4.8522 27.5073 4.92368C27.3903 4.99192 27.2977 5.08615 27.2295 5.20637C27.1645 5.32335 27.132 5.4582 27.132 5.61091C27.132 5.75713 27.1645 5.89036 27.2295 6.01058C27.2977 6.13081 27.3903 6.22666 27.5073 6.29815C27.6243 6.36638 27.7575 6.4005 27.907 6.4005Z" fill="#705102"/>
</svg>
