<svg width="12" height="12" viewBox="0 0 12 12" fill="none" xmlns="http://www.w3.org/2000/svg">
<path d="M6.70686 5.29289C7.09739 5.68342 7.09739 6.31658 6.70686 6.70711C6.31634 7.09763 5.68317 7.09763 5.29265 6.70711C4.90212 6.31658 4.90212 5.68342 5.29265 5.29289C5.68317 4.90237 6.31634 4.90237 6.70686 5.29289" stroke="#868E96" stroke-width="0.75" stroke-linecap="round" stroke-linejoin="round"/>
<path d="M9.18188 2.81813C7.42438 1.06062 4.57538 1.06062 2.81788 2.81813C1.06038 4.57563 1.06038 7.42463 2.81788 9.18213C4.57538 10.9396 7.42438 10.9396 9.18188 9.18213C10.0604 8.30363 10.4899 7.15162 10.4889 6.00012" stroke="#868E96" stroke-width="0.75" stroke-linecap="round" stroke-linejoin="round"/>
<path d="M9.17983 2.82031L6.70483 5.29531" stroke="#868E96" stroke-width="0.75" stroke-linecap="round" stroke-linejoin="round"/>
<path d="M7.9445 4.0555C7.447 3.558 6.7595 3.25 6 3.25C4.481 3.25 3.25 4.481 3.25 6C3.25 7.519 4.481 8.75 6 8.75C7.519 8.75 8.75 7.519 8.75 6" stroke="#868E96" stroke-width="0.75" stroke-linecap="round" stroke-linejoin="round"/>
</svg>
