<svg width="14" height="14" viewBox="0 0 14 14" fill="none" xmlns="http://www.w3.org/2000/svg">
<circle cx="7.29199" cy="7" r="4.96875" stroke="#78828A" stroke-width="0.828125" stroke-linecap="round" stroke-linejoin="round"/>
<path fill-rule="evenodd" clip-rule="evenodd" d="M6.04981 6.99987L5.72659 6.67663C5.58015 6.53019 5.38153 6.44792 5.17443 6.44792C4.96734 6.44792 4.76872 6.53019 4.62228 6.67663V6.67663C4.35909 6.93982 4.31824 7.35219 4.52469 7.66189L5.59573 9.26866C5.80053 9.57589 6.14532 9.76042 6.51454 9.76042H8.6103C9.16717 9.76041 9.63688 9.34574 9.70593 8.79317L9.90576 7.19386C9.97937 6.60468 9.57385 6.06278 8.98783 5.96721L7.70606 5.75818V4.51562C7.70606 4.05826 7.33529 3.6875 6.87793 3.6875V3.6875C6.42057 3.6875 6.04981 4.05826 6.04981 4.51562V6.99987Z" stroke="#78828A" stroke-width="0.828125" stroke-linecap="round" stroke-linejoin="round"/>
</svg>
