<svg width="17" height="15" viewBox="0 0 17 15" fill="none" xmlns="http://www.w3.org/2000/svg">
<path d="M17 7.48456C17 7.86426 16.7178 8.17805 16.3518 8.22771L16.25 8.23456L3.066 8.23396L7.82899 12.9775C8.12251 13.2698 8.12353 13.7446 7.83127 14.0381C7.56558 14.305 7.14897 14.3301 6.85489 14.1129L6.77061 14.0404L0.720613 8.01643C0.681923 7.97791 0.648317 7.93621 0.619795 7.89218C0.611738 7.87893 0.603539 7.86537 0.595764 7.85154C0.588614 7.83968 0.582151 7.82737 0.576056 7.81493C0.567589 7.79682 0.559317 7.77811 0.551805 7.75902C0.545702 7.7443 0.540607 7.72998 0.535959 7.71555C0.530434 7.69766 0.525064 7.67859 0.520447 7.65923C0.517014 7.64571 0.514294 7.63271 0.511923 7.61965C0.508587 7.60021 0.505749 7.58011 0.503723 7.55976C0.501974 7.54424 0.500921 7.52887 0.50034 7.51348C0.500189 7.50414 0.5 7.49437 0.5 7.48456L0.500376 7.45551C0.50095 7.44079 0.501955 7.42608 0.503393 7.41141L0.5 7.48456C0.5 7.43723 0.504383 7.39093 0.512768 7.34603C0.514711 7.33531 0.517029 7.3243 0.519594 7.31334C0.524921 7.29076 0.531078 7.26902 0.538168 7.2477C0.541647 7.23711 0.545702 7.2258 0.550034 7.21457C0.558798 7.192 0.568325 7.17049 0.578804 7.14953C0.583673 7.13968 0.589125 7.12936 0.594835 7.11915C0.604208 7.10249 0.613863 7.08666 0.624073 7.07123C0.631277 7.06031 0.639254 7.04895 0.647583 7.03776L0.654074 7.02911C0.67428 7.00272 0.696201 6.9777 0.719669 6.95423L0.72057 6.95353L6.77057 0.928534C7.06407 0.636248 7.53894 0.637231 7.83123 0.93073C8.09694 1.19755 8.12029 1.61426 7.90182 1.90742L7.82903 1.99139L3.068 6.73396L16.25 6.73456C16.6642 6.73456 17 7.07035 17 7.48456Z" fill="#111111"/>
</svg>
