<svg width="18" height="18" viewBox="0 0 18 18" fill="none" xmlns="http://www.w3.org/2000/svg">
<path d="M9.21457 1.7854C7.32653 1.7854 5.51582 2.53542 4.18077 3.87047C2.84572 5.20552 2.0957 7.01623 2.0957 8.90427C2.0957 10.7923 2.84572 12.603 4.18077 13.9381C5.51582 15.2731 7.32653 16.0231 9.21457 16.0231C9.9247 16.0251 10.631 15.9189 11.3092 15.7083C11.3963 15.6858 11.4748 15.6382 11.535 15.5714L15.8817 11.2247C15.947 11.1633 15.9943 11.0852 16.0186 10.9989C16.2292 10.3207 16.3354 9.6144 16.3334 8.90427C16.3298 7.01734 15.5786 5.20873 14.2444 3.87447C12.9101 2.5402 11.1015 1.78902 9.21457 1.7854ZM11.6788 6.71385C11.8413 6.71385 12.0001 6.76202 12.1351 6.85228C12.2702 6.94254 12.3755 7.07082 12.4377 7.22092C12.4998 7.37101 12.5161 7.53617 12.4844 7.6955C12.4527 7.85484 12.3745 8.0012 12.2596 8.11608C12.1447 8.23095 11.9984 8.30919 11.839 8.34088C11.6797 8.37257 11.5145 8.35631 11.3645 8.29414C11.2144 8.23197 11.0861 8.12668 10.9958 7.9916C10.9056 7.85652 10.8574 7.69771 10.8574 7.53525C10.8574 7.3174 10.9439 7.10848 11.098 6.95443C11.252 6.80039 11.4609 6.71385 11.6788 6.71385ZM6.75035 6.71385C6.91281 6.71385 7.07162 6.76202 7.2067 6.85228C7.34178 6.94254 7.44706 7.07082 7.50923 7.22092C7.5714 7.37101 7.58767 7.53617 7.55597 7.6955C7.52428 7.85484 7.44605 8.0012 7.33117 8.11608C7.21629 8.23095 7.06993 8.30919 6.9106 8.34088C6.75126 8.37257 6.5861 8.35631 6.43601 8.29414C6.28592 8.23197 6.15763 8.12668 6.06737 7.9916C5.97711 7.85652 5.92894 7.69771 5.92894 7.53525C5.92894 7.3174 6.01548 7.10848 6.16952 6.95443C6.32357 6.80039 6.5325 6.71385 6.75035 6.71385ZM12.5344 10.8209C12.198 11.4037 11.7141 11.8877 11.1313 12.2242C10.5486 12.5607 9.8875 12.7378 9.21457 12.7378C8.54164 12.7378 7.88056 12.5607 7.2978 12.2242C6.71504 11.8877 6.23113 11.4037 5.89471 10.8209C5.85186 10.7587 5.82232 10.6883 5.80797 10.6142C5.79361 10.5401 5.79474 10.4638 5.81129 10.3901C5.82784 10.3164 5.85945 10.2469 5.90414 10.1861C5.94882 10.1252 6.00561 10.0742 6.07094 10.0363C6.13628 9.99847 6.20873 9.97452 6.28376 9.966C6.3588 9.95747 6.43478 9.96456 6.50694 9.98681C6.57911 10.0091 6.64589 10.046 6.70309 10.0953C6.76029 10.1446 6.80668 10.2052 6.83933 10.2733C7.0805 10.6897 7.42689 11.0353 7.84377 11.2756C8.26065 11.516 8.73339 11.6424 9.21457 11.6424C9.69576 11.6424 10.1685 11.516 10.5854 11.2756C11.0023 11.0353 11.3486 10.6897 11.5898 10.2733C11.668 10.1598 11.7862 10.08 11.9207 10.0498C12.0551 10.0196 12.1961 10.0412 12.3153 10.1103C12.4346 10.1794 12.5234 10.291 12.564 10.4227C12.6046 10.5544 12.594 10.6966 12.5344 10.8209Z" fill="#CD9403"/>
</svg>
