<svg width="50" height="50" viewBox="0 0 50 50" fill="none" xmlns="http://www.w3.org/2000/svg">
<g clip-path="url(#clip0_532_122844)">
<path fill-rule="evenodd" clip-rule="evenodd" d="M40.0359 24.2769C40.0339 24.279 40.0318 24.1738 40.0328 24.0449C40.04 23.553 40.0524 22.5322 39.0027 21.472C37.5353 19.9882 33.825 18.2187 24.4813 18.2197C15.182 18.2217 11.4645 19.9758 9.98579 21.4545L9.96413 21.4762C8.91437 22.5363 8.92881 23.5572 8.93397 24.049C8.93603 24.1996 8.93191 24.3151 8.92469 24.3924C8.93087 26.4528 9.17424 27.7479 9.67227 28.2357C10.1827 28.7317 11.4037 28.7008 13.0918 28.6585C13.629 28.6451 14.2127 28.6307 14.8438 28.6307C16.4772 28.6286 16.7432 28.0841 17.3207 26.8797C18.1209 25.2153 19.2243 22.9364 24.4803 22.9374C29.7415 22.9353 30.8418 25.2133 31.643 26.8766C32.2225 28.079 32.4865 28.6276 34.1241 28.6276C34.7644 28.6265 35.3553 28.642 35.8987 28.6554C37.5765 28.6977 38.7882 28.7296 39.2955 28.2367L39.3038 28.2285C39.7977 27.7345 40.0369 26.4394 40.0369 24.2677C40.0369 24.2738 40.0369 24.2759 40.0359 24.2769ZM8.43796 19.9088C11.0077 17.339 16.404 16.0346 24.4803 16.0325C32.5886 16.0315 37.9983 17.3432 40.5578 19.9334C42.2499 21.6443 42.2293 23.4076 42.221 24.0697C42.2251 24.1089 42.2241 24.2274 42.2241 24.2687C42.2251 27.2272 41.8261 28.8225 40.8229 29.8033C39.6554 30.9395 37.9735 30.8972 35.8441 30.8426C35.3172 30.8292 34.7448 30.8137 34.1251 30.8147C31.114 30.8147 30.3148 29.1576 29.6734 27.8274C28.9732 26.3765 28.37 25.1235 24.4803 25.1235C20.5886 25.1256 19.9853 26.3785 19.2923 27.8284C18.6499 29.1597 17.8559 30.8158 14.8427 30.8178C14.2323 30.8178 13.6672 30.8323 13.1454 30.8446C11.0056 30.8993 9.31551 30.9416 8.14595 29.8013C7.14896 28.8286 6.7437 27.2272 6.74267 24.2728L7.83987 24.0624L6.7468 24.0748C6.73855 23.4128 6.71586 21.6494 8.40909 19.9377L8.43796 19.9088Z" fill="#FEFEFE"/>
</g>
<defs>
<clipPath id="clip0_532_122844">
<rect width="35" height="35" fill="white" transform="translate(49.75 25) rotate(135)"/>
</clipPath>
</defs>
</svg>
