<svg width="28" height="29" viewBox="0 0 28 29" fill="none" xmlns="http://www.w3.org/2000/svg">
<path d="M23.3333 14.0156V23.349" stroke="#323232" stroke-width="1.5" stroke-linecap="round" stroke-linejoin="round"/>
<path d="M17.1497 17.1309V23.3492" stroke="#323232" stroke-width="1.5" stroke-linecap="round" stroke-linejoin="round"/>
<path d="M4.66683 19.8491V23.3491" stroke="#323232" stroke-width="1.5" stroke-linecap="round" stroke-linejoin="round"/>
<path d="M10.8499 15.8823V23.349" stroke="#323232" stroke-width="1.5" stroke-linecap="round" stroke-linejoin="round"/>
<path d="M18.5957 9.94223C19.393 10.7395 19.393 12.0323 18.5957 12.8296C17.7984 13.6269 16.5057 13.6269 15.7083 12.8296C14.911 12.0323 14.911 10.7395 15.7083 9.94223C16.5057 9.14491 17.7984 9.14491 18.5957 9.94223" stroke="#323232" stroke-width="1.5" stroke-linecap="round" stroke-linejoin="round"/>
<path d="M24.8994 4.68881C25.6967 5.48613 25.6967 6.77885 24.8994 7.57616C24.1021 8.37348 22.8094 8.37348 22.0121 7.57616C21.2147 6.77884 21.2147 5.48612 22.0121 4.68881C22.8094 3.89149 24.1021 3.89149 24.8994 4.68881" stroke="#323232" stroke-width="1.5" stroke-linecap="round" stroke-linejoin="round"/>
<path d="M5.98778 10.9852C6.7851 11.7825 6.7851 13.0752 5.98778 13.8725C5.19046 14.6699 3.89774 14.6699 3.10043 13.8725C2.30311 13.0752 2.30311 11.7825 3.10043 10.9852C3.89775 10.1879 5.19047 10.1879 5.98778 10.9852" stroke="#323232" stroke-width="1.5" stroke-linecap="round" stroke-linejoin="round"/>
<path d="M12.2925 5.73276C13.0898 6.53008 13.0898 7.82279 12.2925 8.6201C11.4951 9.41743 10.2024 9.41743 9.40512 8.6201C8.6078 7.82278 8.6078 6.53007 9.40512 5.73276C10.2024 4.93544 11.4952 4.93544 12.2925 5.73276" stroke="#323232" stroke-width="1.5" stroke-linecap="round" stroke-linejoin="round"/>
<path d="M21.8984 7.43555L18.7134 10.0839" stroke="#323232" stroke-width="1.5" stroke-linecap="round" stroke-linejoin="round"/>
<path d="M15.4465 10.2589L12.5415 8.31055" stroke="#323232" stroke-width="1.5" stroke-linecap="round" stroke-linejoin="round"/>
<path d="M6.11328 11.1342L9.28661 8.48584" stroke="#323232" stroke-width="1.5" stroke-linecap="round" stroke-linejoin="round"/>
</svg>
