<svg width="28" height="29" viewBox="0 0 28 29" fill="none" xmlns="http://www.w3.org/2000/svg">
<path d="M22.9767 9.44458H24.4503C25.6448 9.44458 26.6114 10.4112 26.6114 11.6057V25.3404C26.6114 26.5335 25.6448 27.5001 24.4503 27.5001H9.3281C8.13366 27.5001 7.16699 26.5335 7.16699 25.339V23.3335" stroke="#CD9403" stroke-width="2.22222" stroke-linecap="round" stroke-linejoin="round"/>
<path fill-rule="evenodd" clip-rule="evenodd" d="M2.7239 22.7779H18.435C19.3642 22.7779 20.2308 22.314 20.7461 21.5404L21.7656 20.0099C22.3739 19.0974 22.6989 18.0252 22.6989 16.9279V6.11127C22.6989 4.57655 21.4558 3.3335 19.9211 3.3335H6.03224C4.49751 3.3335 3.25446 4.57655 3.25446 6.11127V15.9113C3.25446 16.7738 3.05307 17.6238 2.66835 18.396L1.48224 20.7682C1.01974 21.6918 1.69196 22.7779 2.7239 22.7779Z" stroke="#CD9403" stroke-width="2.22222" stroke-linecap="round" stroke-linejoin="round"/>
<path d="M8.80577 1.94458V4.72236" stroke="#CD9403" stroke-width="2.22222" stroke-linecap="round" stroke-linejoin="round"/>
<path d="M17.1393 1.94458V4.72236" stroke="#CD9403" stroke-width="2.22222" stroke-linecap="round" stroke-linejoin="round"/>
<path d="M8.54248 10.2779H16.8758" stroke="#CD9403" stroke-width="2.22222" stroke-linecap="round" stroke-linejoin="round"/>
<path d="M8.54248 15.8334H16.8758" stroke="#CD9403" stroke-width="2.22222" stroke-linecap="round" stroke-linejoin="round"/>
</svg>
