<svg width="37" height="11" viewBox="0 0 37 11" fill="none" xmlns="http://www.w3.org/2000/svg">
<rect width="36.5463" height="11" rx="5.5" fill="#FBBC1B" fill-opacity="0.9"/>
<path d="M9.28949 7V3.36888H11.6826V3.88065H9.86462V4.92368H11.5851V5.43545H9.86462V6.48823H11.6826V7H9.28949ZM12.8796 7L11.8463 4.36317H12.4458L13.2403 6.5126H13.0209L13.8154 4.36317H14.4198L13.3816 7H12.8796ZM15.9358 7.05849C15.6726 7.05849 15.4386 6.99838 15.2339 6.87815C15.0325 6.75468 14.8749 6.58896 14.7611 6.381C14.6474 6.1698 14.5906 5.93422 14.5906 5.67428C14.5906 5.40783 14.6474 5.17226 14.7611 4.96755C14.8781 4.76284 15.0341 4.602 15.229 4.48502C15.424 4.3648 15.645 4.30469 15.8919 4.30469C16.0901 4.30469 16.2672 4.3388 16.4232 4.40704C16.5791 4.47528 16.7107 4.56951 16.818 4.68973C16.9252 4.80671 17.0064 4.94155 17.0617 5.09427C17.1202 5.24699 17.1494 5.40946 17.1494 5.58167C17.1494 5.62391 17.1478 5.66778 17.1445 5.71327C17.1413 5.75876 17.1348 5.801 17.125 5.83999H15.0243V5.40133H16.8131L16.5499 5.60117C16.5824 5.44195 16.571 5.3006 16.5158 5.17713C16.4638 5.05041 16.3826 4.9513 16.2721 4.87982C16.1649 4.80508 16.0381 4.76772 15.8919 4.76772C15.7457 4.76772 15.6157 4.80508 15.502 4.87982C15.3883 4.9513 15.3005 5.05528 15.2388 5.19175C15.1771 5.32497 15.1527 5.48744 15.1657 5.67915C15.1494 5.85786 15.1738 6.01383 15.2388 6.14705C15.307 6.28027 15.4013 6.38425 15.5215 6.45899C15.645 6.53372 15.7847 6.57109 15.9406 6.57109C16.0999 6.57109 16.2347 6.53535 16.3452 6.46386C16.4589 6.39238 16.5483 6.29977 16.6133 6.18604L17.0617 6.40537C17.0097 6.52885 16.9284 6.64095 16.818 6.74168C16.7107 6.83916 16.5808 6.91714 16.428 6.97563C16.2786 7.03087 16.1145 7.05849 15.9358 7.05849ZM17.6382 7V4.36317H18.1646V4.87982L18.1012 4.81158C18.1662 4.64587 18.2702 4.52077 18.4131 4.43628C18.5561 4.34855 18.7218 4.30469 18.9103 4.30469C19.1052 4.30469 19.2774 4.34693 19.4269 4.43141C19.5764 4.51589 19.6934 4.63287 19.7778 4.78234C19.8623 4.93181 19.9046 5.10402 19.9046 5.29898V7H19.3587V5.4452C19.3587 5.31198 19.3343 5.19988 19.2856 5.10889C19.2368 5.01466 19.167 4.94318 19.076 4.89444C18.9883 4.84245 18.8875 4.81645 18.7738 4.81645C18.6601 4.81645 18.5577 4.84245 18.4667 4.89444C18.379 4.94318 18.3108 5.01466 18.262 5.10889C18.2133 5.20312 18.1889 5.31523 18.1889 5.4452V7H17.6382ZM21.5858 7.02924C21.3096 7.02924 21.0951 6.95126 20.9424 6.79529C20.7897 6.63933 20.7133 6.42 20.7133 6.1373V4.86032H20.2503V4.36317H20.3234C20.4469 4.36317 20.5428 4.32743 20.611 4.25595C20.6792 4.18446 20.7133 4.08698 20.7133 3.96351V3.7588H21.2641V4.36317H21.8636V4.86032H21.2641V6.11293C21.2641 6.20392 21.2787 6.2819 21.308 6.34689C21.3372 6.40862 21.3843 6.45736 21.4493 6.49311C21.5143 6.5256 21.5988 6.54185 21.7028 6.54185C21.7288 6.54185 21.758 6.54022 21.7905 6.53697C21.823 6.53372 21.8539 6.53047 21.8831 6.52722V7C21.8376 7.0065 21.7872 7.013 21.732 7.0195C21.6768 7.02599 21.628 7.02924 21.5858 7.02924ZM23.5963 7.05849C23.3429 7.05849 23.1106 6.99838 22.8994 6.87815C22.6914 6.75793 22.5257 6.59383 22.4022 6.38588C22.2787 6.17792 22.217 5.94235 22.217 5.67915C22.217 5.41271 22.2787 5.17713 22.4022 4.97242C22.5257 4.76447 22.6914 4.602 22.8994 4.48502C23.1073 4.3648 23.3396 4.30469 23.5963 4.30469C23.8563 4.30469 24.0886 4.3648 24.2933 4.48502C24.5013 4.602 24.6654 4.76447 24.7856 4.97242C24.9091 5.17713 24.9708 5.41271 24.9708 5.67915C24.9708 5.94559 24.9091 6.1828 24.7856 6.39075C24.6621 6.59871 24.4964 6.7628 24.2885 6.88302C24.0805 7 23.8498 7.05849 23.5963 7.05849ZM23.5963 6.54672C23.7523 6.54672 23.8904 6.50935 24.0106 6.43462C24.1309 6.35988 24.2251 6.25753 24.2933 6.12756C24.3648 5.99433 24.4006 5.84487 24.4006 5.67915C24.4006 5.51343 24.3648 5.36559 24.2933 5.23562C24.2251 5.10564 24.1309 5.00329 24.0106 4.92856C23.8904 4.85382 23.7523 4.81645 23.5963 4.81645C23.4436 4.81645 23.3055 4.85382 23.1821 4.92856C23.0618 5.00329 22.966 5.10564 22.8945 5.23562C22.8263 5.36559 22.7921 5.51343 22.7921 5.67915C22.7921 5.84487 22.8263 5.99433 22.8945 6.12756C22.966 6.25753 23.0618 6.35988 23.1821 6.43462C23.3055 6.50935 23.4436 6.54672 23.5963 6.54672ZM26.4346 7.05849C26.1649 7.05849 25.9277 6.99188 25.723 6.85865C25.5215 6.72543 25.3802 6.54672 25.2989 6.32252L25.723 6.12268C25.7944 6.27215 25.8919 6.39075 26.0154 6.47848C26.1421 6.56622 26.2818 6.61008 26.4346 6.61008C26.5645 6.61008 26.6701 6.58084 26.7514 6.52235C26.8326 6.46386 26.8732 6.38425 26.8732 6.28352C26.8732 6.21854 26.8554 6.16655 26.8196 6.12756C26.7839 6.08532 26.7384 6.0512 26.6831 6.0252C26.6311 5.99921 26.5775 5.97971 26.5223 5.96672L26.108 5.84974C25.8806 5.78475 25.71 5.68727 25.5962 5.5573C25.4858 5.42408 25.4305 5.26974 25.4305 5.09427C25.4305 4.93506 25.4711 4.79696 25.5524 4.67998C25.6336 4.55976 25.7457 4.46715 25.8887 4.40217C26.0316 4.33718 26.1925 4.30469 26.3712 4.30469C26.6117 4.30469 26.8261 4.3648 27.0146 4.48502C27.203 4.602 27.3363 4.76609 27.4142 4.9773L26.9902 5.17713C26.9382 5.05041 26.8554 4.94968 26.7416 4.87494C26.6311 4.80021 26.506 4.76284 26.3663 4.76284C26.2461 4.76284 26.1502 4.79209 26.0788 4.85057C26.0073 4.90581 25.9715 4.97892 25.9715 5.0699C25.9715 5.13164 25.9878 5.18363 26.0203 5.22587C26.0528 5.26486 26.095 5.29735 26.147 5.32335C26.199 5.34609 26.2526 5.36559 26.3078 5.38184L26.7368 5.50856C26.9545 5.5703 27.1218 5.66778 27.2388 5.801C27.3557 5.93097 27.4142 6.08694 27.4142 6.2689C27.4142 6.42487 27.372 6.56297 27.2875 6.68319C27.2063 6.80017 27.0926 6.89277 26.9463 6.96101C26.8001 7.02599 26.6295 7.05849 26.4346 7.05849Z" fill="#705102"/>
</svg>
