<svg width="15" height="15" viewBox="0 0 15 15" fill="none" xmlns="http://www.w3.org/2000/svg">
<path d="M8.21643 6.74636C8.62242 7.15235 8.62242 7.81091 8.21643 8.2169C7.81044 8.62289 7.15188 8.62289 6.7459 8.2169C6.33991 7.81091 6.33991 7.15235 6.7459 6.74636C7.15188 6.33975 7.81044 6.33975 8.21643 6.74636" stroke="#FFFEFC" stroke-width="0.935065" stroke-linecap="round" stroke-linejoin="round"/>
<path fill-rule="evenodd" clip-rule="evenodd" d="M4.3623 7.48099C4.3623 7.25273 4.41469 7.02698 4.51697 6.81868V6.81868C5.04144 5.74541 6.20141 5.05566 7.48049 5.05566C8.75956 5.05566 9.91953 5.74541 10.444 6.81868V6.81868C10.5463 7.02698 10.5987 7.25273 10.5987 7.48099C10.5987 7.70924 10.5463 7.93499 10.444 8.14329V8.14329C9.9189 9.21594 8.75894 9.90631 7.48049 9.90631C6.20141 9.90631 5.04144 9.21657 4.51697 8.14329V8.14329C4.41469 7.93499 4.3623 7.70924 4.3623 7.48099Z" stroke="#FFFEFC" stroke-width="0.935065" stroke-linecap="round" stroke-linejoin="round"/>
<circle cx="7.48089" cy="7.48089" r="5.61273" stroke="#FFFEFC" stroke-width="0.935065" stroke-linecap="round" stroke-linejoin="round"/>
</svg>
