<svg width="14" height="14" viewBox="0 0 14 14" fill="none" xmlns="http://www.w3.org/2000/svg">
<path d="M7.96298 5.83042C8.60947 6.47691 8.60947 7.52642 7.96298 8.17402C7.31649 8.82051 6.26698 8.82051 5.61939 8.17402C4.9729 7.52753 4.9729 6.47802 5.61939 5.83042C6.26698 5.18283 7.31594 5.18283 7.96298 5.83042" stroke="#75818D" stroke-width="0.828125" stroke-linecap="round" stroke-linejoin="round"/>
<path fill-rule="evenodd" clip-rule="evenodd" d="M1.823 7.00033C1.823 6.6365 1.90691 6.27654 2.06923 5.94474C2.90563 4.23494 4.75401 3.13574 6.79175 3.13574C8.82949 3.13574 10.6779 4.23494 11.5143 5.94474C11.6766 6.27654 11.7605 6.6365 11.7605 7.00033C11.7605 7.36415 11.6766 7.72411 11.5143 8.05591C10.6779 9.76571 8.82949 10.8649 6.79175 10.8649C4.75401 10.8649 2.90563 9.76571 2.06923 8.05591C1.90691 7.72411 1.823 7.36415 1.823 7.00033Z" stroke="#75818D" stroke-width="0.828125" stroke-linecap="round" stroke-linejoin="round"/>
</svg>
