<svg width="30" height="12" viewBox="0 0 30 12" fill="none" xmlns="http://www.w3.org/2000/svg">
<rect x="0.436035" y="0.608154" width="29.4928" height="11" rx="5.5" fill="#FBBC1B" fill-opacity="0.9"/>
<path d="M9.63879 7.60815V3.98811H11.9955V4.49831H10.2122V5.58676H11.8011V6.09697H10.2122V7.60815H9.63879ZM13.5374 7.66646C13.2751 7.66646 13.0418 7.60653 12.8377 7.48668C12.6369 7.36358 12.4798 7.19837 12.3664 6.99105C12.253 6.78048 12.1963 6.54563 12.1963 6.28647C12.1963 6.02084 12.253 5.78598 12.3664 5.5819C12.483 5.37782 12.6385 5.21746 12.8329 5.10085C13.0272 4.98099 13.2475 4.92106 13.4937 4.92106C13.6913 4.92106 13.8679 4.95507 14.0234 5.0231C14.1788 5.09113 14.31 5.18507 14.4169 5.30493C14.5238 5.42155 14.6048 5.55598 14.6599 5.70824C14.7182 5.86049 14.7474 6.02246 14.7474 6.19415C14.7474 6.23626 14.7457 6.27999 14.7425 6.32535C14.7393 6.3707 14.7328 6.41281 14.7231 6.45168H12.6288V6.01436H14.4121L14.1497 6.21359C14.1821 6.05485 14.1707 5.91394 14.1157 5.79084C14.0638 5.6645 13.9829 5.5657 13.8727 5.49443C13.7658 5.41993 13.6395 5.38268 13.4937 5.38268C13.3479 5.38268 13.2184 5.41993 13.105 5.49443C12.9916 5.5657 12.9041 5.66936 12.8426 5.80542C12.781 5.93824 12.7567 6.10021 12.7697 6.29133C12.7535 6.4695 12.7778 6.62499 12.8426 6.75781C12.9106 6.89062 13.0046 6.99428 13.1244 7.06879C13.2475 7.1433 13.3868 7.18055 13.5423 7.18055C13.701 7.18055 13.8355 7.14492 13.9456 7.07365C14.059 7.00238 14.1481 6.91006 14.2129 6.79668L14.6599 7.01534C14.6081 7.13844 14.5271 7.2502 14.4169 7.35062C14.31 7.4478 14.1805 7.52555 14.0282 7.58386C13.8792 7.63893 13.7156 7.66646 13.5374 7.66646ZM16.4689 7.66646C16.2065 7.66646 15.9732 7.60653 15.7691 7.48668C15.5683 7.36358 15.4112 7.19837 15.2978 6.99105C15.1844 6.78048 15.1277 6.54563 15.1277 6.28647C15.1277 6.02084 15.1844 5.78598 15.2978 5.5819C15.4144 5.37782 15.5699 5.21746 15.7643 5.10085C15.9587 4.98099 16.1789 4.92106 16.4251 4.92106C16.6227 4.92106 16.7993 4.95507 16.9548 5.0231C17.1103 5.09113 17.2415 5.18507 17.3484 5.30493C17.4553 5.42155 17.5362 5.55598 17.5913 5.70824C17.6496 5.86049 17.6788 6.02246 17.6788 6.19415C17.6788 6.23626 17.6772 6.27999 17.6739 6.32535C17.6707 6.3707 17.6642 6.41281 17.6545 6.45168H15.5602V6.01436H17.3435L17.0811 6.21359C17.1135 6.05485 17.1022 5.91394 17.0471 5.79084C16.9953 5.6645 16.9143 5.5657 16.8041 5.49443C16.6972 5.41993 16.5709 5.38268 16.4251 5.38268C16.2794 5.38268 16.1498 5.41993 16.0364 5.49443C15.923 5.5657 15.8356 5.66936 15.774 5.80542C15.7125 5.93824 15.6882 6.10021 15.7011 6.29133C15.6849 6.4695 15.7092 6.62499 15.774 6.75781C15.842 6.89062 15.936 6.99428 16.0558 7.06879C16.1789 7.1433 16.3182 7.18055 16.4737 7.18055C16.6325 7.18055 16.7669 7.14492 16.877 7.07365C16.9904 7.00238 17.0795 6.91006 17.1443 6.79668L17.5913 7.01534C17.5395 7.13844 17.4585 7.2502 17.3484 7.35062C17.2415 7.4478 17.1119 7.52555 16.9596 7.58386C16.8106 7.63893 16.647 7.66646 16.4689 7.66646ZM19.3808 7.66646C19.1282 7.66646 18.9014 7.60653 18.7006 7.48668C18.503 7.36358 18.3459 7.19837 18.2292 6.99105C18.1159 6.78372 18.0592 6.55048 18.0592 6.29133C18.0592 6.03218 18.1175 5.79894 18.2341 5.59162C18.3507 5.38429 18.5078 5.2207 18.7054 5.10085C18.903 4.98099 19.1266 4.92106 19.376 4.92106C19.5865 4.92106 19.7728 4.96317 19.9348 5.0474C20.0968 5.13162 20.2247 5.24824 20.3187 5.39725L20.2361 5.52359V3.9298H20.7803V7.60815H20.2603V7.07365L20.3235 7.17569C20.2328 7.33442 20.1032 7.4559 19.9348 7.54013C19.7663 7.62435 19.5817 7.66646 19.3808 7.66646ZM19.4343 7.15626C19.5865 7.15626 19.7226 7.119 19.8425 7.0445C19.9656 6.96999 20.0611 6.86795 20.1291 6.73837C20.2004 6.60555 20.2361 6.45654 20.2361 6.29133C20.2361 6.12612 20.2004 5.97873 20.1291 5.84915C20.0611 5.71957 19.9656 5.61753 19.8425 5.54303C19.7226 5.46852 19.5865 5.43127 19.4343 5.43127C19.282 5.43127 19.1444 5.46852 19.0213 5.54303C18.8982 5.61753 18.8026 5.71957 18.7346 5.84915C18.6666 5.97873 18.6325 6.12612 18.6325 6.29133C18.6325 6.45654 18.6666 6.60555 18.7346 6.73837C18.8026 6.86795 18.8966 6.96999 19.0164 7.0445C19.1395 7.119 19.2788 7.15626 19.4343 7.15626Z" fill="#705102"/>
</svg>
