<svg width="32" height="31" viewBox="0 0 32 31" fill="none" xmlns="http://www.w3.org/2000/svg">
<path d="M27.6124 19.8574L22.2891 14.534C21.8042 14.0492 21.0193 14.0492 20.5357 14.534L15.2124 19.8574" stroke="#323232" stroke-width="1.9375" stroke-linecap="round" stroke-linejoin="round"/>
<path fill-rule="evenodd" clip-rule="evenodd" d="M23.892 26.0573H9.01199C6.95731 26.0573 5.29199 24.392 5.29199 22.3373V7.4573C5.29199 5.40262 6.95731 3.7373 9.01199 3.7373H23.892C25.9467 3.7373 27.612 5.40262 27.612 7.4573V22.3373C27.612 24.392 25.9467 26.0573 23.892 26.0573Z" stroke="#323232" stroke-width="1.9375" stroke-linecap="round" stroke-linejoin="round"/>
<path d="M21.4122 26.0581L13.6089 18.2547C13.124 17.7699 12.3391 17.7699 11.8555 18.2547L5.84521 24.265" stroke="#323232" stroke-width="1.9375" stroke-linecap="round" stroke-linejoin="round"/>
<path d="M13.0611 10.8488C13.2427 11.0304 13.2427 11.3248 13.0611 11.5064C12.8795 11.688 12.5851 11.688 12.4035 11.5064C12.2219 11.3248 12.2219 11.0304 12.4035 10.8488C12.5851 10.6672 12.8795 10.6672 13.0611 10.8488" stroke="#323232" stroke-width="1.9375" stroke-linecap="round" stroke-linejoin="round"/>
</svg>
