<svg width="34" height="33" viewBox="0 0 34 33" fill="none" xmlns="http://www.w3.org/2000/svg">
<rect x="29.3369" y="28.875" width="24.6743" height="24.75" rx="5" transform="rotate(-180 29.3369 28.875)" stroke="#CF9709" stroke-opacity="0.976471" stroke-width="2.22" stroke-linecap="round" stroke-linejoin="round"/>
<path d="M29.2029 23.3593L21.3959 15.5277C21.1388 15.2699 20.7902 15.125 20.4266 15.125C20.063 15.125 19.7144 15.2699 19.4573 15.5277L13.5726 21.4303L10.4295 18.2777C9.89421 17.7408 9.02639 17.7407 8.49105 18.2776L4.66406 22.1154" stroke="#CF9709" stroke-opacity="0.976471" stroke-width="2.22" stroke-linecap="round" stroke-linejoin="round"/>
<path d="M13.329 11.4453L13.3297 11.4447C13.4633 11.3109 13.6797 11.3111 13.8131 11.4451C13.9465 11.5791 13.9464 11.7961 13.8129 11.93C13.6795 12.0639 13.4631 12.064 13.3295 11.9302C13.1959 11.7964 13.1957 11.5793 13.329 11.4453" stroke="#CF9709" stroke-opacity="0.976471" stroke-width="2.22" stroke-linecap="round" stroke-linejoin="round"/>
</svg>
