<svg width="12" height="12" viewBox="0 0 12 12" fill="none" xmlns="http://www.w3.org/2000/svg">
<path fill-rule="evenodd" clip-rule="evenodd" d="M6 10.5V10.5C3.5145 10.5 1.5 8.4855 1.5 6V6C1.5 3.5145 3.5145 1.5 6 1.5V1.5C8.4855 1.5 10.5 3.5145 10.5 6V6C10.5 8.4855 8.4855 10.5 6 10.5Z" stroke="#868E96" stroke-width="0.75" stroke-linecap="round" stroke-linejoin="round"/>
<path d="M6.7955 3.8295C7.23484 4.26884 7.23484 4.98116 6.7955 5.4205C6.35616 5.85984 5.64384 5.85984 5.2045 5.4205C4.76517 4.98116 4.76517 4.26884 5.2045 3.8295C5.64384 3.39017 6.35616 3.39017 6.7955 3.8295" stroke="#868E96" stroke-width="0.75" stroke-linecap="round" stroke-linejoin="round"/>
<path d="M8.1606 8.27045C8.0501 7.57595 7.4531 7.04395 6.7281 7.04395H5.2721C4.5466 7.04395 3.9501 7.57595 3.8396 8.27045" stroke="#868E96" stroke-width="0.75" stroke-linecap="round" stroke-linejoin="round"/>
</svg>
