<svg width="375" height="320" viewBox="0 0 375 320" fill="none" xmlns="http://www.w3.org/2000/svg">
<g filter="url(#filter0_d_532_122140)">
<rect x="23" y="38" width="327" height="240" rx="16" fill="white"/>
</g>
<path d="M330.25 64.375L325 69.625L319.75 64.375" stroke="#75818D" stroke-width="1.5" stroke-linecap="round" stroke-linejoin="round"/>
<path d="M270.877 73V62.57H271.857L275.777 68.254H275.231L279.137 62.57H280.117V73H278.997V64.082L279.361 64.222L275.525 69.78H275.469L271.647 64.222L271.997 64.082V73H270.877ZM285.94 73.168C285.23 73.168 284.586 73 284.008 72.664C283.429 72.3187 282.967 71.852 282.622 71.264C282.286 70.6667 282.118 69.99 282.118 69.234C282.118 68.4873 282.286 67.82 282.622 67.232C282.958 66.644 283.41 66.182 283.98 65.846C284.558 65.5007 285.212 65.328 285.94 65.328C286.668 65.328 287.316 65.496 287.886 65.832C288.464 66.168 288.917 66.63 289.244 67.218C289.58 67.806 289.748 68.478 289.748 69.234C289.748 69.9993 289.575 70.6807 289.23 71.278C288.884 71.866 288.422 72.328 287.844 72.664C287.274 73 286.64 73.168 285.94 73.168ZM285.94 72.118C286.444 72.118 286.896 71.992 287.298 71.74C287.708 71.488 288.03 71.1427 288.264 70.704C288.506 70.2653 288.628 69.7753 288.628 69.234C288.628 68.6927 288.506 68.2073 288.264 67.778C288.03 67.3487 287.708 67.008 287.298 66.756C286.896 66.504 286.444 66.378 285.94 66.378C285.436 66.378 284.978 66.504 284.568 66.756C284.166 67.008 283.844 67.3487 283.602 67.778C283.359 68.2073 283.238 68.6927 283.238 69.234C283.238 69.7753 283.359 70.2653 283.602 70.704C283.844 71.1427 284.166 71.488 284.568 71.74C284.978 71.992 285.436 72.118 285.94 72.118ZM291.599 73V65.496H292.649V66.952L292.411 66.896C292.598 66.4107 292.901 66.028 293.321 65.748C293.751 65.468 294.245 65.328 294.805 65.328C295.337 65.328 295.813 65.4493 296.233 65.692C296.663 65.9347 296.999 66.2707 297.241 66.7C297.493 67.12 297.619 67.596 297.619 68.128V73H296.569V68.534C296.569 68.0767 296.485 67.6893 296.317 67.372C296.159 67.0547 295.93 66.812 295.631 66.644C295.342 66.4667 295.006 66.378 294.623 66.378C294.241 66.378 293.9 66.4667 293.601 66.644C293.303 66.812 293.069 67.0593 292.901 67.386C292.733 67.7033 292.649 68.086 292.649 68.534V73H291.599ZM302.495 73.084C301.823 73.084 301.305 72.888 300.941 72.496C300.577 72.104 300.395 71.544 300.395 70.816V66.546H299.009V65.496H299.359C299.676 65.496 299.928 65.3933 300.115 65.188C300.302 64.9733 300.395 64.7073 300.395 64.39V63.76H301.445V65.496H303.097V66.546H301.445V70.816C301.445 71.068 301.482 71.292 301.557 71.488C301.632 71.6747 301.758 71.824 301.935 71.936C302.122 72.048 302.369 72.104 302.677 72.104C302.752 72.104 302.84 72.0993 302.943 72.09C303.046 72.0807 303.134 72.0713 303.209 72.062V73C303.097 73.028 302.971 73.0467 302.831 73.056C302.691 73.0747 302.579 73.084 302.495 73.084ZM305.053 73V62.402H306.103V66.952L305.865 66.896C306.051 66.4107 306.355 66.028 306.775 65.748C307.204 65.468 307.699 65.328 308.259 65.328C308.791 65.328 309.267 65.4493 309.687 65.692C310.116 65.9347 310.452 66.2707 310.695 66.7C310.947 67.12 311.073 67.596 311.073 68.128V73H310.023V68.534C310.023 68.0767 309.939 67.6893 309.771 67.372C309.603 67.0547 309.369 66.812 309.071 66.644C308.781 66.4667 308.45 66.378 308.077 66.378C307.703 66.378 307.367 66.4667 307.069 66.644C306.77 66.812 306.532 67.0593 306.355 67.386C306.187 67.7033 306.103 68.086 306.103 68.534V73H305.053Z" fill="#75818D"/>
<g clip-path="url(#clip0_532_122140)">
<rect width="295" height="166" transform="translate(39 92)" fill="white"/>
<line x1="64.5" y1="92" x2="64.5" y2="216" stroke="#EEEEEE" stroke-dasharray="6 6"/>
<line x1="113.5" y1="92" x2="113.5" y2="216" stroke="#EEEEEE" stroke-dasharray="6 6"/>
<line x1="162.5" y1="92" x2="162.5" y2="216" stroke="#EEEEEE" stroke-dasharray="6 6"/>
<line x1="211.5" y1="92" x2="211.5" y2="216" stroke="#EEEEEE" stroke-dasharray="6 6"/>
<line x1="260.5" y1="92" x2="260.5" y2="216" stroke="#EEEEEE" stroke-dasharray="6 6"/>
<line x1="309.5" y1="92" x2="309.5" y2="216" stroke="#EEEEEE" stroke-dasharray="6 6"/>
<line x1="261" y1="128" x2="261" y2="228" stroke="url(#paint0_linear_532_122140)" stroke-width="2"/>
<rect x="46" y="228" width="32" height="24" rx="4" fill="white"/>
<path d="M53.66 245V244.04H54.14C54.588 244.04 54.94 243.908 55.196 243.644C55.452 243.372 55.58 243.004 55.58 242.54V236.06H56.54V242.54C56.54 243.044 56.44 243.48 56.24 243.848C56.048 244.216 55.772 244.5 55.412 244.7C55.052 244.9 54.628 245 54.14 245H53.66ZM60.7978 245.144C60.3498 245.144 59.9418 245.04 59.5738 244.832C59.2058 244.616 58.9138 244.32 58.6978 243.944C58.4898 243.56 58.3857 243.12 58.3857 242.624V238.568H59.2858V242.516C59.2858 242.86 59.3538 243.164 59.4898 243.428C59.6338 243.684 59.8298 243.884 60.0778 244.028C60.3338 244.172 60.6258 244.244 60.9538 244.244C61.2818 244.244 61.5738 244.172 61.8298 244.028C62.0858 243.876 62.2858 243.664 62.4298 243.392C62.5738 243.112 62.6458 242.78 62.6458 242.396V238.568H63.5458V245H62.6458V243.752L62.8498 243.8C62.6978 244.216 62.4378 244.544 62.0698 244.784C61.7018 245.024 61.2778 245.144 60.7978 245.144ZM65.3967 245V238.568H66.2967V239.816L66.0927 239.768C66.2527 239.352 66.5127 239.024 66.8727 238.784C67.2407 238.544 67.6647 238.424 68.1447 238.424C68.6007 238.424 69.0087 238.528 69.3687 238.736C69.7367 238.944 70.0247 239.232 70.2327 239.6C70.4487 239.96 70.5567 240.368 70.5567 240.824V245H69.6567V241.172C69.6567 240.78 69.5847 240.448 69.4407 240.176C69.3047 239.904 69.1087 239.696 68.8527 239.552C68.6047 239.4 68.3167 239.324 67.9887 239.324C67.6607 239.324 67.3687 239.4 67.1127 239.552C66.8567 239.696 66.6567 239.908 66.5127 240.188C66.3687 240.46 66.2967 240.788 66.2967 241.172V245H65.3967Z" fill="#868E96"/>
<rect x="96" y="228" width="32" height="24" rx="4" fill="white"/>
<path d="M105.66 245V244.04H106.14C106.588 244.04 106.94 243.908 107.196 243.644C107.452 243.372 107.58 243.004 107.58 242.54V236.06H108.54V242.54C108.54 243.044 108.44 243.48 108.24 243.848C108.048 244.216 107.772 244.5 107.412 244.7C107.052 244.9 106.628 245 106.14 245H105.66ZM112.798 245.144C112.35 245.144 111.942 245.04 111.574 244.832C111.206 244.616 110.914 244.32 110.698 243.944C110.49 243.56 110.386 243.12 110.386 242.624V238.568H111.286V242.516C111.286 242.86 111.354 243.164 111.49 243.428C111.634 243.684 111.83 243.884 112.078 244.028C112.334 244.172 112.626 244.244 112.954 244.244C113.282 244.244 113.574 244.172 113.83 244.028C114.086 243.876 114.286 243.664 114.43 243.392C114.574 243.112 114.646 242.78 114.646 242.396V238.568H115.546V245H114.646V243.752L114.85 243.8C114.698 244.216 114.438 244.544 114.07 244.784C113.702 245.024 113.278 245.144 112.798 245.144ZM117.397 245V235.916H118.297V245H117.397Z" fill="#868E96"/>
<rect x="146" y="228" width="32" height="24" rx="4" fill="white"/>
<path d="M151.132 245L154.396 236.06H155.428L158.692 245H157.684L156.916 242.816H152.92L152.14 245H151.132ZM153.232 241.916H156.58L154.768 236.78H155.056L153.232 241.916ZM162.566 247.64C162.126 247.64 161.718 247.572 161.342 247.436C160.974 247.3 160.654 247.112 160.382 246.872C160.118 246.64 159.914 246.368 159.77 246.056L160.598 245.612C160.726 245.916 160.954 246.18 161.282 246.404C161.61 246.628 162.03 246.74 162.542 246.74C162.934 246.74 163.294 246.664 163.622 246.512C163.95 246.36 164.214 246.136 164.414 245.84C164.614 245.544 164.714 245.18 164.714 244.748V243.32L164.858 243.452C164.634 243.916 164.302 244.276 163.862 244.532C163.422 244.78 162.942 244.904 162.422 244.904C161.822 244.904 161.282 244.76 160.802 244.472C160.322 244.184 159.942 243.796 159.662 243.308C159.39 242.812 159.254 242.264 159.254 241.664C159.254 241.056 159.39 240.508 159.662 240.02C159.942 239.532 160.318 239.144 160.79 238.856C161.27 238.568 161.814 238.424 162.422 238.424C162.942 238.424 163.414 238.544 163.838 238.784C164.27 239.024 164.61 239.348 164.858 239.756L164.714 240.008V238.568H165.614V244.748C165.614 245.3 165.482 245.792 165.218 246.224C164.962 246.664 164.602 247.008 164.138 247.256C163.682 247.512 163.158 247.64 162.566 247.64ZM162.47 244.004C162.886 244.004 163.262 243.9 163.598 243.692C163.934 243.476 164.202 243.192 164.402 242.84C164.61 242.48 164.714 242.088 164.714 241.664C164.714 241.24 164.61 240.852 164.402 240.5C164.202 240.14 163.934 239.856 163.598 239.648C163.262 239.432 162.886 239.324 162.47 239.324C162.046 239.324 161.662 239.432 161.318 239.648C160.974 239.856 160.702 240.136 160.502 240.488C160.31 240.84 160.214 241.232 160.214 241.664C160.214 242.088 160.31 242.48 160.502 242.84C160.702 243.192 160.97 243.476 161.306 243.692C161.65 243.9 162.038 244.004 162.47 244.004ZM170.475 245.144C169.867 245.144 169.315 245 168.819 244.712C168.323 244.416 167.927 244.016 167.631 243.512C167.343 243 167.199 242.42 167.199 241.772C167.199 241.132 167.343 240.56 167.631 240.056C167.919 239.552 168.307 239.156 168.795 238.868C169.291 238.572 169.851 238.424 170.475 238.424C171.099 238.424 171.655 238.568 172.143 238.856C172.639 239.144 173.027 239.54 173.307 240.044C173.595 240.548 173.739 241.124 173.739 241.772C173.739 242.428 173.591 243.012 173.295 243.524C172.999 244.028 172.603 244.424 172.107 244.712C171.619 245 171.075 245.144 170.475 245.144ZM170.475 244.244C170.907 244.244 171.295 244.136 171.639 243.92C171.991 243.704 172.267 243.408 172.467 243.032C172.675 242.656 172.779 242.236 172.779 241.772C172.779 241.308 172.675 240.892 172.467 240.524C172.267 240.156 171.991 239.864 171.639 239.648C171.295 239.432 170.907 239.324 170.475 239.324C170.043 239.324 169.651 239.432 169.299 239.648C168.955 239.864 168.679 240.156 168.471 240.524C168.263 240.892 168.159 241.308 168.159 241.772C168.159 242.236 168.263 242.656 168.471 243.032C168.679 243.408 168.955 243.704 169.299 243.92C169.651 244.136 170.043 244.244 170.475 244.244Z" fill="#868E96"/>
<rect x="196" y="228" width="32" height="24" rx="4" fill="white"/>
<path d="M204.068 245.144C203.5 245.144 202.984 245.036 202.52 244.82C202.056 244.604 201.664 244.316 201.344 243.956C201.024 243.588 200.796 243.184 200.66 242.744L201.524 242.42C201.732 243.028 202.056 243.492 202.496 243.812C202.936 244.124 203.46 244.28 204.068 244.28C204.452 244.28 204.788 244.22 205.076 244.1C205.372 243.972 205.6 243.796 205.76 243.572C205.92 243.348 206 243.088 206 242.792C206 242.352 205.88 242.012 205.64 241.772C205.4 241.532 205.056 241.348 204.608 241.22L203 240.74C202.368 240.556 201.88 240.248 201.536 239.816C201.2 239.384 201.032 238.892 201.032 238.34C201.032 237.868 201.148 237.452 201.38 237.092C201.612 236.724 201.928 236.436 202.328 236.228C202.736 236.02 203.196 235.916 203.708 235.916C204.244 235.916 204.724 236.016 205.148 236.216C205.58 236.408 205.944 236.664 206.24 236.984C206.536 237.304 206.748 237.66 206.876 238.052L206.036 238.388C205.844 237.86 205.544 237.46 205.136 237.188C204.736 236.916 204.264 236.78 203.72 236.78C203.376 236.78 203.072 236.84 202.808 236.96C202.552 237.08 202.352 237.252 202.208 237.476C202.064 237.7 201.992 237.964 201.992 238.268C201.992 238.636 202.108 238.968 202.34 239.264C202.572 239.552 202.928 239.768 203.408 239.912L204.824 240.332C205.528 240.54 206.06 240.84 206.42 241.232C206.78 241.624 206.96 242.116 206.96 242.708C206.96 243.188 206.836 243.612 206.588 243.98C206.348 244.34 206.008 244.624 205.568 244.832C205.136 245.04 204.636 245.144 204.068 245.144ZM211.61 245.144C211.01 245.144 210.466 245 209.978 244.712C209.498 244.416 209.118 244.012 208.838 243.5C208.558 242.988 208.418 242.408 208.418 241.76C208.418 241.112 208.554 240.54 208.826 240.044C209.098 239.54 209.466 239.144 209.93 238.856C210.402 238.568 210.93 238.424 211.514 238.424C211.978 238.424 212.39 238.512 212.75 238.688C213.118 238.856 213.43 239.088 213.686 239.384C213.942 239.672 214.138 240 214.274 240.368C214.41 240.728 214.478 241.1 214.478 241.484C214.478 241.564 214.474 241.656 214.466 241.76C214.458 241.856 214.446 241.956 214.43 242.06H208.994V241.22H213.914L213.482 241.58C213.554 241.14 213.502 240.748 213.326 240.404C213.158 240.052 212.914 239.776 212.594 239.576C212.274 239.368 211.914 239.264 211.514 239.264C211.114 239.264 210.742 239.368 210.398 239.576C210.062 239.784 209.798 240.076 209.606 240.452C209.414 240.82 209.338 241.26 209.378 241.772C209.338 242.284 209.418 242.732 209.618 243.116C209.826 243.492 210.106 243.784 210.458 243.992C210.818 244.2 211.202 244.304 211.61 244.304C212.082 244.304 212.478 244.192 212.798 243.968C213.118 243.744 213.378 243.464 213.578 243.128L214.346 243.536C214.218 243.824 214.022 244.092 213.758 244.34C213.494 244.58 213.178 244.776 212.81 244.928C212.45 245.072 212.05 245.144 211.61 245.144ZM218.525 245.072C217.949 245.072 217.505 244.904 217.193 244.568C216.881 244.232 216.725 243.752 216.725 243.128V239.468H215.537V238.568H215.837C216.109 238.568 216.325 238.48 216.485 238.304C216.645 238.12 216.725 237.892 216.725 237.62V237.08H217.625V238.568H219.041V239.468H217.625V243.128C217.625 243.344 217.657 243.536 217.721 243.704C217.785 243.864 217.893 243.992 218.045 244.088C218.205 244.184 218.417 244.232 218.681 244.232C218.745 244.232 218.821 244.228 218.909 244.22C218.997 244.212 219.073 244.204 219.137 244.196V245C219.041 245.024 218.933 245.04 218.813 245.048C218.693 245.064 218.597 245.072 218.525 245.072Z" fill="#868E96"/>
<rect x="246" y="228" width="32" height="24" rx="4" fill="#75818D"/>
<path d="M256.268 245.144C255.644 245.144 255.06 245.032 254.516 244.808C253.98 244.576 253.508 244.256 253.1 243.848C252.692 243.432 252.372 242.944 252.14 242.384C251.908 241.816 251.792 241.196 251.792 240.524C251.792 239.852 251.908 239.236 252.14 238.676C252.372 238.108 252.692 237.62 253.1 237.212C253.508 236.796 253.98 236.476 254.516 236.252C255.06 236.028 255.644 235.916 256.268 235.916C256.892 235.916 257.472 236.032 258.008 236.264C258.552 236.488 259.028 236.808 259.436 237.224C259.844 237.632 260.164 238.116 260.396 238.676C260.628 239.236 260.744 239.852 260.744 240.524C260.744 241.196 260.628 241.816 260.396 242.384C260.164 242.944 259.844 243.432 259.436 243.848C259.028 244.256 258.552 244.576 258.008 244.808C257.472 245.032 256.892 245.144 256.268 245.144ZM256.268 244.244C256.788 244.244 257.26 244.148 257.684 243.956C258.116 243.764 258.488 243.496 258.8 243.152C259.112 242.808 259.352 242.412 259.52 241.964C259.696 241.516 259.784 241.036 259.784 240.524C259.784 240.02 259.696 239.544 259.52 239.096C259.352 238.648 259.112 238.252 258.8 237.908C258.488 237.564 258.116 237.296 257.684 237.104C257.26 236.912 256.788 236.816 256.268 236.816C255.748 236.816 255.272 236.912 254.84 237.104C254.416 237.296 254.048 237.564 253.736 237.908C253.424 238.252 253.18 238.648 253.004 239.096C252.836 239.544 252.752 240.02 252.752 240.524C252.752 241.036 252.836 241.516 253.004 241.964C253.18 242.412 253.424 242.808 253.736 243.152C254.048 243.496 254.42 243.764 254.852 243.956C255.284 244.148 255.756 244.244 256.268 244.244ZM264.739 245.144C264.291 245.144 263.883 245.04 263.515 244.832C263.147 244.616 262.855 244.32 262.639 243.944C262.431 243.56 262.327 243.12 262.327 242.624V238.568H263.227V242.516C263.227 242.86 263.295 243.164 263.431 243.428C263.575 243.684 263.771 243.884 264.019 244.028C264.275 244.172 264.567 244.244 264.895 244.244C265.223 244.244 265.515 244.172 265.771 244.028C266.027 243.876 266.227 243.664 266.371 243.392C266.515 243.112 266.587 242.78 266.587 242.396V238.568H267.487V245H266.587V243.752L266.791 243.8C266.639 244.216 266.379 244.544 266.011 244.784C265.643 245.024 265.219 245.144 264.739 245.144ZM271.798 245.072C271.222 245.072 270.778 244.904 270.466 244.568C270.154 244.232 269.998 243.752 269.998 243.128V239.468H268.81V238.568H269.11C269.382 238.568 269.598 238.48 269.758 238.304C269.918 238.12 269.998 237.892 269.998 237.62V237.08H270.898V238.568H272.314V239.468H270.898V243.128C270.898 243.344 270.93 243.536 270.994 243.704C271.058 243.864 271.166 243.992 271.318 244.088C271.478 244.184 271.69 244.232 271.954 244.232C272.018 244.232 272.094 244.228 272.182 244.22C272.27 244.212 272.346 244.204 272.41 244.196V245C272.314 245.024 272.206 245.04 272.086 245.048C271.966 245.064 271.87 245.072 271.798 245.072Z" fill="white"/>
<rect x="296" y="228" width="32" height="24" rx="4" fill="white"/>
<path d="M302.056 245V236.06H302.896L308.14 243.584H307.816V236.06H308.776V245H307.936L302.692 237.428H303.016V245H302.056ZM313.772 245.144C313.164 245.144 312.612 245 312.116 244.712C311.62 244.416 311.224 244.016 310.928 243.512C310.64 243 310.496 242.42 310.496 241.772C310.496 241.132 310.64 240.56 310.928 240.056C311.216 239.552 311.604 239.156 312.092 238.868C312.588 238.572 313.148 238.424 313.772 238.424C314.396 238.424 314.952 238.568 315.44 238.856C315.936 239.144 316.324 239.54 316.604 240.044C316.892 240.548 317.036 241.124 317.036 241.772C317.036 242.428 316.888 243.012 316.592 243.524C316.296 244.028 315.9 244.424 315.404 244.712C314.916 245 314.372 245.144 313.772 245.144ZM313.772 244.244C314.204 244.244 314.592 244.136 314.936 243.92C315.288 243.704 315.564 243.408 315.764 243.032C315.972 242.656 316.076 242.236 316.076 241.772C316.076 241.308 315.972 240.892 315.764 240.524C315.564 240.156 315.288 239.864 314.936 239.648C314.592 239.432 314.204 239.324 313.772 239.324C313.34 239.324 312.948 239.432 312.596 239.648C312.252 239.864 311.976 240.156 311.768 240.524C311.56 240.892 311.456 241.308 311.456 241.772C311.456 242.236 311.56 242.656 311.768 243.032C311.976 243.408 312.252 243.704 312.596 243.92C312.948 244.136 313.34 244.244 313.772 244.244ZM320.222 245L317.714 238.568H318.722L320.834 244.208H320.51L322.634 238.568H323.654L321.122 245H320.222Z" fill="#868E96"/>
<path d="M33 211L67.4994 172.459C75.9618 163.006 90.645 162.651 99.5545 171.684L111.012 183.301C121.82 194.259 140.271 190.878 146.491 176.8L154.421 158.854C157.103 152.785 165.155 151.507 169.585 156.447V156.447C173.832 161.185 181.501 160.24 184.471 154.613L193.196 138.081C199.202 126.702 214.247 123.898 223.948 132.349V132.349C230.761 138.283 240.712 138.899 248.205 133.85L254.971 129.291C262.407 124.28 272.14 124.283 279.572 129.299L285.094 133.026C293.307 138.569 304.212 137.938 311.73 131.485L314.26 129.313C323.099 121.727 336.319 122.344 344.412 130.722L364 151" stroke="#01A142" stroke-width="2"/>
<path d="M35.5 164.5L46.5361 190.854C54.1009 208.918 79.7233 208.837 87.1743 190.726L95.0781 171.513C102.102 154.44 125.762 153.089 134.684 169.252L146.615 190.865C153.717 203.732 171.197 206.15 181.526 195.694L187.25 189.9C194.427 182.635 205.66 181.264 214.373 186.589L223.345 192.072C230.741 196.591 240.101 196.347 247.252 191.448L250.212 189.419C257.606 184.353 267.365 184.396 274.714 189.527V189.527C283.045 195.343 294.309 194.545 301.737 187.612L306.258 183.392C316.609 173.732 333.258 176.222 340.329 188.488L350.5 206.132" stroke="#DE0606" stroke-width="2"/>
<circle cx="261" cy="126" r="4" fill="white" stroke="#75818D" stroke-width="2"/>
<rect x="241" y="97" width="45" height="18" rx="4" fill="#75818D"/>
<path d="M253.64 109L255.712 106.288L255.832 106.216C255.752 106.344 255.659 106.445 255.552 106.52C255.446 106.595 255.328 106.648 255.2 106.68C255.072 106.712 254.931 106.728 254.776 106.728C254.43 106.728 254.118 106.648 253.84 106.488C253.563 106.323 253.342 106.099 253.176 105.816C253.016 105.528 252.936 105.2 252.936 104.832C252.936 104.469 253.019 104.147 253.184 103.864C253.355 103.581 253.584 103.357 253.872 103.192C254.166 103.027 254.494 102.944 254.856 102.944C255.23 102.944 255.56 103.029 255.848 103.2C256.136 103.365 256.363 103.597 256.528 103.896C256.694 104.189 256.776 104.528 256.776 104.912C256.776 105.125 256.75 105.336 256.696 105.544C256.648 105.752 256.574 105.957 256.472 106.16C256.371 106.363 256.243 106.565 256.088 106.768L254.408 109H253.64ZM254.856 106.152C255.107 106.152 255.328 106.096 255.52 105.984C255.712 105.867 255.862 105.709 255.968 105.512C256.08 105.309 256.136 105.083 256.136 104.832C256.136 104.576 256.08 104.349 255.968 104.152C255.856 103.949 255.704 103.792 255.512 103.68C255.32 103.563 255.102 103.504 254.856 103.504C254.611 103.504 254.392 103.563 254.2 103.68C254.008 103.792 253.856 103.949 253.744 104.152C253.632 104.349 253.576 104.576 253.576 104.832C253.576 105.083 253.63 105.309 253.736 105.512C253.848 105.709 254 105.867 254.192 105.984C254.39 106.096 254.611 106.152 254.856 106.152ZM259.766 109.096C259.382 109.096 259.038 109.019 258.734 108.864C258.435 108.704 258.198 108.488 258.022 108.216C257.851 107.939 257.766 107.627 257.766 107.28C257.766 106.901 257.873 106.563 258.086 106.264C258.305 105.965 258.598 105.757 258.966 105.64V105.808C258.683 105.685 258.465 105.504 258.31 105.264C258.155 105.019 258.078 104.757 258.078 104.48C258.078 104.187 258.153 103.925 258.302 103.696C258.451 103.467 258.651 103.285 258.902 103.152C259.158 103.013 259.446 102.944 259.766 102.944C260.091 102.944 260.379 103.011 260.63 103.144C260.881 103.272 261.078 103.453 261.222 103.688C261.371 103.917 261.446 104.181 261.446 104.48C261.446 104.779 261.366 105.045 261.206 105.28C261.046 105.509 260.835 105.685 260.574 105.808L260.566 105.64C260.934 105.757 261.225 105.965 261.438 106.264C261.657 106.563 261.766 106.901 261.766 107.28C261.766 107.627 261.678 107.939 261.502 108.216C261.331 108.488 261.094 108.704 260.79 108.864C260.491 109.019 260.15 109.096 259.766 109.096ZM259.766 108.536C260.038 108.536 260.275 108.485 260.478 108.384C260.681 108.277 260.838 108.131 260.95 107.944C261.067 107.752 261.126 107.531 261.126 107.28C261.126 107.029 261.067 106.811 260.95 106.624C260.838 106.432 260.681 106.285 260.478 106.184C260.275 106.077 260.038 106.024 259.766 106.024C259.494 106.024 259.254 106.077 259.046 106.184C258.843 106.285 258.686 106.432 258.574 106.624C258.462 106.811 258.406 107.029 258.406 107.28C258.406 107.531 258.462 107.752 258.574 107.944C258.686 108.131 258.843 108.277 259.046 108.384C259.254 108.485 259.494 108.536 259.766 108.536ZM259.766 105.464C259.963 105.464 260.139 105.424 260.294 105.344C260.449 105.259 260.571 105.144 260.662 105C260.758 104.851 260.806 104.677 260.806 104.48C260.806 104.283 260.758 104.112 260.662 103.968C260.571 103.824 260.449 103.712 260.294 103.632C260.139 103.547 259.963 103.504 259.766 103.504C259.569 103.504 259.39 103.547 259.23 103.632C259.075 103.712 258.95 103.824 258.854 103.968C258.763 104.112 258.718 104.283 258.718 104.48C258.718 104.677 258.763 104.851 258.854 105C258.95 105.144 259.075 105.259 259.23 105.344C259.39 105.424 259.569 105.464 259.766 105.464ZM265.213 109.096C264.744 109.096 264.331 108.968 263.973 108.712C263.621 108.451 263.347 108.091 263.149 107.632C262.952 107.168 262.853 106.629 262.853 106.016C262.853 105.403 262.952 104.867 263.149 104.408C263.347 103.944 263.621 103.584 263.973 103.328C264.325 103.072 264.736 102.944 265.205 102.944C265.675 102.944 266.085 103.072 266.437 103.328C266.789 103.584 267.064 103.944 267.261 104.408C267.459 104.867 267.557 105.403 267.557 106.016C267.557 106.629 267.459 107.168 267.261 107.632C267.069 108.096 266.797 108.456 266.445 108.712C266.093 108.968 265.683 109.096 265.213 109.096ZM265.213 108.496C265.555 108.496 265.853 108.392 266.109 108.184C266.365 107.976 266.565 107.688 266.709 107.32C266.853 106.947 266.925 106.512 266.925 106.016C266.925 105.52 266.853 105.088 266.709 104.72C266.565 104.347 266.365 104.059 266.109 103.856C265.853 103.648 265.552 103.544 265.205 103.544C264.864 103.544 264.565 103.648 264.309 103.856C264.053 104.059 263.853 104.347 263.709 104.72C263.565 105.088 263.493 105.52 263.493 106.016C263.493 106.507 263.565 106.939 263.709 107.312C263.853 107.685 264.053 107.976 264.309 108.184C264.571 108.392 264.872 108.496 265.213 108.496ZM268.753 109V102.944H269.353V107.184L269.097 107.144L271.505 104.712H272.281L270.601 106.432L272.433 109H271.713L269.993 106.624L270.377 106.656L269.153 107.92L269.353 107.424V109H268.753Z" fill="white"/>
</g>
<path d="M45.784 75.192C44.9413 75.192 44.1573 75.0373 43.432 74.728C42.7173 74.4187 42.0933 73.992 41.56 73.448C41.0373 72.8933 40.6267 72.2427 40.328 71.496C40.0293 70.7493 39.88 69.928 39.88 69.032C39.88 68.1467 40.024 67.3307 40.312 66.584C40.6107 65.8267 41.0267 65.176 41.56 64.632C42.0933 64.0773 42.7173 63.6507 43.432 63.352C44.1467 63.0427 44.9307 62.888 45.784 62.888C46.6267 62.888 47.3787 63.032 48.04 63.32C48.712 63.608 49.2773 63.9867 49.736 64.456C50.1947 64.9147 50.5253 65.416 50.728 65.96L49.032 66.76C48.776 66.12 48.3653 65.6027 47.8 65.208C47.2453 64.8027 46.5733 64.6 45.784 64.6C44.9947 64.6 44.296 64.7867 43.688 65.16C43.08 65.5333 42.6053 66.0507 42.264 66.712C41.9333 67.3733 41.768 68.1467 41.768 69.032C41.768 69.9173 41.9333 70.696 42.264 71.368C42.6053 72.0293 43.08 72.5467 43.688 72.92C44.296 73.2827 44.9947 73.464 45.784 73.464C46.5733 73.464 47.2453 73.2667 47.8 72.872C48.3653 72.4773 48.776 71.96 49.032 71.32L50.728 72.12C50.5253 72.6533 50.1947 73.1547 49.736 73.624C49.2773 74.0933 48.712 74.472 48.04 74.76C47.3787 75.048 46.6267 75.192 45.784 75.192ZM52.4935 75V62.888H54.3015V75H52.4935ZM56.4154 75V66.344H58.2234V75H56.4154ZM56.4154 65.16V63.08H58.2234V65.16H56.4154ZM64.4493 75.192C63.5853 75.192 62.8173 74.9947 62.1453 74.6C61.4839 74.1947 60.9559 73.6507 60.5613 72.968C60.1773 72.2853 59.9853 71.512 59.9853 70.648C59.9853 69.7947 60.1773 69.0267 60.5613 68.344C60.9453 67.6613 61.4733 67.128 62.1453 66.744C62.8173 66.3493 63.5853 66.152 64.4493 66.152C65.0359 66.152 65.5853 66.2587 66.0973 66.472C66.6093 66.6747 67.0519 66.9573 67.4253 67.32C67.8093 67.6827 68.0919 68.104 68.2733 68.584L66.6893 69.32C66.5079 68.872 66.2146 68.5147 65.8093 68.248C65.4146 67.9707 64.9613 67.832 64.4493 67.832C63.9586 67.832 63.5159 67.9547 63.1213 68.2C62.7373 68.4347 62.4333 68.7707 62.2093 69.208C61.9853 69.6347 61.8733 70.12 61.8733 70.664C61.8733 71.208 61.9853 71.6987 62.2093 72.136C62.4333 72.5627 62.7373 72.8987 63.1213 73.144C63.5159 73.3893 63.9586 73.512 64.4493 73.512C64.9719 73.512 65.4253 73.3787 65.8093 73.112C66.2039 72.8347 66.4973 72.4667 66.6893 72.008L68.2733 72.76C68.1026 73.2187 67.8253 73.6347 67.4413 74.008C67.0679 74.3707 66.6253 74.6587 66.1133 74.872C65.6013 75.0853 65.0466 75.192 64.4493 75.192ZM70.0404 75V62.888H71.8484V71L71.1444 70.824L75.4804 66.344H77.7364L74.4724 69.816L77.8804 75H75.8004L72.7604 70.408L73.8324 70.264L71.2724 72.984L71.8484 71.784V75H70.0404ZM86.0914 75.192C85.2594 75.192 84.4967 74.9947 83.8034 74.6C83.1207 74.2053 82.5767 73.6667 82.1714 72.984C81.766 72.3013 81.5634 71.528 81.5634 70.664C81.5634 69.7893 81.766 69.016 82.1714 68.344C82.5767 67.6613 83.1207 67.128 83.8034 66.744C84.486 66.3493 85.2487 66.152 86.0914 66.152C86.9447 66.152 87.7074 66.3493 88.3794 66.744C89.062 67.128 89.6007 67.6613 89.9954 68.344C90.4007 69.016 90.6034 69.7893 90.6034 70.664C90.6034 71.5387 90.4007 72.3173 89.9954 73C89.59 73.6827 89.046 74.2213 88.3634 74.616C87.6807 75 86.9234 75.192 86.0914 75.192ZM86.0914 73.512C86.6034 73.512 87.0567 73.3893 87.4514 73.144C87.846 72.8987 88.1554 72.5627 88.3794 72.136C88.614 71.6987 88.7314 71.208 88.7314 70.664C88.7314 70.12 88.614 69.6347 88.3794 69.208C88.1554 68.7813 87.846 68.4453 87.4514 68.2C87.0567 67.9547 86.6034 67.832 86.0914 67.832C85.59 67.832 85.1367 67.9547 84.7314 68.2C84.3367 68.4453 84.022 68.7813 83.7874 69.208C83.5634 69.6347 83.4514 70.12 83.4514 70.664C83.4514 71.208 83.5634 71.6987 83.7874 72.136C84.022 72.5627 84.3367 72.8987 84.7314 73.144C85.1367 73.3893 85.59 73.512 86.0914 73.512ZM92.3685 75V66.344H94.0965V68.04L93.8885 67.816C94.1018 67.272 94.4432 66.8613 94.9125 66.584C95.3818 66.296 95.9258 66.152 96.5445 66.152C97.1845 66.152 97.7498 66.2907 98.2405 66.568C98.7312 66.8453 99.1152 67.2293 99.3925 67.72C99.6698 68.2107 99.8085 68.776 99.8085 69.416V75H98.0165V69.896C98.0165 69.4587 97.9365 69.0907 97.7765 68.792C97.6165 68.4827 97.3872 68.248 97.0885 68.088C96.8005 67.9173 96.4698 67.832 96.0965 67.832C95.7232 67.832 95.3872 67.9173 95.0885 68.088C94.8005 68.248 94.5765 68.4827 94.4165 68.792C94.2565 69.1013 94.1765 69.4693 94.1765 69.896V75H92.3685ZM108.284 75.096C107.378 75.096 106.674 74.84 106.172 74.328C105.671 73.816 105.42 73.096 105.42 72.168V67.976H103.9V66.344H104.14C104.546 66.344 104.86 66.2267 105.084 65.992C105.308 65.7573 105.42 65.4373 105.42 65.032V64.36H107.228V66.344H109.196V67.976H107.228V72.088C107.228 72.3867 107.276 72.6427 107.372 72.856C107.468 73.0587 107.623 73.2187 107.836 73.336C108.05 73.4427 108.327 73.496 108.668 73.496C108.754 73.496 108.85 73.4907 108.956 73.48C109.063 73.4693 109.164 73.4587 109.26 73.448V75C109.111 75.0213 108.946 75.0427 108.764 75.064C108.583 75.0853 108.423 75.096 108.284 75.096ZM111.025 75V62.888H112.833V68.04L112.545 67.816C112.758 67.272 113.099 66.8613 113.569 66.584C114.038 66.296 114.582 66.152 115.201 66.152C115.841 66.152 116.406 66.2907 116.897 66.568C117.387 66.8453 117.771 67.2293 118.049 67.72C118.326 68.2107 118.465 68.7707 118.465 69.4V75H116.673V69.896C116.673 69.4587 116.587 69.0907 116.417 68.792C116.257 68.4827 116.033 68.248 115.745 68.088C115.457 67.9173 115.126 67.832 114.753 67.832C114.39 67.832 114.059 67.9173 113.761 68.088C113.473 68.248 113.243 68.4827 113.073 68.792C112.913 69.1013 112.833 69.4693 112.833 69.896V75H111.025ZM124.464 75.192C123.6 75.192 122.832 74.9947 122.16 74.6C121.498 74.1947 120.981 73.6507 120.608 72.968C120.234 72.2747 120.048 71.5013 120.048 70.648C120.048 69.7733 120.234 69 120.608 68.328C120.992 67.656 121.504 67.128 122.144 66.744C122.784 66.3493 123.509 66.152 124.32 66.152C124.97 66.152 125.552 66.264 126.064 66.488C126.576 66.712 127.008 67.0213 127.36 67.416C127.712 67.8 127.978 68.2427 128.16 68.744C128.352 69.2453 128.448 69.7787 128.448 70.344C128.448 70.4827 128.442 70.6267 128.432 70.776C128.421 70.9253 128.4 71.064 128.368 71.192H121.472V69.752H127.344L126.48 70.408C126.586 69.8853 126.549 69.4213 126.368 69.016C126.197 68.6 125.93 68.2747 125.568 68.04C125.216 67.7947 124.8 67.672 124.32 67.672C123.84 67.672 123.413 67.7947 123.04 68.04C122.666 68.2747 122.378 68.616 122.176 69.064C121.973 69.5013 121.893 70.0347 121.936 70.664C121.882 71.2507 121.962 71.7627 122.176 72.2C122.4 72.6373 122.709 72.9787 123.104 73.224C123.509 73.4693 123.968 73.592 124.48 73.592C125.002 73.592 125.445 73.4747 125.808 73.24C126.181 73.0053 126.474 72.7013 126.688 72.328L128.16 73.048C127.989 73.4533 127.722 73.8213 127.36 74.152C127.008 74.472 126.581 74.728 126.08 74.92C125.589 75.1013 125.05 75.192 124.464 75.192ZM133.009 75V62.888H134.817V75H133.009ZM136.931 75V66.344H138.739V75H136.931ZM136.931 65.16V63.08H138.739V65.16H136.931ZM140.853 75V66.344H142.581V68.04L142.373 67.816C142.586 67.272 142.928 66.8613 143.397 66.584C143.866 66.296 144.41 66.152 145.029 66.152C145.669 66.152 146.234 66.2907 146.725 66.568C147.216 66.8453 147.6 67.2293 147.877 67.72C148.154 68.2107 148.293 68.776 148.293 69.416V75H146.501V69.896C146.501 69.4587 146.421 69.0907 146.261 68.792C146.101 68.4827 145.872 68.248 145.573 68.088C145.285 67.9173 144.954 67.832 144.581 67.832C144.208 67.832 143.872 67.9173 143.573 68.088C143.285 68.248 143.061 68.4827 142.901 68.792C142.741 69.1013 142.661 69.4693 142.661 69.896V75H140.853ZM150.228 75V62.888H152.036V71L151.332 70.824L155.668 66.344H157.924L154.66 69.816L158.068 75H155.988L152.948 70.408L154.02 70.264L151.46 72.984L152.036 71.784V75H150.228Z" fill="#868E96"/>
<defs>
<filter id="filter0_d_532_122140" x="-15" y="0" width="407" height="320" filterUnits="userSpaceOnUse" color-interpolation-filters="sRGB">
<feFlood flood-opacity="0" result="BackgroundImageFix"/>
<feColorMatrix in="SourceAlpha" type="matrix" values="0 0 0 0 0 0 0 0 0 0 0 0 0 0 0 0 0 0 127 0" result="hardAlpha"/>
<feOffset dx="2" dy="2"/>
<feGaussianBlur stdDeviation="20"/>
<feComposite in2="hardAlpha" operator="out"/>
<feColorMatrix type="matrix" values="0 0 0 0 0 0 0 0 0 0 0 0 0 0 0 0 0 0 0.1 0"/>
<feBlend mode="normal" in2="BackgroundImageFix" result="effect1_dropShadow_532_122140"/>
<feBlend mode="normal" in="SourceGraphic" in2="effect1_dropShadow_532_122140" result="shape"/>
</filter>
<linearGradient id="paint0_linear_532_122140" x1="260" y1="129.5" x2="260" y2="228" gradientUnits="userSpaceOnUse">
<stop stop-color="#868E96"/>
<stop offset="1" stop-color="#D8DFE9"/>
</linearGradient>
<clipPath id="clip0_532_122140">
<rect width="295" height="166" fill="white" transform="translate(39 92)"/>
</clipPath>
</defs>
</svg>
