<svg width="94" height="122" viewBox="0 0 94 122" fill="none" xmlns="http://www.w3.org/2000/svg">
<path d="M91.2273 50.1346C89.4051 45.5496 86.9083 41.4571 83.8007 37.9654C80.6193 34.3949 76.8075 31.5533 72.4687 29.5194C68.0758 27.4657 63.3332 26.4216 58.3739 26.4216C54.04 26.4216 49.9524 27.1505 46.2293 28.5836C46.0717 28.6427 45.9092 28.7068 45.7516 28.7708L45.658 2.41316C45.658 1.07854 44.5696 0 43.235 0H22.5704C21.9302 0 21.3146 0.25609 20.8566 0.709174L0.709174 20.8566C0.256091 21.3097 0 21.9253 0 22.5704V83.2146C0 88.4645 0.935715 93.473 2.7776 98.0974C4.6244 102.742 7.25426 106.859 10.5884 110.336C13.9372 113.832 17.9805 116.62 22.5951 118.619C27.2293 120.624 32.3905 121.643 37.9408 121.643C43.4911 121.643 48.5292 120.624 53.1683 118.614C57.7632 116.62 61.7868 113.847 65.1307 110.365L67.1006 108.395C83.2934 92.2074 83.3378 92.1581 83.4166 92.0793C86.7507 88.5926 89.3805 84.4705 91.2273 79.8215C93.0692 75.1872 94 70.1688 94 64.914C94 59.6592 93.0643 54.7689 91.2273 50.1297V50.1346Z" fill="#231F20"/>
<path d="M88.3218 64.9188C88.3218 69.4743 87.5289 73.7441 85.948 77.7283C84.3671 81.7124 82.151 85.1894 79.3143 88.159C76.4727 91.1287 73.0844 93.4631 69.1495 95.172C65.2096 96.8809 60.8905 97.7329 56.1824 97.7329C51.4743 97.7329 47.0321 96.8809 43.0922 95.1769C39.1524 93.4729 35.7641 91.1385 32.9274 88.1738C30.0858 85.214 27.8746 81.742 26.2937 77.7627C24.7128 73.7884 23.9199 69.5235 23.9199 64.9779V5.68311H39.9896L40.1127 39.4674C42.4668 36.9311 45.1853 35.0695 48.2682 33.8826C51.3512 32.6957 54.7197 32.0998 58.3739 32.0998C62.5157 32.0998 66.4112 32.9518 70.0605 34.6607C73.7148 36.3696 76.8765 38.7286 79.5556 41.7377C82.2347 44.7468 84.3671 48.2434 85.948 52.2276C87.5289 56.2117 88.3218 60.4422 88.3218 64.9139V64.9188Z" fill="white"/>
</svg>
