<svg width="327" height="327" viewBox="0 0 327 327" fill="none" xmlns="http://www.w3.org/2000/svg">
<path d="M173.253 157.996C170.599 157.996 166.967 157.263 164.243 153.91C164.128 153.766 164.074 153.583 164.094 153.4C164.114 153.217 164.205 153.049 164.348 152.932C164.417 152.871 164.498 152.824 164.586 152.796C164.675 152.768 164.768 152.758 164.86 152.768C164.952 152.778 165.041 152.807 165.121 152.853C165.201 152.9 165.271 152.962 165.326 153.037C169.621 158.276 176.257 156.285 176.536 156.18C176.712 156.125 176.903 156.142 177.066 156.227C177.23 156.312 177.353 156.459 177.409 156.634C177.441 156.721 177.455 156.814 177.449 156.906C177.444 156.999 177.419 157.089 177.376 157.171C177.333 157.254 177.273 157.326 177.201 157.384C177.129 157.442 177.045 157.484 176.955 157.507C175.753 157.855 174.505 158.019 173.253 157.996Z" fill="#282928"/>
<path d="M155.966 139.173C154.988 139.167 154.014 139.038 153.068 138.788C139.028 135.052 133.476 105.192 133.231 103.935C133.2 103.754 133.242 103.569 133.346 103.419C133.451 103.269 133.61 103.166 133.79 103.132C133.974 103.1 134.164 103.14 134.32 103.244C134.476 103.348 134.586 103.508 134.628 103.69C134.663 104.005 140.251 133.934 153.417 137.426C158.725 138.858 164.697 135.715 171.158 128.102C171.215 128.029 171.287 127.97 171.368 127.927C171.45 127.883 171.539 127.858 171.631 127.851C171.723 127.845 171.816 127.857 171.903 127.888C171.989 127.919 172.069 127.968 172.136 128.032C172.211 128.086 172.273 128.156 172.32 128.236C172.366 128.317 172.395 128.406 172.405 128.498C172.415 128.59 172.405 128.683 172.377 128.771C172.349 128.859 172.302 128.941 172.24 129.01C166.513 135.75 161.03 139.173 155.966 139.173Z" fill="#282928"/>
<path d="M153.312 120.244C153.016 120.268 152.719 120.22 152.445 120.104C152.172 119.989 151.93 119.809 151.74 119.58C150.483 118.184 151.74 115.11 152.02 114.517C152.096 114.352 152.233 114.223 152.403 114.158C152.572 114.093 152.761 114.096 152.928 114.167C153.101 114.244 153.238 114.385 153.31 114.561C153.382 114.737 153.382 114.934 153.312 115.11C152.788 116.263 152.334 118.149 152.788 118.672C153.242 119.196 153.487 118.882 154.15 118.707C154.24 118.67 154.336 118.652 154.433 118.654C154.529 118.657 154.625 118.679 154.712 118.72C154.8 118.761 154.878 118.819 154.942 118.892C155.006 118.965 155.054 119.05 155.083 119.142C155.112 119.235 155.122 119.332 155.112 119.428C155.101 119.525 155.071 119.618 155.022 119.702C154.974 119.785 154.909 119.858 154.831 119.916C154.753 119.973 154.664 120.013 154.569 120.034C154.162 120.161 153.739 120.232 153.312 120.244Z" fill="#282928"/>
<path d="M198.817 145.109C194.557 145.109 189.947 144.481 187.886 142.001L187.817 141.931V141.827L175.349 112.91L175.698 112.596C175.733 112.561 179.225 109.138 179.156 106.065C179.153 105.571 179.042 105.084 178.83 104.638C178.619 104.191 178.313 103.796 177.933 103.481C176.955 102.643 176.117 102.328 175.454 102.538C174.092 103.027 173.323 105.646 173.149 106.589C173.107 106.772 172.997 106.931 172.841 107.035C172.685 107.139 172.495 107.179 172.311 107.148C172.131 107.114 171.972 107.01 171.867 106.86C171.763 106.71 171.721 106.525 171.752 106.344C171.857 105.925 172.59 102.049 175 101.246C176.187 100.827 177.479 101.246 178.841 102.433C179.368 102.875 179.794 103.424 180.089 104.045C180.384 104.666 180.542 105.343 180.553 106.03C180.622 109.103 178.003 112.212 177.025 113.224L189.004 141.198C192.182 144.795 203.392 143.713 207.478 142.979C207.573 142.948 207.674 142.938 207.773 142.949C207.872 142.96 207.968 142.993 208.053 143.044C208.139 143.095 208.213 143.164 208.269 143.246C208.326 143.328 208.365 143.422 208.382 143.52C208.4 143.618 208.396 143.719 208.372 143.816C208.347 143.912 208.302 144.003 208.239 144.081C208.177 144.158 208.099 144.222 208.009 144.267C207.92 144.312 207.823 144.337 207.723 144.341C204.78 144.836 201.802 145.093 198.817 145.109Z" fill="#282928"/>
<path d="M145.594 85.0411C144.232 83.0854 142.695 86.892 140.914 88.4636C139.133 90.0351 139.063 91.2924 139.378 94.5752C140.041 101.42 139.832 98.5215 137.911 105.297C135.99 112.072 141.648 127.508 141.648 127.508C141.648 127.508 148.947 140.01 156.804 139.068L162.567 137.147C162.567 137.147 170.005 150.942 167.002 155.028C163.999 159.114 165.605 167.356 162.113 170.848C158.62 174.34 157.957 181.15 150.343 180.172C143.289 179.264 148.562 175.458 149.191 167.949C149.82 160.441 151.775 159.533 143.568 157.612C135.361 155.691 134.663 156.04 135.257 142.63C135.85 129.219 129.809 132.991 124.745 117.729C119.681 102.468 124.989 110.116 124.5 96.9499C124.011 83.7838 129.25 70.478 143.254 69.0811C157.258 67.6841 153.277 62.9695 165.151 64.6807C177.025 66.392 198.957 82.806 198.643 97.2643C198.328 111.723 194.137 115.389 205.976 122.619C217.815 129.848 229.829 132.292 229.305 140.15L228.956 145.144C228.939 145.462 228.845 145.77 228.681 146.043C228.518 146.316 228.29 146.545 228.019 146.71C227.747 146.875 227.439 146.972 227.122 146.991C226.804 147.01 226.487 146.952 226.197 146.821C222.041 144.97 214.079 141.861 211.634 143.817C208.281 146.541 193.753 148.462 188.41 141.547C184.254 136.204 176.187 113.085 176.187 113.085C176.187 113.085 184.219 99.9184 174.231 102.503C165.291 104.808 151.95 94.0513 145.594 85.0411Z" fill="#282928"/>
<path d="M140.355 109.033H140.251C140.069 108.999 139.906 108.897 139.796 108.748C139.686 108.599 139.636 108.414 139.657 108.23C139.727 107.951 140.775 102.084 145.629 101.839C145.722 101.829 145.816 101.839 145.904 101.868C145.993 101.897 146.075 101.944 146.144 102.007C146.213 102.07 146.268 102.146 146.306 102.232C146.344 102.317 146.363 102.409 146.362 102.503C146.367 102.594 146.354 102.686 146.323 102.773C146.292 102.859 146.244 102.939 146.183 103.007C146.121 103.075 146.047 103.13 145.964 103.17C145.88 103.209 145.791 103.232 145.699 103.236C141.962 103.411 141.054 108.405 141.054 108.44C141.029 108.606 140.944 108.758 140.816 108.867C140.687 108.976 140.524 109.035 140.355 109.033Z" fill="#282928"/>
<path d="M153.557 101.735C153.449 101.732 153.343 101.706 153.246 101.658C153.149 101.609 153.065 101.54 152.998 101.455C152.903 101.302 152.864 101.12 152.89 100.941C152.915 100.762 153.003 100.598 153.138 100.478C154.569 99.395 158.062 97.9282 161.065 100.093C161.141 100.146 161.205 100.213 161.255 100.291C161.305 100.369 161.339 100.455 161.355 100.546C161.371 100.637 161.369 100.73 161.35 100.82C161.33 100.91 161.293 100.996 161.24 101.071C161.187 101.147 161.12 101.212 161.042 101.261C160.965 101.311 160.878 101.345 160.787 101.361C160.696 101.377 160.603 101.376 160.513 101.356C160.423 101.336 160.338 101.299 160.262 101.246C157.328 99.1505 154.115 101.49 153.976 101.595C153.919 101.646 153.853 101.684 153.781 101.708C153.709 101.732 153.632 101.741 153.557 101.735Z" fill="#282928"/>
<path d="M160.891 127.683C159.145 127.683 157.468 127.334 156.351 126.6C156.108 126.457 155.912 126.248 155.786 125.996C155.659 125.745 155.608 125.463 155.637 125.183C155.667 124.904 155.776 124.638 155.952 124.419C156.128 124.199 156.363 124.035 156.63 123.946C158.621 123.178 162.253 121.292 164.313 117.485C165.047 116.123 165.78 115.46 166.583 115.494C167.386 115.529 167.666 115.739 168.12 116.822C169.028 118.812 169.168 123.632 167.666 125.413C166.164 127.194 163.615 127.683 160.891 127.683ZM166.513 116.891C166.513 116.891 166.164 116.961 165.536 118.149C163.266 122.374 159.284 124.4 157.119 125.238C157.084 125.273 157.049 125.308 157.049 125.343C157.049 125.378 157.084 125.413 157.084 125.413C159.564 127.019 165.186 126.216 166.618 124.505C167.421 123.527 167.666 120.314 167.107 118.079C166.863 117.206 166.583 116.926 166.513 116.891Z" fill="#282928"/>
<path d="M131.939 194.317C127.469 194.317 123.732 193.863 120.728 193.024C119.297 192.605 117.935 192.116 116.677 191.628C115.917 191.317 115.292 190.746 114.914 190.016C114.537 189.287 114.431 188.446 114.617 187.646C118.563 170.569 138.435 142.979 139.273 141.827C139.325 141.751 139.392 141.686 139.47 141.636C139.548 141.586 139.634 141.552 139.725 141.535C139.816 141.519 139.909 141.521 140 141.541C140.09 141.561 140.175 141.599 140.251 141.652C140.324 141.707 140.386 141.776 140.433 141.855C140.479 141.934 140.51 142.021 140.523 142.112C140.536 142.203 140.531 142.295 140.508 142.384C140.485 142.473 140.445 142.557 140.39 142.63C140.181 142.909 119.855 171.162 115.979 187.961C115.86 188.437 115.918 188.941 116.143 189.378C116.368 189.815 116.744 190.155 117.201 190.335C118.477 190.856 119.783 191.299 121.113 191.662C125.618 192.99 131.974 193.269 140.006 192.501L140.67 192.431C140.761 192.426 140.853 192.439 140.94 192.47C141.026 192.501 141.106 192.549 141.174 192.61C141.242 192.672 141.298 192.746 141.337 192.829C141.376 192.913 141.399 193.003 141.403 193.094C141.413 193.184 141.404 193.275 141.377 193.362C141.35 193.448 141.306 193.528 141.247 193.597C141.188 193.665 141.116 193.721 141.035 193.761C140.953 193.801 140.865 193.823 140.775 193.828L140.111 193.898C137.177 194.177 134.453 194.317 131.939 194.317Z" fill="#282928"/>
<path d="M128.866 226.83C128.328 226.833 127.792 226.798 127.259 226.726C122.649 226.097 120.1 220.02 119.611 208.705C119.457 203.214 119.667 197.719 120.24 192.256C120.248 192.165 120.275 192.077 120.319 191.998C120.363 191.918 120.422 191.848 120.495 191.792C120.567 191.736 120.649 191.696 120.738 191.674C120.826 191.652 120.918 191.648 121.008 191.662C121.1 191.671 121.189 191.698 121.27 191.741C121.352 191.785 121.424 191.844 121.482 191.915C121.541 191.987 121.585 192.069 121.611 192.158C121.637 192.246 121.646 192.339 121.636 192.431C120.589 201.197 119.646 224.246 127.434 225.364C132.323 226.027 141.473 222.919 152.544 216.772C164.418 210.207 177.339 200.812 188.934 190.405C188.997 190.328 189.076 190.265 189.165 190.221C189.255 190.176 189.353 190.152 189.452 190.148C189.552 190.145 189.651 190.163 189.743 190.201C189.836 190.24 189.919 190.297 189.987 190.37C190.055 190.444 190.106 190.53 190.138 190.625C190.169 190.72 190.18 190.82 190.17 190.919C190.16 191.018 190.128 191.114 190.077 191.2C190.027 191.286 189.958 191.361 189.877 191.418C167.561 211.499 140.949 226.83 128.866 226.83Z" fill="#282928"/>
<path d="M134.488 203.571L134.174 203.501C134.091 203.46 134.017 203.404 133.956 203.334C133.895 203.264 133.849 203.183 133.82 203.095C133.791 203.008 133.779 202.915 133.786 202.823C133.793 202.731 133.818 202.641 133.86 202.558C133.929 202.419 135.501 199.206 141.159 198.263C141.339 198.232 141.524 198.274 141.674 198.378C141.825 198.483 141.928 198.642 141.962 198.822C141.983 199.006 141.933 199.191 141.823 199.34C141.713 199.489 141.55 199.591 141.368 199.625C136.514 200.428 135.152 203.047 135.117 203.152C135.057 203.27 134.968 203.371 134.858 203.444C134.748 203.518 134.62 203.561 134.488 203.571Z" fill="#282928"/>
<path d="M227.035 168.858C226.915 168.853 226.798 168.818 226.695 168.757C226.591 168.696 226.504 168.611 226.441 168.508C226.392 168.431 226.359 168.345 226.344 168.255C226.33 168.164 226.334 168.072 226.357 167.984C226.38 167.895 226.421 167.812 226.478 167.74C226.534 167.668 226.605 167.609 226.686 167.566C228.746 166.273 237.582 157.927 240.271 155.133C240.347 155.07 240.405 154.989 240.442 154.897C240.479 154.806 240.492 154.707 240.48 154.609C240.477 154.51 240.454 154.412 240.412 154.322C240.37 154.232 240.31 154.151 240.236 154.085L227.594 143.433C227.461 143.302 227.381 143.127 227.368 142.94C227.355 142.754 227.41 142.569 227.524 142.421C227.645 142.283 227.816 142.198 227.999 142.185C228.181 142.172 228.362 142.232 228.502 142.351L241.144 153.002C241.364 153.196 241.542 153.432 241.668 153.696C241.794 153.96 241.865 154.247 241.877 154.539C241.897 154.828 241.854 155.118 241.751 155.389C241.649 155.66 241.489 155.906 241.284 156.111C238.63 158.87 229.654 167.356 227.384 168.753C227.282 168.824 227.16 168.86 227.035 168.858Z" fill="#282928"/>
<path d="M222.984 168.857L222.739 168.787C222.656 168.757 222.579 168.709 222.515 168.648C222.45 168.587 222.398 168.514 222.362 168.432C222.326 168.351 222.307 168.263 222.306 168.174C222.305 168.085 222.321 167.997 222.355 167.914C223.193 165.714 224.939 164.038 226.686 162.501L231.575 158.345C231.641 158.272 231.722 158.213 231.813 158.174C231.904 158.134 232.002 158.114 232.1 158.115C232.199 158.116 232.297 158.138 232.387 158.179C232.477 158.221 232.557 158.281 232.621 158.356C232.686 158.431 232.734 158.518 232.763 158.613C232.791 158.708 232.799 158.808 232.786 158.906C232.773 159.004 232.739 159.098 232.687 159.182C232.635 159.266 232.565 159.338 232.483 159.393L227.594 163.584C225.987 164.981 224.381 166.517 223.647 168.403C223.593 168.535 223.501 168.649 223.383 168.729C223.265 168.81 223.127 168.854 222.984 168.857Z" fill="#282928"/>
<path d="M226.861 185.201C226.709 185.204 226.562 185.155 226.442 185.062L226.337 184.992C223.683 183.071 222.775 182.408 220.4 182.233C220.307 182.233 220.214 182.214 220.129 182.177C220.044 182.139 219.967 182.084 219.904 182.015C219.842 181.945 219.794 181.864 219.766 181.775C219.737 181.686 219.727 181.592 219.737 181.5C219.741 181.409 219.764 181.321 219.803 181.239C219.843 181.158 219.899 181.086 219.968 181.027C220.036 180.968 220.116 180.924 220.203 180.897C220.289 180.87 220.38 180.861 220.47 180.871C223.264 181.046 224.416 181.884 227.14 183.839L227.28 183.944C227.357 183.993 227.422 184.057 227.471 184.133C227.521 184.208 227.553 184.294 227.566 184.384C227.58 184.473 227.573 184.564 227.548 184.651C227.523 184.738 227.479 184.819 227.42 184.887C227.361 184.982 227.279 185.061 227.181 185.116C227.083 185.171 226.973 185.201 226.861 185.201Z" fill="#282928"/>
<path d="M223.124 229.24C222.965 229.245 222.809 229.196 222.682 229.101C222.556 229.005 222.465 228.87 222.425 228.716L215.65 199.101C215.629 199.012 215.626 198.919 215.642 198.829C215.657 198.738 215.69 198.651 215.738 198.573C215.787 198.496 215.85 198.428 215.925 198.375C216 198.322 216.084 198.284 216.174 198.263C216.264 198.237 216.358 198.23 216.45 198.243C216.542 198.256 216.631 198.288 216.71 198.338C216.789 198.387 216.857 198.453 216.909 198.53C216.961 198.607 216.996 198.695 217.012 198.787L223.787 228.402C223.808 228.491 223.811 228.584 223.796 228.674C223.781 228.765 223.748 228.852 223.699 228.93C223.65 229.007 223.587 229.075 223.512 229.128C223.437 229.181 223.353 229.219 223.263 229.24H223.124Z" fill="#282928"/>
<path d="M142.067 112.98H141.752C141.57 112.963 141.401 112.878 141.278 112.742C141.156 112.606 141.088 112.43 141.089 112.247C141.093 112.155 141.116 112.065 141.155 111.982C141.194 111.899 141.25 111.824 141.318 111.763C141.386 111.701 141.466 111.653 141.552 111.623C141.639 111.592 141.731 111.578 141.822 111.583C145.035 111.723 147.654 108.789 147.689 108.789C147.816 108.675 147.98 108.611 148.15 108.609C148.321 108.608 148.486 108.668 148.615 108.78C148.743 108.892 148.827 109.046 148.85 109.215C148.872 109.384 148.832 109.556 148.737 109.697C148.597 109.837 145.769 112.98 142.067 112.98Z" fill="#282928"/>
<path d="M158.026 107.671C157.629 107.689 157.231 107.665 156.839 107.601C156.748 107.593 156.66 107.566 156.581 107.522C156.501 107.478 156.431 107.419 156.375 107.346C156.319 107.274 156.279 107.192 156.257 107.103C156.234 107.015 156.231 106.923 156.245 106.833C156.258 106.741 156.289 106.652 156.337 106.572C156.384 106.492 156.447 106.423 156.522 106.367C156.597 106.312 156.682 106.272 156.772 106.25C156.863 106.228 156.957 106.225 157.049 106.239C157.084 106.239 160.541 106.693 163.125 104.773C163.197 104.713 163.28 104.669 163.37 104.643C163.459 104.618 163.553 104.611 163.645 104.624C163.738 104.638 163.826 104.67 163.905 104.72C163.984 104.769 164.051 104.835 164.103 104.912C164.158 104.986 164.198 105.069 164.221 105.158C164.244 105.247 164.249 105.339 164.236 105.43C164.223 105.521 164.192 105.608 164.145 105.687C164.099 105.766 164.037 105.835 163.963 105.89C161.903 107.427 159.458 107.671 158.026 107.671Z" fill="#282928"/>
<path d="M150.309 215.445L231.75 214.991L255.637 237.971L245.719 299.68L137.701 300.588L128.691 237.971L150.309 215.445Z" fill="#282928"/>
<path d="M245.58 238.041H138.749C138.61 238.041 138.477 237.986 138.379 237.887C138.281 237.789 138.225 237.656 138.225 237.517C138.225 237.378 138.281 237.245 138.379 237.147C138.477 237.048 138.61 236.993 138.749 236.993H245.58C245.719 236.993 245.852 237.048 245.95 237.147C246.049 237.245 246.104 237.378 246.104 237.517C246.104 237.656 246.049 237.789 245.95 237.887C245.852 237.986 245.719 238.041 245.58 238.041Z" fill="white"/>
<path d="M155.512 238.11C155.384 238.111 155.26 238.066 155.164 237.982C155.068 237.899 155.005 237.783 154.988 237.656L153.032 225.433C153.02 225.291 153.059 225.15 153.142 225.034C153.226 224.919 153.348 224.837 153.486 224.805C153.624 224.794 153.761 224.834 153.87 224.918C153.98 225.001 154.054 225.123 154.08 225.259L156.036 237.482C156.056 237.625 156.02 237.77 155.935 237.888C155.851 238.005 155.724 238.085 155.582 238.11H155.512Z" fill="white"/>
<path d="M230.423 237.971H230.388C230.32 237.971 230.254 237.957 230.192 237.931C230.13 237.904 230.075 237.865 230.029 237.816C229.983 237.766 229.948 237.708 229.925 237.645C229.903 237.581 229.894 237.514 229.899 237.447L230.353 224.944C230.362 224.812 230.421 224.687 230.518 224.596C230.615 224.506 230.743 224.455 230.877 224.456C231.015 224.456 231.149 224.511 231.247 224.609C231.345 224.707 231.4 224.84 231.4 224.979L230.946 237.482C230.938 237.615 230.878 237.739 230.781 237.83C230.684 237.921 230.556 237.971 230.423 237.971Z" fill="white"/>
<path d="M243.1 268.459C242.964 268.462 242.831 268.426 242.716 268.354C242.638 268.308 242.571 268.246 242.518 268.173C242.465 268.1 242.427 268.016 242.407 267.928C242.388 267.84 242.386 267.748 242.403 267.659C242.42 267.57 242.455 267.486 242.506 267.411C242.751 266.957 249.246 256.76 257.698 254.874C259.219 254.518 260.797 254.477 262.334 254.753C263.872 255.029 265.336 255.617 266.638 256.48C266.79 256.586 266.897 256.746 266.936 256.928C266.974 257.109 266.943 257.299 266.848 257.458C266.748 257.608 266.594 257.713 266.418 257.752C266.243 257.791 266.059 257.761 265.905 257.668C264.751 256.901 263.452 256.379 262.089 256.133C260.726 255.886 259.326 255.921 257.977 256.236C250.119 258.017 243.729 268.04 243.694 268.145C243.627 268.24 243.538 268.319 243.435 268.374C243.332 268.428 243.217 268.458 243.1 268.459Z" fill="#FBBC1B"/>
<path d="M266.883 256.41L274.042 254.699C274.32 254.616 274.619 254.641 274.88 254.769L290.211 261.474C290.385 261.552 290.541 261.665 290.669 261.806C290.796 261.947 290.893 262.114 290.952 262.295C291.011 262.476 291.032 262.667 291.013 262.857C290.993 263.046 290.935 263.23 290.84 263.395L285.462 272.72C285.292 273.022 285.011 273.247 284.678 273.345C284.345 273.443 283.987 273.406 283.681 273.243L268.245 265.211C268.073 265.123 267.922 265 267.802 264.85C267.681 264.699 267.594 264.525 267.546 264.338L265.905 258.052C265.858 257.88 265.846 257.7 265.87 257.523C265.894 257.347 265.954 257.177 266.045 257.023C266.136 256.87 266.257 256.737 266.401 256.632C266.545 256.526 266.709 256.451 266.883 256.41Z" fill="white"/>
<path d="M284.275 274.081C283.949 274.079 283.628 274.008 283.332 273.872L267.896 265.805C267.645 265.674 267.424 265.491 267.25 265.268C267.075 265.045 266.95 264.787 266.883 264.512L265.241 258.226C265.171 257.963 265.153 257.689 265.189 257.42C265.225 257.15 265.314 256.89 265.451 256.655C265.589 256.417 265.776 256.21 265.998 256.048C266.221 255.885 266.474 255.771 266.743 255.712L273.867 254.001C274.298 253.896 274.751 253.932 275.16 254.105L290.491 260.811C290.754 260.932 290.989 261.106 291.181 261.322C291.374 261.539 291.519 261.792 291.609 262.068C291.702 262.343 291.734 262.636 291.704 262.925C291.674 263.214 291.582 263.494 291.434 263.744L286.056 273.069C285.879 273.383 285.619 273.643 285.306 273.822C284.992 274 284.635 274.09 284.275 274.081ZM267.057 257.074C266.969 257.093 266.886 257.131 266.814 257.185C266.741 257.239 266.681 257.309 266.638 257.388C266.562 257.539 266.537 257.711 266.568 257.877L268.21 264.163C268.237 264.253 268.282 264.336 268.342 264.408C268.402 264.48 268.476 264.539 268.559 264.582L283.995 272.615C284.068 272.658 284.149 272.685 284.233 272.696C284.317 272.707 284.402 272.701 284.484 272.678C284.565 272.656 284.642 272.617 284.708 272.564C284.774 272.511 284.828 272.445 284.868 272.37L290.247 263.046C290.328 262.87 290.341 262.671 290.281 262.487C290.254 262.402 290.209 262.323 290.148 262.257C290.088 262.191 290.014 262.138 289.932 262.103L274.601 255.397C274.466 255.352 274.322 255.34 274.182 255.363L267.057 257.074Z" fill="#282928"/>
<path d="M204.58 288.016L159.284 288.47C158.172 288.47 157.107 288.029 156.321 287.243C155.535 286.457 155.093 285.391 155.093 284.279L152.509 259.484C152.509 258.372 152.95 257.306 153.736 256.52C154.522 255.734 155.588 255.293 156.7 255.293H207.513C208.625 255.293 209.691 255.734 210.476 256.52C211.262 257.306 211.704 258.372 211.704 259.484L208.77 283.825C208.77 284.937 208.329 286.003 207.543 286.789C206.757 287.575 205.691 288.016 204.58 288.016Z" fill="white"/>
<path d="M159.284 289.168C157.993 289.168 156.755 288.658 155.839 287.749C154.923 286.839 154.404 285.605 154.394 284.314L151.81 259.484C151.81 258.187 152.325 256.943 153.242 256.026C154.159 255.109 155.403 254.594 156.699 254.594H207.513C208.81 254.594 210.053 255.109 210.97 256.026C211.887 256.943 212.402 258.187 212.402 259.484V259.553L209.469 283.86C209.45 285.148 208.928 286.377 208.014 287.285C207.1 288.192 205.867 288.705 204.579 288.714L159.284 289.168ZM153.207 259.449L155.791 284.279C155.791 285.205 156.159 286.094 156.814 286.749C157.469 287.404 158.357 287.771 159.284 287.771L204.579 287.317C205.506 287.317 206.394 286.95 207.049 286.295C207.704 285.64 208.072 284.751 208.072 283.825V283.755L211.005 259.449C210.996 258.528 210.624 257.649 209.97 257.002C209.316 256.354 208.433 255.991 207.513 255.991H156.699C156.242 255.987 155.789 256.073 155.366 256.244C154.942 256.416 154.557 256.67 154.232 256.991C153.907 257.313 153.649 257.696 153.473 258.117C153.298 258.539 153.207 258.992 153.207 259.449Z" fill="#282928"/>
<path d="M198.503 264.897H164.627C164.442 264.897 164.264 264.823 164.133 264.692C164.002 264.561 163.928 264.384 163.928 264.198C163.928 264.013 164.002 263.836 164.133 263.705C164.264 263.574 164.442 263.5 164.627 263.5H198.503C198.688 263.5 198.866 263.574 198.997 263.705C199.128 263.836 199.201 264.013 199.201 264.198C199.201 264.384 199.128 264.561 198.997 264.692C198.866 264.823 198.688 264.897 198.503 264.897Z" fill="#282928"/>
<path d="M192.077 274.186H162.846C162.661 274.186 162.483 274.113 162.352 273.982C162.221 273.851 162.148 273.673 162.148 273.488C162.148 273.303 162.221 273.125 162.352 272.994C162.483 272.863 162.661 272.79 162.846 272.79H192.077C192.262 272.79 192.44 272.863 192.571 272.994C192.702 273.125 192.776 273.303 192.776 273.488C192.776 273.673 192.702 273.851 192.571 273.982C192.44 274.113 192.262 274.186 192.077 274.186Z" fill="#282928"/>
<path d="M182.438 282.044H167.456C167.271 282.044 167.093 281.97 166.962 281.839C166.831 281.708 166.758 281.531 166.758 281.345C166.758 281.16 166.831 280.983 166.962 280.852C167.093 280.721 167.271 280.647 167.456 280.647H182.438C182.623 280.647 182.801 280.721 182.932 280.852C183.063 280.983 183.137 281.16 183.137 281.345C183.137 281.531 183.063 281.708 182.932 281.839C182.801 281.97 182.623 282.044 182.438 282.044Z" fill="#282928"/>
<path d="M200.284 141.652L175.767 147.449C175.365 147.542 174.985 147.716 174.652 147.961C174.319 148.205 174.04 148.515 173.83 148.872C173.621 149.228 173.487 149.623 173.436 150.033C173.384 150.443 173.417 150.859 173.532 151.256L184.882 190.859C185.399 192.977 185.389 195.188 184.853 197.301C184.317 199.413 183.272 201.362 181.809 202.978C174.37 211.22 160.715 220.754 159.179 221.801C159.074 221.836 159.004 221.941 158.934 222.011C156.245 225.399 160.506 231.789 164.557 230.078C164.557 230.078 177.653 227.948 182.682 225.503C185.232 224.281 190.994 220.684 193.578 219.252L204.335 211.534C204.73 211.314 205.153 211.15 205.592 211.045L206.675 210.801C207.892 210.516 209.173 210.723 210.238 211.377C211.304 212.031 212.069 213.079 212.367 214.293L212.507 214.852C212.646 215.454 212.904 216.022 213.264 216.525C213.625 217.027 214.082 217.452 214.608 217.777C215.134 218.102 215.719 218.319 216.329 218.416C216.94 218.514 217.563 218.489 218.164 218.344C219.356 218.076 220.396 217.352 221.062 216.328C221.727 215.303 221.966 214.059 221.727 212.861L218.688 197.599H218.723L203.951 143.817C203.737 143.053 203.236 142.4 202.553 141.997C201.869 141.593 201.056 141.47 200.284 141.652Z" fill="#FBBC1B"/>
<path d="M101.241 225.503L72.2896 226.621C71.8152 226.638 71.3492 226.752 70.9202 226.955C70.4911 227.158 70.108 227.447 69.7942 227.803C69.4804 228.159 69.2425 228.576 69.0952 229.027C68.9478 229.478 68.894 229.955 68.937 230.428L72.9881 277.609C73.0913 280.105 72.5857 282.589 71.5149 284.846C70.4441 287.104 68.8402 289.067 66.8416 290.566C56.644 298.249 39.1124 305.967 37.1567 306.805C37.0329 306.841 36.9232 306.914 36.8424 307.015C33.0357 310.228 36.4233 318.365 41.3824 317.352C41.3824 317.352 56.644 317.806 62.8603 316.199C66.0034 315.396 73.3024 312.602 76.5154 311.555L90.3451 305.233C90.8255 305.054 91.3337 304.959 91.8468 304.954L93.1739 304.884C94.6131 304.837 96.0125 305.362 97.0662 306.343C98.1198 307.325 98.7419 308.684 98.7965 310.123V310.751C98.819 311.465 98.9826 312.168 99.2779 312.818C99.5732 313.469 99.9943 314.055 100.517 314.541C101.04 315.028 101.654 315.407 102.323 315.656C102.993 315.904 103.705 316.018 104.419 315.99C105.821 315.927 107.145 315.325 108.114 314.31C109.084 313.295 109.624 311.945 109.623 310.542V292.696H109.658L104.873 228.751C104.802 227.847 104.385 227.004 103.708 226.399C103.032 225.795 102.148 225.474 101.241 225.503Z" fill="#FBBC1B"/>
<path d="M90.6244 289.518C90.5344 289.523 90.4443 289.509 90.3597 289.478C90.2751 289.447 90.1978 289.399 90.1324 289.336C90.0671 289.274 90.0151 289.2 89.9796 289.117C89.944 289.034 89.9258 288.945 89.9259 288.854L87.3067 237.308C87.2968 237.215 87.3067 237.121 87.3356 237.032C87.3645 236.943 87.4119 236.862 87.4745 236.793C87.5371 236.723 87.6136 236.668 87.6991 236.63C87.7845 236.593 87.8769 236.574 87.9702 236.574C88.062 236.569 88.1537 236.583 88.2403 236.614C88.3268 236.645 88.4065 236.692 88.4746 236.754C88.5427 236.815 88.598 236.89 88.6373 236.973C88.6766 237.056 88.6991 237.146 88.7036 237.238L91.3229 288.785C91.3237 288.968 91.2561 289.144 91.1333 289.28C91.0105 289.416 90.8415 289.501 90.6593 289.518H90.6244Z" fill="#282928"/>
<path d="M85.5607 237.028L84.8273 243.733C84.7961 244.002 84.8243 244.275 84.91 244.532C84.9958 244.789 85.1369 245.024 85.3234 245.221C85.5099 245.417 85.7373 245.571 85.9895 245.67C86.2417 245.769 86.5126 245.811 86.783 245.794L89.8562 245.689C90.1339 245.682 90.4063 245.612 90.6534 245.485C90.9005 245.359 91.1158 245.178 91.2835 244.956C91.4512 244.735 91.567 244.479 91.6222 244.207C91.6774 243.934 91.6706 243.653 91.6024 243.384L89.961 236.749C89.8635 236.327 89.6215 235.953 89.277 235.692C88.9325 235.43 88.5073 235.297 88.0751 235.317H87.3418C86.8838 235.325 86.4458 235.506 86.1155 235.823C85.7852 236.14 85.587 236.571 85.5607 237.028Z" fill="#282928"/>
<path d="M218.898 192.116C218.898 192.116 215.371 176.715 212.403 175.039C212.403 175.039 225.743 167.67 218.235 168.019C218.235 168.019 221.098 164.003 215.86 164.213C215.86 164.213 219.038 160.476 211.425 162.606L203.776 165.121C202.902 164.297 201.79 163.772 200.598 163.619C199.201 163.479 197.42 164.143 195.814 165.121C192.007 167.495 186.315 170.115 186.315 170.115C186.315 170.115 168.364 176.401 165.885 177.134C163.405 177.868 147.969 182.303 151.915 183.49C155.862 184.678 148.493 188.415 153.033 189.951H156.7C156.7 189.951 153.557 193.758 157.712 192.92C161.03 192.256 168.224 191.523 171.158 191.104C171.333 191.069 171.926 191.767 171.752 191.837C168.609 193.059 159.983 196.726 161.345 198.892C162.707 201.057 169.726 197.879 169.726 197.879C169.726 197.879 191.134 190.126 193.264 191.104C195.395 192.081 220.679 200.184 220.679 200.184L218.898 192.116Z" fill="white"/>
<path d="M208.141 168.962C207.983 168.967 207.827 168.918 207.7 168.823C207.573 168.728 207.483 168.592 207.443 168.438C207.422 168.349 207.419 168.256 207.434 168.166C207.45 168.075 207.482 167.988 207.531 167.911C207.58 167.833 207.643 167.765 207.718 167.712C207.793 167.659 207.877 167.621 207.967 167.6C207.967 167.6 209.748 167.111 212.786 165.086C215.825 163.06 215.301 162.641 215.301 162.606C215.19 162.475 215.045 162.378 214.882 162.327C213.659 161.977 204.928 165.26 197.21 168.648C197.039 168.722 196.845 168.725 196.672 168.656C196.498 168.587 196.359 168.452 196.285 168.281C196.211 168.11 196.208 167.916 196.277 167.742C196.345 167.569 196.48 167.43 196.652 167.356C200.493 165.679 213.24 160.231 215.371 161C216.418 161.384 216.628 162.082 216.663 162.466C216.802 163.549 215.79 164.771 213.555 166.273C210.307 168.438 208.386 168.927 208.281 168.962H208.141Z" fill="#282928"/>
<path d="M228.153 202.069C226.766 202.046 225.385 201.882 224.032 201.581C220.434 200.847 213.659 198.472 207.129 196.167C200.598 193.862 192.88 191.173 191.762 191.418L189.807 192.081C172.345 198.053 163.928 200.707 162.462 200.707C161.914 200.711 161.382 200.525 160.955 200.182C160.529 199.838 160.234 199.358 160.122 198.822C159.842 197.704 160.296 196.133 162.357 195.12C163.195 194.666 164.417 194.107 165.709 193.513L168.713 192.081C161.065 193.548 156.699 194.037 155.721 193.478C155.354 193.287 155.056 192.985 154.868 192.616C154.68 192.246 154.612 191.828 154.674 191.418C154.795 190.771 155.09 190.17 155.527 189.678C155.963 189.186 156.526 188.821 157.153 188.624C158.096 188.38 170.18 185.586 171.053 185.586C171.238 185.586 171.416 185.659 171.547 185.79C171.678 185.921 171.751 186.099 171.751 186.284C171.751 186.469 171.678 186.647 171.547 186.778C171.416 186.909 171.238 186.983 171.053 186.983C170.215 187.017 159.179 189.567 157.468 189.986C157.116 190.111 156.803 190.324 156.558 190.606C156.313 190.887 156.145 191.227 156.071 191.592C156.026 191.722 156.033 191.864 156.092 191.989C156.151 192.113 156.256 192.209 156.385 192.256C157.118 192.57 162.217 192.012 171.961 190.021C172.169 189.974 172.386 190.006 172.573 190.109C172.76 190.211 172.902 190.379 172.974 190.58C173.059 190.775 173.067 190.996 172.996 191.197C172.925 191.398 172.779 191.565 172.589 191.662C171.158 192.466 168.573 193.688 166.303 194.77L162.985 196.342C161.658 197.006 161.344 197.914 161.484 198.507C161.531 198.732 161.654 198.934 161.832 199.08C162.01 199.226 162.232 199.308 162.462 199.311C163.684 199.311 172.729 196.447 189.353 190.754L191.343 190.091C192.566 189.672 197.245 191.208 207.583 194.84C214.078 197.11 220.819 199.485 224.311 200.219C230.632 201.546 234.264 199.904 235.452 195.19C236.29 191.837 232.099 172.594 230.388 165.47C230.367 165.38 230.364 165.288 230.379 165.197C230.394 165.107 230.427 165.02 230.476 164.942C230.524 164.864 230.588 164.797 230.663 164.743C230.737 164.69 230.822 164.652 230.911 164.632C230.999 164.605 231.09 164.597 231.181 164.608C231.271 164.619 231.358 164.648 231.437 164.694C231.515 164.74 231.584 164.801 231.638 164.875C231.691 164.948 231.73 165.032 231.75 165.121C231.994 166.203 237.896 191.138 236.814 195.539C235.731 199.939 232.832 202.069 228.153 202.069Z" fill="#282928"/>
<path d="M186.629 170.15C186.507 170.151 186.388 170.12 186.283 170.058C186.178 169.997 186.093 169.907 186.035 169.8C185.948 169.638 185.928 169.448 185.981 169.272C186.033 169.095 186.153 168.946 186.314 168.858C187.327 168.299 196.407 163.41 198.712 162.956L199.096 162.886C200.214 162.641 200.458 162.606 201.576 162.816C202.694 163.025 203.602 164.003 203.706 164.806C203.749 164.992 203.727 165.186 203.645 165.357C203.562 165.529 203.424 165.667 203.252 165.749C201.96 166.448 200.144 167.391 198.957 167.915C198.785 167.984 198.594 167.982 198.423 167.91C198.253 167.838 198.118 167.702 198.049 167.53C198.009 167.448 197.986 167.359 197.982 167.268C197.978 167.177 197.992 167.086 198.025 167C198.058 166.915 198.108 166.837 198.172 166.772C198.236 166.707 198.313 166.656 198.398 166.622C199.674 166.069 200.921 165.452 202.135 164.772C201.902 164.523 201.615 164.332 201.297 164.213C200.424 164.038 200.354 164.038 199.376 164.248L198.992 164.318C197.211 164.667 189.702 168.578 186.978 170.08L186.629 170.15Z" fill="#282928"/>
<path d="M205.976 175.388L205.592 175.283C205.446 175.172 205.347 175.01 205.314 174.829C205.282 174.647 205.319 174.461 205.418 174.306C205.627 173.991 206.256 173.572 210.377 171.163C213.52 169.312 217.396 167.007 218.374 166.134C218.584 165.959 218.793 165.645 218.654 165.4C218.514 165.156 217.012 164.702 214.463 165.714C214.377 165.756 214.283 165.779 214.188 165.782C214.093 165.786 213.998 165.77 213.909 165.736C213.82 165.701 213.739 165.649 213.671 165.582C213.603 165.515 213.55 165.435 213.514 165.347C213.478 165.259 213.461 165.164 213.463 165.068C213.465 164.973 213.487 164.879 213.527 164.793C213.566 164.706 213.624 164.629 213.694 164.565C213.765 164.501 213.849 164.453 213.939 164.422C218.2 162.711 219.527 164.178 219.841 164.667C220.155 165.156 220.12 166.448 219.282 167.181C218.444 167.915 214.428 170.394 211.075 172.35C209.119 173.537 206.884 174.829 206.535 175.144C206.386 175.293 206.187 175.38 205.976 175.388Z" fill="#282928"/>
<path d="M208.841 179.125C208.733 179.122 208.626 179.096 208.53 179.047C208.433 178.999 208.349 178.93 208.282 178.845C208.222 178.774 208.178 178.691 208.152 178.601C208.127 178.511 208.12 178.417 208.133 178.325C208.147 178.233 208.179 178.144 208.229 178.066C208.278 177.987 208.344 177.919 208.421 177.867C212.368 175.039 218.829 170.289 219.352 169.66C219.876 169.032 219.667 168.892 219.562 168.752C219.457 168.613 218.41 168.333 215.86 169.591C215.778 169.632 215.688 169.658 215.596 169.664C215.503 169.671 215.411 169.66 215.323 169.63C215.235 169.601 215.154 169.555 215.085 169.494C215.015 169.433 214.958 169.359 214.917 169.276C214.876 169.196 214.851 169.109 214.845 169.019C214.839 168.93 214.85 168.84 214.88 168.755C214.909 168.67 214.956 168.592 215.016 168.525C215.076 168.459 215.15 168.406 215.231 168.368C218.584 166.657 220.016 167.146 220.61 167.844C221.203 168.543 221.134 169.556 220.47 170.464C219.806 171.372 211.739 177.204 209.26 178.985C209.14 179.078 208.992 179.127 208.841 179.125Z" fill="#282928"/>
<path d="M155.128 190.23C153.696 190.23 151.88 190.021 151.076 189.043C150.861 188.785 150.718 188.474 150.663 188.143C150.607 187.811 150.642 187.471 150.762 187.157C151.74 184.014 162.077 182.338 164.173 182.023C164.263 182.009 164.355 182.013 164.443 182.035C164.531 182.057 164.614 182.097 164.686 182.153C164.758 182.209 164.818 182.279 164.862 182.359C164.906 182.438 164.933 182.526 164.941 182.617C164.972 182.798 164.93 182.983 164.826 183.133C164.721 183.283 164.562 183.386 164.382 183.42C159.598 184.119 152.613 185.865 152.089 187.541C152.039 187.64 152.016 187.75 152.022 187.86C152.028 187.971 152.064 188.077 152.124 188.17C152.718 188.868 155.267 188.938 156.804 188.729C156.896 188.719 156.989 188.728 157.077 188.754C157.165 188.781 157.248 188.824 157.319 188.883C157.391 188.941 157.45 189.013 157.493 189.095C157.537 189.176 157.564 189.265 157.572 189.357C157.587 189.447 157.583 189.539 157.561 189.628C157.538 189.716 157.498 189.799 157.443 189.871C157.387 189.943 157.317 190.003 157.237 190.046C157.157 190.09 157.069 190.117 156.979 190.126C156.364 190.195 155.746 190.23 155.128 190.23Z" fill="#282928"/>
<path d="M186.384 170.184C186.384 170.184 170.669 161 168.538 160.895C166.408 160.79 168.434 165.4 170.459 166.133C172.485 166.867 179.609 171.966 179.609 171.966L171.856 174.934L179.609 178.601L186.384 170.184Z" fill="white"/>
<path d="M221.098 182.268H221.063C214.113 182.024 196.861 176.296 196.127 176.052C195.394 175.807 192.426 174.096 187.327 171.197C183.765 169.172 180.063 167.111 179.329 166.762C178.67 166.436 178.029 166.074 177.408 165.679C175.138 164.352 169.167 160.755 167.77 161.454C167.728 161.488 167.694 161.53 167.67 161.579C167.646 161.627 167.632 161.679 167.63 161.733C167.42 163.968 173.287 167.53 177.024 169.242C177.123 169.266 177.216 169.312 177.295 169.376C177.374 169.441 177.438 169.521 177.483 169.613C177.528 169.705 177.552 169.805 177.554 169.907C177.556 170.009 177.535 170.11 177.494 170.203C177.452 170.296 177.391 170.379 177.314 170.446C177.237 170.513 177.147 170.562 177.049 170.591C176.951 170.619 176.848 170.625 176.747 170.609C176.646 170.594 176.55 170.556 176.466 170.499C175.383 170.01 165.849 165.54 166.233 161.593C166.248 161.306 166.341 161.028 166.5 160.788C166.66 160.549 166.881 160.356 167.141 160.231C169.027 159.254 173.602 161.803 178.142 164.492L179.888 165.505C180.691 165.854 184.253 167.845 188.025 170.01C191.797 172.175 196.058 174.55 196.581 174.725C197.105 174.899 214.357 180.662 221.098 180.871C221.286 180.88 221.464 180.961 221.594 181.098C221.724 181.235 221.796 181.416 221.796 181.605C221.787 181.784 221.71 181.953 221.58 182.076C221.45 182.2 221.277 182.268 221.098 182.268Z" fill="#282928"/>
<path d="M155.862 185.306C154.674 185.306 151.322 185.167 150.658 183.665C150.449 183.211 150.379 182.443 151.252 181.535C153.836 178.776 170.25 174.655 172.136 174.201C172.312 174.158 172.498 174.185 172.654 174.276C172.81 174.367 172.925 174.515 172.974 174.69C172.995 174.779 172.998 174.872 172.983 174.962C172.968 175.053 172.935 175.139 172.886 175.217C172.837 175.295 172.774 175.363 172.699 175.416C172.624 175.469 172.54 175.507 172.45 175.528C167.491 176.785 154.22 180.417 152.3 182.478C151.915 182.862 151.915 183.071 151.915 183.071C151.915 183.071 154.116 183.944 156.002 183.909C156.187 183.909 156.364 183.983 156.495 184.114C156.626 184.245 156.7 184.423 156.7 184.608C156.7 184.793 156.626 184.971 156.495 185.102C156.364 185.233 156.187 185.306 156.002 185.306H155.862Z" fill="#282928"/>
<path d="M211.704 180.627C211.575 180.624 211.448 180.587 211.338 180.52C211.228 180.452 211.137 180.357 211.075 180.243C211.034 180.16 211.009 180.07 211.002 179.978C210.995 179.886 211.006 179.793 211.036 179.706C211.065 179.618 211.111 179.537 211.172 179.467C211.233 179.398 211.307 179.341 211.39 179.3C212.018 178.986 213.799 177.938 214.323 177.065C214.847 176.192 214.603 176.192 214.463 176.052C214.323 175.912 213.799 175.842 213.101 176.157C213.023 176.199 212.938 176.226 212.85 176.234C212.762 176.243 212.673 176.234 212.588 176.208C212.504 176.182 212.425 176.14 212.357 176.083C212.289 176.026 212.233 175.956 212.193 175.877C212.106 175.715 212.086 175.525 212.139 175.348C212.191 175.172 212.311 175.023 212.472 174.934C213.904 174.201 214.952 174.55 215.476 175.109C216 175.668 216.104 176.785 215.511 177.763C214.917 178.741 212.298 180.417 212.018 180.557L211.704 180.627Z" fill="#282928"/>
<path d="M220.19 90.9434C220.006 90.9435 219.825 90.8951 219.666 90.8032C219.506 90.7112 219.374 90.5789 219.282 90.4195C218.095 88.5337 212.262 78.825 214.078 72.1546C214.354 71.1026 214.852 70.1218 215.539 69.2784C216.226 68.4351 217.085 67.7486 218.06 67.2653C220.714 65.9033 222.774 65.7287 224.241 66.7764C226.511 68.3479 226.546 72.3641 226.267 75.0882C228.327 73.342 231.61 71.072 234.648 71.7355C236.499 72.1546 237.966 73.5515 238.944 75.9613C239.29 76.7733 239.451 77.6523 239.415 78.5343C239.379 79.4164 239.146 80.2792 238.734 81.0601C235.661 87.032 222.949 90.3148 220.434 90.9085L220.19 90.9434ZM222.006 67.5098C221.133 67.5098 220.015 67.8241 218.688 68.5226C217.88 68.9103 217.167 69.471 216.6 70.1651C216.032 70.8592 215.625 71.6695 215.405 72.5388C213.799 78.5107 219.247 87.7304 220.33 89.4766C222.565 88.9528 234.753 85.7398 237.477 80.3965C237.806 79.8023 237.993 79.1399 238.023 78.4613C238.054 77.7827 237.926 77.1063 237.652 76.4851C236.848 74.5294 235.731 73.4118 234.369 73.0975C231.505 72.4689 227.978 75.4025 226.616 76.6946C226.452 76.8495 226.245 76.9496 226.022 76.981C225.799 77.0124 225.572 76.9736 225.372 76.8698C225.172 76.7661 225.01 76.6026 224.907 76.4022C224.805 76.2018 224.767 75.9744 224.8 75.7517C225.324 71.8054 224.835 68.8718 223.438 67.9289C223.017 67.6412 222.516 67.4945 222.006 67.5098Z" fill="#282928"/>
<path d="M55.2468 167.286C55.5262 167.321 55.6659 167.076 55.4913 166.867C53.8848 165.121 50.0083 160.161 55.5262 158.695C61.8473 157.018 65.3746 170.219 65.7937 171.931C65.8044 171.982 65.8003 172.036 65.7817 172.085C65.7632 172.135 65.731 172.178 65.6889 172.21C64.1523 172.908 52.872 177.937 49.4146 171.407C46.3414 165.679 52.872 166.727 55.2468 167.286Z" fill="#FBBC1B"/>
<path d="M94.1866 43.2731C94.239 43.2949 94.2956 43.3047 94.3523 43.302C94.409 43.2992 94.4644 43.2839 94.5145 43.2572C94.5646 43.2305 94.6082 43.193 94.642 43.1475C94.6759 43.1019 94.6993 43.0494 94.7104 42.9937C95.1993 40.9682 97.5392 32.6913 101.381 39.6062C105.222 46.521 100.647 52.8072 99.6346 53.9946C99.5833 54.0521 99.5159 54.0928 99.4412 54.1115C99.3665 54.1301 99.2878 54.1259 99.2155 54.0994C97.3995 53.5406 86.9923 50.2927 85.4557 46.0321C83.5 40.6539 88.2496 41.2825 94.1866 43.2731Z" fill="#FBBC1B"/>
<path d="M271.004 163.514C271.004 163.793 271.248 163.933 271.563 163.898C274.182 163.374 285.008 161.663 278.303 168.787C271.598 175.912 262.203 174.515 260.387 174.131C260.298 174.114 260.217 174.066 260.16 173.996C260.102 173.926 260.071 173.837 260.073 173.746C260.003 171.686 259.724 159.882 264.229 156.25C269.852 151.71 271.004 156.704 271.004 163.514Z" fill="#282928"/>
<path d="M140.635 199.765L140.041 193.444C139.831 189.462 141.228 184.503 141.298 184.294C141.354 184.118 141.478 183.972 141.641 183.887C141.805 183.802 141.995 183.785 142.171 183.84C142.257 183.864 142.337 183.905 142.406 183.96C142.476 184.016 142.533 184.084 142.576 184.163C142.618 184.241 142.644 184.327 142.653 184.415C142.661 184.504 142.652 184.593 142.625 184.678C142.625 184.748 141.263 189.602 141.403 193.374L141.892 198.123C144.616 197.634 154.325 195.644 160.716 192.082C160.796 192.027 160.887 191.991 160.983 191.974C161.079 191.957 161.177 191.96 161.272 191.983C161.366 192.007 161.455 192.049 161.532 192.109C161.609 192.168 161.672 192.243 161.719 192.328C161.765 192.414 161.793 192.508 161.801 192.605C161.809 192.702 161.796 192.799 161.764 192.891C161.732 192.983 161.682 193.067 161.615 193.138C161.549 193.209 161.469 193.266 161.379 193.304C153.696 197.6 141.857 199.555 141.368 199.625L140.635 199.765Z" fill="#282928"/>
<path d="M131.241 87.486L130.996 87.4162C130.908 87.3858 130.828 87.3373 130.76 87.2738C130.692 87.2103 130.638 87.1332 130.602 87.0476C130.566 86.962 130.548 86.8698 130.55 86.7768C130.551 86.6839 130.573 86.5924 130.612 86.5081C130.822 86.0891 135.327 75.8914 142.94 73.0277C143.022 72.9941 143.111 72.9774 143.2 72.9786C143.289 72.9798 143.376 72.9989 143.458 73.0347C143.539 73.0706 143.613 73.1224 143.674 73.1872C143.735 73.252 143.782 73.3284 143.813 73.4119C143.882 73.5833 143.88 73.775 143.808 73.9452C143.736 74.1154 143.6 74.2501 143.429 74.3199C136.374 76.9741 131.939 86.9622 131.904 87.0669C131.848 87.1952 131.755 87.3037 131.637 87.3785C131.518 87.4532 131.38 87.4907 131.241 87.486Z" fill="white"/>
<path d="M129.389 102.049L129.11 101.979C129.024 101.941 128.947 101.887 128.882 101.819C128.818 101.75 128.768 101.67 128.735 101.582C128.703 101.494 128.688 101.4 128.692 101.306C128.697 101.213 128.72 101.121 128.761 101.036C129.599 99.2201 129.704 94.4705 129.669 92.7942C129.664 92.7041 129.678 92.6141 129.709 92.5295C129.74 92.4449 129.788 92.3676 129.85 92.3022C129.912 92.2369 129.987 92.1848 130.07 92.1493C130.153 92.1138 130.242 92.0956 130.332 92.0957C130.515 92.0949 130.692 92.1625 130.828 92.2853C130.963 92.408 131.048 92.5771 131.066 92.7593C131.066 93.0386 131.205 99.1502 130.018 101.63C129.965 101.753 129.877 101.857 129.765 101.932C129.654 102.006 129.523 102.047 129.389 102.049Z" fill="white"/>
<path d="M181.251 92.6545H181.146C172.206 91.0829 164.662 82.8061 164.348 82.4569C164.251 82.3188 164.207 82.1504 164.225 81.9826C164.242 81.8149 164.32 81.6591 164.443 81.5442C164.567 81.4293 164.728 81.3629 164.896 81.3573C165.065 81.3518 165.23 81.4074 165.361 81.5139C165.465 81.6187 172.939 89.7908 181.39 91.2925C181.57 91.3265 181.73 91.4297 181.834 91.5799C181.939 91.7301 181.98 91.9153 181.949 92.0957C181.917 92.2559 181.829 92.3995 181.701 92.5016C181.574 92.6037 181.414 92.6578 181.251 92.6545Z" fill="white"/>
<path d="M83.6051 128.661C80.1127 128.661 76.2013 128.207 74.3853 126.426C74.0163 126.058 73.7315 125.615 73.5506 125.126C73.3697 124.638 73.297 124.116 73.3376 123.597C73.4424 122.095 74.0011 120.978 74.979 120.279C76.6902 119.057 79.2047 119.406 81.0557 119.895C81.1337 119.92 81.2172 119.924 81.2971 119.905C81.3771 119.887 81.4505 119.847 81.5097 119.79C81.5649 119.729 81.606 119.657 81.6302 119.579C81.6543 119.5 81.6609 119.417 81.6494 119.336C81.37 117.625 81.3001 115.215 82.5225 113.609C82.8842 113.147 83.3381 112.766 83.8551 112.489C84.3722 112.213 84.9412 112.047 85.5259 112.002C85.9729 111.944 86.4273 111.986 86.8561 112.124C87.285 112.263 87.6776 112.496 88.0054 112.805C90.485 115.18 90.4151 122.13 90.1357 126.041C90.103 126.664 89.8433 127.253 89.4057 127.697C88.9681 128.141 88.383 128.409 87.761 128.451C86.6085 128.556 85.1417 128.661 83.6051 128.661ZM77.9824 120.838C77.221 120.803 76.4667 120.998 75.8172 121.397C75.1536 121.851 74.8044 122.619 74.7345 123.702C74.6954 124.016 74.7321 124.336 74.8414 124.633C74.9508 124.931 75.1296 125.198 75.3632 125.413C76.9696 126.984 81.5446 127.613 87.6562 127.089C87.9409 127.064 88.2072 126.938 88.4061 126.732C88.6049 126.527 88.7231 126.257 88.7388 125.972C89.1579 119.755 88.5293 115.25 87.0625 113.818C86.8806 113.65 86.6651 113.523 86.4303 113.445C86.1955 113.366 85.9467 113.339 85.7005 113.364C84.7925 113.504 84.094 113.818 83.64 114.447C82.732 115.669 82.8018 117.66 83.0463 119.127C83.0915 119.442 83.0577 119.763 82.9479 120.062C82.8382 120.36 82.656 120.627 82.4177 120.838C82.1861 121.05 81.9043 121.2 81.5988 121.273C81.2933 121.347 80.9742 121.341 80.6715 121.257C79.7987 120.994 78.8938 120.853 77.9824 120.838Z" fill="#282928"/>
<path d="M199.445 15.8929C199.487 15.9841 199.553 16.0623 199.635 16.1194C199.717 16.1766 199.814 16.2105 199.914 16.2176C200.014 16.2248 200.114 16.2049 200.203 16.16C200.293 16.1152 200.369 16.0471 200.423 15.9628C201.855 14.1817 205.836 10.0258 210.132 13.4832C215.021 17.3946 200.109 26.2302 197.559 27.697C197.455 27.7532 197.335 27.7766 197.217 27.7641C197.099 27.7517 196.987 27.704 196.896 27.6272C195.115 25.9858 186.035 17.3248 189.911 11.6672C193.788 6.0096 198.048 13.4483 199.445 15.8929Z" fill="#282928"/>
<path d="M219.421 181.22C219.421 181.22 217.396 178.007 217.291 172.559L219.421 181.22Z" fill="white"/>
<path d="M219.422 181.919C219.304 181.92 219.188 181.893 219.085 181.838C218.981 181.783 218.893 181.702 218.828 181.604C218.758 181.465 216.698 178.147 216.593 172.559C216.588 172.469 216.602 172.379 216.633 172.295C216.664 172.21 216.712 172.133 216.775 172.067C216.837 172.002 216.911 171.95 216.994 171.914C217.077 171.879 217.166 171.861 217.257 171.861C217.348 171.856 217.44 171.87 217.527 171.9C217.613 171.931 217.693 171.979 217.761 172.04C217.829 172.102 217.884 172.177 217.924 172.26C217.963 172.343 217.985 172.433 217.99 172.524C218.095 177.728 220.015 180.836 220.015 180.871C220.109 181.025 220.139 181.209 220.1 181.385C220.061 181.56 219.956 181.714 219.806 181.814C219.689 181.881 219.557 181.917 219.422 181.919Z" fill="#282928"/>
<path d="M168.888 215.515C168.796 215.52 168.704 215.506 168.618 215.475C168.531 215.444 168.452 215.397 168.383 215.335C168.315 215.274 168.26 215.199 168.221 215.116C168.181 215.033 168.159 214.943 168.154 214.852C168.15 214.76 168.163 214.668 168.194 214.582C168.225 214.495 168.272 214.415 168.334 214.347C168.396 214.279 168.47 214.224 168.553 214.185C168.636 214.145 168.726 214.123 168.818 214.118L182.193 212.372L177.199 208.845C177.061 208.742 176.955 208.602 176.893 208.441C176.831 208.281 176.816 208.106 176.85 207.937C176.886 207.774 176.968 207.626 177.085 207.508C177.203 207.391 177.351 207.309 177.514 207.273L186.559 205.248L181.6 203.641C181.424 203.585 181.278 203.462 181.193 203.298C181.108 203.135 181.091 202.944 181.146 202.768C181.169 202.678 181.211 202.595 181.269 202.522C181.327 202.45 181.399 202.39 181.481 202.347C181.564 202.305 181.654 202.279 181.747 202.274C181.839 202.268 181.932 202.282 182.019 202.314L188.829 204.514C189.01 204.567 189.17 204.677 189.283 204.829C189.396 204.98 189.457 205.163 189.457 205.352C189.442 205.547 189.367 205.733 189.242 205.883C189.117 206.033 188.948 206.14 188.759 206.191L178.98 208.391L184.114 212.023C184.256 212.129 184.362 212.277 184.419 212.445C184.475 212.614 184.478 212.795 184.428 212.966C184.398 213.133 184.313 213.285 184.187 213.399C184.06 213.513 183.9 213.582 183.73 213.594L168.992 215.515H168.888Z" fill="#282928"/>
<path d="M59.787 306.386H59.6822L44.9096 304.779C44.8189 304.771 44.7309 304.744 44.6511 304.7C44.5712 304.656 44.5013 304.596 44.4456 304.524C44.3899 304.452 44.3497 304.369 44.3274 304.281C44.305 304.193 44.3011 304.101 44.3159 304.011C44.3246 303.919 44.3515 303.83 44.3949 303.748C44.4384 303.667 44.4975 303.595 44.569 303.536C44.6404 303.478 44.7227 303.434 44.8112 303.408C44.8996 303.381 44.9924 303.373 45.0842 303.382L58.4948 304.849L54.4786 300.239C54.3664 300.112 54.2935 299.956 54.2687 299.788C54.2439 299.621 54.2683 299.45 54.3389 299.296C54.4046 299.145 54.5116 299.016 54.6475 298.923C54.7835 298.831 54.9428 298.778 55.1072 298.772H55.1422L64.4318 298.947L59.9616 296.223C59.8094 296.117 59.7032 295.957 59.6643 295.775C59.6254 295.594 59.6568 295.404 59.752 295.245C59.7983 295.167 59.86 295.1 59.9333 295.047C60.0066 294.994 60.09 294.956 60.1783 294.937C60.2666 294.917 60.358 294.916 60.4468 294.933C60.5357 294.95 60.6201 294.985 60.695 295.035L66.8066 298.772C66.9725 298.867 67.101 299.016 67.1709 299.194C67.2407 299.371 67.2477 299.568 67.1907 299.75C67.1432 299.935 67.0343 300.097 66.882 300.212C66.7296 300.326 66.5429 300.385 66.3526 300.379L56.2946 300.204L60.4505 304.954C60.5563 305.081 60.6239 305.235 60.6454 305.399C60.6668 305.563 60.6414 305.73 60.5718 305.88C60.5023 306.03 60.3917 306.157 60.2527 306.246C60.1138 306.336 59.9523 306.384 59.787 306.386Z" fill="#282928"/>
<path d="M201.458 138.876L172.988 146.771C170.757 147.39 169.451 149.699 170.069 151.93L171.156 155.85C171.775 158.08 174.084 159.387 176.315 158.769L204.785 150.873C207.016 150.254 208.322 147.945 207.704 145.715L206.617 141.794C205.998 139.564 203.689 138.257 201.458 138.876Z" fill="white"/>
<path d="M175.209 159.603C174.139 159.597 173.1 159.243 172.249 158.594C171.399 157.945 170.783 157.036 170.494 156.006L169.412 152.094C169.068 150.849 169.231 149.518 169.866 148.392C170.501 147.267 171.555 146.438 172.799 146.088L201.297 138.16C202.547 137.818 203.882 137.986 205.009 138.627C206.135 139.269 206.961 140.332 207.303 141.583L208.386 145.494C208.561 146.111 208.612 146.756 208.536 147.393C208.461 148.03 208.259 148.645 207.944 149.203C207.629 149.762 207.207 150.253 206.701 150.647C206.196 151.041 205.617 151.331 204.998 151.501L176.501 159.428C176.079 159.538 175.645 159.596 175.209 159.603ZM202.589 139.382C202.28 139.375 201.973 139.422 201.681 139.522L173.183 147.415C172.742 147.535 172.329 147.741 171.969 148.023C171.61 148.305 171.31 148.656 171.088 149.056C170.631 149.862 170.506 150.814 170.739 151.71L171.821 155.657C171.946 156.1 172.157 156.514 172.443 156.876C172.728 157.237 173.083 157.539 173.485 157.763C173.888 157.987 174.33 158.129 174.788 158.181C175.246 158.233 175.709 158.194 176.152 158.066L204.614 150.174C205.057 150.052 205.472 149.845 205.834 149.564C206.197 149.282 206.5 148.932 206.727 148.533C206.954 148.134 207.1 147.694 207.157 147.238C207.214 146.783 207.181 146.321 207.059 145.878L205.976 141.967C205.771 141.225 205.328 140.572 204.717 140.105C204.105 139.639 203.358 139.385 202.589 139.382Z" fill="#282928"/>
<path d="M102.837 221.354L69.5174 222.809C67.2051 222.91 65.4124 224.866 65.5134 227.179L65.7452 232.489C65.8462 234.801 67.8025 236.594 70.1148 236.493L103.435 235.038C105.747 234.937 107.54 232.981 107.439 230.668L107.207 225.358C107.106 223.046 105.15 221.253 102.837 221.354Z" fill="white"/>
<path d="M70.1244 237.168C68.8657 237.16 67.6576 236.671 66.7483 235.801C65.839 234.931 65.2975 233.745 65.2351 232.488L65.0255 227.18C64.9931 226.538 65.0874 225.896 65.3031 225.291C65.5188 224.686 65.8517 224.129 66.2828 223.652C66.7119 223.175 67.2334 222.79 67.8156 222.52C68.3979 222.249 69.0288 222.1 69.6703 222.081L103.022 220.579C104.317 220.532 105.578 220.996 106.532 221.872C107.487 222.748 108.058 223.965 108.121 225.259L108.365 230.567C108.403 231.865 107.94 233.128 107.073 234.094C106.19 235.037 104.976 235.6 103.686 235.666L70.3339 237.133L70.1244 237.168ZM103.232 221.976H103.092L69.7402 223.478C69.284 223.492 68.8353 223.598 68.4212 223.79C68.0071 223.982 67.6361 224.256 67.3305 224.595C67.0148 224.93 66.7712 225.325 66.615 225.758C66.4588 226.191 66.3933 226.651 66.4225 227.11L66.632 232.418C66.6947 233.341 67.1107 234.205 67.7936 234.829C68.4766 235.454 69.3739 235.791 70.299 235.771L103.616 234.269C104.535 234.228 105.401 233.827 106.026 233.151C106.653 232.466 106.991 231.565 106.969 230.637L106.724 225.329C106.68 224.43 106.293 223.582 105.644 222.959C104.995 222.335 104.132 221.984 103.232 221.976Z" fill="#282928"/>
<path d="M212.227 213.175C212.077 213.188 211.926 213.145 211.804 213.055C211.682 212.965 211.597 212.834 211.564 212.687C211.537 212.597 211.529 212.503 211.539 212.411C211.55 212.318 211.579 212.228 211.624 212.147C211.67 212.065 211.731 211.994 211.805 211.937C211.878 211.88 211.963 211.838 212.053 211.813L220.26 209.509C220.422 209.497 220.583 209.543 220.715 209.638C220.847 209.732 220.942 209.87 220.984 210.028C221.025 210.185 221.01 210.352 220.942 210.499C220.873 210.647 220.756 210.766 220.609 210.836L212.437 213.175H212.227Z" fill="#282928"/>
<path d="M109.064 308.516H98.9011C98.7159 308.516 98.5382 308.442 98.4072 308.312C98.2762 308.181 98.2026 308.003 98.2026 307.818C98.2026 307.632 98.2762 307.455 98.4072 307.324C98.5382 307.193 98.7159 307.119 98.9011 307.119H109.064C109.249 307.119 109.427 307.193 109.558 307.324C109.689 307.455 109.762 307.632 109.762 307.818C109.762 308.003 109.689 308.181 109.558 308.312C109.427 308.442 109.249 308.516 109.064 308.516Z" fill="#282928"/>
</svg>
