<svg width="327" height="283" viewBox="0 0 327 283" fill="none" xmlns="http://www.w3.org/2000/svg">
<path d="M234.45 18.3833H95.6832C94.6739 18.3833 93.7061 18.7842 92.9924 19.4978C92.2788 20.2115 91.8779 21.1794 91.8779 22.1886V263.286C91.8779 264.295 92.2788 265.263 92.9924 265.977C93.7061 266.69 94.6739 267.091 95.6832 267.091H234.45C235.459 267.091 236.427 266.69 237.14 265.977C237.854 265.263 238.255 264.295 238.255 263.286V22.1886C238.255 21.1794 237.854 20.2115 237.14 19.4978C236.427 18.7842 235.459 18.3833 234.45 18.3833ZM227.378 230.434C227.378 231.443 226.977 232.411 226.264 233.124C225.55 233.838 224.582 234.239 223.573 234.239H107.194C106.185 234.239 105.217 233.838 104.503 233.124C103.79 232.411 103.389 231.443 103.389 230.434V38.9319C103.389 37.9227 103.79 36.9548 104.503 36.2412C105.217 35.5275 106.185 35.1266 107.194 35.1266H223.573C224.582 35.1266 225.55 35.5275 226.264 36.2412C226.977 36.9548 227.378 37.9227 227.378 38.9319V230.434Z" fill="white"/>
<path d="M234.45 267.726H95.6832C94.5058 267.726 93.3766 267.258 92.544 266.426C91.7114 265.593 91.2437 264.464 91.2437 263.286V22.1891C91.2437 21.0117 91.7114 19.8825 92.544 19.0499C93.3766 18.2174 94.5058 17.7496 95.6832 17.7496H234.45C235.034 17.7454 235.613 17.8574 236.154 18.079C236.694 18.3006 237.185 18.6274 237.598 19.0405C238.011 19.4536 238.338 19.9447 238.56 20.4852C238.781 21.0258 238.893 21.605 238.889 22.1891V263.286C238.889 264.464 238.421 265.593 237.589 266.426C236.756 267.258 235.627 267.726 234.45 267.726ZM95.6832 19.0181C94.8422 19.0181 94.0356 19.3522 93.4409 19.9468C92.8462 20.5415 92.5121 21.3481 92.5121 22.1891V263.286C92.5121 264.127 92.8462 264.934 93.4409 265.529C94.0356 266.123 94.8422 266.458 95.6832 266.458H234.45C235.291 266.458 236.097 266.123 236.692 265.529C237.287 264.934 237.621 264.127 237.621 263.286V22.1891C237.625 21.7715 237.546 21.3573 237.388 20.9706C237.23 20.584 236.997 20.2327 236.701 19.9374C236.406 19.6421 236.055 19.4087 235.668 19.2508C235.282 19.0929 234.867 19.0138 234.45 19.0181H95.6832ZM223.573 234.874H107.194C106.017 234.874 104.888 234.406 104.055 233.573C103.222 232.741 102.755 231.611 102.755 230.434V38.9324C102.755 37.755 103.222 36.6258 104.055 35.7932C104.888 34.9607 106.017 34.4929 107.194 34.4929H223.573C224.75 34.4929 225.88 34.9607 226.712 35.7932C227.545 36.6258 228.012 37.755 228.012 38.9324V230.434C228.012 231.611 227.545 232.741 226.712 233.573C225.88 234.406 224.75 234.874 223.573 234.874ZM107.194 35.7614C106.353 35.7614 105.547 36.0955 104.952 36.6902C104.357 37.2848 104.023 38.0914 104.023 38.9324V230.434C104.023 231.275 104.357 232.082 104.952 232.676C105.547 233.271 106.353 233.605 107.194 233.605H223.573C224.414 233.605 225.221 233.271 225.815 232.676C226.41 232.082 226.744 231.275 226.744 230.434V38.9324C226.744 38.0914 226.41 37.2848 225.815 36.6902C225.221 36.0955 224.414 35.7614 223.573 35.7614H107.194Z" fill="#282928"/>
<path d="M167.794 259.989C172.978 259.989 177.18 255.516 177.18 250C177.18 244.483 172.978 240.011 167.794 240.011C162.61 240.011 158.407 244.483 158.407 250C158.407 255.516 162.61 259.989 167.794 259.989Z" fill="#282928"/>
<path d="M195.541 23.5205H138.874C137.315 23.5205 136.051 24.7841 136.051 26.3428V27.7856C136.051 29.3443 137.315 30.6079 138.874 30.6079H195.541C197.1 30.6079 198.363 29.3443 198.363 27.7856V26.3428C198.363 24.7841 197.1 23.5205 195.541 23.5205Z" fill="#282928"/>
<path d="M83.2529 183.406H83.2212C83.1364 183.407 83.0525 183.389 82.975 183.355C82.8974 183.321 82.8279 183.271 82.7711 183.208C82.7142 183.145 82.6712 183.071 82.645 182.991C82.6187 182.91 82.6098 182.825 82.6187 182.74L82.9358 177.033C82.9399 176.949 82.9603 176.868 82.996 176.792C83.0317 176.717 83.0819 176.649 83.1438 176.593C83.2056 176.537 83.2779 176.494 83.3565 176.466C83.4351 176.438 83.5184 176.426 83.6017 176.43C83.6865 176.43 83.7704 176.447 83.8479 176.481C83.9255 176.515 83.995 176.565 84.0518 176.628C84.1087 176.691 84.1517 176.765 84.1779 176.846C84.2042 176.926 84.2132 177.012 84.2042 177.096L83.8871 182.804C83.872 182.964 83.7994 183.113 83.6828 183.224C83.5662 183.335 83.4135 183.399 83.2529 183.406Z" fill="#282928"/>
<path d="M57.9195 169.535L54.4769 173.305L107.573 221.788L111.015 218.018L57.9195 169.535Z" fill="#282928"/>
<path d="M52.5347 122.88L7.81674 173.247C6.99118 174.176 7.07572 175.599 8.00557 176.425L34.8039 200.218C35.7338 201.043 37.1568 200.959 37.9824 200.029L82.7003 149.662C83.5259 148.732 83.4413 147.309 82.5115 146.483L55.7131 122.691C54.7833 121.865 53.3602 121.95 52.5347 122.88Z" fill="#FBBC1B"/>
<path d="M68.1588 176.969C68.1588 176.969 64.0364 179.379 66.9855 184.516C69.9346 189.654 69.3638 181.631 70.7908 179.696C72.2178 177.762 68.1588 176.969 68.1588 176.969Z" fill="white"/>
<path d="M64.7972 182.899C64.7972 182.899 73.5494 181.599 74.0884 182.265C74.6275 182.93 75.0398 183.057 76.4668 184.294C77.8937 185.531 80.0501 185.721 80.716 186.609C81.3819 187.497 75.4837 193.363 74.3421 192.666C73.2005 191.968 73.3591 191.334 73.3591 191.334C73.3591 191.334 69.4587 191.905 69.205 190.161C69.205 190.161 65.3045 188.068 66.2242 186.799C66.2242 186.799 63.1799 184.04 64.7972 182.899Z" fill="white"/>
<path d="M74.3737 193.522C74.1556 193.526 73.9393 193.483 73.7395 193.396C73.4729 193.281 73.2334 193.112 73.0367 192.899C72.84 192.686 72.6904 192.434 72.5979 192.159C71.8217 192.466 70.9557 192.455 70.1878 192.127C69.1097 191.683 68.5072 190.668 68.2218 190.034C67.8789 190.09 67.5283 190.077 67.1906 189.995C66.8529 189.914 66.535 189.765 66.2557 189.559C65.3361 188.861 65.0507 187.656 64.9873 186.927C64.6022 186.804 64.2608 186.573 64.0042 186.261C63.0212 185.056 63.37 182.804 63.4017 182.55C63.4326 182.387 63.5263 182.243 63.6627 182.148C63.7991 182.053 63.9673 182.015 64.1311 182.043C64.2965 182.074 64.444 182.167 64.544 182.302C64.644 182.437 64.6891 182.605 64.6702 182.772C64.575 183.28 64.4482 184.802 64.9873 185.468C65.0623 185.555 65.1546 185.625 65.2584 185.674C65.3621 185.723 65.475 185.75 65.5898 185.753H66.224V186.387C66.224 186.831 66.3508 188.068 67.0168 188.544C67.6827 189.02 67.8412 188.861 68.4437 188.671L69.0463 188.512L69.2365 189.115C69.2365 189.115 69.6488 190.542 70.6952 190.986C71.2343 191.208 71.9319 191.144 72.693 190.732L73.4858 190.351L73.6126 191.208C73.676 191.493 73.8663 192.095 74.2151 192.222C74.5639 192.349 75.0079 192.127 75.6104 191.652C76.2129 191.176 76.752 190.732 77.3228 190.32C78.8449 189.178 80.3987 188.036 80.0182 187.371C79.8835 187.111 79.6846 186.89 79.4403 186.729C79.1961 186.568 78.9147 186.472 78.6229 186.451C77.7984 186.356 76.9422 186.863 76.1812 187.814C76.07 187.946 75.9121 188.03 75.7406 188.048C75.5691 188.065 75.3973 188.016 75.2616 187.91C75.1385 187.8 75.0607 187.648 75.0431 187.484C75.0255 187.32 75.0695 187.155 75.1664 187.022C76.2129 185.722 77.4813 185.087 78.7181 185.182C79.2211 185.221 79.7061 185.387 80.1276 185.664C80.5492 185.942 80.8934 186.321 81.1281 186.768C82.0477 188.385 80.2085 189.749 78.0838 191.334C77.5448 191.747 76.9422 192.159 76.4032 192.635C75.8641 193.11 74.9762 193.522 74.3737 193.522Z" fill="#282928"/>
<path d="M76.0547 187.687C75.9683 187.689 75.8829 187.669 75.8057 187.631C75.7284 187.592 75.6616 187.535 75.6108 187.465C75.5512 187.407 75.5045 187.336 75.4736 187.259C75.4427 187.181 75.4283 187.098 75.4313 187.015C75.4342 186.931 75.4546 186.849 75.4909 186.774C75.5273 186.699 75.5789 186.632 75.6425 186.578C75.801 186.419 76.2767 185.88 76.2133 185.436C76.1498 184.992 76.1816 185.087 75.7376 184.802C74.4692 184.009 72.5665 185.912 72.5665 185.912C72.4478 186.008 72.2981 186.059 72.145 186.054C71.9919 186.049 71.8458 185.989 71.7337 185.884C71.6216 185.78 71.5511 185.638 71.5351 185.486C71.5192 185.334 71.5589 185.181 71.6469 185.055C71.742 184.929 74.2472 182.36 76.4352 183.755C76.72 183.913 76.9633 184.136 77.1452 184.406C77.3271 184.677 77.4424 184.986 77.4817 185.309C77.6085 186.451 76.6255 187.402 76.4987 187.497C76.3816 187.617 76.222 187.685 76.0547 187.687Z" fill="#282928"/>
<path d="M74.3422 183.977C74.1815 183.97 74.0288 183.905 73.9123 183.795C73.7957 183.684 73.7231 183.535 73.708 183.375C73.6762 182.645 73.3908 182.487 73.2957 182.423C72.6932 182.074 71.2979 182.614 70.7271 182.931C70.5784 183.002 70.4084 183.015 70.2502 182.969C70.092 182.922 69.9569 182.818 69.8709 182.677C69.7918 182.53 69.774 182.357 69.8216 182.197C69.8691 182.036 69.978 181.901 70.1246 181.821C70.3783 181.662 72.5029 180.552 73.9299 181.313C74.3739 181.567 74.913 182.106 74.9764 183.311C74.9851 183.393 74.9771 183.475 74.9527 183.554C74.9284 183.632 74.8882 183.705 74.8348 183.767C74.7813 183.83 74.7156 183.881 74.6418 183.917C74.568 183.953 74.4876 183.973 74.4056 183.977H74.3422Z" fill="#282928"/>
<path d="M68.9833 186.578H68.7614C67.4929 186.451 65.6854 185.246 64.8926 183.216C64.3853 182.011 63.9413 179.57 66.2879 176.843C69.6176 173.006 71.1397 173.006 73.7717 173.354C74.9559 173.546 76.1584 173.599 77.355 173.513C77.4383 173.505 77.5224 173.513 77.6025 173.537C77.6827 173.561 77.7572 173.601 77.822 173.654C77.8868 173.707 77.9405 173.772 77.9801 173.846C78.0196 173.92 78.0443 174 78.0526 174.084C78.061 174.167 78.0528 174.251 78.0286 174.331C78.0044 174.411 77.9647 174.486 77.9117 174.551C77.8587 174.615 77.7935 174.669 77.7197 174.709C77.646 174.748 77.5651 174.773 77.4818 174.781C76.1904 174.871 74.8929 174.818 73.6131 174.623C71.3934 174.337 70.2835 174.179 67.2392 177.667C65.4317 179.792 65.5903 181.599 66.0659 182.741C66.5416 183.882 68.0954 185.246 68.8882 185.309C68.9619 185.328 69.0395 185.326 69.1122 185.304C69.185 185.282 69.2501 185.24 69.3004 185.182C69.7761 184.453 69.5858 183.787 69.3322 183.026C69.0785 182.265 68.8248 181.345 69.4907 180.458C70.2314 179.523 71.1335 178.728 72.1544 178.111C72.3018 178.032 72.4744 178.014 72.6347 178.062C72.7951 178.109 72.9302 178.218 73.0106 178.365C73.0898 178.512 73.1075 178.685 73.06 178.845C73.0125 179.005 72.9036 179.14 72.7569 179.221C71.8951 179.75 71.1331 180.426 70.5055 181.219C70.2518 181.567 70.3469 181.948 70.5689 182.677C70.7909 183.407 71.1397 184.643 70.3469 185.88C70.197 186.102 69.9934 186.282 69.755 186.404C69.5165 186.526 69.251 186.586 68.9833 186.578Z" fill="#282928"/>
<path d="M161.388 90.0817C159.073 90.0817 156.41 89.606 153.365 88.623C153.211 88.5654 153.083 88.4525 153.007 88.306C152.93 88.1595 152.911 87.9899 152.953 87.8302C152.974 87.7487 153.013 87.6727 153.065 87.6069C153.118 87.5411 153.183 87.487 153.258 87.4482C153.333 87.4093 153.415 87.3866 153.499 87.3814C153.583 87.3762 153.667 87.3886 153.746 87.4179C160.469 89.5743 165.225 89.2572 167.857 86.4349C174.453 79.4268 166.621 59.2905 166.525 59.1002C166.495 59.0212 166.481 58.9369 166.484 58.8523C166.487 58.7677 166.506 58.6846 166.542 58.6077C166.577 58.5309 166.628 58.462 166.69 58.4049C166.753 58.3479 166.826 58.304 166.906 58.2757C167.062 58.221 167.233 58.2264 167.386 58.2909C167.538 58.3554 167.661 58.4743 167.73 58.6245C168.047 59.4807 175.912 79.7122 168.777 87.2911C167.033 89.162 164.559 90.0817 161.388 90.0817Z" fill="#282928"/>
<path d="M146.928 104.51H146.865C146.781 104.502 146.7 104.478 146.626 104.438C146.552 104.399 146.487 104.345 146.434 104.28C146.381 104.215 146.341 104.14 146.317 104.06C146.293 103.98 146.285 103.896 146.294 103.812L146.674 99.7532C146.854 98.0637 146.811 96.3579 146.548 94.6795L144.455 80.8536C143.408 80.5682 140.713 79.6485 139.635 77.7776C139.374 77.3436 139.208 76.8592 139.147 76.3563C139.087 75.8534 139.134 75.3435 139.286 74.8602C139.687 73.5706 140.353 72.8096 141.284 72.577C143.123 72.1648 145.057 74.2577 145.279 74.5114C145.367 74.6367 145.407 74.7897 145.391 74.942C145.375 75.0943 145.304 75.2357 145.192 75.3401C145.08 75.4445 144.934 75.5048 144.781 75.5098C144.628 75.5149 144.478 75.4643 144.36 75.3676C143.916 74.8919 142.489 73.6235 141.569 73.8138C141.125 73.9406 140.776 74.3846 140.523 75.2407C140.41 75.552 140.369 75.8844 140.402 76.2136C140.435 76.5428 140.541 76.8605 140.713 77.1434C141.791 78.9826 145.121 79.712 145.152 79.712L145.596 79.8071L147.816 94.4892C148.08 96.274 148.123 98.0847 147.943 99.88L147.531 103.939C147.523 104.093 147.455 104.238 147.343 104.345C147.231 104.451 147.083 104.51 146.928 104.51Z" fill="#282928"/>
<path d="M163.274 69.2637C163.772 69.1633 164.052 68.4696 163.9 67.7142C163.748 66.9588 163.221 66.4278 162.723 66.5282C162.225 66.6286 161.945 67.3223 162.097 68.0777C162.249 68.8331 162.776 69.3641 163.274 69.2637Z" fill="#282928"/>
<path d="M153.405 71.6162C153.903 71.5158 154.183 70.8221 154.031 70.0667C153.878 69.3113 153.351 68.7803 152.853 68.8807C152.356 68.9811 152.075 69.6749 152.228 70.4302C152.38 71.1856 152.907 71.7166 153.405 71.6162Z" fill="#282928"/>
<path d="M160.596 76.5725C160.457 76.5699 160.323 76.5221 160.214 76.4361C160.106 76.3502 160.028 76.231 159.993 76.0968C159.969 76.0177 159.962 75.9345 159.972 75.8524C159.982 75.7704 160.008 75.6912 160.05 75.6198C160.091 75.5484 160.147 75.4864 160.214 75.4375C160.281 75.3886 160.357 75.354 160.437 75.3358C160.945 75.1772 161.135 75.0186 161.167 74.9235C161.198 74.8284 160.374 73.6234 159.549 73.0843C159.416 72.9832 159.326 72.8357 159.297 72.6713C159.267 72.5068 159.301 72.3373 159.391 72.1964C159.438 72.1273 159.499 72.0683 159.57 72.0229C159.64 71.9775 159.719 71.9465 159.802 71.9318C159.884 71.917 159.969 71.9188 160.051 71.937C160.133 71.9552 160.21 71.9895 160.279 72.0378C160.691 72.2915 162.657 73.7185 162.403 75.1138C162.308 75.7797 161.737 76.2871 160.786 76.5408L160.596 76.5725Z" fill="#282928"/>
<path d="M166.367 102.385C166.26 102.39 166.154 102.366 166.059 102.316C165.964 102.266 165.884 102.191 165.828 102.1C163.671 98.4866 162.269 94.4736 161.706 90.3033C161.689 90.1351 161.739 89.9671 161.847 89.8363C161.954 89.7055 162.108 89.6225 162.276 89.6057C162.445 89.5889 162.613 89.6396 162.743 89.7466C162.874 89.8537 162.957 90.0083 162.974 90.1765C163.511 94.1561 164.848 97.9857 166.906 101.434C166.99 101.582 167.013 101.757 166.972 101.922C166.931 102.087 166.828 102.23 166.684 102.322C166.587 102.373 166.477 102.395 166.367 102.385Z" fill="#282928"/>
<path d="M159.422 58.3708C159.34 58.3751 159.259 58.3627 159.182 58.3343C159.105 58.306 159.035 58.2623 158.976 58.2059C158.916 58.1495 158.869 58.0816 158.837 58.0064C158.804 57.9312 158.788 57.8501 158.788 57.7683C158.784 57.685 158.796 57.6016 158.824 57.523C158.852 57.4445 158.895 57.3722 158.951 57.3103C159.007 57.2484 159.075 57.1982 159.15 57.1625C159.225 57.1269 159.307 57.1064 159.39 57.1023L161.483 57.0389C161.567 57.0346 161.65 57.0469 161.729 57.0748C161.807 57.1028 161.88 57.146 161.941 57.202C162.003 57.258 162.053 57.3256 162.089 57.401C162.125 57.4764 162.145 57.5581 162.149 57.6414C162.154 57.7247 162.141 57.8081 162.113 57.8867C162.085 57.9652 162.042 58.0375 161.986 58.0994C161.93 58.1613 161.863 58.2115 161.787 58.2471C161.712 58.2828 161.63 58.3033 161.547 58.3073L159.422 58.3708Z" fill="white"/>
<path d="M153.873 62.588C191.958 63.5393 178.48 42.5784 165.384 48.223C165.304 48.2641 165.216 48.2859 165.126 48.2865C165.036 48.287 164.947 48.2664 164.867 48.2262C164.787 48.186 164.717 48.1275 164.663 48.0553C164.61 47.9831 164.574 47.8993 164.559 47.8107C164.147 45.369 162.245 38.7097 154.095 44.7982C154 44.8728 153.883 44.9133 153.762 44.9133C153.641 44.9133 153.524 44.8728 153.429 44.7982C151.653 43.4663 143.503 37.9169 141.379 46.2886C141.32 46.5362 141.212 46.7695 141.061 46.9745C140.91 47.1796 140.719 47.3523 140.501 47.4824C140.282 47.6125 140.039 47.6974 139.787 47.732C139.535 47.7666 139.278 47.7502 139.032 47.6839C135.481 46.7326 128.441 46.0032 128.536 55.5164C128.631 65.0297 136.178 74.2892 139.444 77.7774C139.825 78.1897 139.54 76.9529 139.508 76.4139C139.465 75.9857 139.532 75.5537 139.704 75.1594C139.877 74.765 140.147 74.4217 140.491 74.1624C146.072 69.6595 145.85 66.2664 145.755 63.9832C145.596 59.734 146.928 61.2878 148.514 61.7C148.736 61.7635 153.651 62.588 153.873 62.588Z" fill="#282928"/>
<path d="M173.09 56.7216C173 56.7224 172.911 56.6994 172.833 56.6548C172.755 56.6102 172.691 56.5457 172.646 56.4679C172.59 56.3497 172.582 56.2145 172.623 56.0904C172.664 55.9663 172.752 55.863 172.868 55.802C173.47 55.5166 175.024 54.5019 174.992 53.4871C174.961 52.4724 173.851 51.9967 172.931 51.5845C172.824 51.5263 172.743 51.4289 172.705 51.3126C172.667 51.1963 172.676 51.0699 172.729 50.9597C172.782 50.8496 172.875 50.7641 172.99 50.721C173.104 50.6779 173.231 50.6805 173.343 50.7283C175.024 51.4893 175.912 52.4089 175.944 53.4554C175.975 55.2312 173.565 56.5313 173.312 56.6582L173.09 56.7216Z" fill="white"/>
<path d="M163.481 59.0366C162.752 59.0366 161.896 58.9732 160.849 58.878C160.726 58.8549 160.616 58.7871 160.54 58.6876C160.464 58.588 160.427 58.4639 160.437 58.339C160.453 58.2184 160.514 58.1085 160.609 58.0319C160.703 57.9552 160.823 57.9176 160.944 57.9267C164.052 58.2755 165.447 57.9584 166.684 57.7047C167.033 57.6413 167.318 57.5462 167.667 57.5145C167.733 57.4893 167.803 57.479 167.873 57.4843C167.943 57.4895 168.011 57.5103 168.072 57.545C168.134 57.5798 168.186 57.6276 168.227 57.6852C168.267 57.7427 168.294 57.8085 168.306 57.8778C168.318 57.947 168.314 58.0181 168.296 58.0858C168.277 58.1536 168.243 58.2163 168.197 58.2695C168.151 58.3227 168.094 58.3651 168.03 58.3935C167.966 58.422 167.896 58.4358 167.826 58.4341L166.906 58.6244C165.785 58.897 164.635 59.0354 163.481 59.0366Z" fill="white"/>
<path d="M154.602 48.6037C154.47 48.5985 154.344 48.5416 154.253 48.4451C154.17 48.3521 154.127 48.2302 154.133 48.1057C154.139 47.9812 154.194 47.8639 154.285 47.7792C156.188 46.0351 159.486 45.5912 159.612 45.5912C159.675 45.5823 159.739 45.5859 159.8 45.6019C159.861 45.6179 159.918 45.6459 159.969 45.6842C160.019 45.7226 160.061 45.7706 160.092 45.8254C160.124 45.8802 160.144 45.9407 160.152 46.0034C160.161 46.1246 160.123 46.2448 160.046 46.3391C159.97 46.4335 159.86 46.4949 159.739 46.5108C159.708 46.5425 156.6 46.923 154.919 48.4769C154.829 48.5505 154.718 48.5948 154.602 48.6037Z" fill="white"/>
<path d="M132.975 61.9539C132.87 61.9526 132.767 61.9182 132.682 61.8557C132.596 61.7932 132.533 61.7055 132.5 61.6051L131.77 58.9731C131.751 58.9127 131.744 58.8491 131.749 58.7858C131.754 58.7226 131.772 58.6611 131.802 58.605C131.831 58.5489 131.872 58.4992 131.921 58.4589C131.97 58.4187 132.027 58.3886 132.087 58.3706C132.146 58.3513 132.207 58.3443 132.268 58.3501C132.329 58.3559 132.389 58.3742 132.442 58.404C132.496 58.4338 132.543 58.4744 132.58 58.5232C132.617 58.572 132.644 58.628 132.658 58.6877L133.419 61.3514C133.439 61.4096 133.446 61.4712 133.44 61.5323C133.434 61.5934 133.416 61.6526 133.386 61.7063C133.356 61.7599 133.315 61.8068 133.267 61.8439C133.218 61.8811 133.162 61.9077 133.102 61.9222L132.975 61.9539Z" fill="white"/>
<path d="M157.551 85.9907C157.23 85.9955 156.909 85.9527 156.6 85.8638C153.81 85.1028 152.383 81.2024 152.224 79.268C152.161 78.3484 152.383 77.7776 152.922 77.5556C153.461 77.3336 153.714 77.3336 154.317 77.9996C156.093 79.8705 160.723 79.9022 162.118 79.8705C162.35 79.8726 162.577 79.9351 162.777 80.0519C162.977 80.1687 163.144 80.3357 163.259 80.5364C163.369 80.7453 163.418 80.9806 163.401 81.2159C163.384 81.4512 163.302 81.6771 163.164 81.8683C161.262 84.5954 159.391 85.9907 157.551 85.9907ZM153.873 79.712C154.158 81.1072 155.078 83.4538 156.632 84.1832C158.186 84.9125 160.152 83.2953 161.515 81.4877H161.452C159.2 81.4877 155.902 81.1706 153.873 79.712Z" fill="#282928"/>
<path d="M159.549 65.7275C159.349 65.7163 159.16 65.6381 159.01 65.5055C158.86 65.3615 158.773 65.1646 158.767 64.9571C158.761 64.7496 158.837 64.548 158.978 64.3957C161.23 61.9539 164.115 63.1907 165.352 64.1737C165.433 64.2403 165.501 64.3223 165.55 64.4149C165.6 64.5076 165.63 64.609 165.641 64.7136C165.651 64.8181 165.641 64.9237 165.61 65.0242C165.58 65.1247 165.53 65.2182 165.463 65.2994C165.396 65.3806 165.315 65.4479 165.222 65.4974C165.129 65.547 165.028 65.5778 164.923 65.5881C164.819 65.5984 164.713 65.588 164.613 65.5575C164.512 65.527 164.419 65.477 164.337 65.4104C164.115 65.2202 161.896 63.5712 160.152 65.4738C159.992 65.6348 159.776 65.726 159.549 65.7275Z" fill="#282928"/>
<path d="M148.958 68.8986C148.797 68.8941 148.641 68.8386 148.514 68.7401C148.427 68.6855 148.351 68.6138 148.293 68.5293C148.234 68.4448 148.193 68.3493 148.172 68.2485C148.152 68.1477 148.151 68.0438 148.172 67.9429C148.193 67.8421 148.233 67.7465 148.292 67.6619C150.512 64.2689 153.714 65.0933 153.873 65.1251C153.983 65.1428 154.087 65.1834 154.18 65.2441C154.273 65.3049 154.352 65.3845 154.413 65.4779C154.473 65.5712 154.513 65.6761 154.53 65.7859C154.547 65.8956 154.541 66.0077 154.512 66.1149C154.483 66.2221 154.431 66.322 154.361 66.4081C154.291 66.4943 154.204 66.5647 154.105 66.6149C154.006 66.6651 153.897 66.6939 153.786 66.6994C153.675 66.705 153.564 66.6872 153.461 66.6472C153.366 66.6472 151.178 66.1398 149.624 68.5181C149.554 68.6327 149.456 68.7277 149.34 68.7943C149.223 68.8608 149.092 68.8967 148.958 68.8986Z" fill="#282928"/>
<path d="M83.5697 177.064C83.5697 177.064 104.34 159.116 108.875 152.076C109.669 150.865 110.693 149.82 111.887 149C116.581 145.734 127.489 137.997 131.548 133.652L122.923 121.602C122.923 121.602 106.655 138.25 103.262 143.07C100.535 146.907 92.0048 148.905 79.7644 171.356L77.7667 173.988" fill="white"/>
<path d="M83.5698 177.698C83.4796 177.695 83.3909 177.674 83.3092 177.636C83.2274 177.598 83.1542 177.543 83.0941 177.476C82.986 177.349 82.932 177.185 82.9439 177.019C82.9558 176.853 83.0325 176.698 83.1576 176.588C83.3795 176.398 103.896 158.608 108.336 151.727C109.183 150.452 110.258 149.345 111.507 148.461C115.915 145.416 126.443 137.996 130.724 133.588L122.828 122.585C120.006 125.502 106.782 139.201 103.77 143.45C102.977 144.56 101.772 145.48 100.281 146.685C96.159 149.919 89.246 155.31 80.3353 171.673L80.2719 171.768L78.2741 174.368C78.2246 174.436 78.1614 174.493 78.0885 174.535C78.0157 174.578 77.9349 174.604 77.8512 174.613C77.7676 174.622 77.683 174.613 77.6029 174.587C77.5228 174.562 77.449 174.52 77.3862 174.464C77.2516 174.363 77.1627 174.212 77.1389 174.046C77.1151 173.879 77.1584 173.71 77.2593 173.576L79.2571 171.007C88.263 154.454 95.3028 148.968 99.4886 145.67C100.979 144.497 102.057 143.672 102.723 142.721C106.148 137.901 121.781 121.855 122.447 121.158L122.986 120.619L132.341 133.715L131.992 134.096C127.901 138.504 116.803 146.336 112.236 149.507C111.119 150.292 110.161 151.282 109.414 152.425C104.879 159.464 84.8382 176.81 83.982 177.54C83.8667 177.638 83.7212 177.694 83.5698 177.698Z" fill="#282928"/>
<path d="M33.4987 191.175C32.8924 191.183 32.2936 191.041 31.7546 190.763C31.6984 190.734 31.6485 190.694 31.6077 190.646C31.5669 190.597 31.5361 190.541 31.5169 190.481C31.4978 190.421 31.4907 190.357 31.4961 190.294C31.5016 190.231 31.5193 190.169 31.5485 190.113C31.5776 190.057 31.6176 190.007 31.666 189.966C31.7145 189.925 31.7705 189.895 31.8308 189.875C31.8912 189.856 31.9548 189.849 32.0178 189.855C32.0809 189.86 32.1424 189.878 32.1986 189.907C34.0695 190.922 36.6381 189.368 38.0334 187.243C39.4286 185.119 40.0311 181.599 36.8601 179.062C33.689 176.525 29.4397 176.493 25.9515 176.398C23.2561 176.335 21.1632 176.303 20.3387 175.162C19.9582 174.622 19.8948 173.925 20.1802 173.037C20.7193 171.293 21.6389 170.151 22.9073 169.612C24.8734 168.788 26.9029 169.802 26.998 169.834C27.0573 169.858 27.1109 169.893 27.1551 169.939C27.1993 169.985 27.233 170.04 27.2541 170.1C27.2752 170.161 27.283 170.225 27.2771 170.288C27.2712 170.352 27.2517 170.413 27.22 170.468C27.1595 170.576 27.0617 170.658 26.9449 170.699C26.8281 170.74 26.7004 170.737 26.5858 170.69C26.554 170.659 24.81 169.834 23.2561 170.5C22.2731 170.912 21.5437 171.864 21.0998 173.322C20.9095 173.893 20.9095 174.305 21.0998 174.591C21.6706 175.352 23.6684 175.384 25.9515 175.447C29.5983 175.542 34.1012 175.637 37.4626 178.301C40.8239 180.965 40.5068 185.246 38.8261 187.782C37.5894 189.653 35.4965 191.175 33.4987 191.175Z" fill="white"/>
<path d="M44.2803 184.009C44.1944 184.011 44.1097 183.988 44.0365 183.943C43.9634 183.898 43.9048 183.833 43.868 183.755L30.5495 158.482L55.3791 170.817C55.4384 170.841 55.4919 170.877 55.5361 170.923C55.5803 170.969 55.6141 171.024 55.6352 171.084C55.6562 171.144 55.6641 171.208 55.6582 171.271C55.6523 171.335 55.6328 171.396 55.601 171.452C55.5745 171.508 55.5364 171.559 55.4891 171.6C55.4418 171.64 55.3864 171.671 55.3265 171.689C55.2666 171.707 55.2036 171.712 55.1417 171.704C55.0797 171.696 55.0201 171.675 54.9668 171.642L32.7375 160.638L44.6925 183.312C44.7494 183.421 44.7614 183.549 44.7259 183.667C44.6903 183.786 44.6101 183.885 44.5023 183.946C44.4389 183.994 44.3596 184.017 44.2803 184.009Z" fill="white"/>
<path d="M39.4282 172.783H39.2063C39.0958 172.717 39.0127 172.614 38.972 172.491C38.9313 172.369 38.9357 172.237 38.9843 172.117C39.2063 171.705 42.6627 167.678 44.1214 165.997C44.2073 165.899 44.3276 165.838 44.4575 165.826C44.5875 165.814 44.7169 165.853 44.8191 165.934C44.9106 166.019 44.9652 166.136 44.9711 166.26C44.977 166.385 44.9338 166.507 44.8508 166.6C43.0433 168.724 40.0624 172.181 39.8405 172.561C39.7946 172.629 39.7332 172.684 39.6615 172.723C39.5897 172.761 39.5097 172.782 39.4282 172.783Z" fill="white"/>
<path d="M58.1377 169.105L57.7572 168.756C50.5271 161.78 39.5235 151.22 38.9527 150.776C38.8947 150.751 38.8434 150.713 38.8025 150.664C38.7617 150.616 38.7325 150.559 38.7172 150.498C38.7018 150.437 38.7008 150.373 38.7142 150.311C38.7275 150.249 38.7549 150.191 38.7941 150.142C38.8653 150.037 38.9731 149.963 39.0963 149.933C39.2196 149.904 39.3493 149.922 39.4601 149.983C39.9674 150.3 53.3811 163.207 58.0743 167.741L64.2262 160.67C64.2585 160.605 64.3053 160.548 64.3628 160.504C64.4204 160.46 64.4873 160.43 64.5583 160.416C64.6294 160.401 64.7028 160.404 64.7729 160.422C64.843 160.44 64.9079 160.475 64.9628 160.522C65.0176 160.569 65.0609 160.629 65.0894 160.695C65.1178 160.762 65.1307 160.834 65.1269 160.907C65.1231 160.979 65.1029 161.05 65.0677 161.113C65.0325 161.176 64.9833 161.231 64.9238 161.272L58.1377 169.105Z" fill="white"/>
<path d="M66.5414 159.369L46.7222 141.675L53.54 134.635C53.6247 134.543 53.7419 134.489 53.8665 134.483C53.991 134.477 54.1129 134.52 54.2059 134.603C54.2931 134.697 54.3442 134.818 54.35 134.946C54.3558 135.074 54.316 135.2 54.2376 135.301L48.0857 141.611L66.478 158.038L74.374 149.729C74.4629 149.642 74.5825 149.593 74.707 149.593C74.8315 149.593 74.951 149.642 75.0399 149.729C75.1314 149.814 75.186 149.931 75.192 150.056C75.1979 150.18 75.1547 150.302 75.0716 150.395L66.5414 159.369Z" fill="white"/>
<path d="M57.4404 150.554C57.3255 150.54 57.2162 150.496 57.1233 150.427C57.0318 150.342 56.9772 150.225 56.9713 150.101C56.9653 149.976 57.0085 149.854 57.0916 149.761L61.7214 144.561C61.815 144.473 61.9365 144.422 62.0644 144.417C62.1922 144.411 62.3179 144.451 62.419 144.529C62.5105 144.614 62.5651 144.731 62.571 144.855C62.577 144.98 62.5338 145.102 62.4507 145.195L57.7892 150.395C57.6981 150.492 57.5729 150.549 57.4404 150.554Z" fill="white"/>
<path d="M80.8111 187.846C80.7323 187.848 80.654 187.832 80.5825 187.799C80.5109 187.766 80.4481 187.717 80.3988 187.655C80.3353 187.601 80.2836 187.534 80.2473 187.459C80.2109 187.384 80.1906 187.302 80.1876 187.218C80.1846 187.135 80.1991 187.052 80.23 186.974C80.2609 186.896 80.3076 186.826 80.3671 186.768C81.3467 185.643 82.1004 184.34 82.5869 182.931C82.6088 182.849 82.6469 182.772 82.6989 182.705C82.7509 182.638 82.8157 182.583 82.8896 182.541C82.9635 182.5 83.0449 182.474 83.1291 182.464C83.2133 182.455 83.2985 182.463 83.3797 182.487C83.5391 182.538 83.6719 182.65 83.7491 182.798C83.8263 182.947 83.8417 183.12 83.7919 183.279C83.269 184.886 82.4157 186.366 81.2867 187.624C81.231 187.696 81.1587 187.754 81.0759 187.793C80.9932 187.831 80.9023 187.849 80.8111 187.846Z" fill="#282928"/>
<path d="M258.26 169.917L263.216 171.144L280.489 101.348L275.533 100.122L258.26 169.917Z" fill="white"/>
<path d="M263.56 172.054L257.377 170.532L274.913 99.4995L281.065 101.022L263.56 172.054ZM258.899 169.612L262.609 170.532L279.543 101.941L275.833 101.022L258.899 169.612Z" fill="#282928"/>
<path d="M244.068 98.587L307.309 114.886C309.093 115.346 310.912 114.273 311.371 112.489L319.791 79.8194C320.251 78.0356 319.178 76.2169 317.394 75.7572L254.152 59.4579C252.369 58.9981 250.55 60.0715 250.09 61.8552L241.67 94.5248C241.211 96.3086 242.284 98.1273 244.068 98.587Z" fill="#282928"/>
<path d="M270.886 112.057C270.886 112.057 275.642 111.772 276.023 117.702C276.403 123.632 272.439 116.592 270.188 115.799C267.936 115.006 270.886 112.057 270.886 112.057Z" fill="white"/>
<path d="M276.942 115.102C276.942 115.102 268.951 118.875 268.856 119.731C268.761 120.588 268.507 120.936 268.032 122.744C267.556 124.551 265.844 125.947 265.78 127.025C265.717 128.103 273.866 129.784 274.437 128.547C275.008 127.31 274.501 126.866 274.501 126.866C274.501 126.866 278.052 125.186 277.323 123.6C277.323 123.6 279.416 119.7 277.925 119.161C277.925 119.161 278.94 115.165 276.942 115.102Z" fill="white"/>
<path d="M273.264 129.688H272.693L270.569 129.53C267.937 129.403 265.653 129.276 265.495 127.437C265.457 126.934 265.541 126.429 265.74 125.965C265.939 125.502 266.246 125.093 266.636 124.773C267.62 124.012 269.015 123.853 270.6 124.329C270.76 124.38 270.893 124.492 270.97 124.64C271.047 124.789 271.062 124.962 271.013 125.122C270.991 125.204 270.953 125.28 270.901 125.347C270.849 125.414 270.784 125.47 270.71 125.511C270.636 125.552 270.555 125.579 270.47 125.588C270.386 125.597 270.301 125.59 270.22 125.566C269.046 125.185 268.063 125.249 267.429 125.756C267.197 125.946 267.016 126.19 266.9 126.466C266.783 126.742 266.737 127.043 266.763 127.342C266.827 128.071 268.761 128.166 270.632 128.261L272.82 128.42C273.581 128.483 274.12 128.388 274.31 128.134C274.501 127.881 274.342 127.215 274.215 126.961L273.867 126.168L274.723 126.073C275.611 125.946 276.213 125.661 276.53 125.122C276.847 124.583 276.721 122.807 276.721 122.775L276.53 122.173L277.133 121.982C277.735 121.792 278.084 121.507 278.243 121.095C278.401 120.682 277.957 119.192 277.704 118.843L277.355 118.336L277.862 117.955C277.965 117.899 278.052 117.817 278.113 117.717C278.175 117.616 278.208 117.502 278.211 117.384C278.306 116.56 277.355 115.323 277.006 114.974C276.946 114.914 276.898 114.842 276.865 114.763C276.832 114.684 276.815 114.6 276.815 114.515C276.815 114.429 276.832 114.345 276.865 114.266C276.898 114.187 276.946 114.115 277.006 114.055C277.066 113.994 277.138 113.946 277.217 113.914C277.296 113.881 277.38 113.864 277.466 113.864C277.551 113.864 277.636 113.881 277.715 113.914C277.793 113.946 277.865 113.994 277.926 114.055C278.084 114.245 279.638 115.926 279.479 117.479C279.446 117.876 279.291 118.252 279.035 118.558C279.353 119.224 279.828 120.397 279.448 121.475C279.329 121.802 279.144 122.1 278.903 122.351C278.663 122.602 278.373 122.801 278.052 122.934C278.179 123.631 278.243 124.805 277.608 125.788C277.142 126.481 276.427 126.969 275.611 127.151C275.678 127.436 275.687 127.732 275.638 128.021C275.589 128.309 275.483 128.585 275.325 128.832C274.945 129.403 274.247 129.688 273.264 129.688Z" fill="#282928"/>
<path d="M269.871 125.471H269.776C269.617 125.471 268.286 125.217 267.747 124.202C267.525 123.822 267.366 123.187 267.747 122.299C268.793 119.953 272.313 120.714 272.44 120.746C272.52 120.761 272.596 120.792 272.664 120.837C272.731 120.882 272.789 120.941 272.833 121.009C272.878 121.077 272.908 121.153 272.922 121.233C272.936 121.314 272.934 121.396 272.915 121.475C272.885 121.638 272.791 121.783 272.654 121.878C272.518 121.973 272.35 122.01 272.186 121.982C272.123 121.951 269.522 121.443 268.92 122.807C268.698 123.314 268.825 123.536 268.856 123.6C268.888 123.663 269.808 124.202 269.966 124.234C270.135 124.246 270.291 124.325 270.401 124.453C270.511 124.581 270.566 124.747 270.553 124.916C270.54 125.084 270.461 125.24 270.334 125.35C270.206 125.46 270.039 125.515 269.871 125.502V125.471Z" fill="#282928"/>
<path d="M269.237 121.443C269.129 121.436 269.023 121.404 268.93 121.349C268.836 121.293 268.757 121.217 268.698 121.126C268.095 120.08 268.254 119.319 268.476 118.875C269.237 117.448 271.647 117.194 271.901 117.162C271.984 117.154 272.068 117.162 272.148 117.186C272.228 117.211 272.303 117.25 272.368 117.303C272.432 117.356 272.486 117.422 272.526 117.495C272.565 117.569 272.59 117.65 272.598 117.733C272.607 117.816 272.598 117.901 272.574 117.981C272.55 118.061 272.51 118.135 272.457 118.2C272.404 118.265 272.339 118.319 272.265 118.358C272.192 118.398 272.111 118.422 272.027 118.431C271.362 118.494 269.935 118.811 269.617 119.446C269.554 119.541 269.427 119.826 269.808 120.492C269.882 120.637 269.9 120.804 269.859 120.962C269.818 121.12 269.721 121.257 269.586 121.348C269.479 121.409 269.359 121.441 269.237 121.443Z" fill="#282928"/>
<path d="M274.564 120.809C274.357 120.81 274.151 120.767 273.962 120.682C272.63 120.08 272.281 118.938 272.027 118.114C271.774 117.289 271.678 117.035 271.266 116.877C270.305 116.565 269.294 116.436 268.285 116.496C268.202 116.501 268.119 116.488 268.04 116.46C267.962 116.432 267.889 116.389 267.827 116.333C267.766 116.277 267.715 116.21 267.68 116.134C267.644 116.059 267.624 115.977 267.619 115.894C267.611 115.812 267.619 115.73 267.643 115.651C267.668 115.573 267.708 115.5 267.761 115.438C267.815 115.375 267.88 115.325 267.954 115.288C268.028 115.252 268.108 115.232 268.19 115.228C269.383 115.169 270.576 115.331 271.71 115.704C272.725 116.084 273.01 117.004 273.232 117.765C273.454 118.526 273.676 119.16 274.469 119.509C274.596 119.572 274.723 119.509 274.913 119.382C275.103 119.255 276.15 117.321 275.801 115.672C275.452 114.023 274.691 112.881 271.996 112.152C267.556 110.915 266.7 111.645 265.019 113.135C264.064 113.991 263.023 114.746 261.912 115.387C261.84 115.43 261.759 115.458 261.676 115.469C261.593 115.48 261.508 115.473 261.427 115.449C261.347 115.426 261.272 115.385 261.208 115.331C261.144 115.276 261.092 115.209 261.055 115.133C260.974 114.989 260.951 114.82 260.992 114.66C261.034 114.5 261.136 114.362 261.277 114.277C262.322 113.686 263.3 112.984 264.195 112.184C266.193 110.408 267.461 109.552 272.344 110.915C275.833 111.867 276.784 114.15 277.038 115.418C277.513 117.543 276.689 119.572 275.706 120.365C275.387 120.639 274.984 120.796 274.564 120.809Z" fill="#282928"/>
<path d="M261.214 114.879L258.106 113.833C235.433 101.941 227.252 105.017 222.875 103.337C217.358 101.212 194.589 96.3921 194.589 96.3921L194.114 111.201C199.885 112.565 213.235 112.945 218.975 113.04C220.418 113.058 221.843 113.371 223.161 113.96C230.867 117.29 258.106 120.683 258.106 120.683" fill="white"/>
<path d="M258.106 121.317H258.011C256.901 121.158 230.613 117.86 222.907 114.53C221.665 113.993 220.329 113.702 218.975 113.674C213.394 113.579 199.822 113.199 193.955 111.803L193.448 111.677L193.987 95.5991L194.716 95.7577C195.668 95.9797 217.612 100.641 223.098 102.734C224.176 103.146 225.539 103.273 227.442 103.4C232.769 103.812 241.648 104.478 258.328 113.262L261.404 114.308C261.486 114.33 261.562 114.368 261.628 114.42C261.693 114.473 261.747 114.539 261.786 114.613C261.825 114.688 261.848 114.77 261.853 114.854C261.858 114.938 261.846 115.022 261.817 115.101C261.788 115.181 261.744 115.254 261.687 115.317C261.63 115.379 261.561 115.43 261.484 115.465C261.408 115.501 261.324 115.521 261.24 115.523C261.155 115.526 261.071 115.512 260.992 115.482L257.789 114.404C241.3 105.747 232.579 105.081 227.347 104.668C225.412 104.51 223.89 104.415 222.654 103.939C217.802 102.068 199.156 98.0092 195.192 97.153L194.748 110.693C200.741 111.962 213.616 112.311 218.975 112.406C220.503 112.431 222.011 112.754 223.415 113.357C230.962 116.623 257.916 120.016 258.17 120.048C258.252 120.056 258.332 120.08 258.405 120.12C258.477 120.16 258.54 120.214 258.591 120.28C258.642 120.345 258.678 120.42 258.698 120.5C258.719 120.581 258.722 120.664 258.709 120.746C258.701 120.9 258.634 121.045 258.522 121.151C258.409 121.258 258.261 121.317 258.106 121.317Z" fill="#282928"/>
<path d="M266.002 128.23H265.875C264.233 127.82 262.698 127.063 261.372 126.01C261.304 125.961 261.247 125.897 261.205 125.824C261.163 125.752 261.137 125.671 261.128 125.587C261.119 125.504 261.128 125.419 261.153 125.339C261.179 125.259 261.221 125.185 261.277 125.122C261.383 124.992 261.535 124.91 261.702 124.892C261.868 124.874 262.034 124.923 262.165 125.027C263.35 125.946 264.709 126.615 266.161 126.993C266.321 127.038 266.458 127.141 266.546 127.281C266.634 127.422 266.666 127.591 266.636 127.754C266.606 127.897 266.525 128.023 266.409 128.111C266.292 128.198 266.148 128.241 266.002 128.23Z" fill="#282928"/>
<path d="M122.32 123.441C122.052 123.088 121.858 122.685 121.749 122.255C121.64 121.825 121.619 121.378 121.687 120.94C121.756 120.501 121.911 120.082 122.145 119.705C122.379 119.329 122.687 119.003 123.05 118.748C125.016 117.353 127.965 114.816 132.024 110.186C133.863 108.125 140.237 104.668 143.471 103.178C143.97 102.944 144.512 102.815 145.063 102.798C145.614 102.782 146.162 102.879 146.674 103.083C149.687 104.383 157.361 105.937 167.54 95.726C168.428 94.8698 176.99 91.7304 195.16 93.855C195.85 93.9328 196.493 94.2467 196.978 94.7437C197.464 95.2407 197.762 95.8902 197.824 96.5822L198.934 111.106C198.988 111.841 198.773 112.571 198.33 113.16C197.887 113.749 197.245 114.157 196.524 114.309L192.75 115.006C192.344 115.086 191.978 115.303 191.712 115.62C191.447 115.938 191.298 116.336 191.291 116.75C191.038 124.9 190.213 164.824 196.333 165.236C198.743 165.395 178.797 179.76 156.822 172.53C156.822 172.53 158.534 165.553 155.807 158.323C153.397 151.918 143.693 135.586 141.505 131.971C141.453 131.884 141.382 131.81 141.297 131.754C141.211 131.698 141.114 131.663 141.013 131.651C140.912 131.639 140.81 131.65 140.714 131.683C140.618 131.717 140.53 131.772 140.459 131.845L136.495 135.808C136.161 136.136 135.762 136.389 135.324 136.552C134.885 136.715 134.418 136.784 133.951 136.754C133.484 136.724 133.029 136.596 132.615 136.379C132.201 136.161 131.838 135.859 131.548 135.491L122.32 123.441Z" fill="#FBBC1B"/>
<path d="M272.471 84.4369C271.638 84.4341 270.824 84.1919 270.125 83.7392C268.856 82.9465 268.095 81.4878 268.032 79.6485C267.986 77.7349 268.528 75.8533 269.586 74.2577C270.602 72.6342 272.082 71.3528 273.835 70.5792C275.547 69.8816 277.164 69.945 278.465 70.7695C279.765 71.594 280.494 73.0527 280.557 74.8602C280.553 76.7754 280.001 78.6495 278.968 80.2618C277.934 81.8742 276.461 83.1577 274.723 83.9612C274.011 84.2668 273.246 84.4285 272.471 84.4369ZM276.086 71.0549C275.444 71.0614 274.809 71.1906 274.215 71.4354C272.637 72.1318 271.31 73.2935 270.41 74.7651C269.43 76.1891 268.93 77.8889 268.983 79.6168C269.046 81.1072 269.617 82.3122 270.632 82.9465C271.647 83.5807 272.979 83.6441 274.374 83.0733C275.927 82.3482 277.243 81.1977 278.169 79.7553C279.095 78.3129 279.593 76.6376 279.606 74.9236C279.543 73.4015 278.94 72.2282 277.925 71.5623C277.377 71.2139 276.736 71.0372 276.086 71.0549Z" fill="white"/>
<path d="M286.17 104.351C285.408 104.368 284.658 104.158 284.014 103.749C282.841 102.988 282.175 101.656 282.08 99.9754C282.055 98.2367 282.564 96.5322 283.538 95.0919C285.631 91.8257 289.246 90.3987 291.625 91.9209C292.766 92.6502 293.464 93.9821 293.527 95.6627C293.554 97.407 293.057 99.1191 292.1 100.578C290.578 102.956 288.231 104.351 286.17 104.351ZM289.436 92.238C287.692 92.238 285.663 93.5064 284.331 95.5993C283.466 96.8817 283.013 98.3971 283.031 99.9437C283.094 101.307 283.633 102.354 284.521 102.956C286.456 104.161 289.5 102.893 291.307 100.071C292.163 98.7739 292.606 97.2479 292.576 95.6944C292.512 94.3626 292.005 93.2844 291.085 92.7136C290.595 92.3951 290.021 92.2295 289.436 92.238Z" fill="white"/>
<path d="M268.698 98.1044C268.62 98.1037 268.545 98.0828 268.478 98.0439C268.411 98.005 268.356 97.9493 268.317 97.8824C268.282 97.833 268.257 97.777 268.245 97.7177C268.232 97.6585 268.231 97.5973 268.243 97.5379C268.255 97.4784 268.279 97.4221 268.314 97.3723C268.348 97.3225 268.392 97.2802 268.444 97.2482L295.018 78.2851C295.07 78.2497 295.128 78.2249 295.19 78.2121C295.251 78.1994 295.315 78.1988 295.377 78.2106C295.439 78.2224 295.498 78.2462 295.55 78.2808C295.603 78.3153 295.648 78.3599 295.683 78.412C295.719 78.464 295.744 78.5225 295.756 78.5842C295.769 78.6458 295.77 78.7093 295.758 78.7712C295.746 78.833 295.722 78.8919 295.688 78.9446C295.653 78.9972 295.609 79.0425 295.557 79.0779L268.983 98.0092C268.902 98.0732 268.801 98.1068 268.698 98.1044Z" fill="white"/>
<path d="M169.855 174.94C163.59 174.927 157.354 174.095 151.304 172.466C151.222 172.444 151.146 172.406 151.079 172.354C151.012 172.302 150.956 172.237 150.915 172.163C150.874 172.09 150.847 172.008 150.838 171.924C150.829 171.84 150.836 171.755 150.86 171.673C150.882 171.592 150.92 171.516 150.972 171.45C151.025 171.384 151.091 171.33 151.165 171.291C151.24 171.253 151.322 171.23 151.406 171.225C151.49 171.219 151.574 171.232 151.653 171.261C151.748 171.261 161.039 174.02 171.98 173.64C186.535 173.132 197 167.646 203.056 157.308C203.099 157.234 203.156 157.169 203.224 157.118C203.292 157.066 203.37 157.029 203.453 157.008C203.536 156.987 203.622 156.984 203.707 156.997C203.791 157.011 203.872 157.041 203.944 157.086C204.08 157.177 204.177 157.315 204.218 157.472C204.259 157.63 204.24 157.798 204.166 157.943C197.951 168.534 186.82 174.401 171.98 174.908L169.855 174.94Z" fill="#282928"/>
<path d="M188.882 53.3286C188.784 53.3263 188.687 53.3024 188.599 53.2585C188.512 53.2147 188.435 53.152 188.374 53.0749C188.324 53.0083 188.288 52.9325 188.267 52.8518C188.246 52.7711 188.242 52.6872 188.254 52.6047C188.265 52.5223 188.293 52.4429 188.336 52.3713C188.378 52.2996 188.434 52.237 188.501 52.187L222.971 25.1694C223.102 25.0822 223.262 25.0473 223.418 25.0714C223.574 25.0956 223.715 25.1771 223.815 25.3001C223.914 25.423 223.963 25.5785 223.954 25.7362C223.944 25.8938 223.877 26.0423 223.763 26.1525L189.262 53.2018C189.156 53.2914 189.02 53.3369 188.882 53.3286Z" fill="#282928"/>
<path d="M201.249 56.8801C201.099 56.8782 200.954 56.8232 200.841 56.7247C200.727 56.6263 200.652 56.4908 200.63 56.3423C200.607 56.1939 200.637 56.0422 200.716 55.9142C200.794 55.7862 200.916 55.6902 201.059 55.6433L235.56 43.3713C235.716 43.3199 235.885 43.3309 236.033 43.4018C236.181 43.4728 236.295 43.5982 236.353 43.7518C236.383 43.8308 236.397 43.9151 236.394 43.9997C236.391 44.0842 236.372 44.1674 236.336 44.2442C236.301 44.3211 236.25 44.39 236.188 44.447C236.125 44.5041 236.052 44.548 235.972 44.5763L201.471 56.8483L201.249 56.8801Z" fill="#282928"/>
<path d="M222.717 77.9685H222.654L194.304 75.3047C194.21 75.3174 194.115 75.3089 194.025 75.2799C193.935 75.2509 193.853 75.2022 193.784 75.1373C193.715 75.0724 193.662 74.9929 193.628 74.9047C193.594 74.8165 193.58 74.7218 193.587 74.6276C193.594 74.5333 193.622 74.4418 193.67 74.3599C193.717 74.2779 193.782 74.2076 193.86 74.1539C193.937 74.1003 194.026 74.0647 194.12 74.0499C194.213 74.035 194.309 74.0412 194.399 74.068L222.78 76.7317C222.862 76.7356 222.943 76.7562 223.017 76.7922C223.09 76.8283 223.156 76.8791 223.21 76.9415C223.263 77.0038 223.303 77.0765 223.327 77.1549C223.352 77.2334 223.36 77.316 223.351 77.3977C223.347 77.4768 223.327 77.5544 223.293 77.626C223.259 77.6975 223.211 77.7616 223.152 77.8147C223.094 77.8677 223.025 77.9086 222.95 77.9349C222.875 77.9613 222.796 77.9727 222.717 77.9685Z" fill="#282928"/>
<path d="M258.107 120.683C258.107 120.683 260.517 124.52 261.753 125.503L258.107 120.683Z" fill="white"/>
<path d="M261.753 126.137C261.611 126.133 261.475 126.077 261.373 125.978C260.104 124.964 257.821 121.412 257.567 121.032C257.481 120.887 257.452 120.715 257.488 120.55C257.523 120.385 257.619 120.24 257.758 120.144C257.826 120.097 257.902 120.066 257.983 120.05C258.064 120.035 258.147 120.036 258.227 120.054C258.307 120.072 258.383 120.106 258.449 120.154C258.516 120.202 258.572 120.263 258.614 120.334C259.28 121.38 261.214 124.234 262.165 124.995C262.295 125.101 262.378 125.253 262.396 125.42C262.413 125.586 262.365 125.753 262.26 125.883C262.2 125.96 262.123 126.023 262.035 126.067C261.947 126.111 261.851 126.135 261.753 126.137Z" fill="#282928"/>
<path d="M203.564 218.194L190.721 218.067C190.302 218.066 189.888 217.976 189.507 217.802C189.126 217.629 188.786 217.376 188.51 217.061C188.234 216.746 188.028 216.376 187.906 215.975C187.784 215.574 187.749 215.152 187.803 214.737L189.643 200.689C189.735 199.98 190.082 199.329 190.618 198.856C191.155 198.384 191.845 198.122 192.56 198.121H201.756C202.471 198.122 203.161 198.384 203.698 198.856C204.235 199.329 204.581 199.98 204.673 200.689L206.513 214.832C206.567 215.252 206.531 215.678 206.407 216.082C206.284 216.487 206.076 216.861 205.797 217.179C205.518 217.497 205.175 217.751 204.79 217.926C204.404 218.101 203.987 218.193 203.564 218.194Z" fill="white"/>
<path d="M203.564 218.827H203.532L190.721 218.7C190.208 218.705 189.701 218.597 189.235 218.383C188.769 218.169 188.356 217.855 188.026 217.464C187.694 217.079 187.447 216.629 187.299 216.143C187.152 215.657 187.108 215.146 187.169 214.641L189.009 200.625C189.117 199.759 189.537 198.962 190.191 198.384C190.845 197.806 191.687 197.487 192.56 197.486H201.756C202.631 197.48 203.477 197.797 204.133 198.376C204.788 198.956 205.206 199.756 205.308 200.625L207.147 214.768C207.209 215.28 207.162 215.799 207.009 216.29C206.856 216.782 206.6 217.236 206.259 217.622C205.921 218.003 205.506 218.308 205.041 218.515C204.577 218.723 204.073 218.829 203.564 218.827ZM203.564 217.559C203.895 217.557 204.222 217.485 204.523 217.347C204.824 217.21 205.093 217.011 205.312 216.762C205.53 216.513 205.694 216.221 205.792 215.905C205.889 215.589 205.919 215.255 205.879 214.927L204.071 200.784C204.001 200.221 203.727 199.703 203.3 199.329C202.873 198.954 202.324 198.75 201.756 198.754H192.56C191.996 198.751 191.451 198.956 191.029 199.331C190.608 199.706 190.34 200.223 190.277 200.784L188.438 214.8C188.389 215.127 188.412 215.461 188.505 215.779C188.598 216.097 188.759 216.39 188.977 216.639C189.194 216.888 189.462 217.088 189.763 217.225C190.064 217.361 190.391 217.432 190.721 217.432L203.564 217.559Z" fill="#282928"/>
<path d="M192.56 198.755H192.496C192.329 198.724 192.178 198.633 192.073 198.498C191.967 198.364 191.915 198.196 191.926 198.025C192.021 197.296 192.845 190.732 195.35 189.178C195.637 188.987 195.964 188.867 196.306 188.828C196.649 188.789 196.995 188.833 197.316 188.956C201.027 190.224 202.327 197.676 202.359 197.993C202.377 198.075 202.378 198.159 202.362 198.241C202.346 198.323 202.313 198.401 202.265 198.47C202.218 198.538 202.156 198.596 202.085 198.64C202.014 198.683 201.934 198.712 201.851 198.723C201.687 198.751 201.519 198.713 201.383 198.618C201.246 198.523 201.153 198.379 201.122 198.215C200.805 196.281 199.409 191.017 196.904 190.129C196.757 190.078 196.599 190.063 196.445 190.085C196.291 190.107 196.144 190.166 196.016 190.256C194.526 191.176 193.511 195.615 193.194 198.184C193.178 198.341 193.105 198.486 192.987 198.592C192.87 198.697 192.718 198.755 192.56 198.755Z" fill="#282928"/>
<path d="M197.221 209.441C199.533 209.441 201.407 208.561 201.407 207.475C201.407 206.39 199.533 205.509 197.221 205.509C194.91 205.509 193.035 206.39 193.035 207.475C193.035 208.561 194.91 209.441 197.221 209.441Z" fill="#FBBC1B"/>
<path d="M196.904 228.531C192.419 228.537 188.032 227.212 184.299 224.725C180.566 222.237 177.655 218.698 175.934 214.556C174.214 210.414 173.76 205.854 174.631 201.453C175.503 197.053 177.659 193.01 180.829 189.836C183.999 186.662 188.039 184.5 192.438 183.622C196.837 182.745 201.397 183.192 205.542 184.907C209.687 186.622 213.23 189.528 215.723 193.257C218.215 196.987 219.546 201.372 219.546 205.857C219.538 211.863 217.15 217.62 212.907 221.869C208.664 226.119 202.91 228.514 196.904 228.531ZM196.904 184.484C192.668 184.478 188.525 185.729 185.001 188.078C181.476 190.428 178.727 193.771 177.103 197.683C175.479 201.596 175.053 205.902 175.878 210.057C176.703 214.212 178.742 218.029 181.737 221.024C184.733 224.02 188.55 226.059 192.705 226.884C196.86 227.709 201.166 227.282 205.079 225.658C208.991 224.034 212.334 221.286 214.683 217.761C217.033 214.236 218.284 210.093 218.278 205.857C218.269 200.191 216.015 194.76 212.008 190.754C208.002 186.747 202.57 184.493 196.904 184.484Z" fill="#282928"/>
<path d="M166.05 195.838H121.02C120.852 195.838 120.691 195.771 120.572 195.652C120.453 195.533 120.386 195.372 120.386 195.204C120.386 195.035 120.453 194.874 120.572 194.755C120.691 194.636 120.852 194.569 121.02 194.569H166.05C166.218 194.569 166.379 194.636 166.498 194.755C166.617 194.874 166.684 195.035 166.684 195.204C166.684 195.372 166.617 195.533 166.498 195.652C166.379 195.771 166.218 195.838 166.05 195.838Z" fill="#282928"/>
<path d="M159.898 205.858H126.855C126.687 205.858 126.526 205.791 126.407 205.672C126.288 205.553 126.221 205.392 126.221 205.224C126.221 205.055 126.288 204.894 126.407 204.775C126.526 204.656 126.687 204.589 126.855 204.589H159.898C160.066 204.589 160.227 204.656 160.346 204.775C160.465 204.894 160.532 205.055 160.532 205.224C160.532 205.392 160.465 205.553 160.346 205.672C160.227 205.791 160.066 205.858 159.898 205.858Z" fill="#282928"/>
<path d="M166.684 217.21H122.987C122.818 217.21 122.657 217.144 122.538 217.025C122.419 216.906 122.352 216.744 122.352 216.576C122.352 216.408 122.419 216.247 122.538 216.128C122.657 216.009 122.818 215.942 122.987 215.942H166.684C166.852 215.942 167.014 216.009 167.133 216.128C167.251 216.247 167.318 216.408 167.318 216.576C167.318 216.744 167.251 216.906 167.133 217.025C167.014 217.144 166.852 217.21 166.684 217.21Z" fill="#282928"/>
</svg>
