<svg width="25" height="24" viewBox="0 0 25 24" fill="none" xmlns="http://www.w3.org/2000/svg">
<g clip-path="url(#clip0_532_107470)">
<path d="M19.0764 13.453C18.4162 10.1305 21.5698 8.18184 21.5698 8.18184C21.5698 8.18184 20.3411 6.4042 18.2761 5.94688C16.2121 5.48857 15.1792 6.06119 14.1482 6.49067C13.1162 6.92119 12.6012 6.92119 12.6012 6.92119C11.112 6.92119 10.0233 5.34437 7.18591 6.06224C5.23113 6.55555 3.17331 8.81214 2.80151 11.5054C2.42971 14.1997 3.23204 17.6376 4.77897 20.302C6.3259 22.9685 7.90172 23.9706 9.02018 23.9994C10.1387 24.0272 11.2551 23.1981 12.6012 22.9963C13.9484 22.7964 14.7775 23.4845 16.0988 23.8563C17.4151 24.2271 17.8765 23.8831 19.3925 22.5936C20.9127 21.3041 22.2887 17.6057 22.2887 17.6057C22.2887 17.6057 19.7365 16.7776 19.0764 13.453Z" fill="#75818D"/>
<path d="M16.1535 3.79731C17.616 2.30705 17.1206 0 17.1206 0C17.1206 0 15.067 0.360484 13.691 1.79206C12.316 3.22469 12.5436 5.48743 12.5436 5.48743C12.5436 5.48743 14.691 5.28661 16.1535 3.79731Z" fill="#75818D"/>
</g>
<defs>
<clipPath id="clip0_532_107470">
<rect width="24" height="24" fill="white" transform="translate(0.5)"/>
</clipPath>
</defs>
</svg>
