<svg width="59" height="59" viewBox="0 0 59 59" fill="none" xmlns="http://www.w3.org/2000/svg">
<rect x="0.590332" width="58.2812" height="58.46" rx="29.1406" fill="#FEF0CB"/>
<rect x="42.3374" y="41.875" width="24.6743" height="24.75" rx="5" transform="rotate(-180 42.3374 41.875)" stroke="#CF9709" stroke-opacity="0.976471" stroke-width="2.22" stroke-linecap="round" stroke-linejoin="round"/>
<path d="M42.2039 36.3593L34.3969 28.5277C34.1398 28.2699 33.7911 28.125 33.4276 28.125C33.064 28.125 32.7153 28.2699 32.4583 28.5277L26.5736 34.4303L23.4305 31.2777C22.8952 30.7408 22.0274 30.7407 21.492 31.2776L17.665 35.1154" stroke="#CF9709" stroke-opacity="0.976471" stroke-width="2.22" stroke-linecap="round" stroke-linejoin="round"/>
<path d="M26.33 24.4453L26.3306 24.4447C26.4643 24.3109 26.6807 24.3111 26.8141 24.4451C26.9475 24.5791 26.9474 24.7961 26.8139 24.93C26.6804 25.0639 26.464 25.064 26.3305 24.9302C26.1969 24.7964 26.1967 24.5793 26.33 24.4453" stroke="#CF9709" stroke-opacity="0.976471" stroke-width="2.22" stroke-linecap="round" stroke-linejoin="round"/>
</svg>
