<svg width="25" height="25" viewBox="0 0 25 25" fill="none" xmlns="http://www.w3.org/2000/svg">
<path fill-rule="evenodd" clip-rule="evenodd" d="M8.2488 3.8811H17.2233C19.6958 3.8811 21.7011 5.87314 21.7011 8.33249V17.2521C21.7011 19.7095 19.6968 21.7025 17.2223 21.7025H8.2488C5.77531 21.7025 3.77002 19.7105 3.77002 17.2511V8.33249C3.77002 5.87413 5.77431 3.8811 8.2488 3.8811V3.8811Z" stroke="#FFF9E9" stroke-width="1.48512" stroke-linecap="round" stroke-linejoin="round"/>
<path d="M17.6656 7.55725C17.4803 7.55824 17.3298 7.70774 17.3298 7.8919C17.3298 8.07605 17.4813 8.22555 17.6665 8.22555C17.8518 8.22555 18.0023 8.07605 18.0023 7.8919C18.0033 7.70675 17.8518 7.55725 17.6656 7.55725" stroke="#FFF9E9" stroke-width="1.48512" stroke-linecap="round" stroke-linejoin="round"/>
<path d="M15.2715 10.2715C16.672 11.6634 16.672 13.9202 15.2715 15.3121C13.871 16.7041 11.6003 16.7041 10.1998 15.3121C8.79929 13.9202 8.79929 11.6634 10.1998 10.2715C11.6003 8.87955 13.871 8.87955 15.2715 10.2715" stroke="#FFF9E9" stroke-width="1.48512" stroke-linecap="round" stroke-linejoin="round"/>
</svg>
