<svg width="28" height="29" viewBox="0 0 28 29" fill="none" xmlns="http://www.w3.org/2000/svg">
<path fill-rule="evenodd" clip-rule="evenodd" d="M4.6665 10.5155V23.3441C4.6665 24.2296 5.608 24.7955 6.38617 24.372C8.28667 23.3348 11.0832 21.81 11.0832 21.81C11.0832 21.81 13.8797 23.336 15.7802 24.372C16.5583 24.7955 17.4998 24.2296 17.4998 23.3441V10.5155C17.4998 9.2263 16.4557 8.18213 15.1665 8.18213H6.99984C5.71184 8.18213 4.6665 9.2263 4.6665 10.5155Z" stroke="#323232" stroke-width="1.5" stroke-linecap="round" stroke-linejoin="round"/>
<path d="M10.5 8.18229V5.84896C10.5 4.55979 11.5442 3.51562 12.8333 3.51562H21C22.2892 3.51562 23.3333 4.55979 23.3333 5.84896V18.7325C23.3333 19.618 22.386 20.1803 21.6078 19.7568L17.5 17.5156" stroke="#323232" stroke-width="1.5" stroke-linecap="round" stroke-linejoin="round"/>
</svg>
