<svg width="35" height="35" viewBox="0 0 35 35" fill="none" xmlns="http://www.w3.org/2000/svg">
<path d="M11.9421 6.32886H9.16321C7.62845 6.32886 6.38428 7.57303 6.38428 9.10779V27.1709C6.38428 28.7056 7.62845 29.9498 9.16321 29.9498H17.5" stroke="#CD9403" stroke-width="2.11111" stroke-linecap="round" stroke-linejoin="round"/>
<rect x="11.9419" y="3.54956" width="11.1157" height="5.55787" rx="1.11111" stroke="#CD9403" stroke-width="2.11111" stroke-linecap="round" stroke-linejoin="round"/>
<path d="M23.0576 6.32886H25.8366C27.3713 6.32886 28.6155 7.57303 28.6155 9.10779V16.0551" stroke="#CD9403" stroke-width="2.11111" stroke-linecap="round" stroke-linejoin="round"/>
<path d="M23.0574 14.6654H16.1101" stroke="#CD9403" stroke-width="2.11111" stroke-linecap="round" stroke-linejoin="round"/>
<path d="M18.889 20.2233H16.1101" stroke="#CD9403" stroke-width="2.11111" stroke-linecap="round" stroke-linejoin="round"/>
<path d="M11.942 14.4918C11.8461 14.4918 11.7684 14.5695 11.7684 14.6654C11.7684 14.7614 11.8461 14.8391 11.942 14.8391C12.038 14.8391 12.1157 14.7614 12.1157 14.6654C12.1157 14.5695 12.038 14.4918 11.942 14.4918" stroke="#CD9403" stroke-width="2.11111" stroke-linecap="round" stroke-linejoin="round"/>
<path d="M11.942 20.0496C11.8461 20.0496 11.7684 20.1274 11.7684 20.2233C11.7684 20.3192 11.8461 20.397 11.942 20.397C12.038 20.397 12.1157 20.3192 12.1157 20.2233C12.1157 20.1274 12.038 20.0496 11.942 20.0496" stroke="#CD9403" stroke-width="2.11111" stroke-linecap="round" stroke-linejoin="round"/>
<path fill-rule="evenodd" clip-rule="evenodd" d="M25.8367 20.2234C25.8367 23.2929 23.3483 25.7813 20.2788 25.7813C23.3483 25.7813 25.8367 28.2696 25.8367 31.3391C25.8367 28.2696 28.325 25.7813 31.3945 25.7813C28.325 25.7813 25.8367 23.2929 25.8367 20.2234Z" stroke="#CD9403" stroke-width="2.11111" stroke-linecap="round" stroke-linejoin="round"/>
</svg>
