<svg width="28" height="29" viewBox="0 0 28 29" fill="none" xmlns="http://www.w3.org/2000/svg">
<path d="M17.5365 10.9147C17.5365 10.6732 17.3405 10.4784 17.099 10.4784C16.8575 10.4795 16.6615 10.6755 16.6615 10.917C16.6615 11.1585 16.8575 11.3545 17.099 11.3534C17.3405 11.3534 17.5365 11.1574 17.5365 10.9159" stroke="#323232" stroke-width="1.5" stroke-linecap="round" stroke-linejoin="round"/>
<path fill-rule="evenodd" clip-rule="evenodd" d="M14.5823 17.2647L13.3807 18.4687H11.2433V20.1825H9.53416V22.3245L7.93116 23.9322H4.0835V20.0763L10.7603 13.3843C9.82 10.9413 10.324 8.069 12.2898 6.0985C14.9498 3.43266 19.263 3.43266 21.923 6.0985C24.583 8.76433 24.583 13.0868 21.923 15.7538C19.9373 17.7418 17.0347 18.2435 14.5823 17.2647Z" stroke="#323232" stroke-width="1.5" stroke-linecap="round" stroke-linejoin="round"/>
</svg>
