<svg width="47" height="42" viewBox="0 0 47 42" fill="none" xmlns="http://www.w3.org/2000/svg">
<circle cx="21.25" cy="20.625" r="20.625" fill="#FFC226"/>
<path d="M29.3564 18.0916L27.212 18.91" stroke="#282928" stroke-width="1.332" stroke-linecap="round" stroke-linejoin="round"/>
<path d="M15.1396 18.91L12.9871 18.0916" stroke="#282928" stroke-width="1.332" stroke-linecap="round" stroke-linejoin="round"/>
<path d="M26.2872 22.1836H24.241" stroke="#282928" stroke-width="1.332" stroke-linecap="round" stroke-linejoin="round"/>
<path d="M18.1025 22.1836H16.0563" stroke="#282928" stroke-width="1.332" stroke-linecap="round" stroke-linejoin="round"/>
<path d="M27.2113 18.9098L26.5246 15.6261C26.3257 14.6784 25.49 13.999 24.521 13.999H17.9077C16.9575 13.999 16.1316 14.6538 15.9156 15.5795L15.1372 18.9098" stroke="#282928" stroke-width="1.332" stroke-linecap="round" stroke-linejoin="round"/>
<path fill-rule="evenodd" clip-rule="evenodd" d="M14.0101 27.0946H15.8517C16.5294 27.0946 17.0794 26.5446 17.0794 25.8669V25.0484H25.2641V25.8669C25.2641 26.5446 25.8141 27.0946 26.4918 27.0946H28.3333C28.8981 27.0946 29.3564 26.6363 29.3564 26.0715V21.3653C29.3564 20.0091 28.2572 18.9099 26.901 18.9099H15.4425C14.0863 18.9099 12.9871 20.0091 12.9871 21.3653V26.0715C12.9871 26.6363 13.4454 27.0946 14.0101 27.0946Z" stroke="#282928" stroke-width="1.332" stroke-linecap="round" stroke-linejoin="round"/>
<circle cx="39" cy="9" r="8" fill="#FF5F05"/>
<path d="M36.3693 12.2V7.1816H35.2568V6.40356H37.2797V12.2H36.3693ZM38.9104 12.2L40.8944 9.63242L41.05 9.73357C40.9774 9.81137 40.897 9.87361 40.8089 9.9203C40.7259 9.96698 40.6351 10.0007 40.5365 10.0214C40.4432 10.0422 40.342 10.0526 40.2331 10.0526C39.8856 10.0526 39.5744 9.97476 39.2995 9.81915C39.0245 9.65836 38.8067 9.44051 38.6459 9.1656C38.4903 8.8855 38.4125 8.5691 38.4125 8.21639C38.4125 7.84812 38.4981 7.52134 38.6692 7.23606C38.8404 6.95078 39.0738 6.72515 39.3695 6.55917C39.6651 6.39319 40.0023 6.31019 40.3809 6.31019C40.7648 6.31019 41.1019 6.39319 41.3924 6.55917C41.688 6.72515 41.9189 6.95337 42.0848 7.24384C42.256 7.52912 42.3416 7.8559 42.3416 8.22417C42.3416 8.42127 42.3208 8.61578 42.2793 8.8077C42.2379 8.99962 42.1652 9.19931 42.0615 9.40679C41.9578 9.60908 41.8125 9.83212 41.6258 10.0759L40.0075 12.2H38.9104ZM40.3809 9.2823C40.5832 9.2823 40.7622 9.23562 40.9178 9.14226C41.0734 9.04889 41.1979 8.92181 41.2912 8.76102C41.3846 8.60022 41.4313 8.41609 41.4313 8.20861C41.4313 7.99595 41.3846 7.80922 41.2912 7.64842C41.1979 7.48244 41.0708 7.35536 40.91 7.26718C40.7544 7.17382 40.578 7.12714 40.3809 7.12714C40.1838 7.12714 40.0049 7.17382 39.8441 7.26718C39.6885 7.35536 39.564 7.48244 39.4706 7.64842C39.3773 7.80922 39.3306 7.99595 39.3306 8.20861C39.3306 8.41609 39.3747 8.60022 39.4628 8.76102C39.5562 8.92181 39.6833 9.04889 39.8441 9.14226C40.0049 9.23562 40.1838 9.2823 40.3809 9.2823Z" fill="white"/>
</svg>
