<svg width="46" height="42" viewBox="0 0 46 42" fill="none" xmlns="http://www.w3.org/2000/svg">
<circle cx="21.05" cy="20.625" r="20.625" fill="#FFC226"/>
<path fill-rule="evenodd" clip-rule="evenodd" d="M14.0118 25.4533H14.585C15.5467 25.4537 16.4868 25.7386 17.287 26.2721V26.2721C18.0872 26.8055 19.0274 27.0904 19.9891 27.0909H21.9542C22.916 27.0904 23.8561 26.8055 24.6563 26.2721V26.2721C25.4565 25.7386 26.3966 25.4537 27.3584 25.4533H27.9315C28.6099 25.4533 29.1598 24.9034 29.1598 24.225V24.225C29.1598 23.5467 28.6099 22.9968 27.9315 22.9968H14.0118C13.3335 22.9968 12.7836 23.5467 12.7836 24.225V24.225C12.7836 24.9034 13.3335 25.4533 14.0118 25.4533Z" stroke="#282928" stroke-width="1.332" stroke-linecap="round" stroke-linejoin="round"/>
<path d="M16.8776 14.6448V16.4461C16.8776 17.1245 17.4275 17.6744 18.1058 17.6744V17.6744C18.7842 17.6744 19.3341 17.1245 19.3341 16.4461V14.8085C19.3341 13.9041 20.0672 13.1709 20.9717 13.1709V13.1709C21.8761 13.1709 22.6093 13.9041 22.6093 14.8085V16.4461C22.6093 17.1245 23.1592 17.6744 23.8375 17.6744V17.6744C24.5158 17.6744 25.0657 17.1245 25.0657 16.4461V14.6448" stroke="#282928" stroke-width="1.332" stroke-linecap="round" stroke-linejoin="round"/>
<path d="M22.3898 13.9897H22.6093C25.3226 13.9897 27.5221 16.1893 27.5221 18.9026V22.9967" stroke="#282928" stroke-width="1.332" stroke-linecap="round" stroke-linejoin="round"/>
<path d="M19.5535 13.9897H19.3341C16.6208 13.9897 14.4212 16.1893 14.4212 18.9026V22.9967" stroke="#282928" stroke-width="1.332" stroke-linecap="round" stroke-linejoin="round"/>
<circle cx="38" cy="9" r="8" fill="#FF5F05"/>
<path d="M36.2797 12.2933C35.9684 12.2933 35.6754 12.2363 35.4005 12.1221C35.1308 12.008 34.8973 11.8472 34.7002 11.6398C34.5083 11.4323 34.3709 11.1885 34.2879 10.9084L35.0659 10.6128C35.1697 10.8877 35.3279 11.1003 35.5405 11.2507C35.7532 11.4012 35.9996 11.4764 36.2797 11.4764C36.5079 11.4764 36.705 11.4323 36.871 11.3441C37.0421 11.2559 37.1744 11.1314 37.2678 10.9706C37.3663 10.8099 37.4156 10.6153 37.4156 10.3871C37.4156 10.1641 37.3663 9.97217 37.2678 9.81137C37.1744 9.65058 37.0421 9.52868 36.871 9.44569C36.705 9.3627 36.5079 9.32121 36.2797 9.32121C36.1863 9.32121 36.0903 9.32899 35.9918 9.34455C35.8984 9.36011 35.8154 9.38086 35.7428 9.40679L35.5405 8.97887L37.0655 7.1816H34.5991V6.40356H38.0925V7.1427L36.5987 8.93219L36.5753 8.63653C36.9228 8.64172 37.2289 8.71952 37.4934 8.86994C37.7579 9.01518 37.9628 9.21747 38.108 9.47681C38.2585 9.73097 38.3337 10.0266 38.3337 10.3638C38.3337 10.7269 38.2455 11.0562 38.0691 11.3519C37.8928 11.6424 37.649 11.8732 37.3378 12.0443C37.0318 12.2103 36.679 12.2933 36.2797 12.2933ZM41.036 12.2933C40.7248 12.2933 40.4318 12.2363 40.1568 12.1221C39.8871 12.008 39.6537 11.8472 39.4566 11.6398C39.2647 11.4323 39.1272 11.1885 39.0442 10.9084L39.8223 10.6128C39.926 10.8877 40.0842 11.1003 40.2969 11.2507C40.5096 11.4012 40.7559 11.4764 41.036 11.4764C41.2643 11.4764 41.4614 11.4323 41.6273 11.3441C41.7985 11.2559 41.9308 11.1314 42.0241 10.9706C42.1227 10.8099 42.172 10.6153 42.172 10.3871C42.172 10.1641 42.1227 9.97217 42.0241 9.81137C41.9308 9.65058 41.7985 9.52868 41.6273 9.44569C41.4614 9.3627 41.2643 9.32121 41.036 9.32121C40.9427 9.32121 40.8467 9.32899 40.7482 9.34455C40.6548 9.36011 40.5718 9.38086 40.4992 9.40679L40.2969 8.97887L41.8218 7.1816H39.3555V6.40356H42.8489V7.1427L41.355 8.93219L41.3317 8.63653C41.6792 8.64172 41.9852 8.71952 42.2498 8.86994C42.5143 9.01518 42.7192 9.21747 42.8644 9.47681C43.0148 9.73097 43.0901 10.0266 43.0901 10.3638C43.0901 10.7269 43.0019 11.0562 42.8255 11.3519C42.6492 11.6424 42.4054 11.8732 42.0942 12.0443C41.7881 12.2103 41.4354 12.2933 41.036 12.2933Z" fill="white"/>
</svg>
