<svg width="47" height="42" viewBox="0 0 47 42" fill="none" xmlns="http://www.w3.org/2000/svg">
<circle cx="21.3751" cy="20.625" r="20.625" fill="#FFCC35"/>
<path d="M26.6842 17.4822H27.5526C28.2565 17.4822 28.8261 18.0518 28.8261 18.7557V26.8494C28.8261 27.5524 28.2565 28.1221 27.5526 28.1221H18.6413C17.9374 28.1221 17.3678 27.5524 17.3678 26.8485V25.6667" stroke="black" stroke-width="1.30952" stroke-linecap="round" stroke-linejoin="round"/>
<path fill-rule="evenodd" clip-rule="evenodd" d="M14.7496 25.3394H24.0079C24.5554 25.3394 25.0661 25.0661 25.3698 24.6102L25.9705 23.7083C26.329 23.1705 26.5205 22.5387 26.5205 21.8921V15.518C26.5205 14.6136 25.788 13.8811 24.8836 13.8811H16.6991C15.7947 13.8811 15.0622 14.6136 15.0622 15.518V21.293C15.0622 21.8013 14.9435 22.3022 14.7168 22.7572L14.0179 24.1551C13.7453 24.6994 14.1414 25.3394 14.7496 25.3394Z" stroke="black" stroke-width="1.30952" stroke-linecap="round" stroke-linejoin="round"/>
<path d="M18.3335 13.0625V14.6994" stroke="black" stroke-width="1.30952" stroke-linecap="round" stroke-linejoin="round"/>
<path d="M23.2443 13.0625V14.6994" stroke="black" stroke-width="1.30952" stroke-linecap="round" stroke-linejoin="round"/>
<path d="M18.1781 17.9732H23.0888" stroke="black" stroke-width="1.30952" stroke-linecap="round" stroke-linejoin="round"/>
<path d="M18.1781 21.2471H23.0888" stroke="black" stroke-width="1.30952" stroke-linecap="round" stroke-linejoin="round"/>
<circle cx="39" cy="9" r="8" fill="#FF5F05"/>
<path d="M36.3693 12.2V7.1816H35.2568V6.40356H37.2797V12.2H36.3693ZM40.3732 12.2933C40.0671 12.2933 39.7792 12.2389 39.5095 12.1299C39.2398 12.0158 39.0064 11.8576 38.8093 11.6553C38.6122 11.453 38.4721 11.2092 38.3892 10.924L39.1594 10.6283C39.258 10.9032 39.4188 11.1133 39.6418 11.2585C39.8648 11.4038 40.1086 11.4764 40.3732 11.4764C40.591 11.4764 40.7829 11.4271 40.9489 11.3285C41.1149 11.23 41.2446 11.0951 41.3379 10.924C41.4365 10.7528 41.4857 10.5583 41.4857 10.3404C41.4857 10.1174 41.4365 9.92289 41.3379 9.75691C41.2446 9.58574 41.1149 9.45347 40.9489 9.36011C40.7829 9.26156 40.591 9.21228 40.3732 9.21228C40.1553 9.21228 39.9556 9.26156 39.7741 9.36011C39.5925 9.45866 39.4603 9.59093 39.3773 9.75691L38.6381 9.59352L39.0894 6.40356H42.1782V7.1816H39.4473L39.7974 6.80036L39.4628 9.2434L39.175 9.04889C39.3306 8.83104 39.5199 8.67284 39.7429 8.57429C39.966 8.47574 40.2201 8.42646 40.5054 8.42646C40.8841 8.42646 41.2134 8.51205 41.4935 8.68321C41.7788 8.8492 41.9993 9.07742 42.1549 9.36789C42.3157 9.65317 42.3961 9.97735 42.3961 10.3404C42.3961 10.7087 42.3079 11.0407 42.1315 11.3363C41.9552 11.632 41.714 11.8654 41.4079 12.0366C41.1071 12.2077 40.7622 12.2933 40.3732 12.2933Z" fill="white"/>
</svg>
