<svg width="47" height="42" viewBox="0 0 47 42" fill="none" xmlns="http://www.w3.org/2000/svg">
<circle cx="21.25" cy="20.625" r="20.625" fill="#FBBC1B" fill-opacity="0.9"/>
<path d="M29.3565 18.0916L27.2121 18.91" stroke="#282928" stroke-width="1.332" stroke-linecap="round" stroke-linejoin="round"/>
<path d="M15.1396 18.91L12.9871 18.0916" stroke="#282928" stroke-width="1.332" stroke-linecap="round" stroke-linejoin="round"/>
<path d="M26.2871 22.1836H24.241" stroke="#282928" stroke-width="1.332" stroke-linecap="round" stroke-linejoin="round"/>
<path d="M18.1024 22.1836H16.0562" stroke="#282928" stroke-width="1.332" stroke-linecap="round" stroke-linejoin="round"/>
<path d="M27.2113 18.9098L26.5246 15.6261C26.3257 14.6784 25.49 13.999 24.521 13.999H17.9077C16.9575 13.999 16.1316 14.6538 15.9156 15.5795L15.1372 18.9098" stroke="#282928" stroke-width="1.332" stroke-linecap="round" stroke-linejoin="round"/>
<path fill-rule="evenodd" clip-rule="evenodd" d="M14.0101 27.0946H15.8517C16.5294 27.0946 17.0794 26.5446 17.0794 25.8669V25.0484H25.2641V25.8669C25.2641 26.5446 25.8141 27.0946 26.4918 27.0946H28.3333C28.8981 27.0946 29.3564 26.6363 29.3564 26.0715V21.3653C29.3564 20.0091 28.2572 18.9099 26.901 18.9099H15.4425C14.0863 18.9099 12.9871 20.0091 12.9871 21.3653V26.0715C12.9871 26.6363 13.4454 27.0946 14.0101 27.0946Z" stroke="#282928" stroke-width="1.332" stroke-linecap="round" stroke-linejoin="round"/>
<circle cx="39" cy="9" r="8" fill="#FF5F05"/>
<path d="M36.3693 12.2V7.1816H35.2568V6.40356H37.2797V12.2H36.3693ZM40.3732 12.2933C40.0671 12.2933 39.7792 12.2389 39.5095 12.1299C39.2398 12.0158 39.0064 11.8576 38.8093 11.6553C38.6122 11.453 38.4721 11.2092 38.3892 10.924L39.1594 10.6283C39.258 10.9032 39.4188 11.1133 39.6418 11.2585C39.8648 11.4038 40.1086 11.4764 40.3732 11.4764C40.591 11.4764 40.7829 11.4271 40.9489 11.3285C41.1149 11.23 41.2446 11.0951 41.3379 10.924C41.4365 10.7528 41.4857 10.5583 41.4857 10.3404C41.4857 10.1174 41.4365 9.92289 41.3379 9.75691C41.2446 9.58574 41.1149 9.45347 40.9489 9.36011C40.7829 9.26156 40.591 9.21228 40.3732 9.21228C40.1553 9.21228 39.9556 9.26156 39.7741 9.36011C39.5925 9.45866 39.4603 9.59093 39.3773 9.75691L38.6381 9.59352L39.0894 6.40356H42.1782V7.1816H39.4473L39.7974 6.80036L39.4628 9.2434L39.175 9.04889C39.3306 8.83104 39.5199 8.67284 39.7429 8.57429C39.966 8.47574 40.2201 8.42646 40.5054 8.42646C40.8841 8.42646 41.2134 8.51205 41.4935 8.68321C41.7788 8.8492 41.9993 9.07742 42.1549 9.36789C42.3157 9.65317 42.3961 9.97735 42.3961 10.3404C42.3961 10.7087 42.3079 11.0407 42.1315 11.3363C41.9552 11.632 41.714 11.8654 41.4079 12.0366C41.1071 12.2077 40.7622 12.2933 40.3732 12.2933Z" fill="white"/>
</svg>
