<svg width="37" height="32" viewBox="0 0 37 32" fill="none" xmlns="http://www.w3.org/2000/svg">
<circle cx="16.8146" cy="15.95" r="15.95" fill="#FBBC1B" fill-opacity="0.9"/>
<path d="M19.9184 20.948V10.1879C19.9184 9.83849 19.6348 9.55493 19.2854 9.55493H14.2218C13.8724 9.55493 13.5889 9.83849 13.5889 10.1879V20.948" stroke="#282928" stroke-width="0.950841" stroke-linecap="round" stroke-linejoin="round"/>
<path d="M13.5889 13.3525H11.0571C10.7078 13.3525 10.4242 13.6361 10.4242 13.9855V20.9479" stroke="#282928" stroke-width="0.950841" stroke-linecap="round" stroke-linejoin="round"/>
<path d="M23.0832 20.9479V13.9855C23.0832 13.6361 22.7996 13.3525 22.4503 13.3525H19.9185" stroke="#282928" stroke-width="0.950841" stroke-linecap="round" stroke-linejoin="round"/>
<path d="M15.1714 18.4161H18.3361" stroke="#282928" stroke-width="0.950841" stroke-linecap="round" stroke-linejoin="round"/>
<path d="M17.7031 18.4163V20.9481" stroke="#282928" stroke-width="0.950841" stroke-linecap="round" stroke-linejoin="round"/>
<path d="M15.8043 20.9481V18.4163" stroke="#282928" stroke-width="0.950841" stroke-linecap="round" stroke-linejoin="round"/>
<path d="M15.4878 14.3021H18.0196" stroke="#282928" stroke-width="0.950841" stroke-linecap="round" stroke-linejoin="round"/>
<path d="M15.4878 16.2008H18.0196" stroke="#282928" stroke-width="0.950841" stroke-linecap="round" stroke-linejoin="round"/>
<path d="M15.4878 12.4031H18.0196" stroke="#282928" stroke-width="0.950841" stroke-linecap="round" stroke-linejoin="round"/>
<path d="M12.323 16.2008H13.5889" stroke="#282928" stroke-width="0.950841" stroke-linecap="round" stroke-linejoin="round"/>
<path d="M12.323 18.4161H13.5889" stroke="#282928" stroke-width="0.950841" stroke-linecap="round" stroke-linejoin="round"/>
<path d="M19.9185 16.2008H21.1844" stroke="#282928" stroke-width="0.950841" stroke-linecap="round" stroke-linejoin="round"/>
<path d="M19.9185 18.4161H21.1844" stroke="#282928" stroke-width="0.950841" stroke-linecap="round" stroke-linejoin="round"/>
<path d="M23.7161 20.9478H9.79126" stroke="#282928" stroke-width="0.950841" stroke-linecap="round" stroke-linejoin="round"/>
<circle cx="30.3865" cy="6.9601" r="6.18667" fill="#FF5F05"/>
<path d="M28.3522 9.24805V5.36719H27.4918V4.7655H29.0561V9.24805H28.3522ZM31.4484 9.32025C31.2118 9.32025 30.9892 9.27813 30.7806 9.1939C30.572 9.10565 30.3915 8.98331 30.2391 8.82687C30.0866 8.67043 29.9783 8.4819 29.9142 8.26129L30.5098 8.03265C30.586 8.24524 30.7104 8.4077 30.8829 8.52001C31.0553 8.63232 31.2439 8.68848 31.4484 8.68848C31.6169 8.68848 31.7653 8.65037 31.8937 8.57416C32.0221 8.49795 32.1223 8.39366 32.1945 8.26129C32.2708 8.12892 32.3089 7.97849 32.3089 7.81002C32.3089 7.63754 32.2708 7.48712 32.1945 7.35876C32.1223 7.22639 32.0221 7.1241 31.8937 7.0519C31.7653 6.97569 31.6169 6.93758 31.4484 6.93758C31.28 6.93758 31.1255 6.97569 30.9852 7.0519C30.8448 7.12811 30.7425 7.2304 30.6783 7.35876L30.1067 7.23241L30.4557 4.7655H32.8444V5.36719H30.7324L31.0032 5.07236L30.7445 6.96165L30.5219 6.81123C30.6422 6.64276 30.7886 6.52041 30.9611 6.4442C31.1336 6.36799 31.3301 6.32988 31.5507 6.32988C31.8436 6.32988 32.0983 6.39607 32.3149 6.52844C32.5355 6.6568 32.706 6.83329 32.8263 7.05792C32.9507 7.27854 33.0128 7.52924 33.0128 7.81002C33.0128 8.09482 32.9446 8.35154 32.8083 8.58018C32.6719 8.80882 32.4854 8.98932 32.2487 9.12169C32.016 9.25406 31.7493 9.32025 31.4484 9.32025Z" fill="white"/>
</svg>
