<svg width="327" height="327" viewBox="0 0 327 327" fill="none" xmlns="http://www.w3.org/2000/svg">
<path d="M269.301 256.432H150.9C146.351 256.432 141.988 254.627 138.768 251.413C135.549 248.2 133.735 243.84 133.726 239.292V40.0638C133.726 35.5091 135.536 31.1409 138.756 27.9202C141.977 24.6995 146.345 22.8901 150.9 22.8901H269.301C273.85 22.899 278.209 24.7123 281.423 27.932C284.636 31.1518 286.441 35.5149 286.441 40.0638V239.292C286.432 243.835 284.623 248.189 281.411 251.402C278.198 254.614 273.844 256.423 269.301 256.432ZM150.9 24.2345C146.702 24.2345 142.676 25.9022 139.707 28.8708C136.738 31.8393 135.071 35.8656 135.071 40.0638V239.292C135.08 243.484 136.751 247.502 139.719 250.463C142.686 253.424 146.708 255.087 150.9 255.087H269.301C273.487 255.078 277.5 253.411 280.46 250.451C283.421 247.491 285.088 243.478 285.096 239.292V40.0638C285.096 35.8714 283.433 31.8502 280.472 28.8826C277.511 25.915 273.493 24.2434 269.301 24.2345H150.9Z" fill="#282928"/>
<path d="M214.049 248.735H206.151C204.165 248.735 202.555 250.345 202.555 252.331V272.254C202.555 274.24 204.165 275.85 206.151 275.85H214.049C216.035 275.85 217.645 274.24 217.645 272.254V252.331C217.645 250.345 216.035 248.735 214.049 248.735Z" fill="white"/>
<path d="M214.049 276.529H206.151C205.019 276.529 203.934 276.079 203.133 275.279C202.333 274.478 201.883 273.393 201.883 272.261V252.331C201.883 251.199 202.333 250.114 203.133 249.313C203.934 248.513 205.019 248.063 206.151 248.063H214.049C215.181 248.063 216.267 248.513 217.067 249.313C217.868 250.114 218.317 251.199 218.317 252.331V272.261C218.317 273.393 217.868 274.478 217.067 275.279C216.267 276.079 215.181 276.529 214.049 276.529ZM206.151 249.407C205.767 249.407 205.387 249.483 205.032 249.63C204.678 249.777 204.355 249.992 204.084 250.264C203.812 250.535 203.597 250.858 203.45 251.212C203.303 251.567 203.227 251.947 203.227 252.331V272.261C203.227 273.036 203.535 273.78 204.084 274.328C204.632 274.877 205.376 275.185 206.151 275.185H214.049C214.433 275.185 214.813 275.109 215.168 274.962C215.523 274.815 215.845 274.6 216.117 274.328C216.388 274.057 216.604 273.734 216.75 273.38C216.897 273.025 216.973 272.645 216.973 272.261V252.331C216.973 251.947 216.897 251.567 216.75 251.212C216.604 250.858 216.388 250.535 216.117 250.264C215.845 249.992 215.523 249.777 215.168 249.63C214.813 249.483 214.433 249.407 214.049 249.407H206.151Z" fill="#282928"/>
<path d="M198.758 69.4033H154.496C151.935 69.4033 149.858 71.4798 149.858 74.0412V125.518C149.858 128.08 151.935 130.156 154.496 130.156H198.758C201.319 130.156 203.396 128.08 203.396 125.518V74.0412C203.396 71.4798 201.319 69.4033 198.758 69.4033Z" fill="#FBBC1B"/>
<path d="M158.596 92.1893C159.873 90.9122 164.847 86.2407 170.46 86.0055C170.626 86.0024 170.788 86.0581 170.917 86.1626C171.046 86.2671 171.134 86.4137 171.166 86.5768C171.401 88.0891 172.376 91.9204 176.24 91.1139C177.476 90.8892 178.625 90.3279 179.562 89.4918C180.499 88.6557 181.187 87.5772 181.551 86.3751C181.603 86.2249 181.704 86.0966 181.838 86.0112C181.973 85.9258 182.132 85.8883 182.29 85.9046C183.634 86.0391 186.995 86.5096 188.339 88.0555C189.684 89.6015 192.675 91.8532 193.817 92.6934C193.95 92.7826 194.047 92.9162 194.09 93.0702C194.133 93.2242 194.12 93.3885 194.053 93.5336L192.003 97.8018C191.924 97.9474 191.797 98.0608 191.643 98.1223C191.49 98.1837 191.32 98.1892 191.162 98.1379L187.432 97.0961C187.323 97.0604 187.206 97.0531 187.094 97.0751C186.981 97.0971 186.876 97.1476 186.789 97.2217C186.701 97.2958 186.634 97.3912 186.593 97.4986C186.553 97.606 186.541 97.722 186.558 97.8354L188.003 118.572C188.012 118.667 188.002 118.763 187.973 118.855C187.944 118.946 187.896 119.03 187.833 119.103C187.77 119.175 187.693 119.234 187.607 119.275C187.521 119.317 187.427 119.34 187.331 119.345H166.259C166.163 119.345 166.069 119.325 165.981 119.288C165.893 119.25 165.814 119.195 165.748 119.126C165.682 119.057 165.63 118.975 165.597 118.886C165.563 118.796 165.549 118.701 165.553 118.605L166.091 97.1633C166.091 97.0441 166.061 96.9269 166.004 96.8225C165.946 96.7181 165.863 96.6299 165.763 96.5662C165.662 96.5024 165.547 96.4652 165.428 96.4579C165.309 96.4507 165.19 96.4737 165.083 96.5247L161.352 98.3732C161.268 98.4233 161.174 98.4536 161.077 98.4616C160.98 98.4696 160.882 98.4553 160.791 98.4196C160.7 98.3838 160.618 98.3278 160.553 98.2556C160.487 98.1835 160.438 98.0972 160.411 98.0035L158.462 92.9287C158.408 92.8061 158.392 92.6702 158.416 92.5385C158.44 92.4067 158.503 92.2852 158.596 92.1893Z" fill="#282928"/>
<path d="M145.22 111.615C145.22 111.615 149.858 103.885 152.782 102.877C155.706 101.868 162.898 94.4411 159.806 93.0631C159.806 93.0631 158.966 91.3491 158.428 91.0131C157.89 90.677 155.639 88.4925 155.639 88.4925C155.639 88.4925 157.756 82.9472 156.714 83.2832C155.672 83.6193 149.186 92.8951 149.186 92.8951L147.472 88.6269C147.472 88.6269 144.716 95.987 145.724 100.289L142.296 106.977L145.22 111.615Z" fill="white"/>
<path d="M245.036 118.874C238.617 118.874 231.861 118.504 228.467 118C227.807 117.918 227.172 117.692 226.609 117.338C226.045 116.984 225.567 116.51 225.207 115.95C221.981 111.346 223.796 100.49 224.703 96.0206C224.792 95.5984 225.018 95.2176 225.346 94.9378C225.675 94.6581 226.087 94.4952 226.518 94.4746L253.27 93.3992C253.734 93.3841 254.193 93.5069 254.587 93.7521C254.982 93.9974 255.295 94.354 255.488 94.7771C256.429 96.8608 258.849 101.969 260.798 104.591C262.109 106.338 262.781 108.792 262.646 111.312C262.512 113.833 261.604 116.051 260.092 117.16C258.58 118.269 251.892 118.874 245.036 118.874ZM226.585 95.819C226.451 95.8231 226.322 95.8715 226.219 95.9566C226.116 96.0418 226.043 96.1589 226.014 96.2895C224.602 103.179 223.896 111.783 226.283 115.177C226.556 115.579 226.909 115.92 227.319 116.18C227.73 116.44 228.189 116.613 228.669 116.689C236.936 117.866 256.765 117.967 259.285 116.085C260.462 115.211 261.201 113.396 261.302 111.245C261.403 109.094 260.831 106.876 259.722 105.397C257.672 102.675 255.219 97.4657 254.244 95.3148C254.165 95.1413 254.038 94.9947 253.876 94.8932C253.715 94.7916 253.527 94.7396 253.337 94.7435L226.585 95.819Z" fill="#282928"/>
<path d="M233.407 95.5502C233.251 95.5441 233.102 95.4837 232.985 95.3794C232.869 95.2752 232.792 95.1335 232.769 94.9788C232.735 94.9116 231.592 87.9212 238.079 85.0309C241.809 83.3841 244.431 83.1825 246.346 84.3923C248.262 85.6022 249.64 88.9294 249.774 94.0714C249.774 94.2497 249.703 94.4207 249.577 94.5467C249.451 94.6728 249.28 94.7436 249.102 94.7436C249.015 94.7482 248.929 94.735 248.847 94.705C248.766 94.6749 248.692 94.6286 248.629 94.5689C248.566 94.5091 248.516 94.4372 248.482 94.3574C248.447 94.2777 248.43 94.1918 248.43 94.105C248.296 89.5007 247.355 86.6105 245.641 85.535C243.927 84.4596 241.91 84.8293 238.65 86.2744C233.105 88.7278 234.046 94.5083 234.079 94.7436C234.109 94.9172 234.069 95.0954 233.968 95.24C233.868 95.3845 233.715 95.4838 233.542 95.5166L233.407 95.5502Z" fill="#282928"/>
<path d="M236.869 95.416L236.634 95.3488C236.469 95.2816 236.338 95.152 236.268 94.9882C236.199 94.8244 236.198 94.6399 236.264 94.4749C236.432 94.0717 240.297 84.9303 247.254 85.8377C249.304 86.1066 250.749 86.9468 251.589 88.3247C253.068 90.8453 251.825 94.1725 251.791 94.3069C251.761 94.3914 251.714 94.4691 251.654 94.5354C251.594 94.6017 251.52 94.6552 251.439 94.6927C251.358 94.7303 251.27 94.7512 251.18 94.7542C251.09 94.7572 251.001 94.7423 250.917 94.7102C250.833 94.6803 250.755 94.6337 250.689 94.5733C250.622 94.5128 250.569 94.4397 250.531 94.3583C250.494 94.2769 250.473 94.1887 250.47 94.0991C250.467 94.0095 250.482 93.9202 250.514 93.8364C250.547 93.8028 251.589 90.9461 250.413 88.9969C249.808 87.9886 248.699 87.3837 247.086 87.182C241.137 86.4091 237.541 94.9119 237.508 94.9791C237.455 95.1062 237.367 95.2152 237.254 95.2928C237.14 95.3704 237.006 95.4132 236.869 95.416Z" fill="#282928"/>
<path d="M230.315 100.927C229.807 100.919 229.321 100.715 228.958 100.359C228.595 100.002 228.383 99.5199 228.366 99.0115C228.357 98.7555 228.399 98.5002 228.489 98.2602C228.578 98.0203 228.714 97.8004 228.889 97.6131C229.064 97.4259 229.274 97.2749 229.507 97.1688C229.74 97.0627 229.992 97.0037 230.248 96.995L247.489 96.5581C248.007 96.5575 248.505 96.756 248.88 97.1126C249.256 97.4693 249.48 97.9566 249.506 98.4738C249.51 98.7297 249.464 98.9841 249.37 99.2223C249.276 99.4605 249.136 99.6779 248.959 99.862C248.781 100.046 248.568 100.193 248.333 100.295C248.099 100.397 247.846 100.452 247.59 100.457L230.349 100.927H230.315ZM247.523 97.9024L230.282 98.3393C230.133 98.3715 229.994 98.4409 229.879 98.541C229.774 98.6632 229.715 98.8174 229.711 98.9779C229.719 99.1357 229.785 99.2849 229.897 99.3966C230.008 99.5084 230.158 99.5747 230.315 99.5828L247.556 99.1123C247.717 99.1123 247.871 99.0486 247.984 98.9351C248.098 98.8217 248.161 98.6678 248.161 98.5074C248.153 98.3439 248.082 98.19 247.963 98.0774C247.844 97.9648 247.686 97.9022 247.523 97.9024Z" fill="#282928"/>
<path d="M257.538 117.731C257.419 117.73 257.302 117.695 257.202 117.63C251.925 114.303 250.346 107.918 252.497 98.6756C252.551 98.4877 252.596 98.297 252.631 98.1043C252.639 97.9287 252.713 97.7624 252.837 97.6381C252.961 97.5138 253.128 97.4403 253.303 97.4321C253.481 97.4321 253.652 97.5029 253.778 97.629C253.905 97.7551 253.975 97.926 253.975 98.1043C253.954 98.4011 253.897 98.6944 253.807 98.9781C251.791 107.582 253.169 113.497 257.907 116.488C258.054 116.59 258.156 116.744 258.194 116.919C258.231 117.093 258.201 117.276 258.109 117.429C258.047 117.523 257.962 117.6 257.862 117.653C257.762 117.706 257.651 117.733 257.538 117.731Z" fill="#282928"/>
<path d="M187.835 192.744C186.953 192.744 186.106 192.393 185.482 191.769C184.858 191.146 184.508 190.299 184.508 189.417V189.114C184.512 188.853 184.464 188.593 184.366 188.35C184.268 188.108 184.122 187.887 183.937 187.702C183.752 187.517 183.532 187.371 183.289 187.273C183.047 187.175 182.787 187.127 182.525 187.131H181.886C181.716 187.121 181.544 187.144 181.382 187.199L174.459 190.022L172.006 190.795C170.426 191.265 168.645 191.837 167.637 192.072C164.646 192.71 157.823 192.307 157.017 192.24C155.672 192.408 154.429 191.601 153.79 190.156C153.152 188.711 153.185 186.963 154.53 185.888L154.866 185.686C155.84 185.317 164.545 181.889 169.62 178.36C170.518 177.719 171.25 176.872 171.753 175.889C172.256 174.907 172.516 173.818 172.51 172.714V159.439C172.51 159.082 172.651 158.74 172.904 158.488C173.156 158.236 173.498 158.094 173.854 158.094H190.188C190.538 158.103 190.872 158.249 191.117 158.5C191.361 158.751 191.498 159.088 191.498 159.439V181.452H191.465L191.162 189.551C191.136 190.413 190.773 191.23 190.151 191.827C189.529 192.424 188.697 192.753 187.835 192.744ZM181.886 185.787H182.525C183.407 185.787 184.254 186.138 184.878 186.762C185.502 187.386 185.852 188.232 185.852 189.114V189.417C185.843 189.943 186.044 190.451 186.409 190.829C186.775 191.207 187.276 191.424 187.801 191.433C188.327 191.442 188.835 191.242 189.213 190.876C189.592 190.511 189.809 190.01 189.818 189.484L190.154 180.242V159.439H173.854V172.714C173.864 174.031 173.555 175.33 172.952 176.501C172.349 177.672 171.471 178.679 170.393 179.435C165.217 183.065 156.344 186.56 155.37 186.93C154.395 187.3 154.63 188.745 155 189.618C155.37 190.492 155.975 191.064 156.849 190.896H157.017C157.084 190.896 164.41 191.4 167.368 190.761C168.309 190.526 170.056 189.988 171.602 189.484L174.056 188.745L180.979 185.922C181.272 185.828 181.579 185.782 181.886 185.787Z" fill="#282928"/>
<path d="M181.584 174.596C181.406 174.596 181.235 174.525 181.109 174.399C180.983 174.273 180.912 174.102 180.912 173.924V158.867C180.912 158.689 180.983 158.518 181.109 158.392C181.235 158.266 181.406 158.195 181.584 158.195C181.762 158.195 181.933 158.266 182.059 158.392C182.185 158.518 182.256 158.689 182.256 158.867V173.924C182.256 174.102 182.185 174.273 182.059 174.399C181.933 174.525 181.762 174.596 181.584 174.596Z" fill="#FBBC1B"/>
<path d="M180.374 158.699L179.904 161.993C179.89 162.122 179.903 162.252 179.941 162.376C179.98 162.5 180.044 162.614 180.13 162.712C180.215 162.81 180.319 162.889 180.437 162.945C180.554 163 180.681 163.031 180.811 163.035H182.323C182.462 163.038 182.599 163.01 182.724 162.952C182.85 162.895 182.961 162.809 183.048 162.702C183.136 162.595 183.198 162.47 183.23 162.335C183.261 162.2 183.262 162.06 183.231 161.926L182.559 158.666C182.513 158.458 182.399 158.272 182.234 158.138C182.069 158.003 181.864 157.929 181.651 157.926H181.282C181.064 157.931 180.855 158.01 180.69 158.151C180.524 158.292 180.413 158.485 180.374 158.699Z" fill="#FBBC1B"/>
<path d="M243.087 242.551C242.967 242.551 242.852 242.506 242.765 242.425C242.678 242.344 242.625 242.233 242.616 242.114L239.39 223.831C239.37 223.693 239.405 223.553 239.486 223.441C239.568 223.328 239.69 223.251 239.827 223.226C239.893 223.217 239.96 223.221 240.025 223.238C240.09 223.255 240.151 223.284 240.204 223.325C240.257 223.366 240.302 223.416 240.335 223.474C240.368 223.533 240.39 223.597 240.398 223.663L243.591 241.946C243.611 242.079 243.581 242.215 243.507 242.327C243.432 242.439 243.318 242.519 243.187 242.551H243.087Z" fill="#282928"/>
<path d="M248.464 242.552C248.338 242.545 248.219 242.494 248.126 242.408C248.034 242.322 247.975 242.206 247.96 242.081L246.783 223.496C246.774 223.429 246.779 223.36 246.798 223.295C246.817 223.23 246.85 223.17 246.895 223.119C246.94 223.068 246.995 223.027 247.057 222.999C247.119 222.972 247.186 222.958 247.254 222.958C247.32 222.954 247.387 222.962 247.45 222.983C247.512 223.005 247.571 223.038 247.621 223.082C247.67 223.125 247.711 223.179 247.741 223.238C247.77 223.298 247.787 223.362 247.792 223.429L248.968 242.014C248.972 242.08 248.964 242.147 248.943 242.21C248.922 242.272 248.888 242.331 248.844 242.381C248.801 242.43 248.747 242.471 248.688 242.501C248.628 242.53 248.564 242.547 248.497 242.552H248.464Z" fill="#282928"/>
<path d="M253.572 242.652H253.539C253.472 242.648 253.408 242.63 253.348 242.601C253.288 242.572 253.235 242.531 253.192 242.481C253.148 242.431 253.114 242.373 253.093 242.31C253.072 242.247 253.064 242.18 253.068 242.114L253.976 223.361C253.98 223.295 253.997 223.23 254.026 223.17C254.056 223.111 254.097 223.058 254.147 223.014C254.197 222.97 254.255 222.937 254.318 222.916C254.381 222.894 254.447 222.886 254.513 222.89C254.581 222.89 254.648 222.904 254.71 222.931C254.772 222.959 254.827 223 254.872 223.051C254.917 223.102 254.95 223.162 254.969 223.227C254.989 223.292 254.993 223.361 254.984 223.428L254.076 242.181C254.068 242.309 254.011 242.429 253.917 242.516C253.824 242.604 253.7 242.652 253.572 242.652Z" fill="#282928"/>
<path d="M258.479 242.551H258.412C258.281 242.519 258.167 242.439 258.092 242.327C258.018 242.215 257.988 242.079 258.008 241.946C258.109 241.241 260.999 224.201 261.134 223.563C261.166 223.434 261.247 223.323 261.36 223.254C261.474 223.184 261.61 223.163 261.739 223.193C261.87 223.225 261.984 223.305 262.058 223.417C262.133 223.529 262.163 223.665 262.142 223.798C262.008 224.269 260.025 235.998 258.983 242.114C258.979 242.176 258.962 242.237 258.935 242.292C258.907 242.348 258.869 242.397 258.822 242.438C258.775 242.478 258.72 242.509 258.662 242.529C258.603 242.548 258.541 242.556 258.479 242.551Z" fill="#282928"/>
<path d="M236.365 230.015C236.231 230.015 236.103 229.962 236.008 229.868C235.914 229.773 235.861 229.645 235.861 229.511C235.861 229.378 235.914 229.249 236.008 229.155C236.103 229.06 236.231 229.007 236.365 229.007L264.73 228.94C264.864 228.94 264.992 228.993 265.087 229.088C265.181 229.182 265.234 229.31 265.234 229.444C265.234 229.578 265.181 229.706 265.087 229.801C264.992 229.895 264.864 229.948 264.73 229.948L236.365 230.015Z" fill="#282928"/>
<path d="M263.319 236.502H237.743C237.609 236.502 237.481 236.449 237.386 236.354C237.292 236.26 237.239 236.131 237.239 235.998C237.239 235.864 237.292 235.736 237.386 235.641C237.481 235.547 237.609 235.494 237.743 235.494H263.319C263.452 235.494 263.58 235.547 263.675 235.641C263.77 235.736 263.823 235.864 263.823 235.998C263.823 236.131 263.77 236.26 263.675 236.354C263.58 236.449 263.452 236.502 263.319 236.502Z" fill="#282928"/>
<path d="M261.739 223.899C261.623 223.895 261.511 223.854 261.42 223.781C261.329 223.708 261.264 223.608 261.235 223.495L259.991 216.572C259.924 216.242 259.749 215.944 259.493 215.725C259.238 215.505 258.916 215.378 258.58 215.362H242.381C242.055 215.361 241.738 215.47 241.482 215.671C241.226 215.872 241.045 216.154 240.969 216.471L239.255 223.394C239.24 223.462 239.211 223.526 239.17 223.581C239.129 223.637 239.076 223.684 239.016 223.718C238.957 223.753 238.89 223.775 238.821 223.783C238.753 223.791 238.683 223.784 238.617 223.764C238.488 223.732 238.377 223.651 238.308 223.538C238.238 223.424 238.217 223.288 238.247 223.159L239.995 216.169C240.13 215.639 240.438 215.169 240.87 214.834C241.302 214.499 241.834 214.318 242.381 214.32H258.58C259.155 214.339 259.707 214.552 260.146 214.924C260.586 215.296 260.886 215.806 261 216.37L262.243 223.294C262.263 223.423 262.232 223.554 262.157 223.661C262.081 223.767 261.968 223.84 261.84 223.865L261.739 223.899Z" fill="#282928"/>
<path d="M254.177 213.547H246.783C246.004 213.547 245.372 214.173 245.372 214.945C245.372 215.718 246.004 216.344 246.783 216.344H254.177C254.957 216.344 255.589 215.718 255.589 214.945C255.589 214.173 254.957 213.547 254.177 213.547Z" fill="#282928"/>
<path d="M234.819 153.994C234.819 153.994 248.565 158.162 253.539 153.02C253.539 153.02 262.142 169.689 258.277 194.223C258.277 194.223 243.019 201.012 231.929 195.332C231.929 195.332 224.031 165.656 234.819 153.994Z" fill="#FBBC1B"/>
<path d="M256.059 195.736L254.513 179.503L253.404 196.71L256.059 195.736Z" fill="white"/>
<path d="M105.294 65.6721H105.025C104.689 65.5041 101.631 64.1262 100.992 61.9753C100.861 61.5711 100.825 61.1417 100.89 60.7215C100.954 60.3013 101.116 59.902 101.362 59.5555C102 58.5809 102.773 58.1104 103.647 58.1104C105.361 58.144 106.672 60.2277 106.84 60.4629C106.919 60.6167 106.938 60.7941 106.895 60.9613C106.851 61.1286 106.748 61.2741 106.605 61.3703C106.528 61.4185 106.442 61.4507 106.353 61.465C106.263 61.4792 106.172 61.4753 106.084 61.4533C105.996 61.4313 105.914 61.3918 105.841 61.3371C105.769 61.2824 105.709 61.2137 105.664 61.1351C105.395 60.7318 104.454 59.4883 103.614 59.4547C103.244 59.4547 102.841 59.7571 102.504 60.2949C102.363 60.472 102.268 60.6812 102.227 60.904C102.186 61.1267 102.2 61.3562 102.269 61.572C102.672 62.9163 104.79 64.0926 105.563 64.4286C105.73 64.5026 105.862 64.6385 105.931 64.8077C106 64.977 106 65.1664 105.932 65.3361C105.866 65.4443 105.772 65.5327 105.659 65.5919C105.547 65.651 105.421 65.6788 105.294 65.6721Z" fill="#282928"/>
<path d="M113.025 55.7507C113.05 55.1387 112.754 54.6299 112.365 54.6142C111.975 54.5986 111.639 55.0821 111.615 55.6941C111.59 56.3061 111.886 56.8149 112.276 56.8306C112.665 56.8462 113.001 56.3628 113.025 55.7507Z" fill="#282928"/>
<path d="M109.159 53.7754C108.987 53.7706 108.821 53.7133 108.683 53.6112C108.544 53.509 108.441 53.3669 108.386 53.204C108.349 53.0982 108.334 52.9861 108.341 52.8743C108.349 52.7625 108.378 52.6533 108.428 52.5531C108.478 52.4529 108.548 52.3637 108.633 52.2908C108.718 52.2179 108.817 52.1627 108.924 52.1286L112.486 51.0195C112.59 50.9832 112.7 50.9684 112.809 50.9761C112.919 50.9837 113.025 51.0136 113.123 51.064C113.22 51.1143 113.307 51.184 113.376 51.2688C113.446 51.3537 113.498 51.4518 113.528 51.5573C113.592 51.7667 113.571 51.9929 113.471 52.1875C113.37 52.3821 113.198 52.5298 112.99 52.5991L109.428 53.7418L109.159 53.7754Z" fill="#282928"/>
<path d="M112.889 68.2942L112.587 68.2269C111.276 67.5548 110.369 65.3367 110.268 65.1014C110.213 64.9392 110.223 64.7623 110.294 64.6068C110.366 64.4513 110.494 64.3289 110.653 64.2646C110.811 64.2003 110.988 64.1989 111.148 64.2607C111.307 64.3225 111.437 64.4429 111.511 64.5973C111.814 65.3703 112.553 66.681 113.192 67.0171C113.272 67.0564 113.343 67.1111 113.401 67.1781C113.46 67.2452 113.504 67.3232 113.533 67.4076C113.561 67.492 113.572 67.5811 113.565 67.6699C113.559 67.7586 113.535 67.8451 113.494 67.9245C113.435 68.034 113.348 68.1259 113.242 68.1908C113.135 68.2557 113.014 68.2914 112.889 68.2942Z" fill="#282928"/>
<path d="M109.73 74.9483C108.52 74.9104 107.34 74.5633 106.302 73.9401C106.144 73.8484 106.028 73.6992 105.978 73.5238C105.928 73.3483 105.948 73.1603 106.033 72.9991C106.135 72.853 106.287 72.7488 106.46 72.7056C106.633 72.6624 106.815 72.683 106.974 72.7638C108.655 73.7049 110.066 73.8729 111.343 73.2344C115.107 71.3523 116.116 63.2528 116.116 63.1856L116.216 62.6142H116.788C117.426 62.6142 118.267 62.4798 118.468 62.0093C118.67 61.5388 117.561 59.1526 116.519 58.01L116.418 57.8755V57.6739C115.813 54.6492 112.788 48.1628 112.755 48.0956C112.715 48.0163 112.69 47.9298 112.684 47.841C112.677 47.7523 112.688 47.6631 112.716 47.5787C112.745 47.4943 112.789 47.4163 112.848 47.3493C112.906 47.2823 112.977 47.2275 113.057 47.1882C113.223 47.1181 113.409 47.1138 113.578 47.1763C113.746 47.2387 113.885 47.3632 113.965 47.5243C114.099 47.7932 116.989 53.977 117.695 57.237C118.367 58.0436 120.518 60.6986 119.745 62.547C119.409 63.32 118.603 63.7905 117.426 63.925C117.09 65.9078 115.78 72.5622 111.982 74.4778C111.277 74.8038 110.507 74.9647 109.73 74.9483Z" fill="#282928"/>
<path d="M108.924 43.3229C108.924 43.3229 113.293 42.2811 114.066 46.146C114.839 50.0109 104.555 54.6488 104.286 57.976C104.286 57.976 99.6479 60.2949 103.278 63.891C106.907 67.487 105.832 71.3519 105.059 73.1668C103.751 76.1839 102.64 79.2823 101.732 82.4426C100.186 87.5846 91.6828 84.2238 88.0868 92.2225C84.4908 100.221 62.4776 96.9276 72.3583 85.5345C86.0031 69.8396 72.0558 67.3526 78.038 58.749C84.0202 50.1453 85.7679 55.1529 87.045 46.6501C88.4565 37.4416 106.605 32.77 108.924 43.3229Z" fill="#282928"/>
<path d="M89.767 48.264L89.4982 48.1967C89.4166 48.1641 89.3426 48.1149 89.2809 48.0524C89.2192 47.9898 89.171 47.9152 89.1395 47.8332C89.1079 47.7511 89.0937 47.6635 89.0975 47.5757C89.1014 47.4879 89.1234 47.4019 89.1621 47.3229C89.2965 47.0205 92.6237 39.7612 98.7067 39.3915C98.885 39.3826 99.0595 39.4448 99.1919 39.5646C99.3242 39.6843 99.4036 39.8517 99.4125 40.03C99.4214 40.2083 99.3591 40.3828 99.2394 40.5151C99.1196 40.6475 98.9522 40.7269 98.7739 40.7358C93.5311 41.0383 90.4056 47.7934 90.372 47.8607C90.3285 47.9844 90.2459 48.0906 90.1368 48.1633C90.0277 48.2361 89.8979 48.2714 89.767 48.264Z" fill="white"/>
<path d="M84.1547 55.926C84.0294 55.9268 83.9064 55.8927 83.7995 55.8274C83.6926 55.7621 83.6061 55.6682 83.5497 55.5563C83.5105 55.4749 83.4881 55.3865 83.4839 55.2963C83.4796 55.206 83.4936 55.1159 83.525 55.0312C83.5564 54.9465 83.6045 54.869 83.6665 54.8033C83.7285 54.7376 83.8031 54.6851 83.8858 54.6489C86.3728 53.5062 87.7843 51.0192 87.8179 50.9856C87.909 50.8364 88.0522 50.7262 88.2199 50.6765C88.3875 50.6269 88.5677 50.6412 88.7253 50.7167C88.8771 50.8139 88.9882 50.9631 89.0378 51.1364C89.0873 51.3097 89.0718 51.4951 88.9942 51.6578C88.927 51.7586 87.3474 54.5481 84.4235 55.8924L84.1547 55.926Z" fill="white"/>
<path d="M101.832 54.5825C101.696 54.5757 101.564 54.5313 101.451 54.4542C101.339 54.3771 101.25 54.2703 101.194 54.1456C101.162 54.0618 101.147 53.9725 101.15 53.8828C101.153 53.7932 101.174 53.7051 101.211 53.6237C101.249 53.5422 101.302 53.4691 101.369 53.4087C101.435 53.3483 101.513 53.3017 101.597 53.2718C104.42 52.1291 107.378 47.7601 107.411 47.6928C107.459 47.6207 107.52 47.5589 107.592 47.5112C107.664 47.4634 107.744 47.4307 107.829 47.415C107.914 47.3993 108.001 47.4009 108.085 47.4198C108.169 47.4387 108.249 47.4744 108.319 47.5248C108.393 47.5693 108.458 47.6287 108.509 47.6992C108.56 47.7698 108.597 47.85 108.615 47.935C108.634 48.02 108.636 48.1079 108.619 48.1934C108.603 48.2789 108.569 48.3602 108.52 48.4322C108.386 48.6339 105.294 53.2382 102.068 54.5153L101.832 54.5825Z" fill="white"/>
<path d="M86.5408 83.1824C86.3625 83.1824 86.1916 83.1116 86.0655 82.9855C85.9395 82.8594 85.8687 82.6885 85.8687 82.5102C85.8687 81.2667 88.8598 78.4101 91.7836 76.2255C94.7075 74.041 93.5313 70.1761 93.1952 68.5965C93.0607 68.0252 93.0271 67.8236 93.128 67.5883C93.1946 67.4506 93.3062 67.3398 93.4444 67.2741C93.5826 67.2084 93.739 67.1918 93.8879 67.2271C94.0368 67.2623 94.1691 67.3473 94.2632 67.468C94.3572 67.5887 94.4073 67.7378 94.4051 67.8908C94.4461 68.0346 94.4798 68.1804 94.5059 68.3277C94.8756 70.1089 95.9174 74.8476 92.5902 77.301C89.2631 79.7544 87.3474 82.0397 87.213 82.5438C87.1969 82.7135 87.12 82.8716 86.9964 82.9889C86.8729 83.1063 86.7111 83.175 86.5408 83.1824Z" fill="white"/>
<path d="M109.192 82.6111C109.02 82.6113 108.854 82.5451 108.729 82.4262C108.604 82.3074 108.529 82.1449 108.52 81.9725L108.083 74.6796C108.074 74.5903 108.083 74.5 108.111 74.4146C108.139 74.3292 108.185 74.2506 108.245 74.184C108.305 74.1174 108.379 74.0642 108.461 74.028C108.543 73.9918 108.632 73.9733 108.722 73.9738C108.808 73.9646 108.896 73.9731 108.979 73.9989C109.062 74.0247 109.139 74.0673 109.205 74.1239C109.272 74.1806 109.325 74.2502 109.364 74.3284C109.402 74.4066 109.424 74.4918 109.428 74.5788L109.865 81.8717C109.869 81.96 109.856 82.0483 109.827 82.1316C109.797 82.2149 109.751 82.2915 109.692 82.3571C109.632 82.4226 109.561 82.4758 109.481 82.5137C109.401 82.5515 109.314 82.5732 109.226 82.5775C109.226 82.5864 109.223 82.5949 109.216 82.6012C109.21 82.6075 109.201 82.6111 109.192 82.6111Z" fill="#282928"/>
<path d="M95.783 82.5102C95.783 82.5102 113.293 79.4183 120.518 86.1399C127.744 92.8614 128.248 119.58 130.03 118.572C131.811 117.563 140.246 108.254 141.859 106.506C141.889 106.475 141.926 106.451 141.968 106.437C142.009 106.423 142.053 106.419 142.096 106.425C142.138 106.432 142.179 106.449 142.214 106.475C142.249 106.501 142.277 106.534 142.296 106.573L146.262 113.833C146.363 117.294 132.382 134.199 128.248 133.762C126.03 133.527 120.283 126.94 119.544 126.1C119.544 126.1 119.477 126.1 119.51 126.133L121.09 139.644C121.104 139.744 121.097 139.847 121.068 139.945C121.039 140.042 120.989 140.133 120.922 140.209C120.855 140.286 120.773 140.347 120.68 140.389C120.587 140.43 120.486 140.451 120.384 140.45L90.3385 141.19C90.1696 141.188 90.0036 141.146 89.8539 141.067C89.7041 140.989 89.5749 140.877 89.4767 140.739C89.3786 140.602 89.3141 140.443 89.2887 140.276C89.2632 140.109 89.2775 139.939 89.3303 139.778L91.6156 132.956C91.6156 132.855 91.5484 132.788 91.4812 132.821C89.4647 133.83 74.0387 141.492 71.8542 137.862C69.6697 134.233 67.9893 120.353 80.0881 93.8697C80.2562 93.668 89.9353 82.611 95.783 82.5102Z" fill="white"/>
<path d="M90.3384 141.862C90.0616 141.867 89.7877 141.804 89.5402 141.681C89.2926 141.557 89.0788 141.375 88.9169 141.15C88.7551 140.925 88.65 140.665 88.6108 140.391C88.5716 140.117 88.5993 139.837 88.6916 139.576L90.5401 134.031C84.6251 136.921 73.4336 141.794 71.2827 138.232C68.7285 133.93 67.5523 119.714 79.4831 93.567V93.4662L79.5839 93.399C80.1216 92.7604 89.599 82.0059 95.7157 81.8378C96.9592 81.6362 113.696 78.9139 120.922 85.6355C125.728 90.0718 127.61 102.675 128.853 111.01C129.256 113.799 129.693 116.656 130.063 117.697C131.743 116.32 136.785 111.043 141.355 106.036C141.454 105.922 141.58 105.835 141.72 105.782C141.861 105.73 142.013 105.713 142.162 105.733C142.312 105.765 142.453 105.83 142.575 105.923C142.697 106.016 142.797 106.135 142.868 106.271C146.901 113.665 146.901 113.665 146.901 113.833C146.968 116.588 140.145 125.461 134.701 130.502C131.71 133.292 129.559 134.569 128.114 134.434C127.576 134.367 125.996 134.199 120.35 128.049L121.728 139.576C121.756 139.769 121.74 139.966 121.682 140.152C121.624 140.338 121.525 140.509 121.392 140.652C121.272 140.803 121.119 140.924 120.944 141.006C120.769 141.088 120.577 141.127 120.384 141.122L90.372 141.862H90.3384ZM91.5147 132.149C91.6342 132.155 91.7509 132.188 91.8563 132.245C91.9616 132.301 92.053 132.381 92.1238 132.477C92.1946 132.574 92.243 132.685 92.2655 132.803C92.2881 132.92 92.2842 133.041 92.2541 133.157L89.9687 140.013C89.9472 140.068 89.9391 140.127 89.9449 140.185C89.9508 140.244 89.9704 140.3 90.0023 140.349C90.0438 140.399 90.0951 140.439 90.1529 140.468C90.2107 140.497 90.2739 140.514 90.3384 140.517L120.384 139.778H120.418C120.451 139.744 120.451 139.744 120.451 139.711L118.838 126.234C118.822 126.084 118.852 125.933 118.924 125.801C118.996 125.669 119.107 125.562 119.241 125.495C119.375 125.429 119.527 125.41 119.673 125.44C119.819 125.471 119.951 125.549 120.048 125.663L120.249 125.898C126.03 132.384 127.878 133.023 128.315 133.09C128.752 133.157 130.097 132.989 133.827 129.527C139.44 124.318 145.388 116.152 145.59 114.001C145.153 113.194 143.069 109.396 141.994 107.38C139.204 110.405 131.945 118.235 130.365 119.143C130.245 119.215 130.107 119.257 129.966 119.263C129.826 119.269 129.685 119.239 129.559 119.176C128.752 118.773 128.483 117.328 127.542 111.211C126.333 103.078 124.484 90.7439 120.048 86.6102C113.192 80.2247 96.0854 83.1485 95.9173 83.1821H95.8165C90.5065 83.283 81.4995 93.2981 80.6593 94.2056C68.9974 119.815 70.0056 133.46 72.4254 137.526C73.7025 139.61 82.8102 136.451 91.1786 132.216L91.5147 132.149Z" fill="#282928"/>
<path d="M82.7095 126.436L87.0449 112.589C87.0998 112.427 87.2034 112.285 87.3416 112.182C87.4798 112.08 87.6461 112.023 87.8179 112.018C87.9868 112.016 88.1523 112.066 88.291 112.163C88.4297 112.259 88.5346 112.397 88.5909 112.556L91.9517 123.176C92.0007 123.301 92.0202 123.436 92.0085 123.57C91.9969 123.704 91.9544 123.834 91.8844 123.949C91.7352 124.199 91.4938 124.38 91.2123 124.453L82.7095 126.436ZM87.8179 114.606L84.6923 124.588L90.5737 123.21L87.8179 114.606Z" fill="#282928"/>
<path d="M88.1538 114.001C88.0164 113.998 87.8828 113.955 87.7694 113.877C87.6559 113.8 87.5676 113.691 87.5153 113.564C85.8221 108.784 84.5843 103.856 83.8184 98.8434C83.8041 98.755 83.8077 98.6647 83.8288 98.5777C83.8499 98.4907 83.8882 98.4087 83.9414 98.3367C83.9947 98.2647 84.0617 98.2041 84.1387 98.1584C84.2157 98.1126 84.3011 98.0827 84.3897 98.0705C84.4762 98.0563 84.5647 98.06 84.6497 98.0815C84.7347 98.1029 84.8144 98.1417 84.8837 98.1953C84.9531 98.2489 85.0107 98.3162 85.0529 98.393C85.0951 98.4698 85.1211 98.5545 85.1291 98.6418C85.9294 103.556 87.1551 108.391 88.7924 113.093C88.8244 113.177 88.8394 113.266 88.8364 113.356C88.8334 113.446 88.8125 113.534 88.7749 113.615C88.7373 113.697 88.6838 113.77 88.6176 113.83C88.5513 113.891 88.4736 113.937 88.3891 113.967L88.1538 114.001Z" fill="#282928"/>
<path d="M119.88 127.78C119.737 127.78 119.599 127.734 119.484 127.649C119.369 127.565 119.284 127.446 119.241 127.31C108.991 94.9791 116.149 87.7198 116.452 87.4509C116.514 87.3878 116.589 87.3383 116.671 87.3055C116.753 87.2728 116.841 87.2575 116.93 87.2607C117.018 87.2638 117.105 87.2854 117.185 87.3239C117.265 87.3624 117.335 87.4171 117.393 87.4845C117.456 87.5466 117.506 87.6212 117.538 87.7035C117.571 87.7857 117.586 87.8739 117.583 87.9624C117.58 88.0509 117.558 88.1378 117.52 88.2175C117.481 88.2972 117.427 88.3681 117.359 88.4255C117.292 88.5264 110.638 95.6848 120.518 126.907C120.55 126.99 120.563 127.079 120.557 127.169C120.552 127.258 120.528 127.344 120.486 127.424C120.445 127.503 120.388 127.572 120.318 127.628C120.248 127.684 120.168 127.724 120.082 127.747L119.88 127.78Z" fill="#282928"/>
<path d="M145.926 113.833L145.59 113.765C145.434 113.68 145.319 113.537 145.269 113.367C145.218 113.197 145.237 113.014 145.321 112.858C149.522 104.893 150.53 104.355 150.866 104.288C151.202 104.221 153.622 102.036 156.042 99.4485C159.403 95.8525 160.108 94.2393 160.041 93.8696C160 93.6867 159.92 93.5148 159.806 93.3655C159.571 93.2983 158.731 93.9704 158.058 94.8442C158.014 94.9335 157.951 95.0119 157.873 95.0736C157.795 95.1354 157.704 95.179 157.607 95.2014C157.51 95.2238 157.409 95.2243 157.312 95.2029C157.214 95.1816 157.123 95.1389 157.044 95.0779C156.966 95.0169 156.901 94.9392 156.856 94.8504C156.811 94.7616 156.787 94.6639 156.784 94.5644C156.781 94.4648 156.801 94.3659 156.841 94.2748C156.881 94.1837 156.941 94.1027 157.017 94.0376C157.42 93.4999 158.831 91.7859 160.108 92.0548C160.545 92.1556 161.117 92.4917 161.352 93.5671C161.453 94.004 161.755 95.3484 156.882 100.524C155.538 101.969 152.311 105.162 151.303 105.532C150.295 105.901 148.346 110.001 146.497 113.463C146.45 113.575 146.37 113.67 146.269 113.736C146.167 113.802 146.047 113.836 145.926 113.833Z" fill="#282928"/>
<path d="M142.599 106.809C142.469 106.807 142.342 106.772 142.229 106.708C142.083 106.606 141.98 106.452 141.943 106.277C141.905 106.103 141.936 105.92 142.027 105.767L144.985 100.927C144.447 96.4913 145.758 88.1565 147.136 87.3499C147.268 87.2666 147.422 87.2253 147.578 87.2313C147.734 87.2373 147.884 87.2903 148.01 87.3835C148.245 87.5515 148.85 87.9884 149.186 91.9542C155.807 81.939 156.848 81.939 157.218 81.939C157.357 81.9374 157.494 81.9704 157.618 82.0349C157.741 82.0994 157.846 82.1935 157.924 82.3087C158.596 83.3506 157.487 86.14 156.58 88.1229C157.034 88.3389 157.41 88.6914 157.655 89.1311C157.784 89.4272 157.854 89.7458 157.86 90.0688C157.865 90.3918 157.807 90.7127 157.689 91.0132C157.615 91.1718 157.483 91.2956 157.32 91.3583C157.157 91.4211 156.976 91.4178 156.815 91.3492C156.73 91.32 156.653 91.2733 156.588 91.2122C156.522 91.1511 156.47 91.077 156.436 90.9946C156.401 90.9122 156.384 90.8234 156.385 90.734C156.387 90.6446 156.407 90.5565 156.445 90.4754C156.536 90.2373 156.536 89.9742 156.445 89.7361C156.334 89.5758 156.189 89.4417 156.021 89.343C155.852 89.2444 155.665 89.1835 155.471 89.1647L154.664 88.9631L155.034 88.1901C155.84 86.5769 156.512 84.8629 156.714 83.8211C155.37 85.2998 152.513 89.2992 149.287 94.2395C149.21 94.3692 149.093 94.4695 148.952 94.5243C148.812 94.5792 148.658 94.5854 148.514 94.542C148.368 94.5066 148.237 94.4256 148.14 94.3107C148.044 94.1959 147.986 94.0532 147.976 93.9034C147.922 92.3695 147.753 90.8416 147.472 89.3328C146.766 91.5173 145.859 97.0962 146.329 100.827C146.359 101.096 146.3 101.367 146.161 101.6L143.17 106.473C143.11 106.571 143.026 106.653 142.926 106.712C142.827 106.771 142.714 106.804 142.599 106.809Z" fill="#282928"/>
<path d="M153.118 92.1563C152.958 92.1517 152.804 92.0924 152.681 91.9883C152.549 91.8717 152.467 91.7076 152.455 91.5316C152.442 91.3555 152.499 91.1815 152.614 91.0473L155.168 87.989C155.29 87.8791 155.448 87.8176 155.612 87.816C155.776 87.8143 155.935 87.8727 156.059 87.9801C156.183 88.0875 156.263 88.2366 156.285 88.3991C156.306 88.5617 156.268 88.7266 156.176 88.8628L153.622 91.9211C153.559 91.9924 153.481 92.05 153.394 92.0905C153.308 92.1309 153.214 92.1533 153.118 92.1563Z" fill="#282928"/>
<path d="M155 93.7354C154.914 93.7404 154.829 93.7282 154.748 93.6993C154.667 93.6704 154.593 93.6255 154.53 93.5673C154.464 93.5075 154.412 93.4348 154.377 93.3538C154.341 93.2728 154.323 93.1853 154.323 93.0968C154.323 93.0083 154.341 92.9208 154.377 92.8398C154.412 92.7588 154.464 92.6861 154.53 92.6263L156.647 90.4082H156.815C157.823 90.1729 158.596 90.3074 159.1 90.8115C159.604 91.3156 159.504 92.996 159.47 93.1304C159.447 93.2171 159.406 93.2983 159.351 93.3691C159.296 93.44 159.227 93.4991 159.149 93.5429C159.071 93.5868 158.985 93.6145 158.895 93.6245C158.806 93.6344 158.716 93.6264 158.63 93.6009C158.461 93.5469 158.32 93.4282 158.238 93.2708C158.156 93.1135 158.14 92.9301 158.193 92.7607C158.26 92.4583 158.294 91.9205 158.126 91.7525C157.958 91.5845 157.722 91.5845 157.319 91.6517L155.504 93.5673C155.363 93.6839 155.183 93.7438 155 93.7354Z" fill="#282928"/>
<path d="M113.158 291.484L101.9 290.913L101.832 290.375C101.664 289.266 97.5643 262.985 100.287 252.499C102.269 245.005 101.664 215.732 101.664 215.463V214.623L117.595 217.849L113.158 291.484ZM103.076 289.636L111.915 290.073L116.183 218.925L103.009 216.27C103.11 221.244 103.446 245.811 101.597 252.835C99.1439 262.245 102.505 285.771 103.076 289.636Z" fill="#282928"/>
<path d="M61.5701 292.896L49.6729 290.98L49.8409 290.308C50.1434 288.93 57.1002 256.499 60.8643 246.618C61.7045 244.366 64.9645 238.182 68.1236 232.2C71.2827 226.218 74.2402 220.639 74.9124 218.824L75.0804 218.387L90.6073 218.018L61.5701 292.896ZM51.286 289.871L60.6963 291.417L88.6244 219.395L76.0215 219.698C75.0804 221.95 72.291 227.226 69.3335 232.839C66.376 238.451 62.9144 244.904 62.1078 247.088C58.6798 256.095 52.3615 285.032 51.286 289.871Z" fill="#282928"/>
<path d="M89.2965 137.392C89.2965 137.392 121.997 134.905 121.997 137.728C121.997 140.551 135.037 208.069 137.826 214.052C140.616 220.034 117.426 222.857 110.402 218.958C103.378 215.06 91.7835 221.445 86.507 220.74C81.2306 220.034 69.2662 225.646 62.9143 223.529C56.5624 221.412 89.2965 137.392 89.2965 137.392Z" fill="#FBBC1B"/>
<path d="M61.3348 292.023C61.8516 292.151 62.3229 292.42 62.6965 292.8C63.0701 293.179 63.3316 293.655 63.4521 294.173C64.0906 296.728 65.4014 301.735 64.4939 302.071C60.461 303.584 49.5048 302.811 42.6152 302.743C42.2442 302.741 41.8806 302.639 41.5622 302.448C41.2437 302.258 40.9819 301.986 40.8038 301.66C40.6256 301.335 40.5376 300.968 40.5488 300.597C40.56 300.226 40.6701 299.865 40.8676 299.551C43.2201 295.719 47.1859 289.67 48.5974 289.536C50.0089 289.401 57.8732 291.182 61.3348 292.023Z" fill="#282928"/>
<path d="M107.983 298.105L118.502 301.5C120.619 302.172 122.636 303.55 124.854 303.55H131.911C134.331 304.02 135.844 299.517 133.827 297.937C133.827 297.937 124.854 289.838 117.124 289.401L100.522 289.132C99.4126 289.132 98.5051 290.14 98.5387 291.384L98.9084 302.037C98.8991 302.57 99.0973 303.085 99.4611 303.474C99.8249 303.863 100.326 304.095 100.858 304.121H102.135C103.21 304.121 104.084 303.146 104.084 301.97V300.189C104.066 299.642 104.264 299.109 104.635 298.707C105.006 298.304 105.52 298.064 106.067 298.038H107.445L107.983 298.105Z" fill="#282928"/>
<path d="M127.038 298.105C124.014 298.105 118.872 297.534 118.872 295.349C118.872 293.165 122.804 292.694 126.165 292.594C126.385 292.589 126.603 292.635 126.803 292.728C128.315 293.535 129.895 294.442 131.475 295.484C131.686 295.63 131.85 295.836 131.946 296.075C132.042 296.314 132.065 296.576 132.012 296.828C131.964 297.08 131.838 297.31 131.65 297.485C131.463 297.661 131.225 297.772 130.97 297.803C129.67 298.011 128.355 298.113 127.038 298.105ZM120.25 295.349C120.418 295.753 122.636 296.761 127.038 296.761C128.219 296.772 129.399 296.693 130.567 296.526C129.148 295.584 127.678 294.72 126.165 293.938C122.3 294.072 120.384 294.98 120.25 295.349Z" fill="#FBBC1B"/>
<path d="M91.6827 133.393H91.6155C91.527 133.385 91.4411 133.359 91.3627 133.317C91.2843 133.275 91.215 133.218 91.1588 133.149C91.1025 133.081 91.0605 133.001 91.035 132.916C91.0096 132.831 91.0012 132.742 91.0105 132.654L91.1786 130.906C91.3522 129.16 91.3071 127.398 91.0441 125.663L90.7417 123.815C90.7284 123.726 90.7327 123.636 90.7542 123.55C90.7758 123.463 90.8142 123.382 90.8672 123.31C90.9203 123.238 90.987 123.177 91.0634 123.131C91.1399 123.085 91.2247 123.055 91.313 123.042C91.4013 123.028 91.4913 123.033 91.5779 123.054C91.6645 123.076 91.746 123.114 91.8178 123.167C91.9628 123.274 92.0592 123.435 92.086 123.613L92.3548 125.461C92.6455 127.307 92.702 129.181 92.5229 131.04L92.3548 132.788C92.3381 132.954 92.26 133.109 92.1357 133.22C92.0114 133.332 91.8499 133.394 91.6827 133.393Z" fill="#282928"/>
<path d="M266.209 130.805H221.947C221.251 130.81 220.562 130.677 219.917 130.413C219.273 130.15 218.688 129.762 218.194 129.272C217.701 128.781 217.309 128.198 217.042 127.556C216.775 126.913 216.637 126.225 216.637 125.529V74.0415C216.637 72.6332 217.196 71.2826 218.192 70.2867C219.188 69.2909 220.539 68.7314 221.947 68.7314H266.209C267.617 68.7314 268.968 69.2909 269.963 70.2867C270.959 71.2826 271.519 72.6332 271.519 74.0415V125.529C271.519 126.225 271.381 126.913 271.114 127.556C270.847 128.198 270.455 128.781 269.961 129.272C269.468 129.762 268.882 130.15 268.238 130.413C267.594 130.677 266.904 130.81 266.209 130.805ZM221.947 70.0758C220.895 70.0758 219.887 70.4936 219.143 71.2373C218.399 71.981 217.981 72.9897 217.981 74.0415V125.529C217.981 126.048 218.084 126.562 218.284 127.041C218.483 127.521 218.776 127.956 219.145 128.321C219.514 128.687 219.951 128.976 220.432 129.171C220.913 129.367 221.428 129.465 221.947 129.461H266.209C266.728 129.465 267.243 129.367 267.724 129.171C268.205 128.976 268.642 128.687 269.011 128.321C269.38 127.956 269.672 127.521 269.872 127.041C270.072 126.562 270.174 126.048 270.174 125.529V74.0415C270.174 73.5207 270.072 73.005 269.873 72.5239C269.673 72.0427 269.381 71.6056 269.013 71.2373C268.645 70.869 268.207 70.5769 267.726 70.3776C267.245 70.1783 266.729 70.0758 266.209 70.0758H221.947Z" fill="#282928"/>
<path d="M197.212 204.944H152.95C152.254 204.948 151.564 204.815 150.92 204.552C150.276 204.289 149.691 203.901 149.197 203.41C148.704 202.92 148.312 202.337 148.045 201.695C147.777 201.052 147.64 200.363 147.64 199.668V148.18C147.64 146.772 148.199 145.421 149.195 144.425C150.191 143.43 151.542 142.87 152.95 142.87H197.212C198.62 142.87 199.971 143.43 200.966 144.425C201.962 145.421 202.522 146.772 202.522 148.18V199.668C202.522 200.363 202.384 201.052 202.117 201.695C201.85 202.337 201.458 202.92 200.964 203.41C200.471 203.901 199.885 204.289 199.241 204.552C198.597 204.815 197.907 204.948 197.212 204.944ZM152.95 144.214C151.898 144.214 150.889 144.632 150.146 145.376C149.402 146.12 148.984 147.128 148.984 148.18V199.668C148.993 200.713 149.415 201.714 150.158 202.45C150.9 203.186 151.904 203.6 152.95 203.6H197.212C198.258 203.6 199.261 203.186 200.004 202.45C200.747 201.714 201.168 200.713 201.177 199.668V148.18C201.177 147.128 200.759 146.12 200.016 145.376C199.272 144.632 198.263 144.214 197.212 144.214H152.95Z" fill="#282928"/>
<path d="M264.663 204.944H220.401C219.705 204.948 219.016 204.815 218.372 204.552C217.728 204.289 217.142 203.901 216.648 203.41C216.155 202.92 215.763 202.337 215.496 201.695C215.229 201.052 215.091 200.363 215.091 199.668V148.18C215.091 146.772 215.651 145.421 216.646 144.425C217.642 143.43 218.993 142.87 220.401 142.87H264.663C266.071 142.87 267.422 143.43 268.418 144.425C269.413 145.421 269.973 146.772 269.973 148.18V199.668C269.973 200.363 269.835 201.052 269.568 201.695C269.301 202.337 268.909 202.92 268.416 203.41C267.922 203.901 267.336 204.289 266.692 204.552C266.048 204.815 265.358 204.948 264.663 204.944ZM220.401 144.214C219.349 144.214 218.341 144.632 217.597 145.376C216.853 146.12 216.435 147.128 216.435 148.18V199.668C216.444 200.713 216.866 201.714 217.609 202.45C218.352 203.186 219.355 203.6 220.401 203.6H264.663C265.709 203.6 266.712 203.186 267.455 202.45C268.198 201.714 268.62 200.713 268.629 199.668V148.18C268.629 147.128 268.211 146.12 267.467 145.376C266.723 144.632 265.715 144.214 264.663 144.214H220.401Z" fill="#282928"/>
<path d="M66.9808 219.53C66.8493 219.528 66.7211 219.488 66.6123 219.414C66.5035 219.34 66.4188 219.236 66.3687 219.114C66.3186 218.992 66.3054 218.858 66.3305 218.729C66.3557 218.6 66.4182 218.481 66.5103 218.387C67.2833 217.648 85.566 200.172 93.4303 202.356L96.455 203.264C102.135 205.011 105.563 206.053 110.705 200.676C117.124 193.954 127.139 192.845 127.576 192.812C127.753 192.802 127.927 192.858 128.064 192.97C128.2 193.082 128.29 193.242 128.315 193.417C128.325 193.593 128.269 193.767 128.157 193.904C128.045 194.041 127.886 194.131 127.71 194.156C127.61 194.156 117.762 195.265 111.679 201.617C105.596 207.969 101.799 206.322 96.0517 204.541L93.0606 203.633C87.1456 201.987 72.5597 214.422 67.4177 219.362C67.3639 219.423 67.2961 219.471 67.22 219.5C67.1439 219.529 67.0618 219.539 66.9808 219.53Z" fill="white"/>
<path d="M90.8089 217.581C90.6934 217.576 90.5809 217.542 90.4813 217.484C90.3817 217.425 90.298 217.343 90.2376 217.245C90.1568 217.086 90.1361 216.903 90.1793 216.73C90.2225 216.557 90.3268 216.406 90.4728 216.304C90.8089 216.136 98.001 212.035 100.958 212.035C102.38 212.122 103.795 212.302 105.193 212.573C110.201 213.346 120.653 214.993 121.863 212.405C123.845 208.204 130.197 205.583 130.466 205.448C130.631 205.382 130.816 205.383 130.979 205.453C131.143 205.522 131.273 205.653 131.34 205.818C131.408 205.988 131.407 206.177 131.338 206.346C131.269 206.515 131.137 206.651 130.97 206.725C130.903 206.725 124.82 209.279 123.072 212.976C121.325 216.673 113.662 215.262 104.991 213.884C103.177 213.615 101.597 213.38 100.958 213.38C98.8076 213.38 93.1614 216.337 91.145 217.48C91.0463 217.548 90.9287 217.583 90.8089 217.581Z" fill="white"/>
<path d="M71.1818 202.221C71.0359 202.224 70.8936 202.176 70.7785 202.087C70.6429 201.975 70.5539 201.816 70.5291 201.642C70.5042 201.468 70.5452 201.291 70.644 201.146C71.3498 200.238 84.6585 188.811 90.3047 188.811C91.8483 188.863 93.3867 189.021 94.909 189.282C99.5805 189.954 104.891 190.761 108.419 186.526C113.561 180.342 123.745 178.796 124.181 178.729C124.359 178.709 124.537 178.757 124.68 178.863C124.824 178.969 124.922 179.125 124.954 179.3C124.969 179.389 124.965 179.479 124.944 179.566C124.923 179.653 124.885 179.735 124.831 179.807C124.778 179.879 124.711 179.94 124.634 179.985C124.557 180.031 124.472 180.061 124.383 180.073C124.282 180.073 114.267 181.619 109.461 187.4C105.462 192.206 99.5132 191.298 94.7073 190.593C93.2519 190.344 91.7807 190.198 90.3047 190.156C85.3979 190.156 72.4253 201.045 71.7195 201.952C71.6611 202.04 71.5807 202.111 71.4864 202.158C71.3921 202.205 71.287 202.227 71.1818 202.221Z" fill="white"/>
<path d="M253.841 40.0635H170.46C169.03 40.0635 167.872 41.2161 167.872 42.6378C167.872 44.0596 169.03 45.2122 170.46 45.2122H253.841C255.27 45.2122 256.429 44.0596 256.429 42.6378C256.429 41.2161 255.27 40.0635 253.841 40.0635Z" fill="#282928"/>
<path d="M235.323 54.6163H187.432C187.253 54.6163 187.082 54.5455 186.956 54.4194C186.83 54.2934 186.76 54.1224 186.76 53.9441C186.76 53.7659 186.83 53.5949 186.956 53.4688C187.082 53.3428 187.253 53.272 187.432 53.272H235.323C235.501 53.272 235.672 53.3428 235.798 53.4688C235.924 53.5949 235.995 53.7659 235.995 53.9441C235.995 54.1224 235.924 54.2934 235.798 54.4194C235.672 54.5455 235.501 54.6163 235.323 54.6163Z" fill="#282928"/>
<path d="M192.574 76.5957C192.574 76.5957 194.994 71.2857 197.212 74.8817C199.43 78.4778 192.943 82.6116 192.943 82.6116" fill="white"/>
<path d="M192.843 76.5957C192.843 76.5957 190.456 71.2857 188.205 74.8817C185.953 78.4778 192.943 82.6116 192.943 82.6116" fill="white"/>
<path d="M234.651 153.658C237.407 154.33 245.338 155.843 253.102 153.053C253.219 153.011 253.345 152.997 253.468 153.012C253.592 153.027 253.711 153.07 253.815 153.139C253.919 153.207 254.006 153.299 254.069 153.406C254.132 153.514 254.169 153.635 254.177 153.759V154.33C254.188 154.488 254.152 154.645 254.075 154.782C253.997 154.92 253.881 155.031 253.74 155.103C250.712 156.649 247.379 157.507 243.981 157.617C240.583 157.728 237.202 157.087 234.08 155.742C233.929 155.676 233.801 155.568 233.712 155.431C233.622 155.293 233.575 155.133 233.575 154.969V154.465C233.575 154.334 233.606 154.206 233.664 154.089C233.722 153.972 233.807 153.871 233.912 153.793C234.016 153.714 234.137 153.661 234.265 153.638C234.394 153.615 234.526 153.622 234.651 153.658Z" fill="#282928"/>
<path d="M259.891 242.887H259.857L241.07 242.82C240.372 242.798 239.7 242.551 239.154 242.114C238.609 241.678 238.22 241.076 238.045 240.4L234.651 226.789C234.531 226.309 234.523 225.807 234.628 225.324C234.733 224.84 234.948 224.387 235.256 223.999C235.539 223.626 235.905 223.322 236.325 223.112C236.744 222.903 237.207 222.792 237.676 222.79H263.083C263.549 222.793 264.008 222.9 264.426 223.104C264.845 223.307 265.213 223.602 265.503 223.966C265.805 224.357 266.015 224.81 266.12 225.292C266.224 225.775 266.22 226.275 266.108 226.755L262.915 240.434C262.763 241.125 262.381 241.743 261.832 242.189C261.282 242.635 260.598 242.881 259.891 242.887ZM237.676 223.798C237.358 223.8 237.046 223.874 236.76 224.014C236.475 224.153 236.225 224.355 236.029 224.604C235.825 224.881 235.684 225.199 235.614 225.535C235.545 225.871 235.549 226.219 235.626 226.554L239.02 240.165C239.131 240.627 239.393 241.04 239.764 241.338C240.135 241.636 240.594 241.803 241.07 241.812L259.891 241.879C260.373 241.874 260.838 241.705 261.211 241.399C261.584 241.094 261.841 240.67 261.941 240.198L265.133 226.52C265.215 226.189 265.218 225.843 265.142 225.51C265.067 225.178 264.914 224.867 264.696 224.604C264.507 224.356 264.263 224.154 263.983 224.014C263.704 223.874 263.396 223.8 263.083 223.798H237.676Z" fill="#282928"/>
<path d="M229.139 223.327C233.482 223.327 237.003 220.002 237.003 215.9C237.003 211.798 233.482 208.473 229.139 208.473C224.796 208.473 221.275 211.798 221.275 215.9C221.275 220.002 224.796 223.327 229.139 223.327Z" fill="#FBBC1B"/>
<path d="M229.912 220.403C229.734 220.403 229.563 220.332 229.437 220.206C229.311 220.08 229.24 219.909 229.24 219.731V213.648L227.156 216.101C227.103 216.18 227.034 216.247 226.953 216.297C226.872 216.348 226.782 216.38 226.687 216.393C226.593 216.405 226.497 216.398 226.406 216.371C226.314 216.343 226.23 216.297 226.158 216.235C226.086 216.172 226.028 216.095 225.988 216.009C225.948 215.922 225.927 215.828 225.926 215.733C225.925 215.638 225.944 215.544 225.983 215.457C226.021 215.369 226.077 215.291 226.148 215.227L228.937 211.968C229.063 211.822 229.23 211.718 229.416 211.669C229.602 211.621 229.799 211.632 229.979 211.699C230.159 211.762 230.314 211.881 230.423 212.038C230.532 212.195 230.588 212.382 230.584 212.572V219.731C230.584 219.909 230.513 220.08 230.387 220.206C230.261 220.332 230.09 220.403 229.912 220.403Z" fill="white"/>
<path d="M232.097 220.673H227.929C227.751 220.673 227.58 220.602 227.454 220.476C227.328 220.35 227.257 220.179 227.257 220.001C227.257 219.823 227.328 219.652 227.454 219.525C227.58 219.399 227.751 219.329 227.929 219.329H232.097C232.275 219.329 232.446 219.399 232.572 219.525C232.698 219.652 232.769 219.823 232.769 220.001C232.769 220.179 232.698 220.35 232.572 220.476C232.446 220.602 232.275 220.673 232.097 220.673Z" fill="white"/>
<path d="M211.898 224.269H161.688C161.51 224.269 161.339 224.198 161.213 224.072C161.087 223.946 161.016 223.775 161.016 223.596C161.016 223.418 161.087 223.247 161.213 223.121C161.339 222.995 161.51 222.924 161.688 222.924H211.898C212.077 222.924 212.247 222.995 212.374 223.121C212.5 223.247 212.57 223.418 212.57 223.596C212.57 223.775 212.5 223.946 212.374 224.072C212.247 224.198 212.077 224.269 211.898 224.269Z" fill="#282928"/>
<path d="M207.26 233.544H164.545C164.366 233.544 164.195 233.473 164.069 233.347C163.943 233.221 163.873 233.05 163.873 232.872C163.873 232.694 163.943 232.523 164.069 232.397C164.195 232.271 164.366 232.2 164.545 232.2H207.26C207.439 232.2 207.61 232.271 207.736 232.397C207.862 232.523 207.933 232.694 207.933 232.872C207.933 233.05 207.862 233.221 207.736 233.347C207.61 233.473 207.439 233.544 207.26 233.544Z" fill="#282928"/>
<path d="M235.928 272.429H184.273C182.045 272.429 180.24 274.235 180.24 276.462V281.439C180.24 283.667 182.045 285.472 184.273 285.472H235.928C238.155 285.472 239.961 283.667 239.961 281.439V276.462C239.961 274.235 238.155 272.429 235.928 272.429Z" fill="white"/>
<path d="M235.928 286.141H184.273C183.025 286.141 181.828 285.645 180.946 284.763C180.063 283.881 179.568 282.684 179.568 281.436V276.462C179.568 275.214 180.063 274.017 180.946 273.135C181.828 272.253 183.025 271.757 184.273 271.757H235.928C237.176 271.757 238.373 272.253 239.255 273.135C240.138 274.017 240.633 275.214 240.633 276.462V281.436C240.633 282.054 240.512 282.666 240.275 283.236C240.039 283.807 239.692 284.326 239.255 284.763C238.818 285.2 238.3 285.546 237.729 285.783C237.158 286.019 236.546 286.141 235.928 286.141ZM184.273 273.101C183.381 273.101 182.527 273.455 181.896 274.085C181.266 274.716 180.912 275.571 180.912 276.462V281.436C180.912 282.327 181.266 283.182 181.896 283.812C182.527 284.443 183.381 284.797 184.273 284.797H235.928C236.819 284.797 237.674 284.443 238.305 283.812C238.935 283.182 239.289 282.327 239.289 281.436V276.462C239.289 275.571 238.935 274.716 238.305 274.085C237.674 273.455 236.819 273.101 235.928 273.101H184.273Z" fill="#282928"/>
</svg>
