<svg width="15" height="16" viewBox="0 0 15 16" fill="none" xmlns="http://www.w3.org/2000/svg">
<path d="M12.8028 5.62967C12.1653 2.82497 9.71883 1.56226 7.56978 1.56226C7.56978 1.56226 7.56978 1.56226 7.56371 1.56226C5.42073 1.56226 2.96814 2.8189 2.33071 5.6236C1.62043 8.75611 3.53879 11.409 5.27503 13.0785C5.91853 13.6977 6.74416 14.0073 7.56978 14.0073C8.3954 14.0073 9.22103 13.6977 9.85846 13.0785C11.5947 11.409 13.5131 8.76218 12.8028 5.62967ZM7.56978 8.67112C6.51347 8.67112 5.65749 7.81514 5.65749 6.75883C5.65749 5.70252 6.51347 4.84654 7.56978 4.84654C8.62609 4.84654 9.48207 5.70252 9.48207 6.75883C9.48207 7.81514 8.62609 8.67112 7.56978 8.67112Z" fill="#1D2939"/>
</svg>
