<svg width="9" height="10" viewBox="0 0 9 10" fill="none" xmlns="http://www.w3.org/2000/svg">
<path d="M8.45011 3.4435C7.95608 1.2771 6.05995 0.301758 4.39437 0.301758C4.39437 0.301758 4.39437 0.301758 4.38966 0.301758C2.72879 0.301758 0.827953 1.27242 0.333924 3.43881C-0.216565 5.85842 1.27023 7.90759 2.61586 9.19711C3.1146 9.6754 3.75448 9.91455 4.39437 9.91455C5.03425 9.91455 5.67414 9.6754 6.16816 9.19711C7.5138 7.90759 9.00059 5.86311 8.45011 3.4435ZM4.39437 5.79277C3.57569 5.79277 2.91228 5.1316 2.91228 4.31569C2.91228 3.49977 3.57569 2.8386 4.39437 2.8386C5.21304 2.8386 5.87645 3.49977 5.87645 4.31569C5.87645 5.1316 5.21304 5.79277 4.39437 5.79277Z" fill="#AFAFAF"/>
</svg>
