<svg width="12" height="12" viewBox="0 0 12 12" fill="none" xmlns="http://www.w3.org/2000/svg">
<path d="M9.67253 4.55324C9.22594 2.58827 7.51192 1.70361 6.0063 1.70361C6.0063 1.70361 6.00629 1.70361 6.00204 1.70361C4.50067 1.70361 2.78239 2.58402 2.33581 4.54898C1.83819 6.74362 3.18219 8.60225 4.3986 9.77187C4.84943 10.2057 5.42786 10.4226 6.0063 10.4226C6.58473 10.4226 7.16316 10.2057 7.60974 9.77187C8.82615 8.60225 10.1701 6.74787 9.67253 4.55324ZM6.0063 6.68407C5.26624 6.68407 4.66655 6.08438 4.66655 5.34432C4.66655 4.60427 5.26624 4.00458 6.0063 4.00458C6.74635 4.00458 7.34604 4.60427 7.34604 5.34432C7.34604 6.08438 6.74635 6.68407 6.0063 6.68407Z" fill="#F8F8F8"/>
</svg>
