<svg width="33" height="28" viewBox="0 0 33 28" fill="none" xmlns="http://www.w3.org/2000/svg">
<path d="M23.4446 26.9446V3.33347C23.4446 2.5668 22.8223 1.94458 22.0557 1.94458H10.9446C10.1779 1.94458 9.55566 2.5668 9.55566 3.33347V26.9446" stroke="#CD9403" stroke-width="2" stroke-linecap="round" stroke-linejoin="round"/>
<path d="M9.55577 10.2778H4.00022C3.23355 10.2778 2.61133 10.9001 2.61133 11.6667V26.9445" stroke="#CD9403" stroke-width="2" stroke-linecap="round" stroke-linejoin="round"/>
<path d="M30.3893 26.9445V11.6667C30.3893 10.9001 29.767 10.2778 29.0004 10.2778H23.4448" stroke="#CD9403" stroke-width="2" stroke-linecap="round" stroke-linejoin="round"/>
<path d="M13.0278 21.389H19.9723" stroke="#CD9403" stroke-width="2" stroke-linecap="round" stroke-linejoin="round"/>
<path d="M18.5836 21.3889V26.9445" stroke="#CD9403" stroke-width="2" stroke-linecap="round" stroke-linejoin="round"/>
<path d="M14.4166 26.9445V21.3889" stroke="#CD9403" stroke-width="2" stroke-linecap="round" stroke-linejoin="round"/>
<path d="M13.7222 12.3612H19.2777" stroke="#CD9403" stroke-width="2" stroke-linecap="round" stroke-linejoin="round"/>
<path d="M13.7222 16.5279H19.2777" stroke="#CD9403" stroke-width="2" stroke-linecap="round" stroke-linejoin="round"/>
<path d="M13.7222 8.19444H19.2777" stroke="#CD9403" stroke-width="2" stroke-linecap="round" stroke-linejoin="round"/>
<path d="M6.77783 16.5279H9.55561" stroke="#CD9403" stroke-width="2" stroke-linecap="round" stroke-linejoin="round"/>
<path d="M6.77783 21.389H9.55561" stroke="#CD9403" stroke-width="2" stroke-linecap="round" stroke-linejoin="round"/>
<path d="M23.4448 16.5279H26.2226" stroke="#CD9403" stroke-width="2" stroke-linecap="round" stroke-linejoin="round"/>
<path d="M23.4448 21.389H26.2226" stroke="#CD9403" stroke-width="2" stroke-linecap="round" stroke-linejoin="round"/>
<path d="M31.7777 26.9444H1.22217" stroke="#CD9403" stroke-width="2" stroke-linecap="round" stroke-linejoin="round"/>
</svg>
