<svg width="28" height="28" viewBox="0 0 28 28" fill="none" xmlns="http://www.w3.org/2000/svg">
<path d="M14 12.8326H19.8358" stroke="#323232" stroke-width="1.5" stroke-linecap="round" stroke-linejoin="round"/>
<path d="M14 16.3341H19.8358" stroke="#323232" stroke-width="1.5" stroke-linecap="round" stroke-linejoin="round"/>
<path d="M14 19.8355H19.8358" stroke="#323232" stroke-width="1.5" stroke-linecap="round" stroke-linejoin="round"/>
<path d="M9.33137 6.99706H22.17C23.4592 6.99706 24.5044 8.04217 24.5044 9.33137V22.17C24.5044 23.4592 23.4592 24.5044 22.17 24.5044H5.82991C4.54071 24.5044 3.49561 23.4592 3.49561 22.17V22.17C3.49561 20.8808 4.54071 19.8357 5.82991 19.8357H6.99706C8.28626 19.8357 9.33137 18.7906 9.33137 17.5014V6.41349C9.33137 4.80199 8.02499 3.49561 6.41349 3.49561V3.49561C4.80199 3.49561 3.49561 4.80199 3.49561 6.41349V22.17" stroke="#323232" stroke-width="1.5" stroke-linecap="round" stroke-linejoin="round"/>
</svg>
