<svg width="24" height="24" viewBox="0 0 24 24" fill="none" xmlns="http://www.w3.org/2000/svg">
<path d="M9.98389 18.498V18.8477C9.98389 20.0597 10.9669 21.0427 12.1798 21.0427V21.0427C13.3928 21.0427 14.3758 20.0597 14.3758 18.8468V18.4971" stroke="white" stroke-width="1.43713" stroke-linecap="round" stroke-linejoin="round"/>
<path d="M13.9357 6.43282V5.55329C13.9357 4.58371 13.1501 3.79712 12.1795 3.79712V3.79712C11.209 3.79712 10.4233 4.58371 10.4233 5.55329V6.43282" stroke="white" stroke-width="1.43713" stroke-linecap="round" stroke-linejoin="round"/>
<path fill-rule="evenodd" clip-rule="evenodd" d="M6.97041 10.6839V10.6839C6.97041 8.28577 8.91437 6.34277 11.3115 6.34277H13.0485C15.4466 6.34277 17.3896 8.28673 17.3896 10.6839V10.6839V13.3636C17.3896 13.8714 17.5918 14.3591 17.951 14.7184L18.5652 15.3325C18.9245 15.6918 19.1266 16.1794 19.1266 16.6872V16.6872C19.1266 17.6875 18.3161 18.498 17.3158 18.498H7.04418C6.04394 18.498 5.2334 17.6875 5.2334 16.6872V16.6872C5.2334 16.1794 5.43555 15.6918 5.79484 15.3325L6.40897 14.7184C6.76825 14.3591 6.97041 13.8714 6.97041 13.3636V10.6839Z" stroke="white" stroke-width="1.43713" stroke-linecap="round" stroke-linejoin="round"/>
</svg>
