<svg width="24" height="24" viewBox="0 0 24 24" fill="none" xmlns="http://www.w3.org/2000/svg">
<circle cx="12" cy="12" r="12" fill="#CD9403"/>
<path d="M9.51172 16V15.15L11.5517 12.97C11.9517 12.5433 12.2651 12.2 12.4917 11.94C12.7251 11.6733 12.8917 11.44 12.9917 11.24C13.0984 11.04 13.1517 10.83 13.1517 10.61C13.1517 10.25 13.0417 9.97333 12.8217 9.78C12.6017 9.58 12.3184 9.48 11.9717 9.48C11.6117 9.48 11.3017 9.58333 11.0417 9.79C10.7817 9.99 10.6017 10.2833 10.5017 10.67L9.46172 10.37C9.54172 9.97667 9.70172 9.63667 9.94172 9.35C10.1817 9.05667 10.4751 8.83 10.8217 8.67C11.1751 8.51 11.5551 8.43 11.9617 8.43C12.4351 8.43 12.8484 8.52 13.2017 8.7C13.5551 8.87333 13.8284 9.11667 14.0217 9.43C14.2217 9.74333 14.3217 10.1067 14.3217 10.52C14.3217 10.7933 14.2684 11.06 14.1617 11.32C14.0617 11.5733 13.9051 11.8433 13.6917 12.13C13.4784 12.41 13.2051 12.7267 12.8717 13.08L11.0717 15H14.4617V16H9.51172Z" fill="#FEFEFE"/>
</svg>
