<svg width="28" height="29" viewBox="0 0 28 29" fill="none" xmlns="http://www.w3.org/2000/svg">
<path fill-rule="evenodd" clip-rule="evenodd" d="M21.819 22.1384L22.8206 21.1368C23.504 20.4534 23.504 19.3453 22.8206 18.6619L20.5837 16.425C20.1461 15.9874 19.5526 15.7416 18.9338 15.7416C18.3149 15.7416 17.7215 15.9874 17.2839 16.425L15.5303 18.1786C12.8964 17.1964 10.8189 15.1189 9.83665 12.485L11.5902 10.7314C12.5014 9.82018 12.5014 8.34282 11.5902 7.43159L9.35336 5.1947C9.02517 4.86651 8.58005 4.68213 8.11592 4.68213C7.65179 4.68213 7.20666 4.86651 6.87847 5.1947L5.87683 6.19633C5.10275 6.9704 4.66746 8.01999 4.66651 9.1147V9.1147C4.66323 12.8908 6.16183 16.5132 8.83194 19.1833C11.502 21.8534 15.1244 23.352 18.9005 23.3488V23.3488C19.9953 23.3478 21.0449 22.9125 21.819 22.1384V22.1384Z" stroke="#323232" stroke-width="1.5" stroke-linecap="round" stroke-linejoin="round"/>
</svg>
