<svg width="28" height="29" viewBox="0 0 28 29" fill="none" xmlns="http://www.w3.org/2000/svg">
<path d="M8.16422 24.5202H6.99706C5.06326 24.5202 3.49561 22.9525 3.49561 21.0187V19.8516" stroke="#323232" stroke-width="1.5" stroke-linecap="round" stroke-linejoin="round"/>
<path d="M19.8359 3.51074H21.0031C22.9369 3.51074 24.5045 5.0784 24.5045 7.0122V8.17935" stroke="#323232" stroke-width="1.5" stroke-linecap="round" stroke-linejoin="round"/>
<path d="M3.49561 8.17935V7.0122C3.49561 5.0784 5.06326 3.51074 6.99706 3.51074H8.16422" stroke="#323232" stroke-width="1.5" stroke-linecap="round" stroke-linejoin="round"/>
<path d="M24.5045 19.8516V21.0187C24.5045 22.9525 22.9369 24.5202 21.0031 24.5202H19.8359" stroke="#323232" stroke-width="1.5" stroke-linecap="round" stroke-linejoin="round"/>
<path fill-rule="evenodd" clip-rule="evenodd" d="M10.4985 7.0127H17.5014C19.4352 7.0127 21.0029 8.58035 21.0029 10.5142V12.8485H6.99707V10.5142C6.99707 8.58035 8.56473 7.0127 10.4985 7.0127Z" stroke="#323232" stroke-width="1.5" stroke-linecap="round" stroke-linejoin="round"/>
<path d="M21.0029 16.3496V17.5168C21.0029 19.4506 19.4352 21.0182 17.5014 21.0182H10.4985C8.56473 21.0182 6.99707 19.4506 6.99707 17.5168V16.3496" stroke="#323232" stroke-width="1.5" stroke-linecap="round" stroke-linejoin="round"/>
<path d="M4.6626 12.8482H23.337" stroke="#323232" stroke-width="1.5" stroke-linecap="round" stroke-linejoin="round"/>
</svg>
