<svg width="28" height="29" viewBox="0 0 28 29" fill="none" xmlns="http://www.w3.org/2000/svg">
<path d="M13.9998 14.0234V8.77344" stroke="#323232" stroke-width="1.5" stroke-linecap="round" stroke-linejoin="round"/>
<path d="M13.9987 18.1066C13.8377 18.1066 13.707 18.2373 13.7082 18.3983C13.7082 18.5593 13.8388 18.6899 13.9998 18.6899C14.1608 18.6899 14.2915 18.5593 14.2915 18.3983C14.2915 18.2373 14.1608 18.1066 13.9987 18.1066" stroke="#323232" stroke-width="1.5" stroke-linecap="round" stroke-linejoin="round"/>
<path fill-rule="evenodd" clip-rule="evenodd" d="M3.5 16.8015V11.2458C3.5 9.37683 4.494 7.649 6.10867 6.70867L11.3587 3.65317C12.9908 2.7035 15.008 2.7035 16.6402 3.65317L21.8902 6.70867C23.506 7.649 24.5 9.37683 24.5 11.2458V16.8015C24.5 18.6705 23.506 20.3983 21.8913 21.3387L16.6413 24.3942C15.0092 25.3438 12.992 25.3438 11.3598 24.3942L6.10983 21.3387C4.494 20.3983 3.5 18.6705 3.5 16.8015Z" stroke="#323232" stroke-width="1.5" stroke-linecap="round" stroke-linejoin="round"/>
</svg>
