<svg width="42" height="11" viewBox="0 0 42 11" fill="none" xmlns="http://www.w3.org/2000/svg">
<rect width="41.5463" height="11" rx="4.4" fill="#FBBC1B" fill-opacity="0.9"/>
<path d="M9.53484 7V3.36888H10.8557C11.0994 3.36888 11.3138 3.41437 11.4991 3.50535C11.6843 3.59308 11.8289 3.72306 11.9328 3.89527C12.0401 4.06424 12.0937 4.26732 12.0937 4.50452C12.0937 4.75472 12.0303 4.96917 11.9036 5.14789C11.7801 5.3266 11.6128 5.45657 11.4016 5.5378L12.2399 7H11.5868L10.6948 5.41596L11.0701 5.63528H10.11V7H9.53484ZM10.11 5.12352H10.8654C10.9987 5.12352 11.114 5.09752 11.2115 5.04553C11.309 4.99354 11.3837 4.92206 11.4357 4.83108C11.4909 4.73685 11.5185 4.62637 11.5185 4.49965C11.5185 4.37292 11.4909 4.26407 11.4357 4.17309C11.3837 4.07886 11.309 4.00737 11.2115 3.95863C11.114 3.90664 10.9987 3.88065 10.8654 3.88065H10.11V5.12352ZM13.712 7.05849C13.4488 7.05849 13.2148 6.99838 13.0101 6.87815C12.8086 6.75468 12.6511 6.58896 12.5373 6.381C12.4236 6.1698 12.3667 5.93422 12.3667 5.67428C12.3667 5.40783 12.4236 5.17226 12.5373 4.96755C12.6543 4.76284 12.8103 4.602 13.0052 4.48502C13.2002 4.3648 13.4211 4.30469 13.6681 4.30469C13.8663 4.30469 14.0434 4.3388 14.1994 4.40704C14.3553 4.47528 14.4869 4.56951 14.5941 4.68973C14.7014 4.80671 14.7826 4.94155 14.8378 5.09427C14.8963 5.24699 14.9256 5.40946 14.9256 5.58167C14.9256 5.62391 14.924 5.66778 14.9207 5.71327C14.9175 5.75876 14.911 5.801 14.9012 5.83999H12.8005V5.40133H14.5893L14.3261 5.60117C14.3586 5.44195 14.3472 5.3006 14.292 5.17713C14.24 5.05041 14.1587 4.9513 14.0483 4.87982C13.941 4.80508 13.8143 4.76772 13.6681 4.76772C13.5219 4.76772 13.3919 4.80508 13.2782 4.87982C13.1644 4.9513 13.0767 5.05528 13.015 5.19175C12.9532 5.32497 12.9289 5.48744 12.9419 5.67915C12.9256 5.85786 12.95 6.01383 13.015 6.14705C13.0832 6.28027 13.1774 6.38425 13.2977 6.45899C13.4211 6.53372 13.5609 6.57109 13.7168 6.57109C13.876 6.57109 14.0109 6.53535 14.1214 6.46386C14.2351 6.39238 14.3245 6.29977 14.3894 6.18604L14.8378 6.40537C14.7859 6.52885 14.7046 6.64095 14.5941 6.74168C14.4869 6.83916 14.3569 6.91714 14.2042 6.97563C14.0548 7.03087 13.8907 7.05849 13.712 7.05849ZM16.1801 7.05849C16.0014 7.05849 15.8438 7.02762 15.7074 6.96588C15.5741 6.9009 15.4702 6.81316 15.3954 6.70269C15.3207 6.58896 15.2833 6.45574 15.2833 6.30302C15.2833 6.16005 15.3142 6.0317 15.3759 5.91798C15.4409 5.80425 15.54 5.70839 15.6732 5.63041C15.8065 5.55243 15.9738 5.49719 16.1753 5.46469L17.0916 5.3136V5.74739L16.2825 5.88873C16.1363 5.91473 16.029 5.96184 15.9608 6.03008C15.8926 6.09506 15.8584 6.17955 15.8584 6.28352C15.8584 6.38425 15.8958 6.46711 15.9706 6.5321C16.0485 6.59383 16.1476 6.6247 16.2679 6.6247C16.4173 6.6247 16.5473 6.59221 16.6578 6.52722C16.7715 6.46224 16.8592 6.37613 16.921 6.2689C16.9827 6.15843 17.0136 6.03658 17.0136 5.90335V5.22587C17.0136 5.0959 16.9648 4.99029 16.8674 4.90906C16.7731 4.82458 16.6464 4.78234 16.4872 4.78234C16.341 4.78234 16.2126 4.82133 16.1021 4.89931C15.9949 4.97405 15.9153 5.07153 15.8633 5.19175L15.4052 4.96267C15.4539 4.8327 15.5335 4.71898 15.644 4.6215C15.7545 4.52077 15.8828 4.44278 16.029 4.38754C16.1785 4.33231 16.3361 4.30469 16.5018 4.30469C16.7098 4.30469 16.8934 4.34368 17.0526 4.42166C17.215 4.49965 17.3401 4.6085 17.4279 4.74822C17.5189 4.88469 17.5643 5.04391 17.5643 5.22587V7H17.038V6.52235L17.1501 6.53697C17.0883 6.6442 17.0087 6.7368 16.9112 6.81479C16.817 6.89277 16.7081 6.95288 16.5847 6.99513C16.4644 7.03737 16.3296 7.05849 16.1801 7.05849ZM18.1596 7V3.31039H18.7103V7H18.1596ZM21.4345 7.05849C21.2071 7.05849 20.9959 7.01625 20.8009 6.93176C20.6059 6.84403 20.4402 6.72543 20.3038 6.57596C20.1673 6.42649 20.0666 6.25428 20.0016 6.05932L20.489 5.85461C20.5767 6.07882 20.705 6.25103 20.874 6.37126C21.043 6.49148 21.2379 6.55159 21.4589 6.55159C21.5889 6.55159 21.7026 6.5321 21.8001 6.49311C21.8975 6.45086 21.9723 6.39238 22.0243 6.31764C22.0795 6.24291 22.1071 6.1568 22.1071 6.05932C22.1071 5.9261 22.0698 5.8205 21.995 5.74251C21.9203 5.66453 21.8098 5.60279 21.6636 5.5573L20.9812 5.34285C20.7083 5.25836 20.5003 5.13001 20.3574 4.9578C20.2144 4.78234 20.1429 4.57763 20.1429 4.34368C20.1429 4.13897 20.1933 3.96026 20.294 3.80754C20.3947 3.65157 20.5328 3.52972 20.7083 3.44199C20.887 3.35426 21.0901 3.31039 21.3175 3.31039C21.5352 3.31039 21.7335 3.34939 21.9122 3.42737C22.0909 3.5021 22.2436 3.60608 22.3703 3.7393C22.5003 3.87253 22.5945 4.02687 22.653 4.20233L22.1754 4.41191C22.1039 4.2202 21.9918 4.07236 21.8391 3.96838C21.6896 3.8644 21.5157 3.81241 21.3175 3.81241C21.1973 3.81241 21.0917 3.83353 21.0007 3.87578C20.9098 3.91477 20.8383 3.97326 20.7863 4.05124C20.7375 4.12597 20.7132 4.21371 20.7132 4.31443C20.7132 4.43141 20.7505 4.53539 20.8253 4.62637C20.9 4.71735 21.0137 4.78559 21.1664 4.83108L21.8001 5.03091C22.0893 5.11864 22.307 5.24537 22.4532 5.41108C22.5994 5.57355 22.6725 5.77663 22.6725 6.02033C22.6725 6.22179 22.6189 6.4005 22.5117 6.55647C22.4077 6.71243 22.2631 6.83591 22.0779 6.92689C21.8927 7.01462 21.6782 7.05849 21.4345 7.05849ZM24.3563 7.02924C24.0801 7.02924 23.8656 6.95126 23.7129 6.79529C23.5602 6.63933 23.4838 6.42 23.4838 6.1373V4.86032H23.0208V4.36317H23.0939C23.2174 4.36317 23.3132 4.32743 23.3815 4.25595C23.4497 4.18446 23.4838 4.08698 23.4838 3.96351V3.7588H24.0346V4.36317H24.6341V4.86032H24.0346V6.11293C24.0346 6.20392 24.0492 6.2819 24.0785 6.34689C24.1077 6.40862 24.1548 6.45736 24.2198 6.49311C24.2848 6.5256 24.3693 6.54185 24.4733 6.54185C24.4992 6.54185 24.5285 6.54022 24.561 6.53697C24.5935 6.53372 24.6243 6.53047 24.6536 6.52722V7C24.6081 7.0065 24.5577 7.013 24.5025 7.0195C24.4473 7.02599 24.3985 7.02924 24.3563 7.02924ZM25.9081 7.05849C25.7294 7.05849 25.5718 7.02762 25.4353 6.96588C25.3021 6.9009 25.1981 6.81316 25.1234 6.70269C25.0487 6.58896 25.0113 6.45574 25.0113 6.30302C25.0113 6.16005 25.0422 6.0317 25.1039 5.91798C25.1689 5.80425 25.268 5.70839 25.4012 5.63041C25.5344 5.55243 25.7018 5.49719 25.9032 5.46469L26.8195 5.3136V5.74739L26.0105 5.88873C25.8642 5.91473 25.757 5.96184 25.6888 6.03008C25.6205 6.09506 25.5864 6.17955 25.5864 6.28352C25.5864 6.38425 25.6238 6.46711 25.6985 6.5321C25.7765 6.59383 25.8756 6.6247 25.9958 6.6247C26.1453 6.6247 26.2753 6.59221 26.3858 6.52722C26.4995 6.46224 26.5872 6.37613 26.649 6.2689C26.7107 6.15843 26.7416 6.03658 26.7416 5.90335V5.22587C26.7416 5.0959 26.6928 4.99029 26.5953 4.90906C26.5011 4.82458 26.3744 4.78234 26.2152 4.78234C26.069 4.78234 25.9406 4.82133 25.8301 4.89931C25.7229 4.97405 25.6433 5.07153 25.5913 5.19175L25.1331 4.96267C25.1819 4.8327 25.2615 4.71898 25.372 4.6215C25.4824 4.52077 25.6108 4.44278 25.757 4.38754C25.9065 4.33231 26.0641 4.30469 26.2298 4.30469C26.4378 4.30469 26.6213 4.34368 26.7806 4.42166C26.943 4.49965 27.0681 4.6085 27.1559 4.74822C27.2468 4.88469 27.2923 5.04391 27.2923 5.22587V7H26.7659V6.52235L26.878 6.53697C26.8163 6.6442 26.7367 6.7368 26.6392 6.81479C26.545 6.89277 26.4361 6.95288 26.3127 6.99513C26.1924 7.03737 26.0576 7.05849 25.9081 7.05849ZM28.9805 7.02924C28.7043 7.02924 28.4898 6.95126 28.3371 6.79529C28.1844 6.63933 28.108 6.42 28.108 6.1373V4.86032H27.645V4.36317H27.7181C27.8416 4.36317 27.9374 4.32743 28.0057 4.25595C28.0739 4.18446 28.108 4.08698 28.108 3.96351V3.7588H28.6588V4.36317H29.2583V4.86032H28.6588V6.11293C28.6588 6.20392 28.6734 6.2819 28.7027 6.34689C28.7319 6.40862 28.779 6.45736 28.844 6.49311C28.909 6.5256 28.9935 6.54185 29.0974 6.54185C29.1234 6.54185 29.1527 6.54022 29.1852 6.53697C29.2177 6.53372 29.2485 6.53047 29.2778 6.52722V7C29.2323 7.0065 29.1819 7.013 29.1267 7.0195C29.0715 7.02599 29.0227 7.02924 28.9805 7.02924ZM30.9569 7.05849C30.6937 7.05849 30.4598 6.99838 30.2551 6.87815C30.0536 6.75468 29.896 6.58896 29.7823 6.381C29.6686 6.1698 29.6117 5.93422 29.6117 5.67428C29.6117 5.40783 29.6686 5.17226 29.7823 4.96755C29.8993 4.76284 30.0552 4.602 30.2502 4.48502C30.4451 4.3648 30.6661 4.30469 30.913 4.30469C31.1113 4.30469 31.2883 4.3388 31.4443 4.40704C31.6003 4.47528 31.7319 4.56951 31.8391 4.68973C31.9463 4.80671 32.0276 4.94155 32.0828 5.09427C32.1413 5.24699 32.1705 5.40946 32.1705 5.58167C32.1705 5.62391 32.1689 5.66778 32.1657 5.71327C32.1624 5.75876 32.1559 5.801 32.1462 5.83999H30.0455V5.40133H31.8342L31.571 5.60117C31.6035 5.44195 31.5922 5.3006 31.5369 5.17713C31.4849 5.05041 31.4037 4.9513 31.2932 4.87982C31.186 4.80508 31.0593 4.76772 30.913 4.76772C30.7668 4.76772 30.6369 4.80508 30.5231 4.87982C30.4094 4.9513 30.3217 5.05528 30.2599 5.19175C30.1982 5.32497 30.1738 5.48744 30.1868 5.67915C30.1706 5.85786 30.1949 6.01383 30.2599 6.14705C30.3282 6.28027 30.4224 6.38425 30.5426 6.45899C30.6661 6.53372 30.8058 6.57109 30.9618 6.57109C31.121 6.57109 31.2558 6.53535 31.3663 6.46386C31.4801 6.39238 31.5694 6.29977 31.6344 6.18604L32.0828 6.40537C32.0308 6.52885 31.9496 6.64095 31.8391 6.74168C31.7319 6.83916 31.6019 6.91714 31.4492 6.97563C31.2997 7.03087 31.1356 7.05849 30.9569 7.05849Z" fill="#705102"/>
</svg>
