<svg width="14" height="14" viewBox="0 0 14 14" fill="none" xmlns="http://www.w3.org/2000/svg">
<path fill-rule="evenodd" clip-rule="evenodd" d="M2.375 5.34342V11.4141C2.375 11.8332 2.82053 12.1009 3.18877 11.9005C4.08811 11.4097 5.41146 10.6881 5.41146 10.6881C5.41146 10.6881 6.7348 11.4103 7.63415 11.9005C8.00239 12.1009 8.44792 11.8332 8.44792 11.4141V5.34342C8.44792 4.73337 7.9538 4.23926 7.34375 4.23926H3.47917C2.86967 4.23926 2.375 4.73337 2.375 5.34342Z" stroke="#78828A" stroke-width="0.828125" stroke-linecap="round" stroke-linejoin="round"/>
<path d="M5.13525 4.23958V3.13542C5.13525 2.52536 5.62937 2.03125 6.23942 2.03125H10.104C10.7141 2.03125 11.2082 2.52536 11.2082 3.13542V9.23207C11.2082 9.6511 10.7599 9.91721 10.3916 9.7168L8.44775 8.65625" stroke="#78828A" stroke-width="0.828125" stroke-linecap="round" stroke-linejoin="round"/>
</svg>
