<svg width="39" height="12" viewBox="0 0 39 12" fill="none" xmlns="http://www.w3.org/2000/svg">
<rect x="0.960449" y="0.605225" width="37.4929" height="11" rx="5.5" fill="#FBBC1B" fill-opacity="0.9"/>
<path d="M11.4382 7.66353C11.2115 7.66353 11.0009 7.62142 10.8065 7.5372C10.6122 7.44973 10.447 7.33149 10.3109 7.18248C10.1749 7.03347 10.0744 6.86178 10.0096 6.66741L10.4956 6.46333C10.583 6.68685 10.711 6.85854 10.8794 6.9784C11.0479 7.09826 11.2422 7.15819 11.4625 7.15819C11.5921 7.15819 11.7055 7.13875 11.8027 7.09988C11.8998 7.05776 11.9743 6.99945 12.0262 6.92495C12.0812 6.85044 12.1088 6.7646 12.1088 6.66741C12.1088 6.5346 12.0715 6.42932 11.997 6.35157C11.9225 6.27382 11.8124 6.21228 11.6666 6.16692L10.9863 5.95312C10.7142 5.8689 10.5069 5.74094 10.3644 5.56925C10.2218 5.39432 10.1506 5.19024 10.1506 4.957C10.1506 4.75292 10.2008 4.57475 10.3012 4.4225C10.4016 4.26701 10.5393 4.14553 10.7142 4.05806C10.8924 3.9706 11.0948 3.92687 11.3216 3.92687C11.5386 3.92687 11.7363 3.96574 11.9144 4.04349C12.0926 4.11799 12.2448 4.22165 12.3712 4.35447C12.5008 4.48729 12.5947 4.64116 12.653 4.81609L12.1768 5.02503C12.1055 4.8339 11.9938 4.68651 11.8415 4.58285C11.6925 4.47919 11.5192 4.42736 11.3216 4.42736C11.2017 4.42736 11.0965 4.44841 11.0058 4.49053C10.9151 4.5294 10.8438 4.58771 10.792 4.66545C10.7434 4.73996 10.7191 4.82742 10.7191 4.92785C10.7191 5.04447 10.7563 5.14813 10.8308 5.23883C10.9053 5.32953 11.0187 5.39756 11.171 5.44291L11.8027 5.64214C12.091 5.7296 12.308 5.85594 12.4538 6.02115C12.5996 6.18312 12.6724 6.38558 12.6724 6.62854C12.6724 6.82938 12.619 7.00755 12.5121 7.16304C12.4084 7.31854 12.2643 7.44163 12.0796 7.53234C11.895 7.6198 11.6812 7.66353 11.4382 7.66353ZM14.4483 7.66353C14.1859 7.66353 13.9526 7.6036 13.7485 7.48375C13.5477 7.36065 13.3906 7.19544 13.2772 6.98812C13.1638 6.77755 13.1071 6.5427 13.1071 6.28354C13.1071 6.01791 13.1638 5.78305 13.2772 5.57897C13.3938 5.37489 13.5493 5.21454 13.7437 5.09792C13.9381 4.97806 14.1583 4.91813 14.4045 4.91813C14.6021 4.91813 14.7787 4.95214 14.9342 5.02017C15.0897 5.0882 15.2209 5.18214 15.3278 5.302C15.4347 5.41862 15.5157 5.55305 15.5707 5.70531C15.629 5.85756 15.6582 6.01953 15.6582 6.19122C15.6582 6.23333 15.6566 6.27706 15.6533 6.32242C15.6501 6.36777 15.6436 6.40988 15.6339 6.44875H13.5396V6.01143H15.3229L15.0605 6.21066C15.0929 6.05192 15.0816 5.91101 15.0265 5.78791C14.9747 5.66157 14.8937 5.56277 14.7835 5.49151C14.6766 5.417 14.5503 5.37975 14.4045 5.37975C14.2588 5.37975 14.1292 5.417 14.0158 5.49151C13.9024 5.56277 13.815 5.66643 13.7534 5.80249C13.6919 5.93531 13.6676 6.09728 13.6805 6.2884C13.6643 6.46657 13.6886 6.62206 13.7534 6.75488C13.8214 6.88769 13.9154 6.99136 14.0352 7.06586C14.1583 7.14037 14.2976 7.17762 14.4531 7.17762C14.6119 7.17762 14.7463 7.14199 14.8564 7.07072C14.9698 6.99945 15.0589 6.90713 15.1237 6.79375L15.5707 7.01241C15.5189 7.13551 15.4379 7.24727 15.3278 7.34769C15.2209 7.44487 15.0913 7.52262 14.939 7.58093C14.79 7.636 14.6264 7.66353 14.4483 7.66353ZM16.1455 7.60522V4.97644H16.6702V5.50608L16.6217 5.42834C16.68 5.25665 16.7739 5.13355 16.9035 5.05904C17.0331 4.9813 17.1886 4.94242 17.37 4.94242H17.5303V5.44291H17.3019C17.1205 5.44291 16.9731 5.4996 16.8598 5.61298C16.7496 5.72312 16.6945 5.88185 16.6945 6.08918V7.60522H16.1455ZM18.6202 7.60522L17.5901 4.97644H18.1878L18.9798 7.11931H18.7612L19.5532 4.97644H20.1557L19.1207 7.60522H18.6202ZM20.4803 7.60522V4.97644H21.0294V7.60522H20.4803ZM20.4803 4.61686V3.98518H21.0294V4.61686H20.4803ZM22.8716 7.66353C22.6092 7.66353 22.376 7.6036 22.1719 7.48375C21.971 7.36065 21.8107 7.19544 21.6908 6.98812C21.5742 6.78079 21.5159 6.54594 21.5159 6.28354C21.5159 6.02439 21.5742 5.79115 21.6908 5.58383C21.8074 5.37651 21.9678 5.21454 22.1719 5.09792C22.376 4.97806 22.6092 4.91813 22.8716 4.91813C23.0498 4.91813 23.2166 4.95052 23.3721 5.01531C23.5276 5.07686 23.662 5.1627 23.7754 5.27284C23.892 5.38298 23.9779 5.51094 24.0329 5.65672L23.5519 5.88024C23.4968 5.74418 23.4077 5.63566 23.2846 5.55467C23.1648 5.47045 23.0271 5.42834 22.8716 5.42834C22.7226 5.42834 22.5881 5.46559 22.4683 5.5401C22.3517 5.61136 22.2593 5.71341 22.1913 5.84622C22.1233 5.9758 22.0893 6.12319 22.0893 6.2884C22.0893 6.45361 22.1233 6.60263 22.1913 6.73544C22.2593 6.86502 22.3517 6.96706 22.4683 7.04157C22.5881 7.11607 22.7226 7.15333 22.8716 7.15333C23.0303 7.15333 23.168 7.11283 23.2846 7.03185C23.4045 6.94762 23.4936 6.83586 23.5519 6.69657L24.0329 6.92495C23.9811 7.06424 23.8969 7.19058 23.7802 7.30396C23.6669 7.4141 23.5324 7.50156 23.3769 7.56635C23.2214 7.63114 23.053 7.66353 22.8716 7.66353ZM25.7552 7.66353C25.4928 7.66353 25.2596 7.6036 25.0555 7.48375C24.8547 7.36065 24.6975 7.19544 24.5842 6.98812C24.4708 6.77755 24.4141 6.5427 24.4141 6.28354C24.4141 6.01791 24.4708 5.78305 24.5842 5.57897C24.7008 5.37489 24.8563 5.21454 25.0506 5.09792C25.245 4.97806 25.4653 4.91813 25.7115 4.91813C25.9091 4.91813 26.0856 4.95214 26.2411 5.02017C26.3966 5.0882 26.5278 5.18214 26.6347 5.302C26.7416 5.41862 26.8226 5.55305 26.8777 5.70531C26.936 5.85756 26.9651 6.01953 26.9651 6.19122C26.9651 6.23333 26.9635 6.27706 26.9603 6.32242C26.957 6.36777 26.9506 6.40988 26.9408 6.44875H24.8466V6.01143H26.6299L26.3675 6.21066C26.3999 6.05192 26.3885 5.91101 26.3335 5.78791C26.2816 5.66157 26.2006 5.56277 26.0905 5.49151C25.9836 5.417 25.8573 5.37975 25.7115 5.37975C25.5657 5.37975 25.4361 5.417 25.3228 5.49151C25.2094 5.56277 25.1219 5.66643 25.0604 5.80249C24.9988 5.93531 24.9745 6.09728 24.9875 6.2884C24.9713 6.46657 24.9956 6.62206 25.0604 6.75488C25.1284 6.88769 25.2223 6.99136 25.3422 7.06586C25.4653 7.14037 25.6046 7.17762 25.7601 7.17762C25.9188 7.17762 26.0532 7.14199 26.1634 7.07072C26.2768 6.99945 26.3658 6.90713 26.4306 6.79375L26.8777 7.01241C26.8258 7.13551 26.7449 7.24727 26.6347 7.34769C26.5278 7.44487 26.3982 7.52262 26.246 7.58093C26.097 7.636 25.9334 7.66353 25.7552 7.66353ZM28.4242 7.66353C28.1554 7.66353 27.9189 7.59713 27.7148 7.46431C27.514 7.33149 27.3731 7.15333 27.2921 6.92981L27.7148 6.73058C27.7861 6.8796 27.8833 6.99783 28.0064 7.0853C28.1327 7.17276 28.272 7.21649 28.4242 7.21649C28.5538 7.21649 28.6591 7.18734 28.7401 7.12903C28.8211 7.07072 28.8616 6.99136 28.8616 6.89093C28.8616 6.82614 28.8437 6.77431 28.8081 6.73544C28.7725 6.69333 28.7271 6.65931 28.6721 6.6334C28.6202 6.60748 28.5668 6.58805 28.5117 6.57509L28.0987 6.45847C27.8719 6.39368 27.7019 6.2965 27.5885 6.16692C27.4783 6.03411 27.4233 5.88024 27.4233 5.70531C27.4233 5.54658 27.4638 5.4089 27.5447 5.29228C27.6257 5.17242 27.7375 5.0801 27.88 5.01531C28.0226 4.95052 28.1829 4.91813 28.3611 4.91813C28.6008 4.91813 28.8146 4.97806 29.0025 5.09792C29.1904 5.21454 29.3232 5.37813 29.4009 5.58869L28.9782 5.78791C28.9264 5.66157 28.8437 5.56115 28.7304 5.48665C28.6202 5.41214 28.4955 5.37489 28.3562 5.37489C28.2364 5.37489 28.1408 5.40404 28.0695 5.46235C27.9983 5.51742 27.9626 5.59031 27.9626 5.68101C27.9626 5.74256 27.9788 5.79439 28.0112 5.8365C28.0436 5.87538 28.0857 5.90777 28.1376 5.93369C28.1894 5.95636 28.2428 5.9758 28.2979 5.992L28.7255 6.11833C28.9426 6.17988 29.1094 6.27706 29.226 6.40988C29.3426 6.53946 29.4009 6.69495 29.4009 6.87636C29.4009 7.03185 29.3588 7.16952 29.2746 7.28938C29.1936 7.406 29.0802 7.49832 28.9345 7.56635C28.7887 7.63114 28.6186 7.66353 28.4242 7.66353Z" fill="#705102"/>
</svg>
