<svg width="34" height="35" viewBox="0 0 34 35" fill="none" xmlns="http://www.w3.org/2000/svg">
<path fill-rule="evenodd" clip-rule="evenodd" d="M5.02317 27.1706H5.99579C7.6278 27.1713 9.22313 27.6548 10.581 28.5601V28.5601C11.9389 29.4654 13.5343 29.9488 15.1663 29.9495H18.501C20.133 29.9488 21.7283 29.4654 23.0862 28.5601V28.5601C24.4441 27.6548 26.0395 27.1713 27.6715 27.1706H28.6441C29.7952 27.1706 30.7283 26.2375 30.7283 25.0864V25.0864C30.7283 23.9353 29.7952 23.0022 28.6441 23.0022H5.02317C3.87209 23.0022 2.93896 23.9353 2.93896 25.0864V25.0864C2.93896 26.2375 3.87209 27.1706 5.02317 27.1706Z" stroke="#CD9403" stroke-width="2.16667" stroke-linecap="round" stroke-linejoin="round"/>
<path d="M9.88574 8.8299V11.8867C9.88574 13.0378 10.8189 13.9709 11.9699 13.9709V13.9709C13.121 13.9709 14.0541 13.0378 14.0541 11.8867V9.10779C14.0541 7.57303 15.2983 6.32886 16.8331 6.32886V6.32886C18.3678 6.32886 19.612 7.57303 19.612 9.10779V11.8867C19.612 13.0378 20.5451 13.9709 21.6962 13.9709V13.9709C22.8473 13.9709 23.7804 13.0378 23.7804 11.8867V8.8299" stroke="#CD9403" stroke-width="2.16667" stroke-linecap="round" stroke-linejoin="round"/>
<path d="M19.2402 7.71826H19.6126C24.2169 7.71826 27.9494 11.4508 27.9494 16.0551V23.0024" stroke="#CD9403" stroke-width="2.16667" stroke-linecap="round" stroke-linejoin="round"/>
<path d="M14.427 7.71826H14.0546C9.45029 7.71826 5.71777 11.4508 5.71777 16.0551V23.0024" stroke="#CD9403" stroke-width="2.16667" stroke-linecap="round" stroke-linejoin="round"/>
</svg>
