<svg width="24" height="25" viewBox="0 0 24 25" fill="none" xmlns="http://www.w3.org/2000/svg">
<path fill-rule="evenodd" clip-rule="evenodd" d="M7.50832 3.88086H16.4828C18.9553 3.88086 20.9606 5.87289 20.9606 8.33225V17.2519C20.9606 19.7092 18.9563 21.7022 16.4818 21.7022H7.50832C5.03483 21.7022 3.02954 19.7102 3.02954 17.2509V8.33225C3.02954 5.87388 5.03383 3.88086 7.50832 3.88086V3.88086Z" stroke="#FFF9E9" stroke-width="1.48512" stroke-linecap="round" stroke-linejoin="round"/>
<path d="M16.9251 7.55713C16.7398 7.55812 16.5894 7.70762 16.5894 7.89177C16.5894 8.07593 16.7408 8.22543 16.9261 8.22543C17.1114 8.22543 17.2618 8.07593 17.2618 7.89177C17.2628 7.70663 17.1114 7.55713 16.9251 7.55713" stroke="#FFF9E9" stroke-width="1.48512" stroke-linecap="round" stroke-linejoin="round"/>
<path d="M14.531 10.2712C15.9315 11.6632 15.9315 13.92 14.531 15.3119C13.1305 16.7038 10.8598 16.7038 9.45931 15.3119C8.05881 13.92 8.05881 11.6632 9.45931 10.2712C10.8598 8.87931 13.1305 8.87931 14.531 10.2712" stroke="#FFF9E9" stroke-width="1.48512" stroke-linecap="round" stroke-linejoin="round"/>
</svg>
