<svg width="25" height="25" viewBox="0 0 25 25" fill="none" xmlns="http://www.w3.org/2000/svg">
<path fill-rule="evenodd" clip-rule="evenodd" d="M18.5328 6.6156C16.8931 4.98494 14.7125 4.08595 12.3894 4.08496C7.60086 4.08496 3.70484 7.95517 3.70384 12.7125C3.70185 14.2263 4.10132 15.7144 4.86239 17.0263L3.63013 21.4974L8.23442 20.2975C9.50853 20.9866 10.935 21.3479 12.3855 21.3479H12.3894C17.176 21.3479 21.0721 17.4767 21.0741 12.7194C21.0751 10.4145 20.1725 8.24724 18.5328 6.6156Z" stroke="#FFF9E9" stroke-width="1.48512" stroke-linecap="round" stroke-linejoin="round"/>
<path d="M13.4434 14.3362L13.8478 13.9372C14.2194 13.5709 14.8071 13.5244 15.2355 13.8234C15.6499 14.1125 16.0244 14.3719 16.3731 14.6135C16.927 14.9956 16.9937 15.7798 16.5165 16.253L16.1589 16.6085" stroke="#FFF9E9" stroke-width="1.48512" stroke-linecap="round" stroke-linejoin="round"/>
<path d="M8.51221 9.00859L8.86983 8.65315C9.346 8.1799 10.135 8.24623 10.5195 8.79572C10.7616 9.14225 11.0226 9.51452 11.3144 9.92639C11.6153 10.3521 11.5695 10.9363 11.1999 11.3056L10.7984 11.7075" stroke="#FFF9E9" stroke-width="1.48512" stroke-linecap="round" stroke-linejoin="round"/>
<path d="M16.1588 16.6083C14.6835 18.0677 12.2041 16.8281 10.2466 14.8816" stroke="#FFF9E9" stroke-width="1.48512" stroke-linecap="round" stroke-linejoin="round"/>
<path d="M10.2485 14.8847C8.29107 12.9382 7.04387 10.4748 8.51222 9.00854" stroke="#FFF9E9" stroke-width="1.48512" stroke-linecap="round" stroke-linejoin="round"/>
<path d="M10.7983 11.7075C11.1161 12.2055 11.5236 12.6986 11.9838 13.156L11.9858 13.158C12.446 13.6154 12.9421 14.0203 13.4432 14.3362" stroke="#FFF9E9" stroke-width="1.48512" stroke-linecap="round" stroke-linejoin="round"/>
</svg>
