<svg width="25" height="25" viewBox="0 0 25 25" fill="none" xmlns="http://www.w3.org/2000/svg">
<path d="M20.8342 21.2515V5.25146C20.8342 4.1469 19.9388 3.25146 18.8342 3.25146H6.83423C5.72966 3.25146 4.83423 4.1469 4.83423 5.25146V21.2515" stroke="#475467" stroke-width="1.5" stroke-linecap="round" stroke-linejoin="round"/>
<path d="M12.8342 3.25146V7.25146" stroke="#475467" stroke-width="1.5" stroke-linecap="round" stroke-linejoin="round"/>
<path fill-rule="evenodd" clip-rule="evenodd" d="M11.8891 7.25146H13.7793C14.6402 7.25146 15.4045 7.80232 15.6767 8.619L15.7821 8.93523C15.8838 9.24018 15.8326 9.57541 15.6447 9.83618C15.4567 10.0969 15.1549 10.2515 14.8334 10.2515H10.835C10.5135 10.2515 10.2117 10.0969 10.0237 9.83618C9.83577 9.57541 9.78464 9.24018 9.88629 8.93523L9.9917 8.619C10.2639 7.80232 11.0282 7.25146 11.8891 7.25146Z" stroke="#475467" stroke-width="1.5" stroke-linecap="round" stroke-linejoin="round"/>
<path d="M9.83423 13.2515V13.7515" stroke="#475467" stroke-width="1.5" stroke-linecap="round" stroke-linejoin="round"/>
<path d="M12.8342 13.2515V14.2515" stroke="#475467" stroke-width="1.5" stroke-linecap="round" stroke-linejoin="round"/>
<path d="M15.8342 13.2515V13.7515" stroke="#475467" stroke-width="1.5" stroke-linecap="round" stroke-linejoin="round"/>
<path d="M15.8342 16.2515V17.2515" stroke="#475467" stroke-width="1.5" stroke-linecap="round" stroke-linejoin="round"/>
<path d="M12.8342 16.7515V17.2515" stroke="#475467" stroke-width="1.5" stroke-linecap="round" stroke-linejoin="round"/>
<path d="M9.83423 16.2515V17.2515" stroke="#475467" stroke-width="1.5" stroke-linecap="round" stroke-linejoin="round"/>
<path d="M21.8342 21.2515H3.83423" stroke="#475467" stroke-width="1.5" stroke-linecap="round" stroke-linejoin="round"/>
</svg>
