<svg width="25" height="25" viewBox="0 0 25 25" fill="none" xmlns="http://www.w3.org/2000/svg">
<path fill-rule="evenodd" clip-rule="evenodd" d="M20.2515 12.2515H4.25146C3.14646 12.2515 2.25146 13.1465 2.25146 14.2515V17.1845C2.25146 17.7365 2.69946 18.1845 3.25146 18.1845H21.2515C21.8035 18.1845 22.2515 17.7365 22.2515 17.1845V14.2515C22.2515 13.1465 21.3565 12.2515 20.2515 12.2515Z" stroke="#475467" stroke-width="1.5" stroke-linecap="round" stroke-linejoin="round"/>
<path d="M4.25146 12.2516V7.18457C4.25146 5.52757 5.59446 4.18457 7.25146 4.18457H17.2515C18.9085 4.18457 20.2515 5.52757 20.2515 7.18457V12.2516" stroke="#475467" stroke-width="1.5" stroke-linecap="round" stroke-linejoin="round"/>
<path d="M21.2515 18.2515V20.1815" stroke="#475467" stroke-width="1.5" stroke-linecap="round" stroke-linejoin="round"/>
<path d="M3.25146 18.2515V20.1815" stroke="#475467" stroke-width="1.5" stroke-linecap="round" stroke-linejoin="round"/>
<path d="M7.75146 12.2515V12.2515C7.75146 10.5945 9.09446 9.25146 10.7515 9.25146H13.7515C15.4085 9.25146 16.7515 10.5945 16.7515 12.2515V12.2515" stroke="#475467" stroke-width="1.5" stroke-linecap="round" stroke-linejoin="round"/>
</svg>
