<svg width="25" height="25" viewBox="0 0 25 25" fill="none" xmlns="http://www.w3.org/2000/svg">
<path fill-rule="evenodd" clip-rule="evenodd" d="M14.9443 9.37158H11.8913C11.2083 9.37158 10.7263 8.70258 10.9423 8.05558V8.05558C11.2773 7.04958 12.2183 6.37158 13.2783 6.37158H13.5563C14.6163 6.37158 15.5573 7.04958 15.8923 8.05558V8.05558C16.1083 8.70258 15.6263 9.37158 14.9443 9.37158V9.37158Z" stroke="#475467" stroke-width="1.5" stroke-linecap="round" stroke-linejoin="round"/>
<path d="M7.41026 13.5144H4.41726C3.80326 13.5144 3.33426 14.0624 3.42926 14.6684L3.77326 16.8684C4.07726 18.8164 5.75426 20.2514 7.72526 20.2514H17.1093C19.0803 20.2514 20.7573 18.8164 21.0613 16.8694L21.4053 14.6694C21.5003 14.0634 21.0313 13.5154 20.4173 13.5154H12.6803" stroke="#475467" stroke-width="1.5" stroke-linecap="round" stroke-linejoin="round"/>
<path d="M13.4172 6.37146V6.25146C13.4172 4.59446 14.7602 3.25146 16.4172 3.25146V3.25146C18.0742 3.25146 19.4172 4.59446 19.4172 6.25146V13.5145" stroke="#475467" stroke-width="1.5" stroke-linecap="round" stroke-linejoin="round"/>
<path fill-rule="evenodd" clip-rule="evenodd" d="M10.5752 17.5145H9.52224C8.36024 17.5145 7.41724 16.5725 7.41724 15.4095V13.4045C7.41724 12.7675 7.93324 12.2515 8.57024 12.2515H11.5272C12.1642 12.2515 12.6802 12.7675 12.6802 13.4045V15.4095C12.6802 16.5725 11.7382 17.5145 10.5752 17.5145Z" stroke="#475467" stroke-width="1.5" stroke-linecap="round" stroke-linejoin="round"/>
<path d="M6.45724 20.0515L5.41724 21.2515" stroke="#475467" stroke-width="1.5" stroke-linecap="round" stroke-linejoin="round"/>
<path d="M19.4172 21.2515L18.3772 20.0515" stroke="#475467" stroke-width="1.5" stroke-linecap="round" stroke-linejoin="round"/>
</svg>
