<svg width="28" height="29" viewBox="0 0 28 29" fill="none" xmlns="http://www.w3.org/2000/svg">
<path d="M12.1578 15.8658C10.9806 14.6886 11.1649 12.6656 12.7119 11.7544C13.4924 11.2948 14.5074 11.2948 15.2879 11.7544C16.8338 12.6656 17.0193 14.6886 15.8421 15.8658" stroke="#323232" stroke-width="1.5" stroke-linecap="round" stroke-linejoin="round"/>
<path d="M15.842 15.8659C14.8247 16.8832 13.175 16.8832 12.1577 15.8659" stroke="#323232" stroke-width="1.5" stroke-linecap="round" stroke-linejoin="round"/>
<path d="M6.02103 20.8354C2.49303 16.7089 2.6727 10.5022 6.5752 6.59857C10.676 2.49774 17.3237 2.49774 21.4245 6.59857C25.3282 10.5022 25.5067 16.7101 21.9787 20.8354" stroke="#323232" stroke-width="1.5" stroke-linecap="round" stroke-linejoin="round"/>
<path d="M8.93762 17.9186C6.99978 15.4021 7.15728 11.7913 9.46262 9.48595C11.9686 6.97995 16.0309 6.97995 18.5369 9.48595C20.8434 11.7924 20.9998 15.4021 19.0608 17.9186" stroke="#323232" stroke-width="1.5" stroke-linecap="round" stroke-linejoin="round"/>
<path fill-rule="evenodd" clip-rule="evenodd" d="M9.32129 23.3716C9.92212 21.3451 11.7771 19.8564 13.9996 19.8564C16.2221 19.8564 18.0771 21.3451 18.678 23.3716C15.7321 24.8463 12.2671 24.8451 9.32129 23.3716Z" stroke="#323232" stroke-width="1.5" stroke-linecap="round" stroke-linejoin="round"/>
</svg>
