<svg width="327" height="329" viewBox="0 0 327 329" fill="none" xmlns="http://www.w3.org/2000/svg">
<path d="M132.916 236.18L123.811 307.728C123.733 308.28 123.781 308.841 123.95 309.372C124.12 309.902 124.408 310.387 124.792 310.79L139.471 326.842C139.84 327.244 140.291 327.563 140.792 327.777C141.294 327.992 141.836 328.097 142.382 328.086C142.928 328.075 143.465 327.948 143.958 327.713C144.45 327.478 144.888 327.141 145.24 326.724L154.189 316.167L154.66 315.421C155.163 314.675 155.51 313.835 155.679 312.951C155.847 312.067 155.835 311.158 155.641 310.28L140.02 236.18H132.916Z" fill="#FBBC1B"/>
<path d="M156.544 180.762H156.387C156.185 180.724 156.006 180.608 155.889 180.439C155.771 180.27 155.725 180.062 155.759 179.859L162.078 147.754C162.161 147.197 162.406 146.676 162.783 146.257C163.16 145.838 163.652 145.54 164.197 145.399C167.102 144.654 172.439 141.985 174.52 137.942C175.039 136.95 175.333 135.855 175.38 134.735C175.428 133.616 175.228 132.5 174.794 131.467C173.852 128.994 172.479 127.581 170.752 127.189C166.67 126.364 161.568 131.506 161.529 131.545C161.461 131.635 161.375 131.709 161.276 131.763C161.178 131.817 161.068 131.849 160.956 131.857C160.844 131.865 160.731 131.849 160.626 131.809C160.521 131.77 160.425 131.709 160.346 131.629C160.266 131.55 160.205 131.454 160.165 131.349C160.126 131.243 160.11 131.131 160.118 131.018C160.126 130.906 160.158 130.797 160.211 130.698C160.265 130.6 160.34 130.514 160.43 130.446C160.626 130.211 166.121 124.637 171.066 125.658C173.342 126.129 175.108 127.895 176.246 130.917C176.771 132.149 177.014 133.481 176.96 134.818C176.906 136.156 176.555 137.464 175.933 138.649C173.578 143.162 167.887 146.067 164.59 146.93C164.344 146.991 164.123 147.125 163.955 147.314C163.787 147.503 163.68 147.739 163.648 147.99V148.068L157.29 180.134C157.262 180.311 157.171 180.471 157.034 180.587C156.897 180.702 156.723 180.764 156.544 180.762Z" fill="#282928"/>
<path d="M136.226 126.576C136.602 124.64 135.872 122.869 134.595 122.621C133.319 122.373 131.979 123.741 131.602 125.678C131.226 127.614 131.956 129.385 133.233 129.633C134.509 129.881 135.849 128.513 136.226 126.576Z" fill="#282928"/>
<path d="M109.048 117.184C109.424 115.247 108.694 113.477 107.418 113.228C106.141 112.98 104.801 114.349 104.425 116.285C104.048 118.221 104.778 119.992 106.055 120.24C107.331 120.489 108.671 119.12 109.048 117.184Z" fill="#282928"/>
<path d="M104.54 110.155C104.418 110.16 104.297 110.141 104.183 110.098C104.068 110.055 103.964 109.989 103.876 109.905C103.788 109.82 103.718 109.719 103.67 109.607C103.623 109.495 103.598 109.374 103.598 109.252C103.587 109.123 103.602 108.994 103.642 108.87C103.681 108.747 103.745 108.633 103.829 108.535C103.913 108.436 104.015 108.355 104.131 108.296C104.246 108.238 104.372 108.202 104.501 108.193L116.864 107.525C117.118 107.514 117.366 107.602 117.556 107.771C117.747 107.939 117.864 108.175 117.884 108.428C117.896 108.686 117.809 108.939 117.642 109.136C117.474 109.332 117.238 109.458 116.982 109.488L104.619 110.155H104.54Z" fill="#282928"/>
<path d="M145.868 118.24C145.698 118.243 145.531 118.188 145.397 118.083L134.722 112.078C134.493 111.954 134.323 111.743 134.249 111.493C134.175 111.242 134.204 110.973 134.329 110.744C134.454 110.515 134.665 110.345 134.915 110.271C135.165 110.198 135.435 110.227 135.664 110.352L146.378 116.396C146.574 116.501 146.729 116.67 146.816 116.874C146.904 117.079 146.919 117.307 146.86 117.522C146.8 117.736 146.67 117.924 146.49 118.055C146.31 118.185 146.09 118.251 145.868 118.24Z" fill="#282928"/>
<path d="M107.484 131.113H107.288C105.09 130.564 103.873 129.622 103.599 128.248C103.01 125.147 108.034 121.497 108.622 121.105C108.789 121.024 108.978 121.005 109.157 121.05C109.337 121.096 109.494 121.203 109.602 121.353C109.71 121.503 109.761 121.687 109.747 121.871C109.733 122.055 109.654 122.229 109.525 122.361C107.68 123.695 104.855 126.364 105.129 127.934C105.326 128.837 106.621 129.347 107.68 129.582C107.879 129.646 108.047 129.783 108.148 129.965C108.25 130.147 108.28 130.361 108.23 130.564C108.186 130.726 108.088 130.868 107.953 130.968C107.817 131.068 107.652 131.119 107.484 131.113Z" fill="#282928"/>
<path d="M104.344 203.29C104.154 203.292 103.971 203.225 103.826 203.103C103.682 202.98 103.587 202.809 103.559 202.622C103.542 202.521 103.546 202.418 103.572 202.319C103.597 202.219 103.642 202.126 103.704 202.045C103.767 201.964 103.846 201.897 103.935 201.848C104.025 201.799 104.124 201.768 104.226 201.759C107.797 201.249 110.584 199.718 112.507 197.088C117.178 190.769 115.451 180.29 115.412 180.173C115.395 180.069 115.399 179.964 115.424 179.862C115.448 179.761 115.493 179.665 115.555 179.581C115.617 179.497 115.696 179.426 115.786 179.373C115.876 179.319 115.975 179.284 116.079 179.27C116.286 179.246 116.494 179.302 116.661 179.426C116.829 179.55 116.943 179.732 116.981 179.937C117.06 180.369 118.826 191.162 113.763 198.03C111.604 200.974 108.465 202.779 104.422 203.29H104.344Z" fill="#282928"/>
<path d="M118.317 180.88C110.742 180.88 104.816 178.721 100.577 174.325C92.9632 166.515 90.9616 152.072 94.5724 131.428C96.3369 121.706 98.91 112.149 102.265 102.855C102.336 102.665 102.478 102.51 102.661 102.422C102.844 102.334 103.053 102.321 103.246 102.384C103.345 102.419 103.436 102.474 103.513 102.544C103.59 102.615 103.653 102.7 103.697 102.795C103.741 102.89 103.765 102.993 103.768 103.098C103.772 103.203 103.755 103.307 103.717 103.405C103.521 103.915 84.3679 155.408 101.715 173.266C108.898 180.644 121.496 181.272 139.197 175.189C139.295 175.151 139.399 175.134 139.504 175.137C139.609 175.141 139.712 175.165 139.807 175.209C139.902 175.253 139.987 175.316 140.058 175.393C140.128 175.47 140.183 175.561 140.218 175.66C140.279 175.858 140.26 176.072 140.165 176.256C140.069 176.439 139.905 176.578 139.707 176.641C131.544 179.467 124.414 180.88 118.317 180.88Z" fill="#282928"/>
<path d="M146.614 96.4574C146.614 96.4574 134.604 111.332 116.55 104.935L106.699 99.5972C106.546 99.5188 106.378 99.4729 106.206 99.4623C106.033 99.4517 105.861 99.4767 105.699 99.5356C105.537 99.5945 105.389 99.6861 105.264 99.8047C105.139 99.9234 105.04 100.066 104.972 100.225L99.5953 113.609C99.5953 113.609 89.3908 84.84 99.2028 74.4001C109.015 63.9602 116.629 42.4916 159.056 61.0951C174.245 67.7672 173.813 82.6814 180.328 83.1131C187.628 83.5841 220.361 104.464 191.592 141.553C189.205 144.657 186.146 147.18 182.644 148.932L174.559 153.053L169.574 143.829L176.168 137.589L173.891 127.502C173.891 127.502 166.631 124.48 161.254 130.995C161.018 131.27 160.194 131.349 160.155 130.995C159.958 128.013 160.272 118.829 166.552 113.609C166.552 113.609 151.913 106.505 146.614 96.4574Z" fill="#282928"/>
<path d="M110.623 158.822C110.323 158.824 110.027 158.766 109.751 158.651C109.474 158.537 109.224 158.368 109.014 158.155C107.679 156.86 107.287 153.602 107.836 148.421C107.874 147.998 108.02 147.591 108.26 147.24C108.501 146.89 108.828 146.607 109.21 146.42C109.572 146.227 109.977 146.127 110.387 146.127C110.798 146.127 111.202 146.227 111.565 146.42C113.723 147.636 117.334 146.223 120.238 145.085C123.143 143.947 124.359 143.476 125.38 144.143C128.951 146.537 130.443 148.775 129.893 150.972C128.52 156.663 112.703 158.587 110.897 158.822H110.623ZM110.348 147.676L109.916 147.793C109.767 147.869 109.639 147.981 109.544 148.117C109.448 148.254 109.387 148.413 109.367 148.578C108.935 153.013 109.21 156.153 110.112 157.056C110.193 157.137 110.293 157.197 110.402 157.232C110.512 157.266 110.628 157.273 110.74 157.252C117.373 156.506 127.538 154.112 128.363 150.58C128.794 148.775 126.518 146.812 124.516 145.478C124.045 145.282 122.201 145.988 120.827 146.537C117.609 147.793 113.606 149.363 110.78 147.793C110.65 147.713 110.5 147.672 110.348 147.676Z" fill="#282928"/>
<path d="M17.9591 306.119H17.8414C17.6367 306.081 17.4541 305.967 17.3303 305.799C17.2066 305.632 17.1508 305.424 17.1742 305.217C17.6059 302.666 27.1039 242.577 37.1121 223.503C42.3713 213.455 55.323 206.744 75.6142 203.526C85.1331 202.089 94.759 201.485 104.383 201.72C104.588 201.74 104.778 201.835 104.916 201.988C105.053 202.14 105.129 202.339 105.129 202.544C105.123 202.648 105.098 202.749 105.054 202.842C105.01 202.935 104.948 203.019 104.871 203.088C104.795 203.158 104.705 203.211 104.608 203.246C104.511 203.28 104.407 203.295 104.304 203.29C103.755 203.29 50.5348 201.288 38.4857 224.248C28.5953 243.087 18.8226 304.824 18.7441 305.452C18.7157 305.639 18.6206 305.81 18.4764 305.933C18.3321 306.055 18.1484 306.122 17.9591 306.119Z" fill="#282928"/>
<path d="M54.5788 306.12C54.4123 306.119 54.2503 306.065 54.1163 305.966C53.9822 305.868 53.8831 305.729 53.8331 305.57C51.7137 298.27 58.3466 250.034 58.6214 247.993C58.6308 247.892 58.6611 247.793 58.7104 247.703C58.7597 247.613 58.8269 247.535 58.9079 247.472C58.9889 247.409 59.082 247.364 59.1812 247.339C59.2805 247.314 59.3838 247.31 59.4848 247.326C59.5867 247.336 59.6856 247.366 59.7754 247.415C59.8651 247.465 59.9437 247.532 60.0062 247.613C60.0688 247.694 60.1141 247.787 60.1392 247.886C60.1642 247.985 60.1686 248.089 60.152 248.19C60.1128 248.7 53.2837 298.152 55.3245 305.099C55.3862 305.297 55.3671 305.511 55.2716 305.695C55.176 305.879 55.0116 306.017 54.8143 306.08L54.5788 306.12Z" fill="#282928"/>
<path d="M232.763 318.953L232.409 318.875C232.221 318.782 232.076 318.62 232.003 318.423C231.93 318.226 231.935 318.009 232.017 317.815C245.911 287.437 236.295 253.959 229.309 236.729C222.323 219.499 187.118 204.664 176.874 203.329C176.759 203.336 176.644 203.317 176.537 203.274C176.43 203.231 176.333 203.165 176.255 203.081C176.176 202.997 176.117 202.896 176.082 202.786C176.046 202.676 176.036 202.56 176.05 202.446C176.065 202.332 176.105 202.222 176.167 202.124C176.228 202.027 176.311 201.945 176.408 201.883C176.506 201.821 176.615 201.782 176.73 201.767C176.844 201.752 176.96 201.763 177.07 201.799C187.863 203.172 223.657 218.558 230.761 236.141C237.865 253.724 247.598 287.555 233.469 318.482C233.402 318.615 233.302 318.728 233.178 318.811C233.054 318.893 232.911 318.942 232.763 318.953Z" fill="#282928"/>
<path d="M74.4367 150.109H56.7752C56.567 150.109 56.3674 150.026 56.2201 149.879C56.0729 149.732 55.9902 149.532 55.9902 149.324C55.9902 149.116 56.0729 148.916 56.2201 148.769C56.3674 148.622 56.567 148.539 56.7752 148.539H74.4367C74.6449 148.539 74.8445 148.622 74.9918 148.769C75.139 148.916 75.2217 149.116 75.2217 149.324C75.2217 149.532 75.139 149.732 74.9918 149.879C74.8445 150.026 74.6449 150.109 74.4367 150.109Z" fill="#282928"/>
<path d="M77.7345 138.57C77.5946 138.573 77.4573 138.531 77.342 138.452C76.3608 137.903 72.3968 135.312 67.4123 132.055C60.1122 127.227 50.0648 120.673 44.5701 117.297C44.4635 117.257 44.3671 117.193 44.2876 117.111C44.208 117.03 44.1473 116.931 44.1096 116.824C44.0719 116.716 44.0581 116.601 44.0691 116.488C44.0802 116.374 44.116 116.265 44.1738 116.166C44.2317 116.068 44.3102 115.983 44.4041 115.919C44.498 115.854 44.6049 115.81 44.7173 115.791C44.8297 115.771 44.945 115.777 45.0552 115.806C45.1653 115.836 45.2677 115.89 45.3551 115.963C50.9283 119.338 60.9364 125.932 68.2758 130.72C73.2603 133.978 77.185 136.568 78.127 137.118C78.2175 137.166 78.2971 137.233 78.3606 137.314C78.4241 137.395 78.4702 137.488 78.496 137.587C78.5218 137.687 78.5267 137.791 78.5105 137.892C78.4943 137.994 78.4572 138.091 78.4017 138.177C78.3311 138.292 78.2334 138.388 78.1171 138.457C78.0007 138.525 77.8694 138.564 77.7345 138.57Z" fill="#282928"/>
<path d="M82.2481 131.113C82.1365 131.11 82.0267 131.084 81.9255 131.036C81.8243 130.989 81.7338 130.922 81.6594 130.839L63.0167 109.252C62.8804 109.089 62.8125 108.88 62.8271 108.667C62.8418 108.455 62.9378 108.257 63.0952 108.114C63.2569 107.985 63.4631 107.925 63.6689 107.947C63.8747 107.969 64.0634 108.071 64.1941 108.232L82.8368 129.818C82.9706 129.975 83.0374 130.178 83.0227 130.384C83.0081 130.589 82.9131 130.781 82.7583 130.917C82.6114 131.032 82.4338 131.1 82.2481 131.113Z" fill="#282928"/>
<path d="M143.907 240.261C143.093 240.268 142.28 240.215 141.473 240.104L140.924 240.026L139.04 230.842L139.864 230.724C140.1 230.685 163.57 227.663 169.182 222.639L169.967 221.933L173.578 229.586L172.989 229.939C172.283 230.41 156.152 240.261 143.907 240.261ZM142.219 238.613C152.895 239.555 168.319 230.881 171.576 228.958L169.418 224.444C163.099 228.919 145.084 231.588 140.924 232.176L142.219 238.613Z" fill="#282928"/>
<path d="M156.229 241.125C161.778 241.125 166.277 237.118 166.277 232.176C166.277 227.234 161.778 223.228 156.229 223.228C150.68 223.228 146.182 227.234 146.182 232.176C146.182 237.118 150.68 241.125 156.229 241.125Z" fill="#FBBC1B"/>
<path d="M151.834 233.668C151.647 233.662 151.467 233.593 151.324 233.472C151.182 233.35 151.085 233.184 151.049 233C151.032 232.897 151.037 232.792 151.061 232.69C151.086 232.588 151.131 232.493 151.193 232.409C151.255 232.324 151.333 232.254 151.423 232.2C151.513 232.147 151.613 232.112 151.716 232.098L155.209 231.548L153.6 226.642C153.564 226.545 153.548 226.44 153.555 226.336C153.561 226.232 153.59 226.131 153.638 226.038C153.686 225.946 153.753 225.865 153.834 225.8C153.915 225.735 154.01 225.687 154.11 225.661C154.208 225.625 154.312 225.609 154.416 225.616C154.52 225.622 154.622 225.65 154.714 225.698C154.807 225.746 154.888 225.813 154.953 225.895C155.018 225.976 155.065 226.07 155.092 226.171L157.25 232.804L151.952 233.628L151.834 233.668Z" fill="#282928"/>
<path d="M254.114 66.0403C250.582 66.0403 247.991 65.8833 247.049 65.4123C243.87 63.9601 243.242 52.853 242.811 39.548C242.693 36.1334 242.575 32.6011 242.379 32.0124C242.379 32.0124 241.672 31.149 235.51 31.5807C233.075 31.7603 230.651 32.0748 228.25 32.5226C228.149 32.5518 228.043 32.5593 227.939 32.5449C227.836 32.5304 227.736 32.4942 227.647 32.4387C227.558 32.3831 227.482 32.3095 227.424 32.2225C227.365 32.1355 227.326 32.0372 227.308 31.9339C227.259 31.7363 227.29 31.5277 227.392 31.352C227.495 31.1762 227.661 31.0472 227.857 30.992C230.426 30.5116 233.021 30.1839 235.628 30.0108C242.222 29.5398 243.478 30.4818 243.831 31.4629C244.184 32.4441 244.223 34.642 244.38 39.5087C244.537 44.3755 244.734 50.1057 245.283 55.0116C246.068 62.4687 247.246 63.7639 247.716 63.9994C250.699 65.3731 277.113 63.5284 294.186 61.9585C294.289 61.9477 294.393 61.9574 294.493 61.9871C294.592 62.0168 294.685 62.0659 294.765 62.1316C294.845 62.1973 294.912 62.2783 294.961 62.3698C295.009 62.4614 295.04 62.5617 295.049 62.665C295.055 62.7681 295.04 62.8712 295.005 62.9685C294.97 63.0657 294.917 63.1552 294.848 63.2318C294.778 63.3083 294.695 63.3705 294.601 63.4146C294.508 63.4588 294.407 63.4841 294.304 63.4892C290.889 63.8032 266.673 66.0403 254.114 66.0403Z" fill="#282928"/>
<path d="M254.388 77.5787C253.457 77.5787 252.546 77.3024 251.772 76.7849C250.997 76.2674 250.394 75.5319 250.037 74.6713C249.681 73.8107 249.587 72.8637 249.769 71.9501C249.951 71.0365 250.4 70.1973 251.058 69.5386C251.717 68.88 252.556 68.4314 253.47 68.2497C254.383 68.0679 255.33 68.1612 256.191 68.5177C257.051 68.8742 257.787 69.4778 258.304 70.2523C258.822 71.0268 259.098 71.9374 259.098 72.8689C259.098 74.118 258.602 75.316 257.719 76.1992C256.835 77.0825 255.638 77.5787 254.388 77.5787ZM254.388 69.7683C253.566 69.7683 252.777 70.095 252.196 70.6765C251.615 71.258 251.288 72.0466 251.288 72.8689C251.28 73.4932 251.459 74.1056 251.801 74.6279C252.143 75.1502 252.633 75.5587 253.208 75.8012C253.783 76.0437 254.418 76.1092 255.03 75.9893C255.643 75.8694 256.206 75.5696 256.648 75.1281C257.089 74.6867 257.389 74.1236 257.509 73.5109C257.629 72.8982 257.563 72.2637 257.321 71.6884C257.078 71.1131 256.67 70.6231 256.147 70.2811C255.625 69.9391 255.013 69.7606 254.388 69.7683Z" fill="#282928"/>
<path d="M285.08 77.5787C284.148 77.5787 283.238 77.3024 282.463 76.7849C281.689 76.2674 281.085 75.5319 280.729 74.6713C280.372 73.8107 280.279 72.8637 280.461 71.9501C280.642 71.0365 281.091 70.1973 281.75 69.5386C282.408 68.88 283.247 68.4314 284.161 68.2497C285.075 68.0679 286.022 68.1612 286.882 68.5177C287.743 68.8742 288.478 69.4778 288.996 70.2523C289.513 71.0268 289.79 71.9374 289.79 72.8689C289.795 73.4889 289.677 74.1037 289.442 74.6774C289.207 75.2512 288.86 75.7725 288.422 76.2109C287.983 76.6493 287.462 76.996 286.888 77.2308C286.315 77.4656 285.7 77.5839 285.08 77.5787ZM285.08 69.7683C284.258 69.7683 283.469 70.095 282.887 70.6765C282.306 71.258 281.979 72.0466 281.979 72.8689C281.974 73.2794 282.05 73.6868 282.204 74.0675C282.357 74.4482 282.585 74.7947 282.873 75.0868C283.162 75.3789 283.505 75.6108 283.884 75.769C284.263 75.9273 284.669 76.0088 285.08 76.0087C285.913 76.0087 286.711 75.6779 287.3 75.0891C287.889 74.5003 288.22 73.7017 288.22 72.8689C288.22 72.4584 288.138 72.052 287.98 71.6732C287.822 71.2945 287.59 70.9509 287.298 70.6625C287.006 70.3741 286.659 70.1465 286.278 69.993C285.898 69.8395 285.49 69.7632 285.08 69.7683Z" fill="#282928"/>
<path d="M248.501 30.678C248.501 30.678 244.89 55.9144 254.388 60.4671H289.005C289.005 60.4671 290.574 40.2938 287.435 37.1539C284.295 34.0141 251.915 30.4426 248.501 30.678Z" fill="#FBBC1B"/>
<path d="M259.373 61.2524C259.165 61.2524 258.965 61.1697 258.818 61.0225C258.671 60.8753 258.588 60.6756 258.588 60.4674V31.5418C258.588 31.3336 258.671 31.134 258.818 30.9867C258.965 30.8395 259.165 30.7568 259.373 30.7568C259.581 30.7568 259.781 30.8395 259.928 30.9867C260.075 31.134 260.158 31.3336 260.158 31.5418V60.4674C260.158 60.6756 260.075 60.8753 259.928 61.0225C259.781 61.1697 259.581 61.2524 259.373 61.2524Z" fill="#282928"/>
<path d="M269.891 61.2518C269.683 61.2518 269.484 61.1691 269.336 61.0219C269.189 60.8746 269.106 60.675 269.106 60.4668V32.9148C269.106 32.7067 269.189 32.507 269.336 32.3598C269.484 32.2126 269.683 32.1299 269.891 32.1299C270.1 32.1299 270.299 32.2126 270.446 32.3598C270.594 32.507 270.676 32.7067 270.676 32.9148V60.4668C270.676 60.675 270.594 60.8746 270.446 61.0219C270.299 61.1691 270.1 61.2518 269.891 61.2518Z" fill="#282928"/>
<path d="M281.195 61.2519C280.987 61.2519 280.787 61.1692 280.64 61.022C280.493 60.8748 280.41 60.6751 280.41 60.4669V34.9559C280.41 34.7477 280.493 34.548 280.64 34.4008C280.787 34.2536 280.987 34.1709 281.195 34.1709C281.403 34.1709 281.603 34.2536 281.75 34.4008C281.897 34.548 281.98 34.7477 281.98 34.9559V60.4669C281.98 60.6751 281.897 60.8748 281.75 61.022C281.603 61.1692 281.403 61.2519 281.195 61.2519Z" fill="#282928"/>
<path d="M154.149 68.1202C153.997 68.1237 153.847 68.0828 153.718 68.0025C137.587 58.2298 127.382 62.0761 127.304 62.1153C127.206 62.1528 127.102 62.1702 126.997 62.1667C126.892 62.1632 126.79 62.1388 126.694 62.0949C126.599 62.051 126.514 61.9886 126.443 61.9112C126.373 61.8338 126.318 61.7431 126.284 61.6444C126.206 61.4517 126.208 61.2362 126.289 61.045C126.37 60.8537 126.523 60.7023 126.715 60.6239C127.147 60.4669 137.665 56.4636 154.542 66.6288C154.713 66.7481 154.834 66.925 154.885 67.127C154.935 67.3289 154.911 67.5422 154.817 67.7278C154.744 67.8406 154.645 67.9348 154.53 68.003C154.414 68.0711 154.284 68.1113 154.149 68.1202Z" fill="white"/>
<path d="M196.499 116.631H196.381C196.176 116.593 195.994 116.478 195.87 116.311C195.746 116.143 195.69 115.935 195.714 115.728C197.48 104.15 190.769 99.5973 190.455 99.4011C190.286 99.2888 190.168 99.1159 190.124 98.9185C190.08 98.7211 190.114 98.5144 190.219 98.3414C190.275 98.2528 190.348 98.1762 190.434 98.1162C190.52 98.0562 190.617 98.014 190.719 97.992C190.821 97.9701 190.927 97.9689 191.03 97.9884C191.133 98.008 191.231 98.0479 191.318 98.1059C191.632 98.3022 199.207 103.326 197.284 115.964C197.255 116.151 197.16 116.321 197.016 116.444C196.872 116.567 196.688 116.633 196.499 116.631Z" fill="white"/>
<path d="M166.91 130.638L118.197 166.552C116.941 167.478 116.674 169.247 117.6 170.503L130.94 188.598C131.867 189.854 133.636 190.122 134.892 189.196L183.604 153.282C184.86 152.356 185.128 150.587 184.202 149.33L170.861 131.235C169.935 129.979 168.166 129.712 166.91 130.638Z" fill="#FBBC1B"/>
<path d="M132.603 182.371C132.476 182.368 132.351 182.339 132.236 182.285C132.121 182.231 132.019 182.153 131.936 182.057L123.38 169.969C123.298 169.888 123.235 169.791 123.195 169.684C123.154 169.577 123.138 169.462 123.147 169.348C123.156 169.234 123.189 169.123 123.245 169.024C123.301 168.924 123.378 168.837 123.471 168.771C123.564 168.704 123.671 168.658 123.783 168.637C123.896 168.615 124.011 168.619 124.122 168.647C124.233 168.675 124.337 168.727 124.426 168.8C124.514 168.872 124.586 168.963 124.636 169.066L133.231 181.115C133.291 181.2 133.334 181.296 133.356 181.397C133.379 181.498 133.381 181.603 133.363 181.705C133.344 181.808 133.306 181.905 133.25 181.992C133.193 182.08 133.121 182.155 133.035 182.214C132.977 182.268 132.909 182.309 132.835 182.336C132.761 182.363 132.682 182.375 132.603 182.371Z" fill="white"/>
<path d="M169.514 136.563C170.578 135.779 171.013 134.563 170.486 133.847C169.958 133.132 168.668 133.188 167.604 133.973C166.54 134.757 166.104 135.973 166.632 136.689C167.159 137.404 168.449 137.348 169.514 136.563Z" fill="#282928"/>
<path d="M49.9857 274.996H23.6111C23.4029 274.996 23.2033 274.913 23.0561 274.766C22.9089 274.619 22.8262 274.419 22.8262 274.211C22.8262 274.003 22.9089 273.803 23.0561 273.656C23.2033 273.508 23.4029 273.426 23.6111 273.426H49.9857C50.1939 273.426 50.3935 273.508 50.5407 273.656C50.6879 273.803 50.7706 274.003 50.7706 274.211C50.7706 274.419 50.6879 274.619 50.5407 274.766C50.3935 274.913 50.1939 274.996 49.9857 274.996Z" fill="#282928"/>
<path d="M194.928 270.325H194.811C194.613 270.288 194.436 270.179 194.314 270.02C194.191 269.861 194.13 269.662 194.143 269.462C195.713 257.531 191.631 245.285 191.592 245.168C191.531 244.97 191.55 244.756 191.645 244.572C191.741 244.388 191.905 244.249 192.102 244.186C192.198 244.149 192.299 244.132 192.401 244.136C192.503 244.14 192.603 244.165 192.695 244.209C192.787 244.253 192.869 244.316 192.936 244.393C193.003 244.47 193.053 244.56 193.084 244.657C193.241 245.207 197.322 257.374 195.713 269.658C195.685 269.845 195.59 270.016 195.445 270.139C195.301 270.261 195.118 270.328 194.928 270.325Z" fill="#282928"/>
<path d="M239.122 271.777H201.758C201.549 271.777 201.35 271.694 201.203 271.547C201.055 271.4 200.973 271.2 200.973 270.992C200.973 270.784 201.055 270.584 201.203 270.437C201.35 270.29 201.549 270.207 201.758 270.207H239.122C239.33 270.207 239.529 270.29 239.677 270.437C239.824 270.584 239.906 270.784 239.906 270.992C239.906 271.2 239.824 271.4 239.677 271.547C239.529 271.694 239.33 271.777 239.122 271.777Z" fill="#282928"/>
<path d="M131.975 206.665L114.667 192.811C114.159 192.397 113.509 192.199 112.857 192.257C112.204 192.316 111.6 192.627 111.174 193.125L106.778 198.188C106.384 198.638 106.166 199.217 106.166 199.816C106.166 200.416 106.384 200.994 106.778 201.445C110.271 205.488 119.141 216.242 123.773 225.936C123.955 226.315 124.231 226.643 124.573 226.888C124.916 227.134 125.315 227.289 125.733 227.34C126.151 227.39 126.575 227.335 126.967 227.179C127.358 227.023 127.704 226.771 127.972 226.446L135.665 217.223C135.842 217.017 135.944 216.756 135.951 216.484C135.958 216.212 135.871 215.946 135.704 215.731V215.653C133.696 213.039 132.423 209.936 132.015 206.665H131.975Z" fill="white"/>
<path d="M126.048 228.134H125.616C125.071 228.064 124.552 227.858 124.106 227.536C123.661 227.214 123.303 226.785 123.065 226.289C118.512 216.713 109.76 206.116 106.189 201.995C105.674 201.386 105.392 200.614 105.392 199.817C105.392 199.019 105.674 198.248 106.189 197.639L110.584 192.615C111.134 191.959 111.92 191.547 112.772 191.466C113.624 191.385 114.474 191.643 115.137 192.183L132.72 206.234V206.548C133.112 209.688 134.331 212.668 136.252 215.182H136.292C136.563 215.539 136.707 215.977 136.7 216.425C136.692 216.874 136.535 217.307 136.252 217.655L128.521 226.917C128.228 227.295 127.853 227.601 127.425 227.812C126.996 228.022 126.525 228.133 126.048 228.134ZM113.057 193.047C112.812 193.047 112.569 193.1 112.346 193.201C112.123 193.303 111.923 193.451 111.762 193.635L107.366 198.698C107.101 199.01 106.955 199.407 106.955 199.817C106.955 200.227 107.101 200.623 107.366 200.935C110.977 205.135 119.847 215.889 124.478 225.583C124.6 225.845 124.787 226.073 125.02 226.244C125.253 226.415 125.526 226.526 125.812 226.564C126.102 226.604 126.398 226.571 126.672 226.468C126.946 226.365 127.19 226.196 127.382 225.975L135.075 216.713C135.129 216.639 135.158 216.55 135.158 216.458C135.158 216.366 135.129 216.277 135.075 216.203V216.124C133.042 213.483 131.73 210.359 131.268 207.058L114.195 193.4C113.865 193.159 113.465 193.035 113.057 193.047Z" fill="#282928"/>
<path d="M137.391 237.317C135.153 237.317 133.309 236.728 132.877 236.218C132.717 236.005 132.646 235.737 132.681 235.473L128.246 225.739C128.157 225.547 128.149 225.327 128.223 225.128C128.296 224.929 128.446 224.768 128.638 224.679C128.831 224.591 129.051 224.583 129.249 224.656C129.448 224.73 129.61 224.879 129.698 225.072L134.329 235.276C136.094 235.848 137.983 235.916 139.785 235.473C139.885 235.443 139.991 235.436 140.095 235.45C140.199 235.465 140.298 235.501 140.387 235.557C140.476 235.612 140.552 235.686 140.611 235.773C140.669 235.86 140.709 235.958 140.727 236.061C140.75 236.162 140.753 236.266 140.736 236.368C140.719 236.469 140.682 236.567 140.628 236.654C140.573 236.742 140.501 236.818 140.417 236.877C140.333 236.937 140.238 236.98 140.138 237.003C139.235 237.202 138.315 237.307 137.391 237.317Z" fill="#282928"/>
<path d="M122.516 163.14L151.834 138.296C151.834 138.296 168.239 133.625 172.4 146.656C180.092 170.754 166.63 172.284 166.63 172.284L155.327 195.127L136.292 188.18C136.292 188.18 146.732 173.187 122.516 163.14Z" fill="white"/>
<path d="M145.279 164.67C145.194 164.677 145.108 164.667 145.027 164.64C144.946 164.613 144.872 164.569 144.808 164.513C144.69 164.434 135.035 157.291 130.326 155.957C127.382 155.093 126.087 157.841 126.048 157.958C126.009 158.054 125.952 158.14 125.879 158.212C125.806 158.284 125.719 158.34 125.623 158.377C125.527 158.414 125.425 158.431 125.322 158.426C125.22 158.422 125.119 158.396 125.027 158.351C124.932 158.313 124.846 158.255 124.773 158.182C124.701 158.109 124.645 158.022 124.608 157.926C124.571 157.83 124.555 157.728 124.559 157.625C124.564 157.523 124.59 157.422 124.635 157.33C125.263 155.878 127.382 153.445 130.757 154.426C135.742 155.839 145.318 162.943 145.75 163.257C145.908 163.387 146.012 163.573 146.041 163.776C146.07 163.979 146.022 164.186 145.907 164.356C145.832 164.451 145.737 164.529 145.628 164.583C145.52 164.637 145.4 164.667 145.279 164.67Z" fill="#282928"/>
<path d="M154.777 161.609C154.67 161.61 154.564 161.586 154.469 161.538C154.373 161.491 154.29 161.421 154.228 161.334C154.11 161.216 144.219 150.462 138.411 150.345C132.602 150.227 132.013 154.387 131.974 154.544C131.936 154.746 131.82 154.925 131.651 155.043C131.482 155.16 131.274 155.207 131.071 155.172C130.866 155.125 130.687 155.001 130.57 154.826C130.453 154.651 130.408 154.438 130.443 154.23C130.443 154.191 131.699 148.618 138.45 148.775C145.201 148.932 154.934 159.803 155.366 160.274C155.439 160.347 155.497 160.434 155.536 160.53C155.574 160.626 155.592 160.729 155.588 160.832C155.584 160.936 155.559 161.037 155.514 161.13C155.469 161.223 155.405 161.306 155.327 161.373C155.182 161.521 154.984 161.606 154.777 161.609Z" fill="#282928"/>
<path d="M161.058 154.937C160.945 154.941 160.833 154.919 160.73 154.871C160.628 154.823 160.538 154.751 160.469 154.662C157.465 151.494 153.982 148.819 150.147 146.734C144.221 143.515 139.197 149.324 139.001 149.56C138.87 149.72 138.681 149.823 138.476 149.845C138.27 149.867 138.064 149.807 137.902 149.677C137.741 149.547 137.639 149.358 137.617 149.152C137.595 148.946 137.655 148.74 137.784 148.578C137.863 148.5 143.828 141.514 150.932 145.36C154.937 147.51 158.557 150.308 161.647 153.641C161.781 153.798 161.847 154.001 161.833 154.207C161.818 154.413 161.723 154.604 161.568 154.74C161.425 154.862 161.245 154.931 161.058 154.937Z" fill="#282928"/>
<path d="M154.15 306.119C153.966 306.123 153.787 306.062 153.643 305.947C153.5 305.832 153.401 305.671 153.365 305.491C147.007 271.345 137.116 219.813 135.703 216.987C134.016 215.26 128.089 203.721 131.621 196.029C132.014 195.126 132.485 194.184 132.995 193.164C136.724 185.707 141.826 175.502 130.522 169.066H130.483L122.437 163.846C122.352 163.787 122.279 163.711 122.223 163.624C122.166 163.537 122.128 163.439 122.11 163.337C122.092 163.235 122.094 163.13 122.116 163.029C122.139 162.927 122.181 162.831 122.241 162.747C122.353 162.578 122.526 162.46 122.724 162.416C122.921 162.372 123.128 162.406 123.301 162.511L131.307 167.731C143.906 174.913 138.176 186.335 134.408 193.87C133.898 194.891 133.427 195.833 133.034 196.696C129.895 203.564 135.507 214.711 136.841 215.967C137.234 216.32 138.019 217.066 146.575 261.376C150.814 283.12 154.856 305.02 154.895 305.216C154.931 305.424 154.885 305.637 154.769 305.812C154.652 305.987 154.473 306.111 154.267 306.158L154.15 306.119Z" fill="#282928"/>
<path d="M207.958 299.015C207.808 299.013 207.661 298.967 207.536 298.883C207.411 298.8 207.312 298.682 207.252 298.544C207.056 298.112 188.256 253.919 174.637 234.06C167.337 223.502 165.688 213.259 165.571 206.547C165.453 199.247 167.023 194.498 167.101 194.302V194.184C175.069 177.151 176.717 156.703 171.065 145.674C168.985 141.592 166.12 139.159 162.509 138.492C152.697 136.608 147.556 140.964 147.477 141.003C147.318 141.11 147.126 141.155 146.936 141.13C146.746 141.104 146.572 141.011 146.447 140.866C146.321 140.721 146.253 140.536 146.255 140.344C146.257 140.152 146.329 139.968 146.457 139.826C146.692 139.63 152.187 134.92 162.823 136.961C166.827 137.707 170.163 140.493 172.478 144.928C178.326 156.389 176.678 177.347 168.553 194.812C168.279 195.754 162.745 214.044 175.893 233.157C189.63 253.134 208.508 297.484 208.665 297.916C208.71 298.008 208.736 298.109 208.74 298.211C208.745 298.314 208.728 298.416 208.691 298.512C208.654 298.608 208.598 298.695 208.526 298.768C208.454 298.841 208.368 298.899 208.272 298.937C208.18 298.999 208.069 299.027 207.958 299.015Z" fill="#282928"/>
<path d="M190.375 31.2661C174.166 17.9218 152.383 18.0003 136.998 20.4337C126.697 22.119 116.632 25.0173 107.013 29.0682L106.385 27.6553C116.112 23.5372 126.297 20.5989 136.723 18.903C152.422 16.4304 174.676 16.3127 191.396 30.0887L190.375 31.2661Z" fill="#FBBC1B"/>
<path d="M103.285 29.932C103.167 29.9058 103.058 29.8499 102.967 29.7694C102.877 29.689 102.809 29.5869 102.77 29.4727C102.731 29.3586 102.721 29.2362 102.743 29.1174C102.764 28.9985 102.815 28.8871 102.892 28.7939C104.344 26.7922 107.013 21.4153 109.368 18.7464C111.723 16.0776 114.274 28.0481 115.373 32.0907C115.396 32.2126 115.388 32.3383 115.35 32.4563C115.312 32.5744 115.245 32.6811 115.155 32.7669C115.066 32.8526 114.956 32.9146 114.837 32.9473C114.717 32.98 114.591 32.9824 114.47 32.9541L103.285 29.932Z" fill="#FBBC1B"/>
<path d="M196.459 37.7821C196.533 37.7802 196.606 37.7607 196.672 37.7252C196.737 37.6898 196.793 37.6393 196.835 37.5781C196.877 37.5169 196.904 37.4465 196.914 37.3728C196.924 37.2991 196.916 37.2242 196.891 37.1541C196.067 34.7993 195.439 26.518 194.693 25.4583C193.947 24.3986 189.159 34.2498 187.707 37.0756C187.676 37.1502 187.662 37.2311 187.668 37.3117C187.675 37.3924 187.7 37.4704 187.742 37.5394C187.784 37.6084 187.842 37.6664 187.911 37.7086C187.98 37.7508 188.058 37.776 188.139 37.7821H196.459Z" fill="#FBBC1B"/>
<path d="M64.2719 61.8412H50.2604C50.0522 61.8412 49.8526 61.7585 49.7054 61.6113C49.5581 61.4641 49.4754 61.2644 49.4754 61.0562C49.4754 60.8481 49.5581 60.6484 49.7054 60.5012C49.8526 60.354 50.0522 60.2713 50.2604 60.2713H64.2719C64.8675 60.2724 65.4448 60.065 65.9036 59.685C66.3624 59.3051 66.6738 58.7766 66.7837 58.1912L69.2956 45.3964C69.3612 45.0066 69.338 44.607 69.2279 44.2274C69.1178 43.8478 68.9235 43.4979 68.6595 43.2038C68.3955 42.9096 68.0686 42.6787 67.7031 42.5283C67.3375 42.3779 66.9428 42.3119 66.5482 42.335L46.6496 44.1797C46.4414 44.2005 46.2335 44.1378 46.0716 44.0053C45.9096 43.8728 45.807 43.6814 45.7861 43.4732C45.7653 43.265 45.8281 43.0571 45.9605 42.8952C46.093 42.7333 46.2844 42.6306 46.4926 42.6098L66.3912 40.8044C67.0316 40.7356 67.6792 40.8208 68.2799 41.0529C68.8807 41.285 69.4173 41.6573 69.8451 42.1388C70.2675 42.6135 70.5756 43.1787 70.7457 43.791C70.9158 44.4034 70.9434 45.0465 70.8263 45.6711L68.3144 58.5051C68.1254 59.4405 67.6205 60.2824 66.8845 60.8898C66.1485 61.4972 65.2261 61.8331 64.2719 61.8412Z" fill="#282928"/>
<path d="M34.9152 44.1796C34.707 44.1796 34.5074 44.0969 34.3602 43.9497C34.213 43.8025 34.1303 43.6029 34.1303 43.3947V22.9073C34.1174 22.0718 34.4223 21.2626 34.9834 20.6432C35.5444 20.0239 36.3196 19.6408 37.1524 19.5713L55.7951 17.8443C56.2233 17.7954 56.657 17.8319 57.071 17.9517C57.485 18.0715 57.8711 18.2723 58.207 18.5425C58.5428 18.8126 58.8217 19.1467 59.0275 19.5254C59.2333 19.9041 59.3619 20.3199 59.4059 20.7487L61.9177 41.9818C61.9343 42.0828 61.9299 42.1861 61.9049 42.2854C61.8798 42.3846 61.8345 42.4776 61.7719 42.5586C61.7094 42.6396 61.6308 42.7069 61.5411 42.7562C61.4513 42.8055 61.3524 42.8358 61.2505 42.8452C61.1473 42.856 61.043 42.8463 60.9436 42.8166C60.8443 42.7869 60.7517 42.7378 60.6714 42.6721C60.5911 42.6064 60.5247 42.5254 60.4759 42.4339C60.4271 42.3423 60.3969 42.242 60.3871 42.1387L57.8752 20.9449C57.8162 20.4869 57.584 20.069 57.2263 19.777C56.8686 19.485 56.4126 19.3411 55.9521 19.375L37.3093 21.1412C36.8652 21.1714 36.4499 21.372 36.15 21.701C35.8502 22.0301 35.689 22.4623 35.7002 22.9073V43.3947C35.7002 43.6029 35.6175 43.8025 35.4703 43.9497C35.3231 44.0969 35.1234 44.1796 34.9152 44.1796Z" fill="#282928"/>
<path d="M41.7834 25.3008C41.5881 25.3018 41.3995 25.2299 41.2544 25.0993C41.1092 24.9687 41.018 24.7886 40.9984 24.5943C40.9876 24.4912 40.9973 24.3869 41.027 24.2875C41.0568 24.1881 41.1059 24.0956 41.1716 24.0153C41.2373 23.935 41.3182 23.8685 41.4098 23.8197C41.5013 23.7709 41.6016 23.7407 41.7049 23.7309L52.7728 22.8674C52.8759 22.8597 52.9795 22.8724 53.0777 22.9047C53.1758 22.937 53.2667 22.9883 53.3451 23.0557C53.4234 23.1231 53.4877 23.2053 53.5343 23.2976C53.5809 23.3899 53.6089 23.4904 53.6166 23.5935C53.6243 23.6966 53.6117 23.8002 53.5794 23.8984C53.5471 23.9966 53.4958 24.0875 53.4283 24.1658C53.3609 24.2442 53.2787 24.3085 53.1864 24.3551C53.0942 24.4017 52.9936 24.4296 52.8905 24.4374L41.8226 25.3008H41.7834Z" fill="#282928"/>
<path d="M55.3622 47.5546C55.167 47.5556 54.9784 47.4838 54.8332 47.3531C54.6881 47.2225 54.5968 47.0425 54.5773 46.8482C54.5662 46.6358 54.6376 46.4275 54.7766 46.2666C54.9156 46.1057 55.1113 46.0047 55.323 45.9847L63.5258 45.3175C63.6321 45.3067 63.7394 45.3177 63.8412 45.3498C63.9431 45.382 64.0373 45.4346 64.1181 45.5044C64.199 45.5742 64.2647 45.6597 64.3113 45.7558C64.3579 45.8519 64.3844 45.9565 64.3892 46.0632C64.3945 46.1663 64.3794 46.2695 64.3448 46.3667C64.3101 46.464 64.2567 46.5535 64.1874 46.63C64.1181 46.7066 64.0344 46.7687 63.9411 46.8129C63.8478 46.8571 63.7467 46.8824 63.6435 46.8874L55.4407 47.5546H55.3622Z" fill="#282928"/>
<path d="M25.2596 62.9005L23.101 45.8669C23.0225 45.2951 23.0674 44.7132 23.2327 44.1602C23.3979 43.6072 23.6796 43.096 24.0589 42.661C24.4381 42.2259 24.9061 41.8771 25.4314 41.6381C25.9567 41.399 26.5271 41.2752 27.1043 41.2749L47.6701 40.9609C48.7667 40.9609 49.819 41.3938 50.5981 42.1655C51.3772 42.9373 51.82 43.9854 51.8304 45.082V60.9773C51.8327 62.0139 51.4406 63.0126 50.7336 63.7706C50.0266 64.5287 49.0576 64.9893 48.0234 65.0591L29.6161 66.472C28.5723 66.5408 27.5413 66.2101 26.7323 65.5469C25.9233 64.8836 25.3968 63.9375 25.2596 62.9005Z" fill="#FBBC1B"/>
<path d="M44.6088 47.0836H30.8328C30.6246 47.0836 30.425 47.0009 30.2778 46.8537C30.1306 46.7065 30.0479 46.5068 30.0479 46.2986C30.0479 46.0904 30.1306 45.8908 30.2778 45.7436C30.425 45.5964 30.6246 45.5137 30.8328 45.5137H44.6088C44.817 45.5137 45.0166 45.5964 45.1638 45.7436C45.311 45.8908 45.3937 46.0904 45.3937 46.2986C45.3937 46.5068 45.311 46.7065 45.1638 46.8537C45.0166 47.0009 44.817 47.0836 44.6088 47.0836Z" fill="#282928"/>
<path d="M73.9665 98.9689H73.7702C69.6492 98.341 59.4055 95.6329 53.6754 83.8585C53.469 83.4426 53.1498 83.0932 52.7541 82.8503C52.3585 82.6073 51.9025 82.4807 51.4382 82.4848C47.435 82.6418 36.9165 82.4848 26.5159 78.0498C13.5641 72.5159 5.08656 62.5077 1.31877 48.2607C-1.86031 36.1332 0.730052 25.5363 8.85435 17.5297C23.219 3.47899 50.0253 1.08487 63.0556 4.81341C70.9051 7.05054 81.816 11.5248 89.1554 20.0416C96.4947 28.5583 98.8103 39.273 95.9845 51.8323C94.8968 56.7595 92.6347 61.3509 89.3909 65.2158C84.6922 70.8075 78.8419 75.3191 72.2396 78.4423C71.7951 78.6522 71.4275 78.9959 71.1882 79.4252C70.9489 79.8546 70.8499 80.348 70.9051 80.8364C71.2976 84.408 72.4751 93.0818 75.1047 96.771C75.2684 96.9895 75.3633 97.2518 75.3772 97.5244C75.3912 97.7971 75.3236 98.0677 75.1832 98.3017C75.0549 98.5082 74.8755 98.6781 74.6624 98.795C74.4492 98.9119 74.2095 98.9718 73.9665 98.9689ZM51.5167 80.9149C52.2622 80.9143 52.9927 81.1238 53.6244 81.5195C54.2562 81.9153 54.7635 82.4811 55.0883 83.1521C60.3082 93.9452 69.5315 96.6533 73.6132 97.3598C71.0229 93.3957 69.8455 85.4677 69.3352 81.0327C69.2531 80.2166 69.4236 79.395 69.8238 78.679C70.2239 77.963 70.8343 77.3871 71.5724 77.0294C77.9731 74.0085 83.6385 69.6288 88.1742 64.1954C91.2593 60.5231 93.4134 56.1611 94.4538 51.4791C101.087 22.004 77.3418 10.5043 62.6239 6.30483C49.9468 2.69403 23.8863 5.00965 9.95329 18.6679C2.14297 26.3605 -0.251145 36.1724 2.84943 47.829C11.327 79.8552 42.1365 81.2682 51.399 80.9149H51.5167Z" fill="#282928"/>
<path d="M221.498 114.393C220.125 114.393 218.712 114.354 217.181 114.236C216.802 114.198 216.442 114.051 216.143 113.815C215.844 113.579 215.619 113.262 215.494 112.902C215.363 112.547 215.338 112.161 215.422 111.792C215.505 111.423 215.694 111.086 215.965 110.822C219.929 106.975 228.838 97.2419 226.247 89.5493L226.13 89.3531C223.343 86.802 199.127 63.6065 202.934 39.7046C205.093 26.3603 215.533 15.2924 233.979 6.81491C255.723 -3.15404 274.287 -0.367445 286.022 3.75358C300.858 8.89504 313.495 19.178 320.756 31.9335C326.172 41.4707 328.135 51.5574 326.369 61.0554C324.485 71.4168 318.087 80.6401 307.883 87.6262C306.549 88.5681 305.057 89.5886 303.644 90.6482C299.955 93.3563 288.024 100.696 267.183 100.696C261.206 100.68 255.243 100.129 249.364 99.0473C249.271 99.0212 249.171 99.0308 249.084 99.0743C248.997 99.1178 248.929 99.1921 248.893 99.2828C247.245 102.972 240.534 114.393 221.498 114.393ZM217.064 111.96C217.009 112.016 216.972 112.087 216.958 112.164C216.944 112.241 216.954 112.32 216.985 112.392C216.985 112.47 217.103 112.627 217.338 112.666C218.79 112.784 220.164 112.823 221.459 112.823C239.592 112.823 245.911 102.109 247.481 98.6156C247.66 98.2127 247.972 97.8836 248.365 97.6835C248.758 97.4835 249.208 97.4245 249.639 97.5166C281.037 103.09 298.189 92.6891 302.702 89.3923L307.02 86.331C329.705 70.7104 328.292 48.3783 319.383 32.6792C305.332 7.99234 269.813 -7.90303 234.647 8.22783C216.671 16.4699 206.545 27.1453 204.504 39.9401C200.815 63.057 224.481 85.703 227.189 88.2149C227.441 88.4369 227.631 88.7211 227.739 89.0391C230.604 97.5951 221.224 107.917 217.064 111.96Z" fill="#282928"/>
</svg>
