<svg width="28" height="29" viewBox="0 0 28 29" fill="none" xmlns="http://www.w3.org/2000/svg">
<path d="M24.5 16.3568V19.2734C24.5 22.1729 22.1495 24.5234 19.25 24.5234H8.75C5.8505 24.5234 3.5 22.1729 3.5 19.2734V8.77344C3.5 5.87394 5.8505 3.52344 8.75 3.52344H11.6667" stroke="#323232" stroke-width="1.5" stroke-linecap="round" stroke-linejoin="round"/>
<path d="M8.4585 14.0233H12.8335" stroke="#323232" stroke-width="1.5" stroke-linecap="round" stroke-linejoin="round"/>
<path d="M8.4585 18.6903H19.5418" stroke="#323232" stroke-width="1.5" stroke-linecap="round" stroke-linejoin="round"/>
<path d="M8.4585 9.35677H10.5002" stroke="#323232" stroke-width="1.5" stroke-linecap="round" stroke-linejoin="round"/>
<path d="M20.4167 12.8566C18.2932 12.8566 16.3789 11.5775 15.5663 9.61569C14.7537 7.6539 15.2029 5.39578 16.7043 3.89429C18.2058 2.3928 20.464 1.94363 22.4257 2.75623C24.3875 3.56883 25.6667 5.48317 25.6667 7.6066C25.6667 10.5061 23.3162 12.8566 20.4167 12.8566" stroke="#323232" stroke-width="1.5" stroke-linecap="round" stroke-linejoin="round"/>
<path d="M20.4051 8.13184V9.59017" stroke="#323232" stroke-width="1.5" stroke-linecap="round" stroke-linejoin="round"/>
<path d="M20.4104 5.62327C20.4339 5.62579 20.4565 5.61394 20.4679 5.59323C20.4792 5.57252 20.4769 5.54704 20.4621 5.52867C20.4473 5.5103 20.4229 5.50265 20.4002 5.5093C20.3776 5.51594 20.3612 5.53557 20.3587 5.55903V5.57151C20.3616 5.59879 20.3831 5.62033 20.4104 5.62327" stroke="#323232" stroke-width="1.5" stroke-linecap="round" stroke-linejoin="round"/>
</svg>
