<svg width="269" height="114" viewBox="0 0 269 114" fill="none" xmlns="http://www.w3.org/2000/svg">
<path d="M1.296 74V60.59H10.242V62.75H3.744V66.458H9.432V68.618H3.744V74H1.296ZM11.6449 74V64.208H14.0029V74H11.6449ZM11.6449 63.11V60.59H14.0029V63.11H11.6449ZM23.722 77.6V72.11L24.1 72.578C23.764 73.106 23.296 73.514 22.696 73.802C22.096 74.078 21.442 74.216 20.734 74.216C19.786 74.216 18.94 73.994 18.196 73.55C17.452 73.094 16.864 72.476 16.432 71.696C16 70.916 15.784 70.052 15.784 69.104C15.784 68.144 16 67.28 16.432 66.512C16.864 65.744 17.452 65.132 18.196 64.676C18.952 64.22 19.792 63.992 20.716 63.992C21.46 63.992 22.12 64.142 22.696 64.442C23.284 64.73 23.746 65.138 24.082 65.666L23.848 66.152V64.208H26.08V77.6H23.722ZM20.986 72.056C21.526 72.056 22 71.93 22.408 71.678C22.816 71.426 23.134 71.078 23.362 70.634C23.602 70.19 23.722 69.68 23.722 69.104C23.722 68.54 23.602 68.036 23.362 67.592C23.134 67.136 22.816 66.782 22.408 66.53C22 66.278 21.526 66.152 20.986 66.152C20.458 66.152 19.984 66.284 19.564 66.548C19.144 66.8 18.814 67.148 18.574 67.592C18.346 68.024 18.232 68.528 18.232 69.104C18.232 69.68 18.346 70.19 18.574 70.634C18.814 71.078 19.144 71.426 19.564 71.678C19.984 71.93 20.458 72.056 20.986 72.056ZM31.7658 74.216C31.0098 74.216 30.3498 74.048 29.7858 73.712C29.2338 73.376 28.8078 72.908 28.5078 72.308C28.2198 71.708 28.0758 71.006 28.0758 70.202V64.208H30.4338V70.004C30.4338 70.412 30.5118 70.772 30.6678 71.084C30.8358 71.384 31.0698 71.624 31.3698 71.804C31.6818 71.972 32.0298 72.056 32.4138 72.056C32.7978 72.056 33.1398 71.972 33.4398 71.804C33.7398 71.624 33.9738 71.378 34.1418 71.066C34.3098 70.754 34.3938 70.382 34.3938 69.95V64.208H36.7518V74H34.5198V72.074L34.7178 72.416C34.4898 73.016 34.1118 73.466 33.5838 73.766C33.0678 74.066 32.4618 74.216 31.7658 74.216ZM43.5877 74.216C42.5797 74.216 41.6977 73.988 40.9417 73.532C40.1857 73.076 39.5977 72.458 39.1777 71.678C38.7577 70.898 38.5477 70.034 38.5477 69.086C38.5477 68.102 38.7577 67.232 39.1777 66.476C39.6097 65.708 40.1917 65.102 40.9237 64.658C41.6677 64.214 42.4957 63.992 43.4077 63.992C44.1757 63.992 44.8477 64.118 45.4237 64.37C46.0117 64.622 46.5097 64.97 46.9177 65.414C47.3257 65.858 47.6377 66.368 47.8537 66.944C48.0697 67.508 48.1777 68.12 48.1777 68.78C48.1777 68.948 48.1657 69.122 48.1417 69.302C48.1297 69.482 48.0997 69.638 48.0517 69.77H40.4917V67.97H46.7197L45.6037 68.816C45.7117 68.264 45.6817 67.772 45.5137 67.34C45.3577 66.908 45.0937 66.566 44.7217 66.314C44.3617 66.062 43.9237 65.936 43.4077 65.936C42.9157 65.936 42.4777 66.062 42.0937 66.314C41.7097 66.554 41.4157 66.914 41.2117 67.394C41.0197 67.862 40.9477 68.432 40.9957 69.104C40.9477 69.704 41.0257 70.238 41.2297 70.706C41.4457 71.162 41.7577 71.516 42.1657 71.768C42.5857 72.02 43.0657 72.146 43.6057 72.146C44.1457 72.146 44.6017 72.032 44.9737 71.804C45.3577 71.576 45.6577 71.27 45.8737 70.886L47.7817 71.822C47.5897 72.29 47.2897 72.704 46.8817 73.064C46.4737 73.424 45.9877 73.706 45.4237 73.91C44.8717 74.114 44.2597 74.216 43.5877 74.216ZM53.1644 77.6V64.208H55.3784V66.152L55.1624 65.666C55.4984 65.138 55.9544 64.73 56.5304 64.442C57.1064 64.142 57.7724 63.992 58.5284 63.992C59.4524 63.992 60.2864 64.22 61.0304 64.676C61.7744 65.132 62.3624 65.744 62.7944 66.512C63.2384 67.28 63.4604 68.144 63.4604 69.104C63.4604 70.052 63.2444 70.916 62.8124 71.696C62.3804 72.476 61.7924 73.094 61.0484 73.55C60.3044 73.994 59.4584 74.216 58.5104 74.216C57.8024 74.216 57.1484 74.078 56.5484 73.802C55.9604 73.514 55.4924 73.106 55.1444 72.578L55.5224 72.11V77.6H53.1644ZM58.2404 72.056C58.7804 72.056 59.2604 71.93 59.6804 71.678C60.1004 71.426 60.4244 71.078 60.6524 70.634C60.8924 70.19 61.0124 69.68 61.0124 69.104C61.0124 68.528 60.8924 68.024 60.6524 67.592C60.4244 67.148 60.1004 66.8 59.6804 66.548C59.2604 66.284 58.7804 66.152 58.2404 66.152C57.7244 66.152 57.2564 66.278 56.8364 66.53C56.4284 66.782 56.1044 67.136 55.8644 67.592C55.6364 68.036 55.5224 68.54 55.5224 69.104C55.5224 69.68 55.6364 70.19 55.8644 70.634C56.1044 71.078 56.4284 71.426 56.8364 71.678C57.2564 71.93 57.7244 72.056 58.2404 72.056ZM70.0462 74.216C69.0862 74.216 68.2102 73.994 67.4182 73.55C66.6382 73.106 66.0142 72.5 65.5462 71.732C65.0902 70.964 64.8622 70.088 64.8622 69.104C64.8622 68.12 65.0902 67.244 65.5462 66.476C66.0142 65.708 66.6382 65.102 67.4182 64.658C68.1982 64.214 69.0742 63.992 70.0462 63.992C71.0062 63.992 71.8762 64.214 72.6562 64.658C73.4362 65.102 74.0542 65.708 74.5102 66.476C74.9782 67.232 75.2122 68.108 75.2122 69.104C75.2122 70.088 74.9782 70.964 74.5102 71.732C74.0422 72.5 73.4182 73.106 72.6382 73.55C71.8582 73.994 70.9942 74.216 70.0462 74.216ZM70.0462 72.056C70.5742 72.056 71.0362 71.93 71.4322 71.678C71.8402 71.426 72.1582 71.078 72.3862 70.634C72.6262 70.178 72.7462 69.668 72.7462 69.104C72.7462 68.528 72.6262 68.024 72.3862 67.592C72.1582 67.148 71.8402 66.8 71.4322 66.548C71.0362 66.284 70.5742 66.152 70.0462 66.152C69.5062 66.152 69.0322 66.284 68.6242 66.548C68.2162 66.8 67.8922 67.148 67.6522 67.592C67.4242 68.024 67.3102 68.528 67.3102 69.104C67.3102 69.668 67.4242 70.178 67.6522 70.634C67.8922 71.078 68.2162 71.426 68.6242 71.678C69.0322 71.93 69.5062 72.056 70.0462 72.056ZM77.0003 74V64.208H79.2143V66.386L79.0343 66.062C79.2623 65.33 79.6163 64.82 80.0963 64.532C80.5883 64.244 81.1763 64.1 81.8603 64.1H82.4363V66.188H81.5903C80.9183 66.188 80.3783 66.398 79.9703 66.818C79.5623 67.226 79.3583 67.802 79.3583 68.546V74H77.0003ZM91.486 74.216C90.538 74.216 89.692 73.994 88.948 73.55C88.204 73.094 87.616 72.476 87.184 71.696C86.752 70.916 86.536 70.052 86.536 69.104C86.536 68.144 86.752 67.28 87.184 66.512C87.616 65.744 88.204 65.132 88.948 64.676C89.704 64.22 90.544 63.992 91.468 63.992C92.212 63.992 92.872 64.142 93.448 64.442C94.036 64.73 94.498 65.138 94.834 65.666L94.474 66.152V60.374H96.832V74H94.6V72.11L94.852 72.578C94.516 73.106 94.048 73.514 93.448 73.802C92.848 74.078 92.194 74.216 91.486 74.216ZM91.738 72.056C92.278 72.056 92.752 71.93 93.16 71.678C93.568 71.426 93.886 71.078 94.114 70.634C94.354 70.19 94.474 69.68 94.474 69.104C94.474 68.54 94.354 68.036 94.114 67.592C93.886 67.136 93.568 66.782 93.16 66.53C92.752 66.278 92.278 66.152 91.738 66.152C91.21 66.152 90.736 66.284 90.316 66.548C89.896 66.8 89.566 67.148 89.326 67.592C89.098 68.024 88.984 68.528 88.984 69.104C88.984 69.68 89.098 70.19 89.326 70.634C89.566 71.078 89.896 71.426 90.316 71.678C90.736 71.93 91.21 72.056 91.738 72.056ZM103.67 74.216C102.662 74.216 101.78 73.988 101.024 73.532C100.268 73.076 99.6797 72.458 99.2597 71.678C98.8397 70.898 98.6297 70.034 98.6297 69.086C98.6297 68.102 98.8397 67.232 99.2597 66.476C99.6917 65.708 100.274 65.102 101.006 64.658C101.75 64.214 102.578 63.992 103.49 63.992C104.258 63.992 104.93 64.118 105.506 64.37C106.094 64.622 106.592 64.97 107 65.414C107.408 65.858 107.72 66.368 107.936 66.944C108.152 67.508 108.26 68.12 108.26 68.78C108.26 68.948 108.248 69.122 108.224 69.302C108.212 69.482 108.182 69.638 108.134 69.77H100.574V67.97H106.802L105.686 68.816C105.794 68.264 105.764 67.772 105.596 67.34C105.44 66.908 105.176 66.566 104.804 66.314C104.444 66.062 104.006 65.936 103.49 65.936C102.998 65.936 102.56 66.062 102.176 66.314C101.792 66.554 101.498 66.914 101.294 67.394C101.102 67.862 101.03 68.432 101.078 69.104C101.03 69.704 101.108 70.238 101.312 70.706C101.528 71.162 101.84 71.516 102.248 71.768C102.668 72.02 103.148 72.146 103.688 72.146C104.228 72.146 104.684 72.032 105.056 71.804C105.44 71.576 105.74 71.27 105.956 70.886L107.864 71.822C107.672 72.29 107.372 72.704 106.964 73.064C106.556 73.424 106.07 73.706 105.506 73.91C104.954 74.114 104.342 74.216 103.67 74.216ZM110.047 74V64.208H112.261V66.134L112.081 65.792C112.309 65.204 112.681 64.76 113.197 64.46C113.725 64.148 114.337 63.992 115.033 63.992C115.753 63.992 116.389 64.148 116.941 64.46C117.505 64.772 117.943 65.21 118.255 65.774C118.567 66.326 118.723 66.968 118.723 67.7V74H116.365V68.258C116.365 67.826 116.281 67.454 116.113 67.142C115.945 66.83 115.711 66.59 115.411 66.422C115.123 66.242 114.781 66.152 114.385 66.152C114.001 66.152 113.659 66.242 113.359 66.422C113.059 66.59 112.825 66.83 112.657 67.142C112.489 67.454 112.405 67.826 112.405 68.258V74H110.047ZM125.181 74.108C124.077 74.108 123.219 73.808 122.607 73.208C122.007 72.596 121.707 71.738 121.707 70.634V66.314H120.015V64.208H120.195C120.675 64.208 121.047 64.082 121.311 63.83C121.575 63.578 121.707 63.212 121.707 62.732V61.976H124.065V64.208H126.315V66.314H124.065V70.508C124.065 70.832 124.119 71.108 124.227 71.336C124.347 71.564 124.527 71.738 124.767 71.858C125.019 71.978 125.337 72.038 125.721 72.038C125.805 72.038 125.901 72.032 126.009 72.02C126.129 72.008 126.243 71.996 126.351 71.984V74C126.183 74.024 125.991 74.048 125.775 74.072C125.559 74.096 125.361 74.108 125.181 74.108ZM128.153 74V64.208H130.367V66.386L130.187 66.062C130.415 65.33 130.769 64.82 131.249 64.532C131.741 64.244 132.329 64.1 133.013 64.1H133.589V66.188H132.743C132.071 66.188 131.531 66.398 131.123 66.818C130.715 67.226 130.511 67.802 130.511 68.546V74H128.153ZM139.673 74.216C138.713 74.216 137.837 73.994 137.045 73.55C136.265 73.106 135.641 72.5 135.173 71.732C134.717 70.964 134.489 70.088 134.489 69.104C134.489 68.12 134.717 67.244 135.173 66.476C135.641 65.708 136.265 65.102 137.045 64.658C137.825 64.214 138.701 63.992 139.673 63.992C140.633 63.992 141.503 64.214 142.283 64.658C143.063 65.102 143.681 65.708 144.137 66.476C144.605 67.232 144.839 68.108 144.839 69.104C144.839 70.088 144.605 70.964 144.137 71.732C143.669 72.5 143.045 73.106 142.265 73.55C141.485 73.994 140.621 74.216 139.673 74.216ZM139.673 72.056C140.201 72.056 140.663 71.93 141.059 71.678C141.467 71.426 141.785 71.078 142.013 70.634C142.253 70.178 142.373 69.668 142.373 69.104C142.373 68.528 142.253 68.024 142.013 67.592C141.785 67.148 141.467 66.8 141.059 66.548C140.663 66.284 140.201 66.152 139.673 66.152C139.133 66.152 138.659 66.284 138.251 66.548C137.843 66.8 137.519 67.148 137.279 67.592C137.051 68.024 136.937 68.528 136.937 69.104C136.937 69.668 137.051 70.178 137.279 70.634C137.519 71.078 137.843 71.426 138.251 71.678C138.659 71.93 139.133 72.056 139.673 72.056ZM147.833 69.932L147.671 60.59H150.065L149.903 69.932H147.833ZM147.671 74V71.48H150.065V74H147.671Z" fill="white"/>
<path d="M3.39 99.12C2.91667 99.12 2.48667 99.03 2.1 98.85C1.71333 98.67 1.38667 98.43 1.12 98.13C0.853333 97.8233 0.663333 97.4867 0.55 97.12L1.27 96.85C1.44333 97.3567 1.71333 97.7433 2.08 98.01C2.44667 98.27 2.88333 98.4 3.39 98.4C3.71 98.4 3.99 98.35 4.23 98.25C4.47667 98.1433 4.66667 97.9967 4.8 97.81C4.93333 97.6233 5 97.4067 5 97.16C5 96.7933 4.9 96.51 4.7 96.31C4.5 96.11 4.21333 95.9567 3.84 95.85L2.5 95.45C1.97333 95.2967 1.56667 95.04 1.28 94.68C1 94.32 0.86 93.91 0.86 93.45C0.86 93.0567 0.956667 92.71 1.15 92.41C1.34333 92.1033 1.60667 91.8633 1.94 91.69C2.28 91.5167 2.66333 91.43 3.09 91.43C3.53667 91.43 3.93667 91.5133 4.29 91.68C4.65 91.84 4.95333 92.0533 5.2 92.32C5.44667 92.5867 5.62333 92.8833 5.73 93.21L5.03 93.49C4.87 93.05 4.62 92.7167 4.28 92.49C3.94667 92.2633 3.55333 92.15 3.1 92.15C2.81333 92.15 2.56 92.2 2.34 92.3C2.12667 92.4 1.96 92.5433 1.84 92.73C1.72 92.9167 1.66 93.1367 1.66 93.39C1.66 93.6967 1.75667 93.9733 1.95 94.22C2.14333 94.46 2.44 94.64 2.84 94.76L4.02 95.11C4.60667 95.2833 5.05 95.5333 5.35 95.86C5.65 96.1867 5.8 96.5967 5.8 97.09C5.8 97.49 5.69667 97.8433 5.49 98.15C5.29 98.45 5.00667 98.6867 4.64 98.86C4.28 99.0333 3.86333 99.12 3.39 99.12ZM9.87484 99.12C9.37484 99.12 8.92151 99 8.51484 98.76C8.11484 98.5133 7.79818 98.1767 7.56484 97.75C7.33151 97.3233 7.21484 96.84 7.21484 96.3C7.21484 95.76 7.32818 95.2833 7.55484 94.87C7.78151 94.45 8.08818 94.12 8.47484 93.88C8.86818 93.64 9.30818 93.52 9.79484 93.52C10.1815 93.52 10.5248 93.5933 10.8248 93.74C11.1315 93.88 11.3915 94.0733 11.6048 94.32C11.8182 94.56 11.9815 94.8333 12.0948 95.14C12.2082 95.44 12.2648 95.75 12.2648 96.07C12.2648 96.1367 12.2615 96.2133 12.2548 96.3C12.2482 96.38 12.2382 96.4633 12.2248 96.55H7.69484V95.85H11.7948L11.4348 96.15C11.4948 95.7833 11.4515 95.4567 11.3048 95.17C11.1648 94.8767 10.9615 94.6467 10.6948 94.48C10.4282 94.3067 10.1282 94.22 9.79484 94.22C9.46151 94.22 9.15151 94.3067 8.86484 94.48C8.58484 94.6533 8.36484 94.8967 8.20484 95.21C8.04484 95.5167 7.98151 95.8833 8.01484 96.31C7.98151 96.7367 8.04818 97.11 8.21484 97.43C8.38818 97.7433 8.62151 97.9867 8.91484 98.16C9.21484 98.3333 9.53484 98.42 9.87484 98.42C10.2682 98.42 10.5982 98.3267 10.8648 98.14C11.1315 97.9533 11.3482 97.72 11.5148 97.44L12.1548 97.78C12.0482 98.02 11.8848 98.2433 11.6648 98.45C11.4448 98.65 11.1815 98.8133 10.8748 98.94C10.5748 99.06 10.2415 99.12 9.87484 99.12ZM17.5464 99.12C17.0331 99.12 16.5831 98.99 16.1964 98.73C15.8097 98.47 15.5297 98.1167 15.3564 97.67L15.9864 97.37C16.1397 97.6967 16.3531 97.9567 16.6264 98.15C16.9064 98.3433 17.2131 98.44 17.5464 98.44C17.8664 98.44 18.1364 98.3633 18.3564 98.21C18.5764 98.05 18.6864 97.8433 18.6864 97.59C18.6864 97.4033 18.6331 97.2567 18.5264 97.15C18.4197 97.0367 18.2964 96.95 18.1564 96.89C18.0164 96.83 17.8931 96.7867 17.7864 96.76L17.0164 96.54C16.5231 96.4 16.1664 96.2033 15.9464 95.95C15.7264 95.6967 15.6164 95.4033 15.6164 95.07C15.6164 94.7567 15.6964 94.4833 15.8564 94.25C16.0164 94.0167 16.2331 93.8367 16.5064 93.71C16.7797 93.5833 17.0831 93.52 17.4164 93.52C17.8697 93.52 18.2797 93.64 18.6464 93.88C19.0197 94.1133 19.2831 94.44 19.4364 94.86L18.7964 95.16C18.6631 94.86 18.4697 94.6267 18.2164 94.46C17.9697 94.2867 17.6931 94.2 17.3864 94.2C17.0864 94.2 16.8464 94.2767 16.6664 94.43C16.4864 94.5833 16.3964 94.7767 16.3964 95.01C16.3964 95.19 16.4431 95.3333 16.5364 95.44C16.6297 95.5467 16.7364 95.6267 16.8564 95.68C16.9831 95.7333 17.0931 95.7733 17.1864 95.8L18.0764 96.06C18.5097 96.1867 18.8464 96.3833 19.0864 96.65C19.3331 96.9167 19.4564 97.23 19.4564 97.59C19.4564 97.8833 19.3731 98.1467 19.2064 98.38C19.0464 98.6133 18.8231 98.7967 18.5364 98.93C18.2497 99.0567 17.9197 99.12 17.5464 99.12ZM23.4143 99.12C22.9143 99.12 22.461 99 22.0543 98.76C21.6543 98.5133 21.3376 98.1767 21.1043 97.75C20.871 97.3233 20.7543 96.84 20.7543 96.3C20.7543 95.76 20.8676 95.2833 21.0943 94.87C21.321 94.45 21.6276 94.12 22.0143 93.88C22.4076 93.64 22.8476 93.52 23.3343 93.52C23.721 93.52 24.0643 93.5933 24.3643 93.74C24.671 93.88 24.931 94.0733 25.1443 94.32C25.3576 94.56 25.521 94.8333 25.6343 95.14C25.7476 95.44 25.8043 95.75 25.8043 96.07C25.8043 96.1367 25.801 96.2133 25.7943 96.3C25.7876 96.38 25.7776 96.4633 25.7643 96.55H21.2343V95.85H25.3343L24.9743 96.15C25.0343 95.7833 24.991 95.4567 24.8443 95.17C24.7043 94.8767 24.501 94.6467 24.2343 94.48C23.9676 94.3067 23.6676 94.22 23.3343 94.22C23.001 94.22 22.691 94.3067 22.4043 94.48C22.1243 94.6533 21.9043 94.8967 21.7443 95.21C21.5843 95.5167 21.521 95.8833 21.5543 96.31C21.521 96.7367 21.5876 97.11 21.7543 97.43C21.9276 97.7433 22.161 97.9867 22.4543 98.16C22.7543 98.3333 23.0743 98.42 23.4143 98.42C23.8076 98.42 24.1376 98.3267 24.4043 98.14C24.671 97.9533 24.8876 97.72 25.0543 97.44L25.6943 97.78C25.5876 98.02 25.4243 98.2433 25.2043 98.45C24.9843 98.65 24.721 98.8133 24.4143 98.94C24.1143 99.06 23.781 99.12 23.4143 99.12ZM30.7759 99.12C30.4359 99.12 30.1325 99.0567 29.8659 98.93C29.5992 98.7967 29.3892 98.6167 29.2359 98.39C29.0825 98.1633 29.0059 97.9033 29.0059 97.61C29.0059 97.33 29.0659 97.0767 29.1859 96.85C29.3059 96.6167 29.4925 96.42 29.7459 96.26C29.9992 96.1 30.3225 95.9867 30.7159 95.92L32.8159 95.57V96.25L30.8959 96.57C30.5092 96.6367 30.2292 96.76 30.0559 96.94C29.8892 97.12 29.8059 97.3333 29.8059 97.58C29.8059 97.82 29.8992 98.0233 30.0859 98.19C30.2792 98.3567 30.5259 98.44 30.8259 98.44C31.1925 98.44 31.5125 98.3633 31.7859 98.21C32.0592 98.05 32.2725 97.8367 32.4259 97.57C32.5792 97.3033 32.6559 97.0067 32.6559 96.68V95.32C32.6559 95 32.5392 94.74 32.3059 94.54C32.0725 94.34 31.7692 94.24 31.3959 94.24C31.0692 94.24 30.7825 94.3233 30.5359 94.49C30.2892 94.65 30.1059 94.86 29.9859 95.12L29.3059 94.75C29.4059 94.5233 29.5625 94.3167 29.7759 94.13C29.9959 93.9433 30.2459 93.7967 30.5259 93.69C30.8059 93.5767 31.0959 93.52 31.3959 93.52C31.7892 93.52 32.1359 93.5967 32.4359 93.75C32.7425 93.9033 32.9792 94.1167 33.1459 94.39C33.3192 94.6567 33.4059 94.9667 33.4059 95.32V99H32.6559V97.93L32.7659 98.04C32.6725 98.24 32.5259 98.4233 32.3259 98.59C32.1325 98.75 31.9025 98.88 31.6359 98.98C31.3759 99.0733 31.0892 99.12 30.7759 99.12ZM37.5985 99.12C37.0719 99.12 36.6085 98.9967 36.2085 98.75C35.8085 98.5033 35.4952 98.17 35.2685 97.75C35.0419 97.3233 34.9285 96.8433 34.9285 96.31C34.9285 95.7767 35.0419 95.3 35.2685 94.88C35.4952 94.46 35.8085 94.13 36.2085 93.89C36.6085 93.6433 37.0719 93.52 37.5985 93.52C37.9319 93.52 38.2452 93.58 38.5385 93.7C38.8319 93.82 39.0919 93.9833 39.3185 94.19C39.5452 94.39 39.7152 94.6233 39.8285 94.89L39.1485 95.24C39.0152 94.9533 38.8119 94.72 38.5385 94.54C38.2652 94.36 37.9519 94.27 37.5985 94.27C37.2452 94.27 36.9252 94.36 36.6385 94.54C36.3585 94.7133 36.1352 94.9567 35.9685 95.27C35.8085 95.5767 35.7285 95.9267 35.7285 96.32C35.7285 96.7067 35.8085 97.0567 35.9685 97.37C36.1352 97.6767 36.3585 97.92 36.6385 98.1C36.9252 98.28 37.2452 98.37 37.5985 98.37C37.9519 98.37 38.2619 98.28 38.5285 98.1C38.8019 97.92 39.0085 97.68 39.1485 97.38L39.8285 97.75C39.7152 98.01 39.5452 98.2433 39.3185 98.45C39.0919 98.6567 38.8319 98.82 38.5385 98.94C38.2452 99.06 37.9319 99.12 37.5985 99.12ZM41.3446 99V91.43H42.0946V94.68L41.9246 94.64C42.0579 94.2933 42.2746 94.02 42.5746 93.82C42.8813 93.62 43.2346 93.52 43.6346 93.52C44.0146 93.52 44.3546 93.6067 44.6546 93.78C44.9613 93.9533 45.2013 94.1933 45.3746 94.5C45.5546 94.8 45.6446 95.14 45.6446 95.52V99H44.8946V95.81C44.8946 95.4833 44.8346 95.2067 44.7146 94.98C44.5946 94.7533 44.4279 94.58 44.2146 94.46C44.0079 94.3333 43.7713 94.27 43.5046 94.27C43.2379 94.27 42.9979 94.3333 42.7846 94.46C42.5713 94.58 42.4013 94.7567 42.2746 94.99C42.1546 95.2167 42.0946 95.49 42.0946 95.81V99H41.3446ZM49.717 99.12C49.217 99.12 48.7637 99 48.357 98.76C47.957 98.5133 47.6404 98.1767 47.407 97.75C47.1737 97.3233 47.057 96.84 47.057 96.3C47.057 95.76 47.1704 95.2833 47.397 94.87C47.6237 94.45 47.9304 94.12 48.317 93.88C48.7104 93.64 49.1504 93.52 49.637 93.52C50.0237 93.52 50.367 93.5933 50.667 93.74C50.9737 93.88 51.2337 94.0733 51.447 94.32C51.6604 94.56 51.8237 94.8333 51.937 95.14C52.0504 95.44 52.107 95.75 52.107 96.07C52.107 96.1367 52.1037 96.2133 52.097 96.3C52.0904 96.38 52.0804 96.4633 52.067 96.55H47.537V95.85H51.637L51.277 96.15C51.337 95.7833 51.2937 95.4567 51.147 95.17C51.007 94.8767 50.8037 94.6467 50.537 94.48C50.2704 94.3067 49.9704 94.22 49.637 94.22C49.3037 94.22 48.9937 94.3067 48.707 94.48C48.427 94.6533 48.207 94.8967 48.047 95.21C47.887 95.5167 47.8237 95.8833 47.857 96.31C47.8237 96.7367 47.8904 97.11 48.057 97.43C48.2304 97.7433 48.4637 97.9867 48.757 98.16C49.057 98.3333 49.377 98.42 49.717 98.42C50.1104 98.42 50.4404 98.3267 50.707 98.14C50.9737 97.9533 51.1904 97.72 51.357 97.44L51.997 97.78C51.8904 98.02 51.727 98.2433 51.507 98.45C51.287 98.65 51.0237 98.8133 50.717 98.94C50.417 99.06 50.0837 99.12 49.717 99.12ZM56.1694 101.2C55.8027 101.2 55.4627 101.143 55.1494 101.03C54.8427 100.917 54.576 100.76 54.3494 100.56C54.1294 100.367 53.9594 100.14 53.8394 99.88L54.5294 99.51C54.636 99.7633 54.826 99.9833 55.0994 100.17C55.3727 100.357 55.7227 100.45 56.1494 100.45C56.476 100.45 56.776 100.387 57.0494 100.26C57.3227 100.133 57.5427 99.9467 57.7094 99.7C57.876 99.4533 57.9594 99.15 57.9594 98.79V97.6L58.0794 97.71C57.8927 98.0967 57.616 98.3967 57.2494 98.61C56.8827 98.8167 56.4827 98.92 56.0494 98.92C55.5494 98.92 55.0994 98.8 54.6994 98.56C54.2994 98.32 53.9827 97.9967 53.7494 97.59C53.5227 97.1767 53.4094 96.72 53.4094 96.22C53.4094 95.7133 53.5227 95.2567 53.7494 94.85C53.9827 94.4433 54.296 94.12 54.6894 93.88C55.0894 93.64 55.5427 93.52 56.0494 93.52C56.4827 93.52 56.876 93.62 57.2294 93.82C57.5894 94.02 57.8727 94.29 58.0794 94.63L57.9594 94.84V93.64H58.7094V98.79C58.7094 99.25 58.5994 99.66 58.3794 100.02C58.166 100.387 57.866 100.673 57.4794 100.88C57.0994 101.093 56.6627 101.2 56.1694 101.2ZM56.0894 98.17C56.436 98.17 56.7494 98.0833 57.0294 97.91C57.3094 97.73 57.5327 97.4933 57.6994 97.2C57.8727 96.9 57.9594 96.5733 57.9594 96.22C57.9594 95.8667 57.8727 95.5433 57.6994 95.25C57.5327 94.95 57.3094 94.7133 57.0294 94.54C56.7494 94.36 56.436 94.27 56.0894 94.27C55.736 94.27 55.416 94.36 55.1294 94.54C54.8427 94.7133 54.616 94.9467 54.4494 95.24C54.2894 95.5333 54.2094 95.86 54.2094 96.22C54.2094 96.5733 54.2894 96.9 54.4494 97.2C54.616 97.4933 54.8394 97.73 55.1194 97.91C55.406 98.0833 55.7294 98.17 56.0894 98.17ZM62.3505 99.12C61.9771 99.12 61.6371 99.0333 61.3305 98.86C61.0238 98.68 60.7805 98.4333 60.6005 98.12C60.4271 97.8 60.3405 97.4333 60.3405 97.02V93.64H61.0905V96.93C61.0905 97.2167 61.1471 97.47 61.2605 97.69C61.3805 97.9033 61.5438 98.07 61.7505 98.19C61.9638 98.31 62.2071 98.37 62.4805 98.37C62.7538 98.37 62.9971 98.31 63.2105 98.19C63.4238 98.0633 63.5905 97.8867 63.7105 97.66C63.8305 97.4267 63.8905 97.15 63.8905 96.83V93.64H64.6405V99H63.8905V97.96L64.0605 98C63.9338 98.3467 63.7171 98.62 63.4105 98.82C63.1038 99.02 62.7505 99.12 62.3505 99.12ZM68.8229 99.12C68.3229 99.12 67.8696 99 67.4629 98.76C67.0629 98.5133 66.7462 98.1767 66.5129 97.75C66.2796 97.3233 66.1629 96.84 66.1629 96.3C66.1629 95.76 66.2762 95.2833 66.5029 94.87C66.7296 94.45 67.0362 94.12 67.4229 93.88C67.8162 93.64 68.2562 93.52 68.7429 93.52C69.1296 93.52 69.4729 93.5933 69.7729 93.74C70.0796 93.88 70.3396 94.0733 70.5529 94.32C70.7662 94.56 70.9296 94.8333 71.0429 95.14C71.1562 95.44 71.2129 95.75 71.2129 96.07C71.2129 96.1367 71.2096 96.2133 71.2029 96.3C71.1962 96.38 71.1862 96.4633 71.1729 96.55H66.6429V95.85H70.7429L70.3829 96.15C70.4429 95.7833 70.3996 95.4567 70.2529 95.17C70.1129 94.8767 69.9096 94.6467 69.6429 94.48C69.3762 94.3067 69.0762 94.22 68.7429 94.22C68.4096 94.22 68.0996 94.3067 67.8129 94.48C67.5329 94.6533 67.3129 94.8967 67.1529 95.21C66.9929 95.5167 66.9296 95.8833 66.9629 96.31C66.9296 96.7367 66.9962 97.11 67.1629 97.43C67.3362 97.7433 67.5696 97.9867 67.8629 98.16C68.1629 98.3333 68.4829 98.42 68.8229 98.42C69.2162 98.42 69.5462 98.3267 69.8129 98.14C70.0796 97.9533 70.2962 97.72 70.4629 97.44L71.1029 97.78C70.9962 98.02 70.8329 98.2433 70.6129 98.45C70.3929 98.65 70.1296 98.8133 69.8229 98.94C69.5229 99.06 69.1896 99.12 68.8229 99.12ZM77.0745 99.12C76.5745 99.12 76.1211 99 75.7145 98.76C75.3145 98.5133 74.9978 98.1767 74.7645 97.75C74.5311 97.3233 74.4145 96.84 74.4145 96.3C74.4145 95.76 74.5278 95.2833 74.7545 94.87C74.9811 94.45 75.2878 94.12 75.6745 93.88C76.0678 93.64 76.5078 93.52 76.9945 93.52C77.3811 93.52 77.7245 93.5933 78.0245 93.74C78.3311 93.88 78.5911 94.0733 78.8045 94.32C79.0178 94.56 79.1811 94.8333 79.2945 95.14C79.4078 95.44 79.4645 95.75 79.4645 96.07C79.4645 96.1367 79.4611 96.2133 79.4545 96.3C79.4478 96.38 79.4378 96.4633 79.4245 96.55H74.8945V95.85H78.9945L78.6345 96.15C78.6945 95.7833 78.6511 95.4567 78.5045 95.17C78.3645 94.8767 78.1611 94.6467 77.8945 94.48C77.6278 94.3067 77.3278 94.22 76.9945 94.22C76.6611 94.22 76.3511 94.3067 76.0645 94.48C75.7845 94.6533 75.5645 94.8967 75.4045 95.21C75.2445 95.5167 75.1811 95.8833 75.2145 96.31C75.1811 96.7367 75.2478 97.11 75.4145 97.43C75.5878 97.7433 75.8211 97.9867 76.1145 98.16C76.4145 98.3333 76.7345 98.42 77.0745 98.42C77.4678 98.42 77.7978 98.3267 78.0645 98.14C78.3311 97.9533 78.5478 97.72 78.7145 97.44L79.3545 97.78C79.2478 98.02 79.0845 98.2433 78.8645 98.45C78.6445 98.65 78.3811 98.8133 78.0745 98.94C77.7745 99.06 77.4411 99.12 77.0745 99.12ZM85.336 99.12C84.8093 99.12 84.346 98.9967 83.946 98.75C83.546 98.5033 83.2327 98.17 83.006 97.75C82.7793 97.3233 82.666 96.8433 82.666 96.31C82.666 95.7767 82.7793 95.3 83.006 94.88C83.2327 94.46 83.546 94.13 83.946 93.89C84.346 93.6433 84.8093 93.52 85.336 93.52C85.6693 93.52 85.9827 93.58 86.276 93.7C86.5693 93.82 86.8293 93.9833 87.056 94.19C87.2827 94.39 87.4527 94.6233 87.566 94.89L86.886 95.24C86.7527 94.9533 86.5493 94.72 86.276 94.54C86.0027 94.36 85.6893 94.27 85.336 94.27C84.9827 94.27 84.6627 94.36 84.376 94.54C84.096 94.7133 83.8727 94.9567 83.706 95.27C83.546 95.5767 83.466 95.9267 83.466 96.32C83.466 96.7067 83.546 97.0567 83.706 97.37C83.8727 97.6767 84.096 97.92 84.376 98.1C84.6627 98.28 84.9827 98.37 85.336 98.37C85.6893 98.37 85.9993 98.28 86.266 98.1C86.5393 97.92 86.746 97.68 86.886 97.38L87.566 97.75C87.4527 98.01 87.2827 98.2433 87.056 98.45C86.8293 98.6567 86.5693 98.82 86.276 98.94C85.9827 99.06 85.6693 99.12 85.336 99.12ZM91.5921 99.12C91.0854 99.12 90.6254 99 90.2121 98.76C89.7988 98.5133 89.4688 98.18 89.2221 97.76C88.9821 97.3333 88.8621 96.85 88.8621 96.31C88.8621 95.7767 88.9821 95.3 89.2221 94.88C89.4621 94.46 89.7854 94.13 90.1921 93.89C90.6054 93.6433 91.0721 93.52 91.5921 93.52C92.1121 93.52 92.5754 93.64 92.9821 93.88C93.3954 94.12 93.7188 94.45 93.9521 94.87C94.1921 95.29 94.3121 95.77 94.3121 96.31C94.3121 96.8567 94.1888 97.3433 93.9421 97.77C93.6954 98.19 93.3654 98.52 92.9521 98.76C92.5454 99 92.0921 99.12 91.5921 99.12ZM91.5921 98.37C91.9521 98.37 92.2754 98.28 92.5621 98.1C92.8554 97.92 93.0854 97.6733 93.2521 97.36C93.4254 97.0467 93.5121 96.6967 93.5121 96.31C93.5121 95.9233 93.4254 95.5767 93.2521 95.27C93.0854 94.9633 92.8554 94.72 92.5621 94.54C92.2754 94.36 91.9521 94.27 91.5921 94.27C91.2321 94.27 90.9054 94.36 90.6121 94.54C90.3254 94.72 90.0954 94.9633 89.9221 95.27C89.7488 95.5767 89.6621 95.9233 89.6621 96.31C89.6621 96.6967 89.7488 97.0467 89.9221 97.36C90.0954 97.6733 90.3254 97.92 90.6121 98.1C90.9054 98.28 91.2321 98.37 91.5921 98.37ZM95.8348 99V93.64H96.5848V94.68L96.4148 94.64C96.5482 94.2933 96.7648 94.02 97.0648 93.82C97.3715 93.62 97.7248 93.52 98.1248 93.52C98.5048 93.52 98.8448 93.6067 99.1448 93.78C99.4515 93.9533 99.6915 94.1933 99.8648 94.5C100.045 94.8 100.135 95.14 100.135 95.52V99H99.3848V95.81C99.3848 95.4833 99.3248 95.2067 99.2048 94.98C99.0915 94.7533 98.9282 94.58 98.7148 94.46C98.5082 94.3333 98.2682 94.27 97.9948 94.27C97.7215 94.27 97.4782 94.3333 97.2648 94.46C97.0515 94.58 96.8848 94.7567 96.7648 94.99C96.6448 95.2167 96.5848 95.49 96.5848 95.81V99H95.8348ZM102.317 99V94.39H101.247V93.64H102.317V93.16C102.317 92.7867 102.401 92.4733 102.567 92.22C102.734 91.96 102.954 91.7633 103.227 91.63C103.501 91.4967 103.794 91.43 104.107 91.43C104.174 91.43 104.251 91.4367 104.337 91.45C104.424 91.4567 104.494 91.4667 104.547 91.48V92.16C104.501 92.1467 104.437 92.14 104.357 92.14C104.277 92.1333 104.221 92.13 104.187 92.13C103.867 92.13 103.601 92.2067 103.387 92.36C103.174 92.5133 103.067 92.78 103.067 93.16V93.64H106.077V94.39H103.067V99H102.317ZM105.447 99V93.64H106.197V99H105.447ZM107.788 99V93.64H108.538V94.52L108.438 94.39C108.564 94.1367 108.754 93.9367 109.008 93.79C109.268 93.6433 109.581 93.57 109.948 93.57H110.288V94.32H109.818C109.431 94.32 109.121 94.44 108.888 94.68C108.654 94.92 108.538 95.26 108.538 95.7V99H107.788ZM112.916 99.12C112.576 99.12 112.273 99.0567 112.006 98.93C111.74 98.7967 111.53 98.6167 111.376 98.39C111.223 98.1633 111.146 97.9033 111.146 97.61C111.146 97.33 111.206 97.0767 111.326 96.85C111.446 96.6167 111.633 96.42 111.886 96.26C112.14 96.1 112.463 95.9867 112.856 95.92L114.956 95.57V96.25L113.036 96.57C112.65 96.6367 112.37 96.76 112.196 96.94C112.03 97.12 111.946 97.3333 111.946 97.58C111.946 97.82 112.04 98.0233 112.226 98.19C112.42 98.3567 112.666 98.44 112.966 98.44C113.333 98.44 113.653 98.3633 113.926 98.21C114.2 98.05 114.413 97.8367 114.566 97.57C114.72 97.3033 114.796 97.0067 114.796 96.68V95.32C114.796 95 114.68 94.74 114.446 94.54C114.213 94.34 113.91 94.24 113.536 94.24C113.21 94.24 112.923 94.3233 112.676 94.49C112.43 94.65 112.246 94.86 112.126 95.12L111.446 94.75C111.546 94.5233 111.703 94.3167 111.916 94.13C112.136 93.9433 112.386 93.7967 112.666 93.69C112.946 93.5767 113.236 93.52 113.536 93.52C113.93 93.52 114.276 93.5967 114.576 93.75C114.883 93.9033 115.12 94.1167 115.286 94.39C115.46 94.6567 115.546 94.9667 115.546 95.32V99H114.796V97.93L114.906 98.04C114.813 98.24 114.666 98.4233 114.466 98.59C114.273 98.75 114.043 98.88 113.776 98.98C113.516 99.0733 113.23 99.12 112.916 99.12ZM121.698 99.12C121.192 99.12 120.732 99 120.318 98.76C119.905 98.5133 119.575 98.18 119.328 97.76C119.088 97.3333 118.968 96.85 118.968 96.31C118.968 95.7767 119.088 95.3 119.328 94.88C119.568 94.46 119.892 94.13 120.298 93.89C120.712 93.6433 121.178 93.52 121.698 93.52C122.218 93.52 122.682 93.64 123.088 93.88C123.502 94.12 123.825 94.45 124.058 94.87C124.298 95.29 124.418 95.77 124.418 96.31C124.418 96.8567 124.295 97.3433 124.048 97.77C123.802 98.19 123.472 98.52 123.058 98.76C122.652 99 122.198 99.12 121.698 99.12ZM121.698 98.37C122.058 98.37 122.382 98.28 122.668 98.1C122.962 97.92 123.192 97.6733 123.358 97.36C123.532 97.0467 123.618 96.6967 123.618 96.31C123.618 95.9233 123.532 95.5767 123.358 95.27C123.192 94.9633 122.962 94.72 122.668 94.54C122.382 94.36 122.058 94.27 121.698 94.27C121.338 94.27 121.012 94.36 120.718 94.54C120.432 94.72 120.202 94.9633 120.028 95.27C119.855 95.5767 119.768 95.9233 119.768 96.31C119.768 96.6967 119.855 97.0467 120.028 97.36C120.202 97.6733 120.432 97.92 120.718 98.1C121.012 98.28 121.338 98.37 121.698 98.37ZM127.801 99.12C127.288 99.12 126.838 98.99 126.451 98.73C126.064 98.47 125.784 98.1167 125.611 97.67L126.241 97.37C126.394 97.6967 126.608 97.9567 126.881 98.15C127.161 98.3433 127.468 98.44 127.801 98.44C128.121 98.44 128.391 98.3633 128.611 98.21C128.831 98.05 128.941 97.8433 128.941 97.59C128.941 97.4033 128.888 97.2567 128.781 97.15C128.674 97.0367 128.551 96.95 128.411 96.89C128.271 96.83 128.148 96.7867 128.041 96.76L127.271 96.54C126.778 96.4 126.421 96.2033 126.201 95.95C125.981 95.6967 125.871 95.4033 125.871 95.07C125.871 94.7567 125.951 94.4833 126.111 94.25C126.271 94.0167 126.488 93.8367 126.761 93.71C127.034 93.5833 127.338 93.52 127.671 93.52C128.124 93.52 128.534 93.64 128.901 93.88C129.274 94.1133 129.538 94.44 129.691 94.86L129.051 95.16C128.918 94.86 128.724 94.6267 128.471 94.46C128.224 94.2867 127.948 94.2 127.641 94.2C127.341 94.2 127.101 94.2767 126.921 94.43C126.741 94.5833 126.651 94.7767 126.651 95.01C126.651 95.19 126.698 95.3333 126.791 95.44C126.884 95.5467 126.991 95.6267 127.111 95.68C127.238 95.7333 127.348 95.7733 127.441 95.8L128.331 96.06C128.764 96.1867 129.101 96.3833 129.341 96.65C129.588 96.9167 129.711 97.23 129.711 97.59C129.711 97.8833 129.628 98.1467 129.461 98.38C129.301 98.6133 129.078 98.7967 128.791 98.93C128.504 99.0567 128.174 99.12 127.801 99.12ZM135.578 99.12C135.052 99.12 134.588 98.9967 134.188 98.75C133.788 98.5033 133.475 98.17 133.248 97.75C133.022 97.3233 132.908 96.8433 132.908 96.31C132.908 95.7767 133.022 95.3 133.248 94.88C133.475 94.46 133.788 94.13 134.188 93.89C134.588 93.6433 135.052 93.52 135.578 93.52C135.912 93.52 136.225 93.58 136.518 93.7C136.812 93.82 137.072 93.9833 137.298 94.19C137.525 94.39 137.695 94.6233 137.808 94.89L137.128 95.24C136.995 94.9533 136.792 94.72 136.518 94.54C136.245 94.36 135.932 94.27 135.578 94.27C135.225 94.27 134.905 94.36 134.618 94.54C134.338 94.7133 134.115 94.9567 133.948 95.27C133.788 95.5767 133.708 95.9267 133.708 96.32C133.708 96.7067 133.788 97.0567 133.948 97.37C134.115 97.6767 134.338 97.92 134.618 98.1C134.905 98.28 135.225 98.37 135.578 98.37C135.932 98.37 136.242 98.28 136.508 98.1C136.782 97.92 136.988 97.68 137.128 97.38L137.808 97.75C137.695 98.01 137.525 98.2433 137.298 98.45C137.072 98.6567 136.812 98.82 136.518 98.94C136.225 99.06 135.912 99.12 135.578 99.12ZM141.834 99.12C141.328 99.12 140.868 99 140.454 98.76C140.041 98.5133 139.711 98.18 139.464 97.76C139.224 97.3333 139.104 96.85 139.104 96.31C139.104 95.7767 139.224 95.3 139.464 94.88C139.704 94.46 140.028 94.13 140.434 93.89C140.848 93.6433 141.314 93.52 141.834 93.52C142.354 93.52 142.818 93.64 143.224 93.88C143.638 94.12 143.961 94.45 144.194 94.87C144.434 95.29 144.554 95.77 144.554 96.31C144.554 96.8567 144.431 97.3433 144.184 97.77C143.938 98.19 143.608 98.52 143.194 98.76C142.788 99 142.334 99.12 141.834 99.12ZM141.834 98.37C142.194 98.37 142.518 98.28 142.804 98.1C143.098 97.92 143.328 97.6733 143.494 97.36C143.668 97.0467 143.754 96.6967 143.754 96.31C143.754 95.9233 143.668 95.5767 143.494 95.27C143.328 94.9633 143.098 94.72 142.804 94.54C142.518 94.36 142.194 94.27 141.834 94.27C141.474 94.27 141.148 94.36 140.854 94.54C140.568 94.72 140.338 94.9633 140.164 95.27C139.991 95.5767 139.904 95.9233 139.904 96.31C139.904 96.6967 139.991 97.0467 140.164 97.36C140.338 97.6733 140.568 97.92 140.854 98.1C141.148 98.28 141.474 98.37 141.834 98.37ZM146.077 99V93.64H146.827V94.68L146.657 94.64C146.79 94.2933 147.007 94.02 147.307 93.82C147.614 93.62 147.967 93.52 148.367 93.52C148.747 93.52 149.087 93.6067 149.387 93.78C149.694 93.9533 149.934 94.1933 150.107 94.5C150.287 94.8 150.377 95.14 150.377 95.52V99H149.627V95.81C149.627 95.4833 149.567 95.2067 149.447 94.98C149.334 94.7533 149.17 94.58 148.957 94.46C148.75 94.3333 148.51 94.27 148.237 94.27C147.964 94.27 147.72 94.3333 147.507 94.46C147.294 94.58 147.127 94.7567 147.007 94.99C146.887 95.2167 146.827 95.49 146.827 95.81V99H146.077ZM154.059 99.06C153.579 99.06 153.209 98.92 152.949 98.64C152.689 98.36 152.559 97.96 152.559 97.44V94.39H151.569V93.64H151.819C152.046 93.64 152.226 93.5667 152.359 93.42C152.493 93.2667 152.559 93.0767 152.559 92.85V92.4H153.309V93.64H154.489V94.39H153.309V97.44C153.309 97.62 153.336 97.78 153.389 97.92C153.443 98.0533 153.533 98.16 153.659 98.24C153.793 98.32 153.969 98.36 154.189 98.36C154.243 98.36 154.306 98.3567 154.379 98.35C154.453 98.3433 154.516 98.3367 154.569 98.33V99C154.489 99.02 154.399 99.0333 154.299 99.04C154.199 99.0533 154.119 99.06 154.059 99.06ZM158.331 99.12C157.831 99.12 157.378 99 156.971 98.76C156.571 98.5133 156.254 98.1767 156.021 97.75C155.788 97.3233 155.671 96.84 155.671 96.3C155.671 95.76 155.784 95.2833 156.011 94.87C156.238 94.45 156.544 94.12 156.931 93.88C157.324 93.64 157.764 93.52 158.251 93.52C158.638 93.52 158.981 93.5933 159.281 93.74C159.588 93.88 159.848 94.0733 160.061 94.32C160.274 94.56 160.438 94.8333 160.551 95.14C160.664 95.44 160.721 95.75 160.721 96.07C160.721 96.1367 160.718 96.2133 160.711 96.3C160.704 96.38 160.694 96.4633 160.681 96.55H156.151V95.85H160.251L159.891 96.15C159.951 95.7833 159.908 95.4567 159.761 95.17C159.621 94.8767 159.418 94.6467 159.151 94.48C158.884 94.3067 158.584 94.22 158.251 94.22C157.918 94.22 157.608 94.3067 157.321 94.48C157.041 94.6533 156.821 94.8967 156.661 95.21C156.501 95.5167 156.438 95.8833 156.471 96.31C156.438 96.7367 156.504 97.11 156.671 97.43C156.844 97.7433 157.078 97.9867 157.371 98.16C157.671 98.3333 157.991 98.42 158.331 98.42C158.724 98.42 159.054 98.3267 159.321 98.14C159.588 97.9533 159.804 97.72 159.971 97.44L160.611 97.78C160.504 98.02 160.341 98.2433 160.121 98.45C159.901 98.65 159.638 98.8133 159.331 98.94C159.031 99.06 158.698 99.12 158.331 99.12ZM164.143 99.12C163.77 99.12 163.43 99.0333 163.123 98.86C162.817 98.68 162.573 98.4333 162.393 98.12C162.22 97.8 162.133 97.4333 162.133 97.02V93.64H162.883V96.93C162.883 97.2167 162.94 97.47 163.053 97.69C163.173 97.9033 163.337 98.07 163.543 98.19C163.757 98.31 164 98.37 164.273 98.37C164.547 98.37 164.79 98.31 165.003 98.19C165.217 98.0633 165.383 97.8867 165.503 97.66C165.623 97.4267 165.683 97.15 165.683 96.83V93.64H166.433V99H165.683V97.96L165.853 98C165.727 98.3467 165.51 98.62 165.203 98.82C164.897 99.02 164.543 99.12 164.143 99.12ZM163.963 92.6L164.833 91.1H165.863L164.723 92.6H163.963ZM170.596 99.12C170.096 99.12 169.646 99 169.246 98.76C168.846 98.5133 168.529 98.18 168.296 97.76C168.069 97.3333 167.956 96.8533 167.956 96.32C167.956 95.78 168.069 95.3 168.296 94.88C168.529 94.46 168.843 94.13 169.236 93.89C169.636 93.6433 170.089 93.52 170.596 93.52C171.056 93.52 171.466 93.62 171.826 93.82C172.186 94.02 172.469 94.29 172.676 94.63L172.556 94.84V91.43H173.306V99H172.556V97.8L172.676 97.91C172.489 98.2967 172.209 98.5967 171.836 98.81C171.469 99.0167 171.056 99.12 170.596 99.12ZM170.636 98.37C170.996 98.37 171.319 98.28 171.606 98.1C171.899 97.92 172.129 97.6767 172.296 97.37C172.469 97.0567 172.556 96.7067 172.556 96.32C172.556 95.9333 172.469 95.5867 172.296 95.28C172.129 94.9667 171.899 94.72 171.606 94.54C171.319 94.36 170.996 94.27 170.636 94.27C170.283 94.27 169.963 94.36 169.676 94.54C169.389 94.72 169.163 94.9633 168.996 95.27C168.836 95.5767 168.756 95.9267 168.756 96.32C168.756 96.7067 168.836 97.0567 168.996 97.37C169.163 97.6767 169.386 97.92 169.666 98.1C169.953 98.28 170.276 98.37 170.636 98.37ZM177.556 99.12C177.049 99.12 176.589 99 176.176 98.76C175.762 98.5133 175.432 98.18 175.186 97.76C174.946 97.3333 174.826 96.85 174.826 96.31C174.826 95.7767 174.946 95.3 175.186 94.88C175.426 94.46 175.749 94.13 176.156 93.89C176.569 93.6433 177.036 93.52 177.556 93.52C178.076 93.52 178.539 93.64 178.946 93.88C179.359 94.12 179.682 94.45 179.916 94.87C180.156 95.29 180.276 95.77 180.276 96.31C180.276 96.8567 180.152 97.3433 179.906 97.77C179.659 98.19 179.329 98.52 178.916 98.76C178.509 99 178.056 99.12 177.556 99.12ZM177.556 98.37C177.916 98.37 178.239 98.28 178.526 98.1C178.819 97.92 179.049 97.6733 179.216 97.36C179.389 97.0467 179.476 96.6967 179.476 96.31C179.476 95.9233 179.389 95.5767 179.216 95.27C179.049 94.9633 178.819 94.72 178.526 94.54C178.239 94.36 177.916 94.27 177.556 94.27C177.196 94.27 176.869 94.36 176.576 94.54C176.289 94.72 176.059 94.9633 175.886 95.27C175.712 95.5767 175.626 95.9233 175.626 96.31C175.626 96.6967 175.712 97.0467 175.886 97.36C176.059 97.6733 176.289 97.92 176.576 98.1C176.869 98.28 177.196 98.37 177.556 98.37ZM183.659 99.12C183.145 99.12 182.695 98.99 182.309 98.73C181.922 98.47 181.642 98.1167 181.469 97.67L182.099 97.37C182.252 97.6967 182.465 97.9567 182.739 98.15C183.019 98.3433 183.325 98.44 183.659 98.44C183.979 98.44 184.249 98.3633 184.469 98.21C184.689 98.05 184.799 97.8433 184.799 97.59C184.799 97.4033 184.745 97.2567 184.639 97.15C184.532 97.0367 184.409 96.95 184.269 96.89C184.129 96.83 184.005 96.7867 183.899 96.76L183.129 96.54C182.635 96.4 182.279 96.2033 182.059 95.95C181.839 95.6967 181.729 95.4033 181.729 95.07C181.729 94.7567 181.809 94.4833 181.969 94.25C182.129 94.0167 182.345 93.8367 182.619 93.71C182.892 93.5833 183.195 93.52 183.529 93.52C183.982 93.52 184.392 93.64 184.759 93.88C185.132 94.1133 185.395 94.44 185.549 94.86L184.909 95.16C184.775 94.86 184.582 94.6267 184.329 94.46C184.082 94.2867 183.805 94.2 183.499 94.2C183.199 94.2 182.959 94.2767 182.779 94.43C182.599 94.5833 182.509 94.7767 182.509 95.01C182.509 95.19 182.555 95.3333 182.649 95.44C182.742 95.5467 182.849 95.6267 182.969 95.68C183.095 95.7333 183.205 95.7733 183.299 95.8L184.189 96.06C184.622 96.1867 184.959 96.3833 185.199 96.65C185.445 96.9167 185.569 97.23 185.569 97.59C185.569 97.8833 185.485 98.1467 185.319 98.38C185.159 98.6133 184.935 98.7967 184.649 98.93C184.362 99.0567 184.032 99.12 183.659 99.12ZM2.63 112.12C2.11667 112.12 1.66667 111.99 1.28 111.73C0.893333 111.47 0.613333 111.117 0.44 110.67L1.07 110.37C1.22333 110.697 1.43667 110.957 1.71 111.15C1.99 111.343 2.29667 111.44 2.63 111.44C2.95 111.44 3.22 111.363 3.44 111.21C3.66 111.05 3.77 110.843 3.77 110.59C3.77 110.403 3.71667 110.257 3.61 110.15C3.50333 110.037 3.38 109.95 3.24 109.89C3.1 109.83 2.97667 109.787 2.87 109.76L2.1 109.54C1.60667 109.4 1.25 109.203 1.03 108.95C0.81 108.697 0.7 108.403 0.7 108.07C0.7 107.757 0.78 107.483 0.94 107.25C1.1 107.017 1.31667 106.837 1.59 106.71C1.86333 106.583 2.16667 106.52 2.5 106.52C2.95333 106.52 3.36333 106.64 3.73 106.88C4.10333 107.113 4.36667 107.44 4.52 107.86L3.88 108.16C3.74667 107.86 3.55333 107.627 3.3 107.46C3.05333 107.287 2.77667 107.2 2.47 107.2C2.17 107.2 1.93 107.277 1.75 107.43C1.57 107.583 1.48 107.777 1.48 108.01C1.48 108.19 1.52667 108.333 1.62 108.44C1.71333 108.547 1.82 108.627 1.94 108.68C2.06667 108.733 2.17667 108.773 2.27 108.8L3.16 109.06C3.59333 109.187 3.93 109.383 4.17 109.65C4.41667 109.917 4.54 110.23 4.54 110.59C4.54 110.883 4.45667 111.147 4.29 111.38C4.13 111.613 3.90667 111.797 3.62 111.93C3.33333 112.057 3.00333 112.12 2.63 112.12ZM8.49789 112.12C7.99789 112.12 7.54456 112 7.13789 111.76C6.73789 111.513 6.42122 111.177 6.18789 110.75C5.95456 110.323 5.83789 109.84 5.83789 109.3C5.83789 108.76 5.95122 108.283 6.17789 107.87C6.40456 107.45 6.71122 107.12 7.09789 106.88C7.49122 106.64 7.93122 106.52 8.41789 106.52C8.80456 106.52 9.14789 106.593 9.44789 106.74C9.75456 106.88 10.0146 107.073 10.2279 107.32C10.4412 107.56 10.6046 107.833 10.7179 108.14C10.8312 108.44 10.8879 108.75 10.8879 109.07C10.8879 109.137 10.8846 109.213 10.8779 109.3C10.8712 109.38 10.8612 109.463 10.8479 109.55H6.31789V108.85H10.4179L10.0579 109.15C10.1179 108.783 10.0746 108.457 9.92789 108.17C9.78789 107.877 9.58456 107.647 9.31789 107.48C9.05122 107.307 8.75122 107.22 8.41789 107.22C8.08456 107.22 7.77456 107.307 7.48789 107.48C7.20789 107.653 6.98789 107.897 6.82789 108.21C6.66789 108.517 6.60456 108.883 6.63789 109.31C6.60456 109.737 6.67122 110.11 6.83789 110.43C7.01122 110.743 7.24456 110.987 7.53789 111.16C7.83789 111.333 8.15789 111.42 8.49789 111.42C8.89122 111.42 9.22122 111.327 9.48789 111.14C9.75456 110.953 9.97122 110.72 10.1379 110.44L10.7779 110.78C10.6712 111.02 10.5079 111.243 10.2879 111.45C10.0679 111.65 9.80456 111.813 9.49789 111.94C9.19789 112.06 8.86456 112.12 8.49789 112.12ZM12.4102 112V106.64H13.1602V107.66L13.0402 107.51C13.1869 107.197 13.4036 106.953 13.6902 106.78C13.9836 106.607 14.3036 106.52 14.6502 106.52C15.0636 106.52 15.4369 106.637 15.7702 106.87C16.1036 107.103 16.3402 107.407 16.4802 107.78L16.2702 107.79C16.4036 107.377 16.6336 107.063 16.9602 106.85C17.2936 106.63 17.6602 106.52 18.0602 106.52C18.4202 106.52 18.7502 106.607 19.0502 106.78C19.3569 106.953 19.6002 107.193 19.7802 107.5C19.9669 107.8 20.0602 108.14 20.0602 108.52V112H19.3102V108.81C19.3102 108.483 19.2502 108.207 19.1302 107.98C19.0169 107.753 18.8602 107.58 18.6602 107.46C18.4602 107.333 18.2302 107.27 17.9702 107.27C17.7169 107.27 17.4869 107.333 17.2802 107.46C17.0736 107.58 16.9102 107.757 16.7902 107.99C16.6702 108.217 16.6102 108.49 16.6102 108.81V112H15.8602V108.81C15.8602 108.483 15.8002 108.207 15.6802 107.98C15.5669 107.753 15.4102 107.58 15.2102 107.46C15.0102 107.333 14.7802 107.27 14.5202 107.27C14.2602 107.27 14.0269 107.333 13.8202 107.46C13.6202 107.58 13.4602 107.757 13.3402 107.99C13.2202 108.217 13.1602 108.49 13.1602 108.81V112H12.4102ZM23.2423 112.12C22.9023 112.12 22.5989 112.057 22.3323 111.93C22.0656 111.797 21.8556 111.617 21.7023 111.39C21.5489 111.163 21.4723 110.903 21.4723 110.61C21.4723 110.33 21.5323 110.077 21.6523 109.85C21.7723 109.617 21.9589 109.42 22.2123 109.26C22.4656 109.1 22.7889 108.987 23.1823 108.92L25.2823 108.57V109.25L23.3623 109.57C22.9756 109.637 22.6956 109.76 22.5223 109.94C22.3556 110.12 22.2723 110.333 22.2723 110.58C22.2723 110.82 22.3656 111.023 22.5523 111.19C22.7456 111.357 22.9923 111.44 23.2923 111.44C23.6589 111.44 23.9789 111.363 24.2523 111.21C24.5256 111.05 24.7389 110.837 24.8923 110.57C25.0456 110.303 25.1223 110.007 25.1223 109.68V108.32C25.1223 108 25.0056 107.74 24.7723 107.54C24.5389 107.34 24.2356 107.24 23.8623 107.24C23.5356 107.24 23.2489 107.323 23.0023 107.49C22.7556 107.65 22.5723 107.86 22.4523 108.12L21.7723 107.75C21.8723 107.523 22.0289 107.317 22.2423 107.13C22.4623 106.943 22.7123 106.797 22.9923 106.69C23.2723 106.577 23.5623 106.52 23.8623 106.52C24.2556 106.52 24.6023 106.597 24.9023 106.75C25.2089 106.903 25.4456 107.117 25.6123 107.39C25.7856 107.657 25.8723 107.967 25.8723 108.32V112H25.1223V110.93L25.2323 111.04C25.1389 111.24 24.9923 111.423 24.7923 111.59C24.5989 111.75 24.3689 111.88 24.1023 111.98C23.8423 112.073 23.5556 112.12 23.2423 112.12ZM27.6149 112V106.64H28.3649V107.68L28.1949 107.64C28.3283 107.293 28.5449 107.02 28.8449 106.82C29.1516 106.62 29.5049 106.52 29.9049 106.52C30.2849 106.52 30.6249 106.607 30.9249 106.78C31.2316 106.953 31.4716 107.193 31.6449 107.5C31.8249 107.8 31.9149 108.14 31.9149 108.52V112H31.1649V108.81C31.1649 108.483 31.1049 108.207 30.9849 107.98C30.8716 107.753 30.7083 107.58 30.4949 107.46C30.2883 107.333 30.0483 107.27 29.7749 107.27C29.5016 107.27 29.2583 107.333 29.0449 107.46C28.8316 107.58 28.6649 107.757 28.5449 107.99C28.4249 108.217 28.3649 108.49 28.3649 108.81V112H27.6149ZM35.0973 112.12C34.7573 112.12 34.454 112.057 34.1873 111.93C33.9207 111.797 33.7107 111.617 33.5573 111.39C33.404 111.163 33.3273 110.903 33.3273 110.61C33.3273 110.33 33.3873 110.077 33.5073 109.85C33.6273 109.617 33.814 109.42 34.0673 109.26C34.3207 109.1 34.644 108.987 35.0373 108.92L37.1373 108.57V109.25L35.2173 109.57C34.8307 109.637 34.5507 109.76 34.3773 109.94C34.2107 110.12 34.1273 110.333 34.1273 110.58C34.1273 110.82 34.2207 111.023 34.4073 111.19C34.6007 111.357 34.8473 111.44 35.1473 111.44C35.514 111.44 35.834 111.363 36.1073 111.21C36.3807 111.05 36.594 110.837 36.7473 110.57C36.9007 110.303 36.9773 110.007 36.9773 109.68V108.32C36.9773 108 36.8607 107.74 36.6273 107.54C36.394 107.34 36.0907 107.24 35.7173 107.24C35.3907 107.24 35.104 107.323 34.8573 107.49C34.6107 107.65 34.4273 107.86 34.3073 108.12L33.6273 107.75C33.7273 107.523 33.884 107.317 34.0973 107.13C34.3173 106.943 34.5673 106.797 34.8473 106.69C35.1273 106.577 35.4173 106.52 35.7173 106.52C36.1107 106.52 36.4573 106.597 36.7573 106.75C37.064 106.903 37.3007 107.117 37.4673 107.39C37.6407 107.657 37.7273 107.967 37.7273 108.32V112H36.9773V110.93L37.0873 111.04C36.994 111.24 36.8473 111.423 36.6473 111.59C36.454 111.75 36.224 111.88 35.9573 111.98C35.6973 112.073 35.4107 112.12 35.0973 112.12ZM39.47 112V106.64H40.22V112H39.47ZM39.47 105.65V104.55H40.22V105.65H39.47ZM43.8152 112.12C43.3018 112.12 42.8518 111.99 42.4652 111.73C42.0785 111.47 41.7985 111.117 41.6252 110.67L42.2552 110.37C42.4085 110.697 42.6218 110.957 42.8952 111.15C43.1752 111.343 43.4818 111.44 43.8152 111.44C44.1352 111.44 44.4052 111.363 44.6252 111.21C44.8452 111.05 44.9552 110.843 44.9552 110.59C44.9552 110.403 44.9018 110.257 44.7952 110.15C44.6885 110.037 44.5652 109.95 44.4252 109.89C44.2852 109.83 44.1618 109.787 44.0552 109.76L43.2852 109.54C42.7918 109.4 42.4352 109.203 42.2152 108.95C41.9952 108.697 41.8852 108.403 41.8852 108.07C41.8852 107.757 41.9652 107.483 42.1252 107.25C42.2852 107.017 42.5018 106.837 42.7752 106.71C43.0485 106.583 43.3518 106.52 43.6852 106.52C44.1385 106.52 44.5485 106.64 44.9152 106.88C45.2885 107.113 45.5518 107.44 45.7052 107.86L45.0652 108.16C44.9318 107.86 44.7385 107.627 44.4852 107.46C44.2385 107.287 43.9618 107.2 43.6552 107.2C43.3552 107.2 43.1152 107.277 42.9352 107.43C42.7552 107.583 42.6652 107.777 42.6652 108.01C42.6652 108.19 42.7118 108.333 42.8052 108.44C42.8985 108.547 43.0052 108.627 43.1252 108.68C43.2518 108.733 43.3618 108.773 43.4552 108.8L44.3452 109.06C44.7785 109.187 45.1152 109.383 45.3552 109.65C45.6018 109.917 45.7252 110.23 45.7252 110.59C45.7252 110.883 45.6418 111.147 45.4752 111.38C45.3152 111.613 45.0918 111.797 44.8052 111.93C44.5185 112.057 44.1885 112.12 43.8152 112.12ZM53.5223 114V110.8L53.6423 110.91C53.4556 111.297 53.1756 111.597 52.8023 111.81C52.4356 112.017 52.0223 112.12 51.5623 112.12C51.0623 112.12 50.6123 112 50.2123 111.76C49.8123 111.513 49.4956 111.18 49.2623 110.76C49.0356 110.333 48.9223 109.853 48.9223 109.32C48.9223 108.78 49.0356 108.3 49.2623 107.88C49.4956 107.46 49.8089 107.13 50.2023 106.89C50.6023 106.643 51.0556 106.52 51.5623 106.52C52.0223 106.52 52.4323 106.62 52.7923 106.82C53.1523 107.02 53.4356 107.29 53.6423 107.63L53.5223 107.84V106.64H54.2723V114H53.5223ZM51.6023 111.37C51.9623 111.37 52.2856 111.28 52.5723 111.1C52.8656 110.92 53.0956 110.677 53.2623 110.37C53.4356 110.057 53.5223 109.707 53.5223 109.32C53.5223 108.933 53.4356 108.587 53.2623 108.28C53.0956 107.967 52.8656 107.72 52.5723 107.54C52.2856 107.36 51.9623 107.27 51.6023 107.27C51.2489 107.27 50.9289 107.36 50.6423 107.54C50.3556 107.72 50.1289 107.963 49.9623 108.27C49.8023 108.577 49.7223 108.927 49.7223 109.32C49.7223 109.707 49.8023 110.057 49.9623 110.37C50.1289 110.677 50.3523 110.92 50.6323 111.1C50.9189 111.28 51.2423 111.37 51.6023 111.37ZM57.9122 112.12C57.5389 112.12 57.1989 112.033 56.8922 111.86C56.5855 111.68 56.3422 111.433 56.1622 111.12C55.9889 110.8 55.9022 110.433 55.9022 110.02V106.64H56.6522V109.93C56.6522 110.217 56.7089 110.47 56.8222 110.69C56.9422 110.903 57.1055 111.07 57.3122 111.19C57.5255 111.31 57.7689 111.37 58.0422 111.37C58.3155 111.37 58.5589 111.31 58.7722 111.19C58.9855 111.063 59.1522 110.887 59.2722 110.66C59.3922 110.427 59.4522 110.15 59.4522 109.83V106.64H60.2022V112H59.4522V110.96L59.6222 111C59.4955 111.347 59.2789 111.62 58.9722 111.82C58.6655 112.02 58.3122 112.12 57.9122 112.12ZM64.3846 112.12C63.8846 112.12 63.4313 112 63.0246 111.76C62.6246 111.513 62.3079 111.177 62.0746 110.75C61.8413 110.323 61.7246 109.84 61.7246 109.3C61.7246 108.76 61.8379 108.283 62.0646 107.87C62.2913 107.45 62.5979 107.12 62.9846 106.88C63.3779 106.64 63.8179 106.52 64.3046 106.52C64.6913 106.52 65.0346 106.593 65.3346 106.74C65.6413 106.88 65.9013 107.073 66.1146 107.32C66.3279 107.56 66.4913 107.833 66.6046 108.14C66.7179 108.44 66.7746 108.75 66.7746 109.07C66.7746 109.137 66.7713 109.213 66.7646 109.3C66.7579 109.38 66.7479 109.463 66.7346 109.55H62.2046V108.85H66.3046L65.9446 109.15C66.0046 108.783 65.9613 108.457 65.8146 108.17C65.6746 107.877 65.4713 107.647 65.2046 107.48C64.9379 107.307 64.6379 107.22 64.3046 107.22C63.9713 107.22 63.6613 107.307 63.3746 107.48C63.0946 107.653 62.8746 107.897 62.7146 108.21C62.5546 108.517 62.4913 108.883 62.5246 109.31C62.4913 109.737 62.5579 110.11 62.7246 110.43C62.8979 110.743 63.1313 110.987 63.4246 111.16C63.7246 111.333 64.0446 111.42 64.3846 111.42C64.7779 111.42 65.1079 111.327 65.3746 111.14C65.6413 110.953 65.8579 110.72 66.0246 110.44L66.6646 110.78C66.5579 111.02 66.3946 111.243 66.1746 111.45C65.9546 111.65 65.6913 111.813 65.3846 111.94C65.0846 112.06 64.7513 112.12 64.3846 112.12ZM72.0562 112.12C71.5428 112.12 71.0928 111.99 70.7062 111.73C70.3195 111.47 70.0395 111.117 69.8662 110.67L70.4962 110.37C70.6495 110.697 70.8628 110.957 71.1362 111.15C71.4162 111.343 71.7228 111.44 72.0562 111.44C72.3762 111.44 72.6462 111.363 72.8662 111.21C73.0862 111.05 73.1962 110.843 73.1962 110.59C73.1962 110.403 73.1428 110.257 73.0362 110.15C72.9295 110.037 72.8062 109.95 72.6662 109.89C72.5262 109.83 72.4028 109.787 72.2962 109.76L71.5262 109.54C71.0328 109.4 70.6762 109.203 70.4562 108.95C70.2362 108.697 70.1262 108.403 70.1262 108.07C70.1262 107.757 70.2062 107.483 70.3662 107.25C70.5262 107.017 70.7428 106.837 71.0162 106.71C71.2895 106.583 71.5928 106.52 71.9262 106.52C72.3795 106.52 72.7895 106.64 73.1562 106.88C73.5295 107.113 73.7928 107.44 73.9462 107.86L73.3062 108.16C73.1728 107.86 72.9795 107.627 72.7262 107.46C72.4795 107.287 72.2028 107.2 71.8962 107.2C71.5962 107.2 71.3562 107.277 71.1762 107.43C70.9962 107.583 70.9062 107.777 70.9062 108.01C70.9062 108.19 70.9528 108.333 71.0462 108.44C71.1395 108.547 71.2462 108.627 71.3662 108.68C71.4928 108.733 71.6028 108.773 71.6962 108.8L72.5862 109.06C73.0195 109.187 73.3562 109.383 73.5962 109.65C73.8428 109.917 73.9662 110.23 73.9662 110.59C73.9662 110.883 73.8828 111.147 73.7162 111.38C73.5562 111.613 73.3328 111.797 73.0462 111.93C72.7595 112.057 72.4295 112.12 72.0562 112.12ZM77.9241 112.12C77.4241 112.12 76.9707 112 76.5641 111.76C76.1641 111.513 75.8474 111.177 75.6141 110.75C75.3807 110.323 75.2641 109.84 75.2641 109.3C75.2641 108.76 75.3774 108.283 75.6041 107.87C75.8307 107.45 76.1374 107.12 76.5241 106.88C76.9174 106.64 77.3574 106.52 77.8441 106.52C78.2307 106.52 78.5741 106.593 78.8741 106.74C79.1807 106.88 79.4407 107.073 79.6541 107.32C79.8674 107.56 80.0307 107.833 80.1441 108.14C80.2574 108.44 80.3141 108.75 80.3141 109.07C80.3141 109.137 80.3107 109.213 80.3041 109.3C80.2974 109.38 80.2874 109.463 80.2741 109.55H75.7441V108.85H79.8441L79.4841 109.15C79.5441 108.783 79.5007 108.457 79.3541 108.17C79.2141 107.877 79.0107 107.647 78.7441 107.48C78.4774 107.307 78.1774 107.22 77.8441 107.22C77.5107 107.22 77.2007 107.307 76.9141 107.48C76.6341 107.653 76.4141 107.897 76.2541 108.21C76.0941 108.517 76.0307 108.883 76.0641 109.31C76.0307 109.737 76.0974 110.11 76.2641 110.43C76.4374 110.743 76.6707 110.987 76.9641 111.16C77.2641 111.333 77.5841 111.42 77.9241 111.42C78.3174 111.42 78.6474 111.327 78.9141 111.14C79.1807 110.953 79.3974 110.72 79.5641 110.44L80.2041 110.78C80.0974 111.02 79.9341 111.243 79.7141 111.45C79.4941 111.65 79.2307 111.813 78.9241 111.94C78.6241 112.06 78.2907 112.12 77.9241 112.12ZM81.8364 114V106.64H82.5864V107.84L82.4664 107.63C82.6797 107.29 82.9631 107.02 83.3164 106.82C83.6764 106.62 84.0864 106.52 84.5464 106.52C85.0531 106.52 85.5031 106.643 85.8964 106.89C86.2964 107.13 86.6097 107.46 86.8364 107.88C87.0697 108.3 87.1864 108.78 87.1864 109.32C87.1864 109.853 87.0697 110.333 86.8364 110.76C86.6097 111.18 86.2964 111.513 85.8964 111.76C85.5031 112 85.0531 112.12 84.5464 112.12C84.0864 112.12 83.6697 112.017 83.2964 111.81C82.9297 111.597 82.6531 111.297 82.4664 110.91L82.5864 110.8V114H81.8364ZM84.5064 111.37C84.8664 111.37 85.1864 111.28 85.4664 111.1C85.7531 110.92 85.9764 110.677 86.1364 110.37C86.3031 110.057 86.3864 109.707 86.3864 109.32C86.3864 108.927 86.3031 108.577 86.1364 108.27C85.9764 107.963 85.7531 107.72 85.4664 107.54C85.1864 107.36 84.8664 107.27 84.5064 107.27C84.1464 107.27 83.8197 107.36 83.5264 107.54C83.2397 107.72 83.0097 107.967 82.8364 108.28C82.6697 108.587 82.5864 108.933 82.5864 109.32C82.5864 109.707 82.6697 110.057 82.8364 110.37C83.0097 110.677 83.2397 110.92 83.5264 111.1C83.8197 111.28 84.1464 111.37 84.5064 111.37ZM90.2563 112.12C89.9163 112.12 89.613 112.057 89.3463 111.93C89.0797 111.797 88.8697 111.617 88.7163 111.39C88.563 111.163 88.4863 110.903 88.4863 110.61C88.4863 110.33 88.5463 110.077 88.6663 109.85C88.7863 109.617 88.973 109.42 89.2263 109.26C89.4797 109.1 89.803 108.987 90.1963 108.92L92.2963 108.57V109.25L90.3763 109.57C89.9897 109.637 89.7097 109.76 89.5363 109.94C89.3697 110.12 89.2863 110.333 89.2863 110.58C89.2863 110.82 89.3797 111.023 89.5663 111.19C89.7597 111.357 90.0063 111.44 90.3063 111.44C90.673 111.44 90.993 111.363 91.2663 111.21C91.5397 111.05 91.753 110.837 91.9063 110.57C92.0597 110.303 92.1363 110.007 92.1363 109.68V108.32C92.1363 108 92.0197 107.74 91.7863 107.54C91.553 107.34 91.2497 107.24 90.8763 107.24C90.5497 107.24 90.263 107.323 90.0163 107.49C89.7697 107.65 89.5863 107.86 89.4663 108.12L88.7863 107.75C88.8863 107.523 89.043 107.317 89.2563 107.13C89.4763 106.943 89.7263 106.797 90.0063 106.69C90.2863 106.577 90.5763 106.52 90.8763 106.52C91.2697 106.52 91.6163 106.597 91.9163 106.75C92.223 106.903 92.4597 107.117 92.6263 107.39C92.7997 107.657 92.8863 107.967 92.8863 108.32V112H92.1363V110.93L92.2463 111.04C92.153 111.24 92.0063 111.423 91.8063 111.59C91.613 111.75 91.383 111.88 91.1163 111.98C90.8563 112.073 90.5697 112.12 90.2563 112.12ZM94.629 112V106.64H95.379V107.52L95.279 107.39C95.4057 107.137 95.5957 106.937 95.849 106.79C96.109 106.643 96.4223 106.57 96.789 106.57H97.129V107.32H96.659C96.2723 107.32 95.9623 107.44 95.729 107.68C95.4957 107.92 95.379 108.26 95.379 108.7V112H94.629ZM99.7579 112.12C99.4179 112.12 99.1146 112.057 98.8479 111.93C98.5812 111.797 98.3712 111.617 98.2179 111.39C98.0646 111.163 97.9879 110.903 97.9879 110.61C97.9879 110.33 98.0479 110.077 98.1679 109.85C98.2879 109.617 98.4746 109.42 98.7279 109.26C98.9812 109.1 99.3046 108.987 99.6979 108.92L101.798 108.57V109.25L99.8779 109.57C99.4912 109.637 99.2112 109.76 99.0379 109.94C98.8712 110.12 98.7879 110.333 98.7879 110.58C98.7879 110.82 98.8812 111.023 99.0679 111.19C99.2612 111.357 99.5079 111.44 99.8079 111.44C100.175 111.44 100.495 111.363 100.768 111.21C101.041 111.05 101.255 110.837 101.408 110.57C101.561 110.303 101.638 110.007 101.638 109.68V108.32C101.638 108 101.521 107.74 101.288 107.54C101.055 107.34 100.751 107.24 100.378 107.24C100.051 107.24 99.7646 107.323 99.5179 107.49C99.2712 107.65 99.0879 107.86 98.9679 108.12L98.2879 107.75C98.3879 107.523 98.5446 107.317 98.7579 107.13C98.9779 106.943 99.2279 106.797 99.5079 106.69C99.7879 106.577 100.078 106.52 100.378 106.52C100.771 106.52 101.118 106.597 101.418 106.75C101.725 106.903 101.961 107.117 102.128 107.39C102.301 107.657 102.388 107.967 102.388 108.32V112H101.638V110.93L101.748 111.04C101.655 111.24 101.508 111.423 101.308 111.59C101.115 111.75 100.885 111.88 100.618 111.98C100.358 112.073 100.071 112.12 99.7579 112.12ZM104.131 112V106.64H104.881V107.66L104.761 107.51C104.907 107.197 105.124 106.953 105.411 106.78C105.704 106.607 106.024 106.52 106.371 106.52C106.784 106.52 107.157 106.637 107.491 106.87C107.824 107.103 108.061 107.407 108.201 107.78L107.991 107.79C108.124 107.377 108.354 107.063 108.681 106.85C109.014 106.63 109.381 106.52 109.781 106.52C110.141 106.52 110.471 106.607 110.771 106.78C111.077 106.953 111.321 107.193 111.501 107.5C111.687 107.8 111.781 108.14 111.781 108.52V112H111.031V108.81C111.031 108.483 110.971 108.207 110.851 107.98C110.737 107.753 110.581 107.58 110.381 107.46C110.181 107.333 109.951 107.27 109.691 107.27C109.437 107.27 109.207 107.333 109.001 107.46C108.794 107.58 108.631 107.757 108.511 107.99C108.391 108.217 108.331 108.49 108.331 108.81V112H107.581V108.81C107.581 108.483 107.521 108.207 107.401 107.98C107.287 107.753 107.131 107.58 106.931 107.46C106.731 107.333 106.501 107.27 106.241 107.27C105.981 107.27 105.747 107.333 105.541 107.46C105.341 107.58 105.181 107.757 105.061 107.99C104.941 108.217 104.881 108.49 104.881 108.81V112H104.131ZM115.923 112.12C115.416 112.12 114.956 112 114.543 111.76C114.129 111.513 113.799 111.18 113.553 110.76C113.313 110.333 113.193 109.85 113.193 109.31C113.193 108.777 113.313 108.3 113.553 107.88C113.793 107.46 114.116 107.13 114.523 106.89C114.936 106.643 115.403 106.52 115.923 106.52C116.443 106.52 116.906 106.64 117.313 106.88C117.726 107.12 118.049 107.45 118.283 107.87C118.523 108.29 118.643 108.77 118.643 109.31C118.643 109.857 118.519 110.343 118.273 110.77C118.026 111.19 117.696 111.52 117.283 111.76C116.876 112 116.423 112.12 115.923 112.12ZM115.923 111.37C116.283 111.37 116.606 111.28 116.893 111.1C117.186 110.92 117.416 110.673 117.583 110.36C117.756 110.047 117.843 109.697 117.843 109.31C117.843 108.923 117.756 108.577 117.583 108.27C117.416 107.963 117.186 107.72 116.893 107.54C116.606 107.36 116.283 107.27 115.923 107.27C115.563 107.27 115.236 107.36 114.943 107.54C114.656 107.72 114.426 107.963 114.253 108.27C114.079 108.577 113.993 108.923 113.993 109.31C113.993 109.697 114.079 110.047 114.253 110.36C114.426 110.673 114.656 110.92 114.943 111.1C115.236 111.28 115.563 111.37 115.923 111.37ZM122.025 112.12C121.512 112.12 121.062 111.99 120.675 111.73C120.289 111.47 120.009 111.117 119.835 110.67L120.465 110.37C120.619 110.697 120.832 110.957 121.105 111.15C121.385 111.343 121.692 111.44 122.025 111.44C122.345 111.44 122.615 111.363 122.835 111.21C123.055 111.05 123.165 110.843 123.165 110.59C123.165 110.403 123.112 110.257 123.005 110.15C122.899 110.037 122.775 109.95 122.635 109.89C122.495 109.83 122.372 109.787 122.265 109.76L121.495 109.54C121.002 109.4 120.645 109.203 120.425 108.95C120.205 108.697 120.095 108.403 120.095 108.07C120.095 107.757 120.175 107.483 120.335 107.25C120.495 107.017 120.712 106.837 120.985 106.71C121.259 106.583 121.562 106.52 121.895 106.52C122.349 106.52 122.759 106.64 123.125 106.88C123.499 107.113 123.762 107.44 123.915 107.86L123.275 108.16C123.142 107.86 122.949 107.627 122.695 107.46C122.449 107.287 122.172 107.2 121.865 107.2C121.565 107.2 121.325 107.277 121.145 107.43C120.965 107.583 120.875 107.777 120.875 108.01C120.875 108.19 120.922 108.333 121.015 108.44C121.109 108.547 121.215 108.627 121.335 108.68C121.462 108.733 121.572 108.773 121.665 108.8L122.555 109.06C122.989 109.187 123.325 109.383 123.565 109.65C123.812 109.917 123.935 110.23 123.935 110.59C123.935 110.883 123.852 111.147 123.685 111.38C123.525 111.613 123.302 111.797 123.015 111.93C122.729 112.057 122.399 112.12 122.025 112.12ZM127.352 114V106.64H128.102V107.84L127.982 107.63C128.196 107.29 128.479 107.02 128.832 106.82C129.192 106.62 129.602 106.52 130.062 106.52C130.569 106.52 131.019 106.643 131.412 106.89C131.812 107.13 132.126 107.46 132.352 107.88C132.586 108.3 132.702 108.78 132.702 109.32C132.702 109.853 132.586 110.333 132.352 110.76C132.126 111.18 131.812 111.513 131.412 111.76C131.019 112 130.569 112.12 130.062 112.12C129.602 112.12 129.186 112.017 128.812 111.81C128.446 111.597 128.169 111.297 127.982 110.91L128.102 110.8V114H127.352ZM130.022 111.37C130.382 111.37 130.702 111.28 130.982 111.1C131.269 110.92 131.492 110.677 131.652 110.37C131.819 110.057 131.902 109.707 131.902 109.32C131.902 108.927 131.819 108.577 131.652 108.27C131.492 107.963 131.269 107.72 130.982 107.54C130.702 107.36 130.382 107.27 130.022 107.27C129.662 107.27 129.336 107.36 129.042 107.54C128.756 107.72 128.526 107.967 128.352 108.28C128.186 108.587 128.102 108.933 128.102 109.32C128.102 109.707 128.186 110.057 128.352 110.37C128.526 110.677 128.756 110.92 129.042 111.1C129.336 111.28 129.662 111.37 130.022 111.37ZM135.772 112.12C135.432 112.12 135.129 112.057 134.862 111.93C134.596 111.797 134.386 111.617 134.232 111.39C134.079 111.163 134.002 110.903 134.002 110.61C134.002 110.33 134.062 110.077 134.182 109.85C134.302 109.617 134.489 109.42 134.742 109.26C134.996 109.1 135.319 108.987 135.712 108.92L137.812 108.57V109.25L135.892 109.57C135.506 109.637 135.226 109.76 135.052 109.94C134.886 110.12 134.802 110.333 134.802 110.58C134.802 110.82 134.896 111.023 135.082 111.19C135.276 111.357 135.522 111.44 135.822 111.44C136.189 111.44 136.509 111.363 136.782 111.21C137.056 111.05 137.269 110.837 137.422 110.57C137.576 110.303 137.652 110.007 137.652 109.68V108.32C137.652 108 137.536 107.74 137.302 107.54C137.069 107.34 136.766 107.24 136.392 107.24C136.066 107.24 135.779 107.323 135.532 107.49C135.286 107.65 135.102 107.86 134.982 108.12L134.302 107.75C134.402 107.523 134.559 107.317 134.772 107.13C134.992 106.943 135.242 106.797 135.522 106.69C135.802 106.577 136.092 106.52 136.392 106.52C136.786 106.52 137.132 106.597 137.432 106.75C137.739 106.903 137.976 107.117 138.142 107.39C138.316 107.657 138.402 107.967 138.402 108.32V112H137.652V110.93L137.762 111.04C137.669 111.24 137.522 111.423 137.322 111.59C137.129 111.75 136.899 111.88 136.632 111.98C136.372 112.073 136.086 112.12 135.772 112.12ZM140.145 112V106.64H140.895V107.52L140.795 107.39C140.922 107.137 141.112 106.937 141.365 106.79C141.625 106.643 141.938 106.57 142.305 106.57H142.645V107.32H142.175C141.788 107.32 141.478 107.44 141.245 107.68C141.012 107.92 140.895 108.26 140.895 108.7V112H140.145ZM145.274 112.12C144.934 112.12 144.631 112.057 144.364 111.93C144.097 111.797 143.887 111.617 143.734 111.39C143.581 111.163 143.504 110.903 143.504 110.61C143.504 110.33 143.564 110.077 143.684 109.85C143.804 109.617 143.991 109.42 144.244 109.26C144.497 109.1 144.821 108.987 145.214 108.92L147.314 108.57V109.25L145.394 109.57C145.007 109.637 144.727 109.76 144.554 109.94C144.387 110.12 144.304 110.333 144.304 110.58C144.304 110.82 144.397 111.023 144.584 111.19C144.777 111.357 145.024 111.44 145.324 111.44C145.691 111.44 146.011 111.363 146.284 111.21C146.557 111.05 146.771 110.837 146.924 110.57C147.077 110.303 147.154 110.007 147.154 109.68V108.32C147.154 108 147.037 107.74 146.804 107.54C146.571 107.34 146.267 107.24 145.894 107.24C145.567 107.24 145.281 107.323 145.034 107.49C144.787 107.65 144.604 107.86 144.484 108.12L143.804 107.75C143.904 107.523 144.061 107.317 144.274 107.13C144.494 106.943 144.744 106.797 145.024 106.69C145.304 106.577 145.594 106.52 145.894 106.52C146.287 106.52 146.634 106.597 146.934 106.75C147.241 106.903 147.477 107.117 147.644 107.39C147.817 107.657 147.904 107.967 147.904 108.32V112H147.154V110.93L147.264 111.04C147.171 111.24 147.024 111.423 146.824 111.59C146.631 111.75 146.401 111.88 146.134 111.98C145.874 112.073 145.587 112.12 145.274 112.12ZM152.976 112L150.886 106.64H151.726L153.486 111.34H153.216L154.986 106.64H155.836L153.726 112H152.976ZM159.324 112.12C158.817 112.12 158.357 112 157.944 111.76C157.531 111.513 157.201 111.18 156.954 110.76C156.714 110.333 156.594 109.85 156.594 109.31C156.594 108.777 156.714 108.3 156.954 107.88C157.194 107.46 157.517 107.13 157.924 106.89C158.337 106.643 158.804 106.52 159.324 106.52C159.844 106.52 160.307 106.64 160.714 106.88C161.127 107.12 161.451 107.45 161.684 107.87C161.924 108.29 162.044 108.77 162.044 109.31C162.044 109.857 161.921 110.343 161.674 110.77C161.427 111.19 161.097 111.52 160.684 111.76C160.277 112 159.824 112.12 159.324 112.12ZM159.324 111.37C159.684 111.37 160.007 111.28 160.294 111.1C160.587 110.92 160.817 110.673 160.984 110.36C161.157 110.047 161.244 109.697 161.244 109.31C161.244 108.923 161.157 108.577 160.984 108.27C160.817 107.963 160.587 107.72 160.294 107.54C160.007 107.36 159.684 107.27 159.324 107.27C158.964 107.27 158.637 107.36 158.344 107.54C158.057 107.72 157.827 107.963 157.654 108.27C157.481 108.577 157.394 108.923 157.394 109.31C157.394 109.697 157.481 110.047 157.654 110.36C157.827 110.673 158.057 110.92 158.344 111.1C158.637 111.28 158.964 111.37 159.324 111.37ZM166.017 112.12C165.49 112.12 165.027 111.997 164.627 111.75C164.227 111.503 163.914 111.17 163.687 110.75C163.46 110.323 163.347 109.843 163.347 109.31C163.347 108.777 163.46 108.3 163.687 107.88C163.914 107.46 164.227 107.13 164.627 106.89C165.027 106.643 165.49 106.52 166.017 106.52C166.35 106.52 166.664 106.58 166.957 106.7C167.25 106.82 167.51 106.983 167.737 107.19C167.964 107.39 168.134 107.623 168.247 107.89L167.567 108.24C167.434 107.953 167.23 107.72 166.957 107.54C166.684 107.36 166.37 107.27 166.017 107.27C165.664 107.27 165.344 107.36 165.057 107.54C164.777 107.713 164.554 107.957 164.387 108.27C164.227 108.577 164.147 108.927 164.147 109.32C164.147 109.707 164.227 110.057 164.387 110.37C164.554 110.677 164.777 110.92 165.057 111.1C165.344 111.28 165.664 111.37 166.017 111.37C166.37 111.37 166.68 111.28 166.947 111.1C167.22 110.92 167.427 110.68 167.567 110.38L168.247 110.75C168.134 111.01 167.964 111.243 167.737 111.45C167.51 111.657 167.25 111.82 166.957 111.94C166.664 112.06 166.35 112.12 166.017 112.12ZM172.203 112.12C171.703 112.12 171.25 112 170.843 111.76C170.443 111.513 170.126 111.177 169.893 110.75C169.66 110.323 169.543 109.84 169.543 109.3C169.543 108.76 169.656 108.283 169.883 107.87C170.11 107.45 170.416 107.12 170.803 106.88C171.196 106.64 171.636 106.52 172.123 106.52C172.51 106.52 172.853 106.593 173.153 106.74C173.46 106.88 173.72 107.073 173.933 107.32C174.146 107.56 174.31 107.833 174.423 108.14C174.536 108.44 174.593 108.75 174.593 109.07C174.593 109.137 174.59 109.213 174.583 109.3C174.576 109.38 174.566 109.463 174.553 109.55H170.023V108.85H174.123L173.763 109.15C173.823 108.783 173.78 108.457 173.633 108.17C173.493 107.877 173.29 107.647 173.023 107.48C172.756 107.307 172.456 107.22 172.123 107.22C171.79 107.22 171.48 107.307 171.193 107.48C170.913 107.653 170.693 107.897 170.533 108.21C170.373 108.517 170.31 108.883 170.343 109.31C170.31 109.737 170.376 110.11 170.543 110.43C170.716 110.743 170.95 110.987 171.243 111.16C171.543 111.333 171.863 111.42 172.203 111.42C172.596 111.42 172.926 111.327 173.193 111.14C173.46 110.953 173.676 110.72 173.843 110.44L174.483 110.78C174.376 111.02 174.213 111.243 173.993 111.45C173.773 111.65 173.51 111.813 173.203 111.94C172.903 112.06 172.57 112.12 172.203 112.12ZM170.453 105.6L171.653 104.1H172.493L173.703 105.6H172.823L172.073 104.69L171.333 105.6H170.453ZM176.405 109.86L176.355 104.55H177.155L177.105 109.86H176.405ZM176.355 112V110.9H177.155V112H176.355Z" fill="white"/>
<path d="M1.88 11V3.55H2.58L6.95 9.82H6.68V3.55H7.48V11H6.78L2.41 4.69H2.68V11H1.88ZM11.8433 11.12C11.3366 11.12 10.8766 11 10.4633 10.76C10.0499 10.5133 9.71995 10.18 9.47328 9.76C9.23328 9.33333 9.11328 8.85 9.11328 8.31C9.11328 7.77667 9.23328 7.3 9.47328 6.88C9.71328 6.46 10.0366 6.13 10.4433 5.89C10.8566 5.64333 11.3233 5.52 11.8433 5.52C12.3633 5.52 12.8266 5.64 13.2333 5.88C13.6466 6.12 13.9699 6.45 14.2033 6.87C14.4433 7.29 14.5633 7.77 14.5633 8.31C14.5633 8.85667 14.4399 9.34333 14.1933 9.77C13.9466 10.19 13.6166 10.52 13.2033 10.76C12.7966 11 12.3433 11.12 11.8433 11.12ZM11.8433 10.37C12.2033 10.37 12.5266 10.28 12.8133 10.1C13.1066 9.92 13.3366 9.67333 13.5033 9.36C13.6766 9.04667 13.7633 8.69667 13.7633 8.31C13.7633 7.92333 13.6766 7.57667 13.5033 7.27C13.3366 6.96333 13.1066 6.72 12.8133 6.54C12.5266 6.36 12.2033 6.27 11.8433 6.27C11.4833 6.27 11.1566 6.36 10.8633 6.54C10.5766 6.72 10.3466 6.96333 10.1733 7.27C9.99995 7.57667 9.91328 7.92333 9.91328 8.31C9.91328 8.69667 9.99995 9.04667 10.1733 9.36C10.3466 9.67333 10.5766 9.92 10.8633 10.1C11.1566 10.28 11.4833 10.37 11.8433 10.37ZM17.4184 11L15.3284 5.64H16.1684L17.9284 10.34H17.6584L19.4284 5.64H20.2784L18.1684 11H17.4184ZM21.3544 11V5.64H22.1044V11H21.3544ZM21.3544 4.65V3.55H22.1044V4.65H21.3544ZM26.2595 11.12C25.7595 11.12 25.3095 11 24.9095 10.76C24.5095 10.5133 24.1929 10.18 23.9595 9.76C23.7329 9.33333 23.6195 8.85333 23.6195 8.32C23.6195 7.78 23.7329 7.3 23.9595 6.88C24.1929 6.46 24.5062 6.13 24.8995 5.89C25.2995 5.64333 25.7529 5.52 26.2595 5.52C26.7195 5.52 27.1295 5.62 27.4895 5.82C27.8495 6.02 28.1329 6.29 28.3395 6.63L28.2195 6.84V3.43H28.9695V11H28.2195V9.8L28.3395 9.91C28.1529 10.2967 27.8729 10.5967 27.4995 10.81C27.1329 11.0167 26.7195 11.12 26.2595 11.12ZM26.2995 10.37C26.6595 10.37 26.9829 10.28 27.2695 10.1C27.5629 9.92 27.7929 9.67667 27.9595 9.37C28.1329 9.05667 28.2195 8.70667 28.2195 8.32C28.2195 7.93333 28.1329 7.58667 27.9595 7.28C27.7929 6.96667 27.5629 6.72 27.2695 6.54C26.9829 6.36 26.6595 6.27 26.2995 6.27C25.9462 6.27 25.6262 6.36 25.3395 6.54C25.0529 6.72 24.8262 6.96333 24.6595 7.27C24.4995 7.57667 24.4195 7.92667 24.4195 8.32C24.4195 8.70667 24.4995 9.05667 24.6595 9.37C24.8262 9.67667 25.0495 9.92 25.3295 10.1C25.6162 10.28 25.9395 10.37 26.2995 10.37ZM32.2595 11.12C31.9195 11.12 31.6161 11.0567 31.3495 10.93C31.0828 10.7967 30.8728 10.6167 30.7195 10.39C30.5661 10.1633 30.4895 9.90333 30.4895 9.61C30.4895 9.33 30.5495 9.07667 30.6695 8.85C30.7895 8.61667 30.9761 8.42 31.2295 8.26C31.4828 8.1 31.8061 7.98667 32.1995 7.92L34.2995 7.57V8.25L32.3795 8.57C31.9928 8.63667 31.7128 8.76 31.5395 8.94C31.3728 9.12 31.2895 9.33333 31.2895 9.58C31.2895 9.82 31.3828 10.0233 31.5695 10.19C31.7628 10.3567 32.0095 10.44 32.3095 10.44C32.6761 10.44 32.9961 10.3633 33.2695 10.21C33.5428 10.05 33.7561 9.83667 33.9095 9.57C34.0628 9.30333 34.1395 9.00667 34.1395 8.68V7.32C34.1395 7 34.0228 6.74 33.7895 6.54C33.5561 6.34 33.2528 6.24 32.8795 6.24C32.5528 6.24 32.2661 6.32333 32.0195 6.49C31.7728 6.65 31.5895 6.86 31.4695 7.12L30.7895 6.75C30.8895 6.52333 31.0461 6.31667 31.2595 6.13C31.4795 5.94333 31.7295 5.79667 32.0095 5.69C32.2895 5.57667 32.5795 5.52 32.8795 5.52C33.2728 5.52 33.6195 5.59667 33.9195 5.75C34.2261 5.90333 34.4628 6.11667 34.6295 6.39C34.8028 6.65667 34.8895 6.96667 34.8895 7.32V11H34.1395V9.93L34.2495 10.04C34.1561 10.24 34.0095 10.4233 33.8095 10.59C33.6161 10.75 33.3861 10.88 33.1195 10.98C32.8595 11.0733 32.5728 11.12 32.2595 11.12ZM39.0521 11.12C38.5521 11.12 38.1021 11 37.7021 10.76C37.3021 10.5133 36.9854 10.18 36.7521 9.76C36.5254 9.33333 36.4121 8.85333 36.4121 8.32C36.4121 7.78 36.5254 7.3 36.7521 6.88C36.9854 6.46 37.2988 6.13 37.6921 5.89C38.0921 5.64333 38.5454 5.52 39.0521 5.52C39.5121 5.52 39.9221 5.62 40.2821 5.82C40.6421 6.02 40.9254 6.29 41.1321 6.63L41.0121 6.84V3.43H41.7621V11H41.0121V9.8L41.1321 9.91C40.9454 10.2967 40.6654 10.5967 40.2921 10.81C39.9254 11.0167 39.5121 11.12 39.0521 11.12ZM39.0921 10.37C39.4521 10.37 39.7754 10.28 40.0621 10.1C40.3554 9.92 40.5854 9.67667 40.7521 9.37C40.9254 9.05667 41.0121 8.70667 41.0121 8.32C41.0121 7.93333 40.9254 7.58667 40.7521 7.28C40.5854 6.96667 40.3554 6.72 40.0621 6.54C39.7754 6.36 39.4521 6.27 39.0921 6.27C38.7388 6.27 38.4188 6.36 38.1321 6.54C37.8454 6.72 37.6188 6.96333 37.4521 7.27C37.2921 7.57667 37.2121 7.92667 37.2121 8.32C37.2121 8.70667 37.2921 9.05667 37.4521 9.37C37.6188 9.67667 37.8421 9.92 38.1221 10.1C38.4088 10.28 38.7321 10.37 39.0921 10.37ZM45.942 11.12C45.442 11.12 44.9887 11 44.582 10.76C44.182 10.5133 43.8654 10.1767 43.632 9.75C43.3987 9.32333 43.282 8.84 43.282 8.3C43.282 7.76 43.3954 7.28333 43.622 6.87C43.8487 6.45 44.1554 6.12 44.542 5.88C44.9354 5.64 45.3754 5.52 45.862 5.52C46.2487 5.52 46.592 5.59333 46.892 5.74C47.1987 5.88 47.4587 6.07333 47.672 6.32C47.8854 6.56 48.0487 6.83333 48.162 7.14C48.2754 7.44 48.332 7.75 48.332 8.07C48.332 8.13667 48.3287 8.21333 48.322 8.3C48.3154 8.38 48.3054 8.46333 48.292 8.55H43.762V7.85H47.862L47.502 8.15C47.562 7.78333 47.5187 7.45667 47.372 7.17C47.232 6.87667 47.0287 6.64667 46.762 6.48C46.4954 6.30667 46.1954 6.22 45.862 6.22C45.5287 6.22 45.2187 6.30667 44.932 6.48C44.652 6.65333 44.432 6.89667 44.272 7.21C44.112 7.51667 44.0487 7.88333 44.082 8.31C44.0487 8.73667 44.1154 9.11 44.282 9.43C44.4554 9.74333 44.6887 9.98667 44.982 10.16C45.282 10.3333 45.602 10.42 45.942 10.42C46.3354 10.42 46.6654 10.3267 46.932 10.14C47.1987 9.95333 47.4154 9.72 47.582 9.44L48.222 9.78C48.1154 10.02 47.952 10.2433 47.732 10.45C47.512 10.65 47.2487 10.8133 46.942 10.94C46.642 11.06 46.3087 11.12 45.942 11.12ZM51.7144 11.12C51.201 11.12 50.751 10.99 50.3644 10.73C49.9777 10.47 49.6977 10.1167 49.5244 9.67L50.1544 9.37C50.3077 9.69667 50.521 9.95667 50.7944 10.15C51.0744 10.3433 51.381 10.44 51.7144 10.44C52.0344 10.44 52.3044 10.3633 52.5244 10.21C52.7444 10.05 52.8544 9.84333 52.8544 9.59C52.8544 9.40333 52.801 9.25667 52.6944 9.15C52.5877 9.03667 52.4644 8.95 52.3244 8.89C52.1844 8.83 52.061 8.78667 51.9544 8.76L51.1844 8.54C50.691 8.4 50.3344 8.20333 50.1144 7.95C49.8944 7.69667 49.7844 7.40333 49.7844 7.07C49.7844 6.75667 49.8644 6.48333 50.0244 6.25C50.1844 6.01667 50.401 5.83667 50.6744 5.71C50.9477 5.58333 51.251 5.52 51.5844 5.52C52.0377 5.52 52.4477 5.64 52.8144 5.88C53.1877 6.11333 53.451 6.44 53.6044 6.86L52.9644 7.16C52.831 6.86 52.6377 6.62667 52.3844 6.46C52.1377 6.28667 51.861 6.2 51.5544 6.2C51.2544 6.2 51.0144 6.27667 50.8344 6.43C50.6544 6.58333 50.5644 6.77667 50.5644 7.01C50.5644 7.19 50.611 7.33333 50.7044 7.44C50.7977 7.54667 50.9044 7.62667 51.0244 7.68C51.151 7.73333 51.261 7.77333 51.3544 7.8L52.2444 8.06C52.6777 8.18667 53.0144 8.38333 53.2544 8.65C53.501 8.91667 53.6244 9.23 53.6244 9.59C53.6244 9.88333 53.541 10.1467 53.3744 10.38C53.2144 10.6133 52.991 10.7967 52.7044 10.93C52.4177 11.0567 52.0877 11.12 51.7144 11.12Z" fill="white"/>
</svg>
