<svg width="28" height="29" viewBox="0 0 28 29" fill="none" xmlns="http://www.w3.org/2000/svg">
<path d="M18.0751 21.2993C16.9481 21.2993 16.0334 22.214 16.0416 23.341C16.0416 24.468 16.9562 25.3827 18.0832 25.3827C19.2102 25.3827 20.1249 24.468 20.1249 23.341C20.1249 22.214 19.2102 21.2993 18.0751 21.2993" stroke="#323232" stroke-width="1.5" stroke-linecap="round" stroke-linejoin="round"/>
<path fill-rule="evenodd" clip-rule="evenodd" d="M22.1667 17.5078H5.83333C4.54417 17.5078 3.5 16.4636 3.5 15.1745V5.84115C3.5 4.55198 4.54417 3.50781 5.83333 3.50781H22.1667C23.4558 3.50781 24.5 4.55198 24.5 5.84115V15.1745C24.5 16.4636 23.4558 17.5078 22.1667 17.5078Z" stroke="#323232" stroke-width="1.5" stroke-linecap="round" stroke-linejoin="round"/>
<path d="M3.5 23.3411H16.0417" stroke="#323232" stroke-width="1.5" stroke-linecap="round" stroke-linejoin="round"/>
<path d="M20.125 23.3411H24.5" stroke="#323232" stroke-width="1.5" stroke-linecap="round" stroke-linejoin="round"/>
</svg>
