<svg width="28" height="29" viewBox="0 0 28 29" fill="none" xmlns="http://www.w3.org/2000/svg">
<path d="M13.9998 13.2578C11.5358 13.2578 9.51967 11.2427 9.51967 8.77765H8.01967C8.01967 12.0713 10.7076 14.7578 13.9998 14.7578V13.2578ZM9.51967 8.77765C9.51967 6.30526 11.5431 4.25781 13.9998 4.25781V2.75781C10.7002 2.75781 8.01967 5.49137 8.01967 8.77765H9.51967ZM13.9998 4.25781C16.4639 4.25781 18.48 6.27297 18.48 8.73798H19.98C19.98 5.44432 17.2921 2.75781 13.9998 2.75781V4.25781ZM18.48 8.73798C18.48 11.2104 16.4566 13.2578 13.9998 13.2578V14.7578C17.2995 14.7578 19.98 12.0243 19.98 8.73798H18.48ZM22.1665 23.7578H5.83317V25.2578H22.1665V23.7578ZM5.83317 23.7578C5.60572 23.7578 5.4165 23.5686 5.4165 23.3411H3.9165C3.9165 24.397 4.77729 25.2578 5.83317 25.2578V23.7578ZM5.4165 23.3411V22.1745H3.9165V23.3411H5.4165ZM5.4165 22.1745C5.4165 20.022 7.18072 18.2578 9.33317 18.2578V16.7578C6.35229 16.7578 3.9165 19.1936 3.9165 22.1745H5.4165ZM9.33317 18.2578H18.6665V16.7578H9.33317V18.2578ZM18.6665 18.2578C20.819 18.2578 22.5832 20.022 22.5832 22.1745H24.0832C24.0832 19.1936 21.6474 16.7578 18.6665 16.7578V18.2578ZM22.5832 22.1745V23.3411H24.0832V22.1745H22.5832ZM22.5832 23.3411C22.5832 23.5686 22.394 23.7578 22.1665 23.7578V25.2578C23.2224 25.2578 24.0832 24.397 24.0832 23.3411H22.5832Z" fill="#323232"/>
</svg>
