<svg width="12" height="12" viewBox="0 0 12 12" fill="none" xmlns="http://www.w3.org/2000/svg">
<path d="M5.21041 6.78963C4.70591 6.28513 4.78491 5.41813 5.44791 5.02763C5.78241 4.83063 6.21741 4.83063 6.55191 5.02763C7.21441 5.41813 7.29391 6.28513 6.78941 6.78963" stroke="#868E96" stroke-width="0.75" stroke-linecap="round" stroke-linejoin="round"/>
<path d="M6.78945 6.78963C6.35345 7.22562 5.64645 7.22562 5.21045 6.78963" stroke="#868E96" stroke-width="0.75" stroke-linecap="round" stroke-linejoin="round"/>
<path d="M2.58055 8.91962C1.06855 7.15112 1.14555 4.49112 2.81805 2.81813C4.57555 1.06062 7.42455 1.06062 9.18205 2.81813C10.855 4.49112 10.9315 7.15162 9.41955 8.91962" stroke="#868E96" stroke-width="0.75" stroke-linecap="round" stroke-linejoin="round"/>
<path d="M3.83044 7.6695C2.99994 6.591 3.06744 5.0435 4.05544 4.0555C5.12944 2.9815 6.87044 2.9815 7.94444 4.0555C8.93294 5.044 8.99994 6.591 8.16894 7.6695" stroke="#868E96" stroke-width="0.75" stroke-linecap="round" stroke-linejoin="round"/>
<path fill-rule="evenodd" clip-rule="evenodd" d="M3.99487 10.0065C4.25237 9.138 5.04737 8.5 5.99987 8.5C6.95237 8.5 7.74737 9.138 8.00487 10.0065C6.74237 10.6385 5.25737 10.638 3.99487 10.0065Z" stroke="#868E96" stroke-width="0.75" stroke-linecap="round" stroke-linejoin="round"/>
</svg>
