<svg width="11" height="11" viewBox="0 0 11 11" fill="none" xmlns="http://www.w3.org/2000/svg">
<path d="M6.07364 0.336227C5.85849 0.121008 5.56666 6.49933e-05 5.26234 0H1.14729C0.842944 0 0.551064 0.1209 0.33586 0.336104C0.120656 0.551308 -0.000244141 0.843188 -0.000244141 1.14753V5.26258C-0.000179147 5.5669 0.120764 5.85874 0.335983 6.07389L4.92611 10.664C5.14131 10.8791 5.43313 11 5.73742 11C6.0417 11 6.33353 10.8791 6.54872 10.664L10.6638 6.54897C10.8789 6.33377 10.9998 6.04195 10.9998 5.73766C10.9998 5.43338 10.8789 5.14155 10.6638 4.92636L6.07364 0.336227ZM2.86859 4.01636C2.56417 4.01629 2.27224 3.89528 2.05704 3.67997C1.84184 3.46466 1.72098 3.17268 1.72105 2.86826C1.72113 2.56384 1.84213 2.27191 2.05745 2.05671C2.27276 1.84151 2.56474 1.72065 2.86916 1.72072C3.17358 1.7208 3.4655 1.8418 3.68071 2.05712C3.89591 2.27243 4.01677 2.56441 4.01669 2.86883C4.01662 3.17325 3.89561 3.46517 3.6803 3.68038C3.46499 3.89558 3.17301 4.01644 2.86859 4.01636Z" fill="#C2C2C2"/>
</svg>
