<svg width="34" height="35" viewBox="0 0 34 35" fill="none" xmlns="http://www.w3.org/2000/svg">
<path d="M31.0554 13.2778L27.4165 14.6667" stroke="#CD9403" stroke-width="2.16667" stroke-linecap="round" stroke-linejoin="round"/>
<path d="M6.93037 14.6667L3.27759 13.2778" stroke="#CD9403" stroke-width="2.16667" stroke-linecap="round" stroke-linejoin="round"/>
<path d="M25.847 20.2223H22.3748" stroke="#CD9403" stroke-width="2.16667" stroke-linecap="round" stroke-linejoin="round"/>
<path d="M11.9581 20.2223H8.48584" stroke="#CD9403" stroke-width="2.16667" stroke-linecap="round" stroke-linejoin="round"/>
<path d="M27.4149 14.6668L26.2496 9.09461C25.9121 7.48627 24.4941 6.3335 22.8496 6.3335H11.6274C10.0149 6.3335 8.61353 7.44461 8.24686 9.01544L6.92603 14.6668" stroke="#CD9403" stroke-width="2.16667" stroke-linecap="round" stroke-linejoin="round"/>
<path fill-rule="evenodd" clip-rule="evenodd" d="M5.0137 28.5556H8.1387C9.2887 28.5556 10.222 27.6223 10.222 26.4723V25.0834H24.1109V26.4723C24.1109 27.6223 25.0443 28.5556 26.1943 28.5556H29.3193C30.2776 28.5556 31.0554 27.7779 31.0554 26.8195V18.8334C31.0554 16.532 29.1901 14.6667 26.8887 14.6667H7.44425C5.14287 14.6667 3.27759 16.532 3.27759 18.8334V26.8195C3.27759 27.7779 4.05537 28.5556 5.0137 28.5556Z" stroke="#CD9403" stroke-width="2.16667" stroke-linecap="round" stroke-linejoin="round"/>
</svg>
