<svg width="38" height="11" viewBox="0 0 38 11" fill="none" xmlns="http://www.w3.org/2000/svg">
<rect width="37.5463" height="11" rx="4.4" fill="#FBBC1B" fill-opacity="0.9"/>
<path d="M10.4079 7L9.12116 3.36888H9.74015L10.7929 6.46874H10.6711L11.719 3.36888H12.338L11.0513 7H10.4079ZM13.658 7.05849C13.3948 7.05849 13.1609 6.99838 12.9562 6.87815C12.7547 6.75468 12.5971 6.58896 12.4834 6.381C12.3697 6.1698 12.3128 5.93422 12.3128 5.67428C12.3128 5.40783 12.3697 5.17226 12.4834 4.96755C12.6004 4.76284 12.7564 4.602 12.9513 4.48502C13.1463 4.3648 13.3672 4.30469 13.6142 4.30469C13.8124 4.30469 13.9895 4.3388 14.1454 4.40704C14.3014 4.47528 14.433 4.56951 14.5402 4.68973C14.6475 4.80671 14.7287 4.94155 14.7839 5.09427C14.8424 5.24699 14.8717 5.40946 14.8717 5.58167C14.8717 5.62391 14.87 5.66778 14.8668 5.71327C14.8635 5.75876 14.857 5.801 14.8473 5.83999H12.7466V5.40133H14.5354L14.2722 5.60117C14.3047 5.44195 14.2933 5.3006 14.238 5.17713C14.1861 5.05041 14.1048 4.9513 13.9943 4.87982C13.8871 4.80508 13.7604 4.76772 13.6142 4.76772C13.468 4.76772 13.338 4.80508 13.2243 4.87982C13.1105 4.9513 13.0228 5.05528 12.9611 5.19175C12.8993 5.32497 12.875 5.48744 12.8879 5.67915C12.8717 5.85786 12.8961 6.01383 12.9611 6.14705C13.0293 6.28027 13.1235 6.38425 13.2437 6.45899C13.3672 6.53372 13.5069 6.57109 13.6629 6.57109C13.8221 6.57109 13.957 6.53535 14.0675 6.46386C14.1812 6.39238 14.2705 6.29977 14.3355 6.18604L14.7839 6.40537C14.7319 6.52885 14.6507 6.64095 14.5402 6.74168C14.433 6.83916 14.303 6.91714 14.1503 6.97563C14.0008 7.03087 13.8368 7.05849 13.658 7.05849ZM15.3604 7V3.31039H15.9112V4.87982L15.8235 4.81158C15.8884 4.64587 15.9924 4.52077 16.1354 4.43628C16.2784 4.34855 16.4441 4.30469 16.6325 4.30469C16.8275 4.30469 16.9997 4.34693 17.1492 4.43141C17.2987 4.51589 17.4156 4.63287 17.5001 4.78234C17.5846 4.93181 17.6268 5.1024 17.6268 5.29411V7H17.0809V5.4452C17.0809 5.31198 17.055 5.19988 17.003 5.10889C16.9542 5.01466 16.886 4.94318 16.7983 4.89444C16.7105 4.84245 16.6098 4.81645 16.4961 4.81645C16.3856 4.81645 16.2849 4.84245 16.1939 4.89444C16.1061 4.94318 16.0363 5.01466 15.9843 5.10889C15.9356 5.20312 15.9112 5.31523 15.9112 5.4452V7H15.3604ZM18.1675 7V4.36317H18.7183V7H18.1675ZM18.1675 4.0025V3.36888H18.7183V4.0025H18.1675ZM20.5661 7.05849C20.3029 7.05849 20.069 6.99838 19.8643 6.87815C19.6628 6.75468 19.502 6.58896 19.3817 6.381C19.2648 6.17305 19.2063 5.93747 19.2063 5.67428C19.2063 5.41433 19.2648 5.18038 19.3817 4.97242C19.4987 4.76447 19.6596 4.602 19.8643 4.48502C20.069 4.3648 20.3029 4.30469 20.5661 4.30469C20.7448 4.30469 20.9122 4.33718 21.0681 4.40217C21.2241 4.4639 21.3589 4.55001 21.4727 4.66049C21.5896 4.77096 21.6758 4.89931 21.731 5.04553L21.2485 5.26974C21.1932 5.13326 21.1039 5.02441 20.9804 4.94318C20.8602 4.8587 20.7221 4.81645 20.5661 4.81645C20.4166 4.81645 20.2818 4.85382 20.1616 4.92856C20.0446 5.00004 19.952 5.1024 19.8838 5.23562C19.8155 5.36559 19.7814 5.51343 19.7814 5.67915C19.7814 5.84487 19.8155 5.99433 19.8838 6.12756C19.952 6.25753 20.0446 6.35988 20.1616 6.43462C20.2818 6.50935 20.4166 6.54672 20.5661 6.54672C20.7253 6.54672 20.8634 6.5061 20.9804 6.42487C21.1006 6.34039 21.19 6.22829 21.2485 6.08856L21.731 6.31764C21.679 6.45736 21.5945 6.58409 21.4775 6.69781C21.3638 6.80829 21.229 6.89602 21.073 6.96101C20.917 7.02599 20.7481 7.05849 20.5661 7.05849ZM22.2206 7V3.31039H22.7713V7H22.2206ZM24.6045 7.05849C24.3413 7.05849 24.1074 6.99838 23.9027 6.87815C23.7012 6.75468 23.5436 6.58896 23.4299 6.381C23.3162 6.1698 23.2593 5.93422 23.2593 5.67428C23.2593 5.40783 23.3162 5.17226 23.4299 4.96755C23.5469 4.76284 23.7028 4.602 23.8978 4.48502C24.0927 4.3648 24.3137 4.30469 24.5606 4.30469C24.7589 4.30469 24.9359 4.3388 25.0919 4.40704C25.2479 4.47528 25.3795 4.56951 25.4867 4.68973C25.5939 4.80671 25.6752 4.94155 25.7304 5.09427C25.7889 5.24699 25.8181 5.40946 25.8181 5.58167C25.8181 5.62391 25.8165 5.66778 25.8133 5.71327C25.81 5.75876 25.8035 5.801 25.7938 5.83999H23.6931V5.40133H25.4818L25.2186 5.60117C25.2511 5.44195 25.2398 5.3006 25.1845 5.17713C25.1325 5.05041 25.0513 4.9513 24.9408 4.87982C24.8336 4.80508 24.7069 4.76772 24.5606 4.76772C24.4144 4.76772 24.2845 4.80508 24.1707 4.87982C24.057 4.9513 23.9693 5.05528 23.9075 5.19175C23.8458 5.32497 23.8214 5.48744 23.8344 5.67915C23.8182 5.85786 23.8425 6.01383 23.9075 6.14705C23.9758 6.28027 24.07 6.38425 24.1902 6.45899C24.3137 6.53372 24.4534 6.57109 24.6094 6.57109C24.7686 6.57109 24.9034 6.53535 25.0139 6.46386C25.1277 6.39238 25.217 6.29977 25.282 6.18604L25.7304 6.40537C25.6784 6.52885 25.5972 6.64095 25.4867 6.74168C25.3795 6.83916 25.2495 6.91714 25.0968 6.97563C24.9473 7.03087 24.7832 7.05849 24.6045 7.05849ZM27.2817 7.05849C27.012 7.05849 26.7748 6.99188 26.5701 6.85865C26.3686 6.72543 26.2273 6.54672 26.1461 6.32252L26.5701 6.12268C26.6416 6.27215 26.7391 6.39075 26.8625 6.47848C26.9893 6.56622 27.129 6.61008 27.2817 6.61008C27.4117 6.61008 27.5173 6.58084 27.5985 6.52235C27.6797 6.46386 27.7204 6.38425 27.7204 6.28352C27.7204 6.21854 27.7025 6.16655 27.6667 6.12756C27.631 6.08532 27.5855 6.0512 27.5303 6.0252C27.4783 5.99921 27.4247 5.97971 27.3694 5.96672L26.9551 5.84974C26.7277 5.78475 26.5571 5.68727 26.4434 5.5573C26.3329 5.42408 26.2777 5.26974 26.2777 5.09427C26.2777 4.93506 26.3183 4.79696 26.3995 4.67998C26.4807 4.55976 26.5928 4.46715 26.7358 4.40217C26.8788 4.33718 27.0396 4.30469 27.2183 4.30469C27.4588 4.30469 27.6732 4.3648 27.8617 4.48502C28.0502 4.602 28.1834 4.76609 28.2614 4.9773L27.8373 5.17713C27.7853 5.05041 27.7025 4.94968 27.5888 4.87494C27.4783 4.80021 27.3532 4.76284 27.2135 4.76284C27.0932 4.76284 26.9974 4.79209 26.9259 4.85057C26.8544 4.90581 26.8187 4.97892 26.8187 5.0699C26.8187 5.13164 26.8349 5.18363 26.8674 5.22587C26.8999 5.26486 26.9421 5.29735 26.9941 5.32335C27.0461 5.34609 27.0997 5.36559 27.155 5.38184L27.5839 5.50856C27.8016 5.5703 27.9689 5.66778 28.0859 5.801C28.2029 5.93097 28.2614 6.08694 28.2614 6.2689C28.2614 6.42487 28.2191 6.56297 28.1346 6.68319C28.0534 6.80017 27.9397 6.89277 27.7935 6.96101C27.6472 7.02599 27.4767 7.05849 27.2817 7.05849Z" fill="#705102"/>
</svg>
