<svg width="25" height="25" viewBox="0 0 25 25" fill="none" xmlns="http://www.w3.org/2000/svg">
<path fill-rule="evenodd" clip-rule="evenodd" d="M18.3236 6.61572C16.6839 4.98506 14.5033 4.08607 12.1802 4.08508C7.39163 4.08508 3.49561 7.95529 3.49462 12.7126C3.49262 14.2264 3.89209 15.7145 4.65316 17.0264L3.4209 21.4976L8.0252 20.2976C9.2993 20.9867 10.7258 21.3481 12.1762 21.3481H12.1802C16.9668 21.3481 20.8628 17.4769 20.8648 12.7195C20.8658 10.4146 19.9633 8.24737 18.3236 6.61572Z" stroke="#FFF9E9" stroke-width="1.48512" stroke-linecap="round" stroke-linejoin="round"/>
<path d="M13.2344 14.3364L13.6388 13.9374C14.0104 13.571 14.5981 13.5245 15.0265 13.8235C15.4409 14.1126 15.8155 14.372 16.1641 14.6136C16.718 14.9958 16.7847 15.7799 16.3076 16.2532L15.9499 16.6086" stroke="#FFF9E9" stroke-width="1.48512" stroke-linecap="round" stroke-linejoin="round"/>
<path d="M8.30322 9.00871L8.66085 8.65327C9.13702 8.18002 9.92598 8.24635 10.3105 8.79585C10.5526 9.14237 10.8136 9.51464 11.1054 9.92651C11.4063 10.3522 11.3605 10.9364 10.9909 11.3057L10.5894 11.7077" stroke="#FFF9E9" stroke-width="1.48512" stroke-linecap="round" stroke-linejoin="round"/>
<path d="M15.9499 16.6085C14.4745 18.0679 11.9951 16.8283 10.0376 14.8818" stroke="#FFF9E9" stroke-width="1.48512" stroke-linecap="round" stroke-linejoin="round"/>
<path d="M10.0396 14.8849C8.08209 12.9384 6.83489 10.4751 8.30324 9.00879" stroke="#FFF9E9" stroke-width="1.48512" stroke-linecap="round" stroke-linejoin="round"/>
<path d="M10.5894 11.7076C10.9071 12.2057 11.3146 12.6987 11.7748 13.1561L11.7768 13.1581C12.237 13.6155 12.7331 14.0205 13.2342 14.3363" stroke="#FFF9E9" stroke-width="1.48512" stroke-linecap="round" stroke-linejoin="round"/>
</svg>
